G04*
G04 #@! TF.GenerationSoftware,Altium Limited,Altium Designer,23.10.1 (27)*
G04*
G04 Layer_Color=8388736*
%FSLAX44Y44*%
%MOMM*%
G71*
G04*
G04 #@! TF.SameCoordinates,CD13E35F-318D-4E2D-A327-3576DA5FE6F9*
G04*
G04*
G04 #@! TF.FilePolarity,Negative*
G04*
G01*
G75*
%ADD15R,1.5000X1.5000*%
%ADD16R,1.2557X1.7582*%
%ADD17R,1.5057X1.8582*%
%ADD19R,1.5000X1.5000*%
%ADD20R,1.8582X1.5057*%
%ADD23R,1.7582X1.2557*%
%ADD24R,1.5500X1.3000*%
%ADD27R,1.6000X2.8000*%
G04:AMPARAMS|DCode=28|XSize=1.46mm|YSize=0.77mm|CornerRadius=0.1525mm|HoleSize=0mm|Usage=FLASHONLY|Rotation=90.000|XOffset=0mm|YOffset=0mm|HoleType=Round|Shape=RoundedRectangle|*
%AMROUNDEDRECTD28*
21,1,1.4600,0.4650,0,0,90.0*
21,1,1.1550,0.7700,0,0,90.0*
1,1,0.3050,0.2325,0.5775*
1,1,0.3050,0.2325,-0.5775*
1,1,0.3050,-0.2325,-0.5775*
1,1,0.3050,-0.2325,0.5775*
%
%ADD28ROUNDEDRECTD28*%
%ADD29R,3.1500X0.8500*%
%ADD30R,6.1900X3.5500*%
%ADD31O,0.7500X2.1000*%
%ADD32O,2.1000X0.7500*%
%ADD33C,1.5700*%
%ADD34R,1.5700X1.5700*%
%ADD35R,1.8500X1.8500*%
%ADD36C,1.8500*%
%ADD37C,1.3500*%
%ADD38C,1.4500*%
%ADD39C,2.1000*%
G04:AMPARAMS|DCode=40|XSize=2.1mm|YSize=2.1mm|CornerRadius=0.5625mm|HoleSize=0mm|Usage=FLASHONLY|Rotation=90.000|XOffset=0mm|YOffset=0mm|HoleType=Round|Shape=RoundedRectangle|*
%AMROUNDEDRECTD40*
21,1,2.1000,0.9750,0,0,90.0*
21,1,0.9750,2.1000,0,0,90.0*
1,1,1.1250,0.4875,0.4875*
1,1,1.1250,0.4875,-0.4875*
1,1,1.1250,-0.4875,-0.4875*
1,1,1.1250,-0.4875,0.4875*
%
%ADD40ROUNDEDRECTD40*%
%ADD41R,1.5500X1.5500*%
%ADD42C,1.5500*%
%ADD43R,1.5500X1.5500*%
%ADD44R,1.3500X1.3500*%
%ADD45C,4.1500*%
%ADD46C,0.7000*%
%ADD47C,1.4200*%
D15*
X843280Y533400D02*
D03*
X808280D02*
D03*
D16*
X807678Y505460D02*
D03*
X835702D02*
D03*
X412835Y543560D02*
D03*
X384810D02*
D03*
X703538Y466090D02*
D03*
X731562D02*
D03*
X689652Y358140D02*
D03*
X661628D02*
D03*
X688425Y415290D02*
D03*
X660400D02*
D03*
X642662Y516890D02*
D03*
X614638D02*
D03*
X642662Y568960D02*
D03*
X614638D02*
D03*
D17*
X446248Y577850D02*
D03*
X475772D02*
D03*
X444978Y509270D02*
D03*
X474502D02*
D03*
X357348Y285750D02*
D03*
X386872D02*
D03*
X576265Y299720D02*
D03*
X605790D02*
D03*
X570708Y482600D02*
D03*
X600232D02*
D03*
X655798Y300990D02*
D03*
X685322D02*
D03*
D19*
X415290Y394690D02*
D03*
Y359690D02*
D03*
D20*
X422910Y282418D02*
D03*
Y311942D02*
D03*
X582930Y523718D02*
D03*
Y553242D02*
D03*
D23*
X415290Y430488D02*
D03*
Y458512D02*
D03*
D24*
X850010Y425810D02*
D03*
X770510D02*
D03*
X850010Y470810D02*
D03*
X770510D02*
D03*
D27*
X594360Y427900D02*
D03*
Y384900D02*
D03*
D28*
X457200Y385250D02*
D03*
X482600Y440250D02*
D03*
X444500Y385250D02*
D03*
X469900D02*
D03*
X482600D02*
D03*
X469900Y440250D02*
D03*
X495300D02*
D03*
X508000D02*
D03*
Y385250D02*
D03*
X533400Y440250D02*
D03*
X495300Y385250D02*
D03*
X520700D02*
D03*
Y440250D02*
D03*
X533400Y385250D02*
D03*
X457200Y440250D02*
D03*
X444500D02*
D03*
D29*
X360830Y414360D02*
D03*
Y401860D02*
D03*
Y426860D02*
D03*
Y389360D02*
D03*
D30*
X296830Y340110D02*
D03*
Y476110D02*
D03*
D31*
X700980Y503600D02*
D03*
X708980D02*
D03*
X716980D02*
D03*
X724980D02*
D03*
X732980D02*
D03*
X740980D02*
D03*
X748980D02*
D03*
X756980D02*
D03*
Y588600D02*
D03*
X748980D02*
D03*
X740980D02*
D03*
X732980D02*
D03*
X724980D02*
D03*
X716980D02*
D03*
X708980D02*
D03*
X700980D02*
D03*
D32*
X771480Y518100D02*
D03*
Y526100D02*
D03*
Y534100D02*
D03*
Y542100D02*
D03*
Y550100D02*
D03*
Y558100D02*
D03*
Y566100D02*
D03*
Y574100D02*
D03*
X686480D02*
D03*
Y566100D02*
D03*
Y558100D02*
D03*
Y550100D02*
D03*
Y542100D02*
D03*
Y534100D02*
D03*
Y526100D02*
D03*
Y518100D02*
D03*
D33*
X863600Y613410D02*
D03*
X838200D02*
D03*
X812800D02*
D03*
X863600Y588010D02*
D03*
X838200D02*
D03*
X474980Y287020D02*
D03*
X500380D02*
D03*
X525780D02*
D03*
X474980Y312420D02*
D03*
X500380D02*
D03*
D34*
X812800Y588010D02*
D03*
X525780Y312420D02*
D03*
D35*
X412750Y595630D02*
D03*
D36*
X387350D02*
D03*
D37*
X525780Y561610D02*
D03*
Y512810D02*
D03*
X735330Y363760D02*
D03*
D38*
X290830Y435610D02*
D03*
Y380610D02*
D03*
D39*
X909320Y450850D02*
D03*
Y366470D02*
D03*
D40*
Y415850D02*
D03*
Y331470D02*
D03*
D41*
X924730Y544630D02*
D03*
X326220Y532330D02*
D03*
D42*
X924730Y519630D02*
D03*
X798830Y314960D02*
D03*
X326220Y557330D02*
D03*
D43*
X823830Y314960D02*
D03*
D44*
X735330D02*
D03*
D45*
X285750Y283210D02*
D03*
Y604520D02*
D03*
X924560Y284480D02*
D03*
X925830Y604520D02*
D03*
D46*
X940001Y500000D02*
D03*
Y380000D02*
D03*
X930001Y360000D02*
D03*
X900001Y620000D02*
D03*
Y580000D02*
D03*
X910001Y560000D02*
D03*
X900001Y300000D02*
D03*
X890001Y560000D02*
D03*
Y520000D02*
D03*
X880001Y460000D02*
D03*
X890001Y440000D02*
D03*
X880001Y420000D02*
D03*
Y340000D02*
D03*
X890001Y280000D02*
D03*
X870001Y560000D02*
D03*
Y520000D02*
D03*
Y440000D02*
D03*
X850001Y560000D02*
D03*
Y360000D02*
D03*
X840001Y340000D02*
D03*
X850001Y320000D02*
D03*
X840001Y300000D02*
D03*
X830000Y440000D02*
D03*
Y400000D02*
D03*
Y360000D02*
D03*
X820000Y340000D02*
D03*
X810000Y360000D02*
D03*
X790000Y440000D02*
D03*
Y400000D02*
D03*
Y360000D02*
D03*
X780000Y300000D02*
D03*
X790000Y280000D02*
D03*
X770000Y400000D02*
D03*
Y360000D02*
D03*
Y320000D02*
D03*
X760000Y300000D02*
D03*
X770000Y280000D02*
D03*
X750000D02*
D03*
X730000Y560000D02*
D03*
X720000Y540000D02*
D03*
X730000Y400000D02*
D03*
Y280000D02*
D03*
X710000Y560000D02*
D03*
Y400000D02*
D03*
Y360000D02*
D03*
Y320000D02*
D03*
X680000Y620000D02*
D03*
X670000Y440000D02*
D03*
Y320000D02*
D03*
X650000D02*
D03*
X630000Y600000D02*
D03*
Y320000D02*
D03*
X600000Y540000D02*
D03*
X610000Y320000D02*
D03*
X580000Y580000D02*
D03*
X590000Y320000D02*
D03*
X560000Y620000D02*
D03*
X540000D02*
D03*
Y580000D02*
D03*
Y540000D02*
D03*
X520000Y620000D02*
D03*
Y540000D02*
D03*
X500000Y620000D02*
D03*
X480000D02*
D03*
X460000D02*
D03*
Y540000D02*
D03*
Y420000D02*
D03*
X440000Y620000D02*
D03*
Y540000D02*
D03*
X450000Y480000D02*
D03*
X420000Y620000D02*
D03*
X430000Y560000D02*
D03*
Y480000D02*
D03*
X400000Y620000D02*
D03*
Y500000D02*
D03*
X380000Y620000D02*
D03*
X390000Y520000D02*
D03*
X380000Y500000D02*
D03*
X390000Y480000D02*
D03*
X380000Y460000D02*
D03*
X360000Y620000D02*
D03*
X370000Y600000D02*
D03*
X360000Y580000D02*
D03*
X370000Y560000D02*
D03*
Y520000D02*
D03*
X360000Y500000D02*
D03*
X370000Y480000D02*
D03*
X360000Y460000D02*
D03*
X370000Y440000D02*
D03*
Y360000D02*
D03*
X360000Y340000D02*
D03*
X370000Y320000D02*
D03*
X340000Y620000D02*
D03*
X350000Y600000D02*
D03*
X340000Y580000D02*
D03*
X350000Y560000D02*
D03*
Y520000D02*
D03*
X340000Y500000D02*
D03*
X350000Y480000D02*
D03*
X340000Y460000D02*
D03*
X350000Y440000D02*
D03*
Y360000D02*
D03*
X340000Y340000D02*
D03*
X350000Y320000D02*
D03*
X340000Y300000D02*
D03*
X320000Y620000D02*
D03*
X330000Y600000D02*
D03*
X320000Y580000D02*
D03*
X330000Y440000D02*
D03*
X320000Y420000D02*
D03*
X330000Y400000D02*
D03*
X320000Y380000D02*
D03*
Y300000D02*
D03*
X330000Y280000D02*
D03*
X300000Y540000D02*
D03*
X310000Y520000D02*
D03*
Y440000D02*
D03*
X300000Y420000D02*
D03*
X310000Y400000D02*
D03*
X290000Y560000D02*
D03*
X280000Y540000D02*
D03*
X290000Y520000D02*
D03*
X280000Y420000D02*
D03*
X290000Y400000D02*
D03*
X270000Y560000D02*
D03*
Y520000D02*
D03*
Y440000D02*
D03*
Y400000D02*
D03*
D47*
X664210Y556260D02*
D03*
Y575310D02*
D03*
X659130Y594360D02*
D03*
X525780Y463550D02*
D03*
X571500Y351790D02*
D03*
X539750Y361950D02*
D03*
X478790Y553720D02*
D03*
X477520Y533400D02*
D03*
X520700Y360680D02*
D03*
X494030Y347980D02*
D03*
X506730Y339090D02*
D03*
X542290Y464820D02*
D03*
X482600Y360680D02*
D03*
X444500D02*
D03*
X482600Y467360D02*
D03*
X448310Y284480D02*
D03*
X924560Y478790D02*
D03*
X829310Y275590D02*
D03*
X777240Y497840D02*
D03*
X642620Y614680D02*
D03*
X640080Y356870D02*
D03*
X681990Y471170D02*
D03*
X641350Y431800D02*
D03*
X849630Y398780D02*
D03*
X800100Y384810D02*
D03*
X656590Y535940D02*
D03*
X388620Y431800D02*
D03*
Y411480D02*
D03*
M02*
