G04*
G04 #@! TF.GenerationSoftware,Altium Limited,Altium Designer,23.10.1 (27)*
G04*
G04 Layer_Physical_Order=2*
G04 Layer_Color=16711680*
%FSLAX44Y44*%
%MOMM*%
G71*
G04*
G04 #@! TF.SameCoordinates,CD13E35F-318D-4E2D-A327-3576DA5FE6F9*
G04*
G04*
G04 #@! TF.FilePolarity,Positive*
G04*
G01*
G75*
%ADD33C,1.5700*%
%ADD34R,1.5700X1.5700*%
%ADD41R,1.5500X1.5500*%
%ADD42C,1.5500*%
%ADD43R,1.5500X1.5500*%
%ADD48C,0.3200*%
%ADD49R,1.7000X1.7000*%
%ADD50C,1.7000*%
%ADD51C,1.2000*%
%ADD52C,1.3000*%
%ADD53C,1.9500*%
G04:AMPARAMS|DCode=54|XSize=1.95mm|YSize=1.95mm|CornerRadius=0.4875mm|HoleSize=0mm|Usage=FLASHONLY|Rotation=90.000|XOffset=0mm|YOffset=0mm|HoleType=Round|Shape=RoundedRectangle|*
%AMROUNDEDRECTD54*
21,1,1.9500,0.9750,0,0,90.0*
21,1,0.9750,1.9500,0,0,90.0*
1,1,0.9750,0.4875,0.4875*
1,1,0.9750,0.4875,-0.4875*
1,1,0.9750,-0.4875,-0.4875*
1,1,0.9750,-0.4875,0.4875*
%
%ADD54ROUNDEDRECTD54*%
%ADD55R,1.2000X1.2000*%
%ADD56C,4.0000*%
%ADD57C,0.5500*%
%ADD58C,1.2700*%
G36*
X955541Y256039D02*
X256039D01*
Y630421D01*
X955541D01*
Y256039D01*
D02*
G37*
%LPC*%
G36*
X864801Y622530D02*
X864235D01*
Y614045D01*
X872720D01*
Y614611D01*
X872098Y616930D01*
X870898Y619010D01*
X869200Y620708D01*
X867120Y621908D01*
X864801Y622530D01*
D02*
G37*
G36*
X862965D02*
X862399D01*
X860080Y621908D01*
X858000Y620708D01*
X856302Y619010D01*
X855101Y616930D01*
X854480Y614611D01*
Y614045D01*
X862965D01*
Y622530D01*
D02*
G37*
G36*
X643623Y622300D02*
X641617D01*
X639679Y621781D01*
X637941Y620778D01*
X636522Y619359D01*
X635519Y617621D01*
X635515Y617606D01*
X589280D01*
X588160Y617383D01*
X587211Y616749D01*
X556646Y586185D01*
X555376Y586711D01*
Y595630D01*
X555154Y596750D01*
X554519Y597699D01*
X541819Y610399D01*
X540870Y611034D01*
X539750Y611256D01*
X425450D01*
X424330Y611034D01*
X423381Y610399D01*
X418382Y605400D01*
X402980D01*
Y585860D01*
X422520D01*
Y601262D01*
X426662Y605404D01*
X538538D01*
X549524Y594418D01*
Y504132D01*
X523711Y478319D01*
X523077Y477370D01*
X522854Y476250D01*
Y470655D01*
X522839Y470651D01*
X521101Y469647D01*
X519683Y468229D01*
X518679Y466491D01*
X518160Y464553D01*
Y462547D01*
X518679Y460609D01*
X519683Y458871D01*
X521101Y457453D01*
X522839Y456449D01*
X524777Y455930D01*
X526783D01*
X528721Y456449D01*
X530459Y457453D01*
X531878Y458871D01*
X532881Y460609D01*
X533400Y462547D01*
Y464553D01*
X532881Y466491D01*
X531878Y468229D01*
X530459Y469647D01*
X528721Y470651D01*
X528706Y470655D01*
Y475038D01*
X553334Y499665D01*
X554604Y499139D01*
Y381000D01*
X554827Y379880D01*
X555461Y378931D01*
X574093Y360299D01*
X573435Y359160D01*
X572503Y359410D01*
X570497D01*
X568559Y358891D01*
X566821Y357887D01*
X565402Y356469D01*
X564399Y354731D01*
X563880Y352793D01*
Y350787D01*
X564399Y348849D01*
X564407Y348835D01*
X554191Y338619D01*
X553557Y337670D01*
X553334Y336550D01*
Y283152D01*
X538538Y268356D01*
X468572D01*
X455403Y281525D01*
X455411Y281539D01*
X455930Y283477D01*
Y285483D01*
X455411Y287421D01*
X454408Y289159D01*
X452989Y290578D01*
X451251Y291581D01*
X449313Y292100D01*
X447307D01*
X445369Y291581D01*
X443631Y290578D01*
X442212Y289159D01*
X441209Y287421D01*
X440690Y285483D01*
Y283477D01*
X441209Y281539D01*
X442212Y279801D01*
X443631Y278382D01*
X445369Y277379D01*
X447307Y276860D01*
X449313D01*
X451251Y277379D01*
X451265Y277387D01*
X465291Y263361D01*
X466240Y262726D01*
X467360Y262504D01*
X539750D01*
X540870Y262726D01*
X541819Y263361D01*
X558329Y279871D01*
X558964Y280820D01*
X559186Y281940D01*
Y335338D01*
X568545Y344697D01*
X568559Y344689D01*
X570497Y344170D01*
X572503D01*
X574441Y344689D01*
X576179Y345692D01*
X577598Y347111D01*
X578601Y348849D01*
X579120Y350787D01*
Y352793D01*
X578870Y353725D01*
X580009Y354383D01*
X598641Y335751D01*
X599590Y335117D01*
X600710Y334894D01*
X799758D01*
X814810Y319842D01*
Y305940D01*
X832850D01*
Y323980D01*
X818948D01*
X803039Y339889D01*
X802090Y340523D01*
X800970Y340746D01*
X601922D01*
X560456Y382212D01*
Y581718D01*
X590492Y611754D01*
X635515D01*
X635519Y611739D01*
X636522Y610001D01*
X637941Y608582D01*
X639679Y607579D01*
X641617Y607060D01*
X643623D01*
X645561Y607579D01*
X647299Y608582D01*
X648717Y610001D01*
X649721Y611739D01*
X650240Y613677D01*
Y615683D01*
X649721Y617621D01*
X648717Y619359D01*
X647299Y620778D01*
X645561Y621781D01*
X643623Y622300D01*
D02*
G37*
G36*
X927925Y625790D02*
X926465D01*
Y605155D01*
X947100D01*
Y606615D01*
X946283Y610724D01*
X944679Y614595D01*
X942352Y618079D01*
X939389Y621041D01*
X935905Y623369D01*
X932034Y624973D01*
X927925Y625790D01*
D02*
G37*
G36*
X925195D02*
X923735D01*
X919626Y624973D01*
X915755Y623369D01*
X912271Y621041D01*
X909308Y618079D01*
X906981Y614595D01*
X905377Y610724D01*
X904560Y606615D01*
Y605155D01*
X925195D01*
Y625790D01*
D02*
G37*
G36*
X287845D02*
X286385D01*
Y605155D01*
X307020D01*
Y606615D01*
X306203Y610724D01*
X304599Y614595D01*
X302271Y618079D01*
X299309Y621041D01*
X295825Y623369D01*
X291954Y624973D01*
X287845Y625790D01*
D02*
G37*
G36*
X285115D02*
X283655D01*
X279546Y624973D01*
X275675Y623369D01*
X272191Y621041D01*
X269228Y618079D01*
X266901Y614595D01*
X265297Y610724D01*
X264480Y606615D01*
Y605155D01*
X285115D01*
Y625790D01*
D02*
G37*
G36*
X872720Y612775D02*
X864235D01*
Y604290D01*
X864801D01*
X867120Y604911D01*
X869200Y606112D01*
X870898Y607810D01*
X872098Y609890D01*
X872720Y612209D01*
Y612775D01*
D02*
G37*
G36*
X862965D02*
X854480D01*
Y612209D01*
X855101Y609890D01*
X856302Y607810D01*
X858000Y606112D01*
X860080Y604911D01*
X862399Y604290D01*
X862965D01*
Y612775D01*
D02*
G37*
G36*
X839401Y622530D02*
X836999D01*
X834680Y621908D01*
X832600Y620708D01*
X830902Y619010D01*
X829702Y616930D01*
X829080Y614611D01*
Y612209D01*
X829702Y609890D01*
X830902Y607810D01*
X832600Y606112D01*
X834680Y604911D01*
X836999Y604290D01*
X839401D01*
X841720Y604911D01*
X843800Y606112D01*
X845498Y607810D01*
X846699Y609890D01*
X847320Y612209D01*
Y614611D01*
X846699Y616930D01*
X845498Y619010D01*
X843800Y620708D01*
X841720Y621908D01*
X839401Y622530D01*
D02*
G37*
G36*
X814001D02*
X811599D01*
X809280Y621908D01*
X807200Y620708D01*
X805502Y619010D01*
X804302Y616930D01*
X803680Y614611D01*
Y612209D01*
X804302Y609890D01*
X805502Y607810D01*
X807200Y606112D01*
X809280Y604911D01*
X811599Y604290D01*
X814001D01*
X816320Y604911D01*
X818400Y606112D01*
X820098Y607810D01*
X821299Y609890D01*
X821920Y612209D01*
Y614611D01*
X821299Y616930D01*
X820098Y619010D01*
X818400Y620708D01*
X816320Y621908D01*
X814001Y622530D01*
D02*
G37*
G36*
X388636Y605400D02*
X387985D01*
Y596265D01*
X397120D01*
Y596916D01*
X396454Y599401D01*
X395168Y601629D01*
X393349Y603448D01*
X391121Y604734D01*
X388636Y605400D01*
D02*
G37*
G36*
X386715D02*
X386064D01*
X383579Y604734D01*
X381351Y603448D01*
X379532Y601629D01*
X378246Y599401D01*
X377580Y596916D01*
Y596265D01*
X386715D01*
Y605400D01*
D02*
G37*
G36*
X397120Y594995D02*
X387985D01*
Y585860D01*
X388636D01*
X391121Y586526D01*
X393349Y587812D01*
X395168Y589631D01*
X396454Y591859D01*
X397120Y594344D01*
Y594995D01*
D02*
G37*
G36*
X386715D02*
X377580D01*
Y594344D01*
X378246Y591859D01*
X379532Y589631D01*
X381351Y587812D01*
X383579Y586526D01*
X386064Y585860D01*
X386715D01*
Y594995D01*
D02*
G37*
G36*
X947100Y603885D02*
X926465D01*
Y583250D01*
X927925D01*
X932034Y584067D01*
X935905Y585671D01*
X939389Y587999D01*
X942352Y590961D01*
X944679Y594445D01*
X946283Y598316D01*
X947100Y602425D01*
Y603885D01*
D02*
G37*
G36*
X925195D02*
X904560D01*
Y602425D01*
X905377Y598316D01*
X906981Y594445D01*
X909308Y590961D01*
X912271Y587999D01*
X915755Y585671D01*
X919626Y584067D01*
X923735Y583250D01*
X925195D01*
Y603885D01*
D02*
G37*
G36*
X307020D02*
X286385D01*
Y583250D01*
X287845D01*
X291954Y584067D01*
X295825Y585671D01*
X299309Y587999D01*
X302271Y590961D01*
X304599Y594445D01*
X306203Y598316D01*
X307020Y602425D01*
Y603885D01*
D02*
G37*
G36*
X285115D02*
X264480D01*
Y602425D01*
X265297Y598316D01*
X266901Y594445D01*
X269228Y590961D01*
X272191Y587999D01*
X275675Y585671D01*
X279546Y584067D01*
X283655Y583250D01*
X285115D01*
Y603885D01*
D02*
G37*
G36*
X864801Y597130D02*
X862399D01*
X860080Y596508D01*
X858000Y595308D01*
X856302Y593610D01*
X855101Y591530D01*
X854480Y589211D01*
Y586809D01*
X855101Y584490D01*
X856302Y582410D01*
X858000Y580712D01*
X860080Y579511D01*
X862399Y578890D01*
X864801D01*
X867120Y579511D01*
X869200Y580712D01*
X870898Y582410D01*
X872098Y584490D01*
X872720Y586809D01*
Y589211D01*
X872098Y591530D01*
X870898Y593610D01*
X869200Y595308D01*
X867120Y596508D01*
X864801Y597130D01*
D02*
G37*
G36*
X839401D02*
X836999D01*
X834680Y596508D01*
X832600Y595308D01*
X830902Y593610D01*
X829702Y591530D01*
X829080Y589211D01*
Y586809D01*
X829702Y584490D01*
X830902Y582410D01*
X832600Y580712D01*
X834680Y579511D01*
X836999Y578890D01*
X839401D01*
X841720Y579511D01*
X843800Y580712D01*
X845498Y582410D01*
X846699Y584490D01*
X847320Y586809D01*
Y589211D01*
X846699Y591530D01*
X845498Y593610D01*
X843800Y595308D01*
X841720Y596508D01*
X839401Y597130D01*
D02*
G37*
G36*
X821920D02*
X803680D01*
Y578890D01*
X821920D01*
Y597130D01*
D02*
G37*
G36*
X665213Y582930D02*
X663207D01*
X661269Y582411D01*
X659531Y581408D01*
X658112Y579989D01*
X657109Y578251D01*
X656590Y576313D01*
Y574307D01*
X657109Y572369D01*
X657117Y572355D01*
X624041Y539279D01*
X623406Y538330D01*
X623184Y537210D01*
Y370840D01*
X623406Y369720D01*
X624041Y368771D01*
X632987Y359825D01*
X632979Y359811D01*
X632460Y357873D01*
Y355867D01*
X632979Y353929D01*
X633983Y352191D01*
X635401Y350773D01*
X637139Y349769D01*
X639077Y349250D01*
X641083D01*
X643021Y349769D01*
X644759Y350773D01*
X646178Y352191D01*
X647181Y353929D01*
X647700Y355867D01*
Y357873D01*
X647181Y359811D01*
X647173Y359825D01*
X657052Y369704D01*
X729196D01*
X729723Y368434D01*
X729513Y368224D01*
X728555Y366566D01*
X728060Y364717D01*
Y362803D01*
X728555Y360954D01*
X729513Y359296D01*
X730866Y357943D01*
X732524Y356985D01*
X734373Y356490D01*
X736287D01*
X738136Y356985D01*
X739794Y357943D01*
X741147Y359296D01*
X742105Y360954D01*
X742600Y362803D01*
Y364717D01*
X742105Y366566D01*
X741147Y368224D01*
X740938Y368434D01*
X741464Y369704D01*
X822210D01*
X823330Y369926D01*
X824279Y370561D01*
X839412Y385694D01*
X908050D01*
X909170Y385917D01*
X910119Y386551D01*
X938059Y414491D01*
X938693Y415440D01*
X938916Y416560D01*
Y469931D01*
X938693Y471050D01*
X938059Y472000D01*
X932180Y477879D01*
Y479793D01*
X931661Y481731D01*
X930658Y483469D01*
X929373Y484754D01*
X929457Y485321D01*
X929811Y486024D01*
X942398D01*
X948304Y480118D01*
Y341572D01*
X920808Y314076D01*
X887730D01*
X886610Y313853D01*
X885661Y313219D01*
X850958Y278516D01*
X836415D01*
X836411Y278531D01*
X835407Y280269D01*
X833989Y281688D01*
X832251Y282691D01*
X830313Y283210D01*
X828307D01*
X826369Y282691D01*
X824631Y281688D01*
X823213Y280269D01*
X822209Y278531D01*
X821690Y276593D01*
Y274587D01*
X822209Y272649D01*
X823213Y270911D01*
X824631Y269492D01*
X826369Y268489D01*
X828307Y267970D01*
X830313D01*
X832251Y268489D01*
X833989Y269492D01*
X835407Y270911D01*
X836411Y272649D01*
X836415Y272664D01*
X852170D01*
X853290Y272887D01*
X854239Y273521D01*
X888942Y308224D01*
X922020D01*
X923140Y308447D01*
X924089Y309081D01*
X953299Y338291D01*
X953933Y339240D01*
X954156Y340360D01*
Y481330D01*
X953933Y482450D01*
X953299Y483399D01*
X945679Y491019D01*
X944730Y491654D01*
X943610Y491876D01*
X910590D01*
X909470Y491654D01*
X908521Y491019D01*
X903028Y485526D01*
X793692D01*
X784333Y494885D01*
X784341Y494899D01*
X784860Y496837D01*
Y498843D01*
X784341Y500781D01*
X783337Y502519D01*
X781919Y503937D01*
X780181Y504941D01*
X778243Y505460D01*
X776237D01*
X774299Y504941D01*
X772561Y503937D01*
X771143Y502519D01*
X770139Y500781D01*
X769620Y498843D01*
Y496837D01*
X770139Y494899D01*
X771143Y493161D01*
X772561Y491743D01*
X774299Y490739D01*
X776237Y490220D01*
X778243D01*
X780181Y490739D01*
X780195Y490747D01*
X790411Y480531D01*
X791360Y479897D01*
X792480Y479674D01*
X904240D01*
X905360Y479897D01*
X906309Y480531D01*
X911802Y486024D01*
X919309D01*
X919663Y485321D01*
X919747Y484754D01*
X918463Y483469D01*
X917459Y481731D01*
X916940Y479793D01*
Y477787D01*
X917459Y475849D01*
X918463Y474111D01*
X919881Y472692D01*
X921619Y471689D01*
X923557Y471170D01*
X925563D01*
X927501Y471689D01*
X929144Y472638D01*
X933064Y468719D01*
Y417772D01*
X906838Y391546D01*
X854881D01*
X854527Y392249D01*
X854443Y392816D01*
X855727Y394101D01*
X856731Y395839D01*
X857250Y397777D01*
Y399783D01*
X856731Y401721D01*
X855727Y403459D01*
X854309Y404878D01*
X852571Y405881D01*
X850633Y406400D01*
X848627D01*
X846689Y405881D01*
X846675Y405873D01*
X837729Y414819D01*
X836780Y415453D01*
X835660Y415676D01*
X718762D01*
X684916Y449522D01*
Y464065D01*
X684931Y464069D01*
X686669Y465073D01*
X688087Y466491D01*
X689091Y468229D01*
X689610Y470167D01*
Y472173D01*
X689091Y474111D01*
X688087Y475849D01*
X686669Y477267D01*
X684931Y478271D01*
X682993Y478790D01*
X680987D01*
X679049Y478271D01*
X679035Y478263D01*
X668736Y488562D01*
Y550074D01*
X668889Y550163D01*
X670307Y551581D01*
X671311Y553319D01*
X671830Y555257D01*
Y557263D01*
X671311Y559201D01*
X670307Y560939D01*
X668889Y562357D01*
X667151Y563361D01*
X665213Y563880D01*
X663207D01*
X661269Y563361D01*
X659531Y562357D01*
X658112Y560939D01*
X657109Y559201D01*
X656590Y557263D01*
Y555257D01*
X657109Y553319D01*
X658112Y551581D01*
X659531Y550163D01*
X661269Y549159D01*
X662884Y548727D01*
Y542219D01*
X661614Y541693D01*
X661269Y542038D01*
X659531Y543041D01*
X657593Y543560D01*
X655587D01*
X653649Y543041D01*
X651911Y542038D01*
X650492Y540619D01*
X649489Y538881D01*
X648970Y536943D01*
Y534937D01*
X649489Y532999D01*
X650492Y531261D01*
X651911Y529842D01*
X653649Y528839D01*
X653664Y528835D01*
Y505402D01*
X639281Y491019D01*
X638647Y490070D01*
X638424Y488950D01*
Y438905D01*
X638409Y438901D01*
X636671Y437897D01*
X635252Y436479D01*
X634249Y434741D01*
X633730Y432803D01*
Y430797D01*
X634249Y428859D01*
X635252Y427121D01*
X636671Y425703D01*
X638409Y424699D01*
X638424Y424695D01*
Y411480D01*
X638647Y410360D01*
X639281Y409411D01*
X665951Y382741D01*
X666900Y382107D01*
X668020Y381884D01*
X792995D01*
X792999Y381869D01*
X794003Y380131D01*
X795421Y378713D01*
X797159Y377709D01*
X799097Y377190D01*
X801103D01*
X803041Y377709D01*
X804779Y378713D01*
X806198Y380131D01*
X807201Y381869D01*
X807720Y383807D01*
Y385813D01*
X807201Y387751D01*
X806198Y389489D01*
X804779Y390908D01*
X803041Y391911D01*
X801103Y392430D01*
X799097D01*
X797159Y391911D01*
X795421Y390908D01*
X794003Y389489D01*
X792999Y387751D01*
X792995Y387736D01*
X669232D01*
X644276Y412692D01*
Y424695D01*
X644291Y424699D01*
X646029Y425703D01*
X647448Y427121D01*
X648451Y428859D01*
X648970Y430797D01*
Y432803D01*
X648451Y434741D01*
X647448Y436479D01*
X646029Y437897D01*
X644291Y438901D01*
X644276Y438905D01*
Y487738D01*
X658659Y502121D01*
X659294Y503070D01*
X659516Y504190D01*
Y528835D01*
X659531Y528839D01*
X661269Y529842D01*
X661614Y530187D01*
X662884Y529661D01*
Y487350D01*
X663107Y486230D01*
X663741Y485281D01*
X674897Y474125D01*
X674889Y474111D01*
X674370Y472173D01*
Y470167D01*
X674889Y468229D01*
X675892Y466491D01*
X677311Y465073D01*
X679049Y464069D01*
X679064Y464065D01*
Y448310D01*
X679286Y447190D01*
X679921Y446241D01*
X715481Y410681D01*
X716430Y410047D01*
X717550Y409824D01*
X834448D01*
X842537Y401735D01*
X842529Y401721D01*
X842010Y399783D01*
Y397777D01*
X842529Y395839D01*
X843532Y394101D01*
X844817Y392816D01*
X844733Y392249D01*
X844379Y391546D01*
X838200D01*
X837080Y391324D01*
X836131Y390689D01*
X820998Y375556D01*
X655840D01*
X654720Y375334D01*
X653771Y374699D01*
X643035Y363963D01*
X643021Y363971D01*
X641083Y364490D01*
X639077D01*
X637139Y363971D01*
X637125Y363963D01*
X629036Y372052D01*
Y535998D01*
X661255Y568217D01*
X661269Y568209D01*
X663207Y567690D01*
X665213D01*
X667151Y568209D01*
X668889Y569212D01*
X670307Y570631D01*
X671311Y572369D01*
X671830Y574307D01*
Y576313D01*
X671311Y578251D01*
X670307Y579989D01*
X668889Y581408D01*
X667151Y582411D01*
X665213Y582930D01*
D02*
G37*
G36*
X327407Y566350D02*
X326855D01*
Y557965D01*
X335240D01*
Y558517D01*
X334625Y560812D01*
X333438Y562868D01*
X331758Y564548D01*
X329702Y565735D01*
X327407Y566350D01*
D02*
G37*
G36*
X325585D02*
X325033D01*
X322738Y565735D01*
X320682Y564548D01*
X319002Y562868D01*
X317815Y560812D01*
X317200Y558517D01*
Y557965D01*
X325585D01*
Y566350D01*
D02*
G37*
G36*
X526737Y568880D02*
X524823D01*
X522974Y568385D01*
X521316Y567427D01*
X519963Y566074D01*
X519005Y564416D01*
X518510Y562567D01*
Y560653D01*
X519005Y558804D01*
X519963Y557146D01*
X521316Y555793D01*
X522974Y554836D01*
X524823Y554340D01*
X526737D01*
X528586Y554836D01*
X530244Y555793D01*
X531597Y557146D01*
X532555Y558804D01*
X533050Y560653D01*
Y562567D01*
X532555Y564416D01*
X531597Y566074D01*
X530244Y567427D01*
X528586Y568385D01*
X526737Y568880D01*
D02*
G37*
G36*
X335240Y556695D02*
X326855D01*
Y548310D01*
X327407D01*
X329702Y548925D01*
X331758Y550112D01*
X333438Y551792D01*
X334625Y553848D01*
X335240Y556143D01*
Y556695D01*
D02*
G37*
G36*
X325585D02*
X317200D01*
Y556143D01*
X317815Y553848D01*
X319002Y551792D01*
X320682Y550112D01*
X322738Y548925D01*
X325033Y548310D01*
X325585D01*
Y556695D01*
D02*
G37*
G36*
X767080Y616336D02*
X704850D01*
X703730Y616114D01*
X702781Y615479D01*
X684588Y597286D01*
X666235D01*
X666231Y597301D01*
X665228Y599039D01*
X663809Y600457D01*
X662071Y601461D01*
X660133Y601980D01*
X658127D01*
X656189Y601461D01*
X654451Y600457D01*
X653033Y599039D01*
X652029Y597301D01*
X651510Y595363D01*
Y593357D01*
X652029Y591419D01*
X653033Y589681D01*
X654451Y588262D01*
X656189Y587259D01*
X658127Y586740D01*
X660133D01*
X662071Y587259D01*
X663809Y588262D01*
X665228Y589681D01*
X666231Y591419D01*
X666235Y591434D01*
X685800D01*
X686920Y591656D01*
X687869Y592291D01*
X706062Y610484D01*
X765868D01*
X789554Y586798D01*
Y560070D01*
X789777Y558950D01*
X790411Y558001D01*
X803311Y545101D01*
X804260Y544467D01*
X805380Y544244D01*
X915710D01*
Y535610D01*
X933750D01*
Y553650D01*
X915710D01*
Y550096D01*
X806592D01*
X795406Y561282D01*
Y588010D01*
X795183Y589130D01*
X794549Y590079D01*
X769149Y615479D01*
X768200Y616114D01*
X767080Y616336D01*
D02*
G37*
G36*
X335240Y541350D02*
X317200D01*
Y523310D01*
X335240D01*
Y541350D01*
D02*
G37*
G36*
X925918Y528650D02*
X923542D01*
X921248Y528035D01*
X919192Y526848D01*
X917512Y525168D01*
X916325Y523112D01*
X915710Y520817D01*
Y518442D01*
X916325Y516148D01*
X917512Y514092D01*
X919192Y512412D01*
X921248Y511225D01*
X923542Y510610D01*
X925918D01*
X928212Y511225D01*
X930268Y512412D01*
X931948Y514092D01*
X933135Y516148D01*
X933750Y518442D01*
Y520817D01*
X933135Y523112D01*
X931948Y525168D01*
X930268Y526848D01*
X928212Y528035D01*
X925918Y528650D01*
D02*
G37*
G36*
X526737Y520080D02*
X524823D01*
X522974Y519585D01*
X521316Y518628D01*
X519963Y517274D01*
X519005Y515616D01*
X518510Y513767D01*
Y511853D01*
X519005Y510004D01*
X519963Y508346D01*
X521316Y506993D01*
X522974Y506035D01*
X524823Y505540D01*
X526737D01*
X528586Y506035D01*
X530244Y506993D01*
X531597Y508346D01*
X532555Y510004D01*
X533050Y511853D01*
Y513767D01*
X532555Y515616D01*
X531597Y517274D01*
X530244Y518628D01*
X528586Y519585D01*
X526737Y520080D01*
D02*
G37*
G36*
X483603Y474980D02*
X481597D01*
X479659Y474461D01*
X477921Y473457D01*
X476502Y472039D01*
X475499Y470301D01*
X475495Y470286D01*
X448310D01*
X447190Y470064D01*
X446241Y469429D01*
X431001Y454189D01*
X430367Y453240D01*
X430144Y452120D01*
Y372110D01*
X430367Y370990D01*
X431001Y370041D01*
X437407Y363635D01*
X437399Y363621D01*
X436880Y361683D01*
Y359677D01*
X437399Y357739D01*
X438402Y356001D01*
X439821Y354582D01*
X441559Y353579D01*
X443497Y353060D01*
X445503D01*
X447441Y353579D01*
X449179Y354582D01*
X450597Y356001D01*
X451601Y357739D01*
X452120Y359677D01*
Y361683D01*
X451601Y363621D01*
X450597Y365359D01*
X449179Y366777D01*
X447441Y367781D01*
X445503Y368300D01*
X443497D01*
X441559Y367781D01*
X441545Y367773D01*
X435996Y373322D01*
Y450908D01*
X449522Y464434D01*
X475495D01*
X475499Y464419D01*
X476502Y462681D01*
X477921Y461263D01*
X479659Y460259D01*
X481597Y459740D01*
X483603D01*
X485541Y460259D01*
X487279Y461263D01*
X488698Y462681D01*
X489701Y464419D01*
X490220Y466357D01*
Y468363D01*
X489701Y470301D01*
X488698Y472039D01*
X487279Y473457D01*
X485541Y474461D01*
X483603Y474980D01*
D02*
G37*
G36*
X910771Y461870D02*
X907869D01*
X905066Y461119D01*
X902554Y459668D01*
X900502Y457616D01*
X899051Y455104D01*
X898300Y452301D01*
Y449399D01*
X899051Y446596D01*
X900502Y444084D01*
X902554Y442032D01*
X905066Y440581D01*
X907869Y439830D01*
X910771D01*
X913574Y440581D01*
X916086Y442032D01*
X918138Y444084D01*
X919589Y446596D01*
X920340Y449399D01*
Y452301D01*
X919589Y455104D01*
X918138Y457616D01*
X916086Y459668D01*
X913574Y461119D01*
X910771Y461870D01*
D02*
G37*
G36*
X292015Y444610D02*
X289645D01*
X287356Y443997D01*
X285304Y442812D01*
X283628Y441136D01*
X282443Y439084D01*
X281830Y436795D01*
Y434425D01*
X282443Y432136D01*
X283628Y430084D01*
X285304Y428408D01*
X287356Y427223D01*
X289645Y426610D01*
X292015D01*
X294304Y427223D01*
X296356Y428408D01*
X298032Y430084D01*
X299217Y432136D01*
X299830Y434425D01*
Y436795D01*
X299217Y439084D01*
X298032Y441136D01*
X296356Y442812D01*
X294304Y443997D01*
X292015Y444610D01*
D02*
G37*
G36*
X914195Y426990D02*
X904445D01*
X902047Y426513D01*
X900015Y425155D01*
X898656Y423123D01*
X898180Y420725D01*
Y410975D01*
X898656Y408577D01*
X900015Y406545D01*
X902047Y405187D01*
X904445Y404710D01*
X914195D01*
X916593Y405187D01*
X918625Y406545D01*
X919984Y408577D01*
X920460Y410975D01*
Y420725D01*
X919984Y423123D01*
X918625Y425155D01*
X916593Y426513D01*
X914195Y426990D01*
D02*
G37*
G36*
X292015Y389610D02*
X289645D01*
X287356Y388997D01*
X285304Y387812D01*
X283628Y386136D01*
X282443Y384084D01*
X281830Y381795D01*
Y379425D01*
X282443Y377136D01*
X283628Y375084D01*
X285304Y373408D01*
X287356Y372223D01*
X289645Y371610D01*
X292015D01*
X294304Y372223D01*
X296356Y373408D01*
X298032Y375084D01*
X299217Y377136D01*
X299830Y379425D01*
Y381795D01*
X299217Y384084D01*
X298032Y386136D01*
X296356Y387812D01*
X294304Y388997D01*
X292015Y389610D01*
D02*
G37*
G36*
X910771Y377490D02*
X907869D01*
X905066Y376739D01*
X902554Y375288D01*
X900502Y373236D01*
X899051Y370723D01*
X898300Y367921D01*
Y365019D01*
X899051Y362216D01*
X900502Y359703D01*
X902554Y357652D01*
X905066Y356201D01*
X907869Y355450D01*
X910771D01*
X913574Y356201D01*
X916086Y357652D01*
X918138Y359703D01*
X919589Y362216D01*
X920340Y365019D01*
Y367921D01*
X919589Y370723D01*
X918138Y373236D01*
X916086Y375288D01*
X913574Y376739D01*
X910771Y377490D01*
D02*
G37*
G36*
X478523Y541020D02*
X476517D01*
X474579Y540501D01*
X472841Y539497D01*
X471423Y538079D01*
X470419Y536341D01*
X469900Y534403D01*
Y532397D01*
X470419Y530459D01*
X471423Y528721D01*
X472841Y527303D01*
X474579Y526299D01*
X476517Y525780D01*
X478523D01*
X480461Y526299D01*
X480475Y526307D01*
X498724Y508058D01*
Y372110D01*
X498946Y370990D01*
X499581Y370041D01*
X510137Y359485D01*
X511086Y358851D01*
X512206Y358628D01*
X513361D01*
X513599Y357739D01*
X514603Y356001D01*
X516021Y354582D01*
X517759Y353579D01*
X519697Y353060D01*
X521703D01*
X523641Y353579D01*
X525379Y354582D01*
X526797Y356001D01*
X527801Y357739D01*
X528320Y359677D01*
Y361683D01*
X527801Y363621D01*
X526797Y365359D01*
X525379Y366777D01*
X523641Y367781D01*
X521703Y368300D01*
X519697D01*
X517759Y367781D01*
X516021Y366777D01*
X514603Y365359D01*
X514440Y365078D01*
X512971Y364928D01*
X504576Y373322D01*
Y509270D01*
X504353Y510390D01*
X503719Y511339D01*
X484613Y530445D01*
X484621Y530459D01*
X485140Y532397D01*
Y534403D01*
X484621Y536341D01*
X483618Y538079D01*
X482199Y539497D01*
X480461Y540501D01*
X478523Y541020D01*
D02*
G37*
G36*
X479793Y561340D02*
X477787D01*
X475849Y560821D01*
X474111Y559818D01*
X472692Y558399D01*
X471689Y556661D01*
X471170Y554723D01*
Y552717D01*
X471689Y550779D01*
X472692Y549041D01*
X474111Y547622D01*
X475849Y546619D01*
X477787Y546100D01*
X479793D01*
X481731Y546619D01*
X481745Y546627D01*
X510154Y518218D01*
Y427990D01*
X510377Y426870D01*
X511011Y425921D01*
X538094Y398838D01*
Y369395D01*
X536809Y369051D01*
X535071Y368047D01*
X533652Y366629D01*
X532649Y364891D01*
X532130Y362953D01*
Y360947D01*
X532649Y359009D01*
X533652Y357271D01*
X535071Y355853D01*
X536809Y354849D01*
X538747Y354330D01*
X540753D01*
X542691Y354849D01*
X543954Y355578D01*
X544734Y354562D01*
X539808Y349636D01*
X516832D01*
X503719Y362749D01*
X502770Y363383D01*
X501650Y363606D01*
X489705D01*
X489701Y363621D01*
X488698Y365359D01*
X487279Y366777D01*
X485541Y367781D01*
X483603Y368300D01*
X481597D01*
X479659Y367781D01*
X477921Y366777D01*
X476502Y365359D01*
X475499Y363621D01*
X474980Y361683D01*
Y359677D01*
X475499Y357739D01*
X476502Y356001D01*
X477921Y354582D01*
X479659Y353579D01*
X481597Y353060D01*
X483603D01*
X485541Y353579D01*
X487279Y354582D01*
X488698Y356001D01*
X489701Y357739D01*
X489705Y357754D01*
X500438D01*
X511714Y346478D01*
X510934Y345462D01*
X509671Y346191D01*
X507733Y346710D01*
X505727D01*
X503789Y346191D01*
X502565Y345484D01*
X501474Y346321D01*
X501650Y346977D01*
Y348983D01*
X501131Y350921D01*
X500127Y352659D01*
X498709Y354077D01*
X496971Y355081D01*
X495033Y355600D01*
X493027D01*
X491089Y355081D01*
X489351Y354077D01*
X487933Y352659D01*
X486929Y350921D01*
X486410Y348983D01*
Y346977D01*
X486822Y345439D01*
X484669Y343286D01*
X410152D01*
X401706Y351732D01*
Y421640D01*
X401483Y422760D01*
X400849Y423709D01*
X395713Y428845D01*
X395721Y428859D01*
X396240Y430797D01*
Y432803D01*
X395721Y434741D01*
X394717Y436479D01*
X393299Y437897D01*
X391561Y438901D01*
X389623Y439420D01*
X387617D01*
X385679Y438901D01*
X383941Y437897D01*
X382523Y436479D01*
X381519Y434741D01*
X381000Y432803D01*
Y430797D01*
X381519Y428859D01*
X382523Y427121D01*
X383941Y425703D01*
X385679Y424699D01*
X387617Y424180D01*
X389623D01*
X391561Y424699D01*
X391575Y424707D01*
X395854Y420428D01*
Y416731D01*
X395151Y416377D01*
X394584Y416293D01*
X393299Y417578D01*
X391561Y418581D01*
X389623Y419100D01*
X387617D01*
X385679Y418581D01*
X383941Y417578D01*
X382523Y416159D01*
X381519Y414421D01*
X381000Y412483D01*
Y410477D01*
X381519Y408539D01*
X382523Y406801D01*
X383941Y405382D01*
X385679Y404379D01*
X385694Y404375D01*
Y344170D01*
X385916Y343050D01*
X386551Y342101D01*
X400521Y328131D01*
X401470Y327496D01*
X402590Y327274D01*
X497840D01*
X498960Y327496D01*
X499909Y328131D01*
X503775Y331997D01*
X503789Y331989D01*
X505727Y331470D01*
X507733D01*
X509671Y331989D01*
X511409Y332993D01*
X512827Y334411D01*
X513831Y336149D01*
X514350Y338087D01*
Y340093D01*
X513831Y342031D01*
X512989Y343489D01*
X513941Y344380D01*
X514500Y344007D01*
X515620Y343784D01*
X541020D01*
X542140Y344007D01*
X543089Y344641D01*
X551039Y352591D01*
X551674Y353540D01*
X551896Y354660D01*
Y455732D01*
X551674Y456851D01*
X551039Y457801D01*
X548501Y460338D01*
X549391Y461879D01*
X549910Y463817D01*
Y465823D01*
X549391Y467761D01*
X548387Y469499D01*
X546969Y470918D01*
X545231Y471921D01*
X543293Y472440D01*
X541287D01*
X539349Y471921D01*
X537611Y470918D01*
X536193Y469499D01*
X535189Y467761D01*
X534670Y465823D01*
Y463817D01*
X535189Y461879D01*
X536193Y460141D01*
X537611Y458722D01*
X539349Y457719D01*
X541287Y457200D01*
X543293D01*
X543348Y457215D01*
X546044Y454520D01*
Y368333D01*
X544936Y367837D01*
X543946Y368534D01*
Y400050D01*
X543723Y401170D01*
X543089Y402119D01*
X516006Y429202D01*
Y519430D01*
X515784Y520550D01*
X515149Y521499D01*
X485883Y550765D01*
X485891Y550779D01*
X486410Y552717D01*
Y554723D01*
X485891Y556661D01*
X484888Y558399D01*
X483469Y559818D01*
X481731Y560821D01*
X479793Y561340D01*
D02*
G37*
G36*
X914195Y342610D02*
X909955D01*
Y332105D01*
X920460D01*
Y336345D01*
X919984Y338743D01*
X918625Y340775D01*
X916593Y342133D01*
X914195Y342610D01*
D02*
G37*
G36*
X908685D02*
X904445D01*
X902047Y342133D01*
X900015Y340775D01*
X898656Y338743D01*
X898180Y336345D01*
Y332105D01*
X908685D01*
Y342610D01*
D02*
G37*
G36*
X920460Y330835D02*
X909955D01*
Y320330D01*
X914195D01*
X916593Y320807D01*
X918625Y322165D01*
X919984Y324197D01*
X920460Y326595D01*
Y330835D01*
D02*
G37*
G36*
X908685D02*
X898180D01*
Y326595D01*
X898656Y324197D01*
X900015Y322165D01*
X902047Y320807D01*
X904445Y320330D01*
X908685D01*
Y330835D01*
D02*
G37*
G36*
X742600Y322230D02*
X728060D01*
Y307690D01*
X742600D01*
Y322230D01*
D02*
G37*
G36*
X800017Y323980D02*
X797643D01*
X795348Y323365D01*
X793292Y322178D01*
X791612Y320498D01*
X790425Y318442D01*
X789810Y316147D01*
Y313773D01*
X790425Y311478D01*
X791612Y309422D01*
X793292Y307742D01*
X795348Y306555D01*
X797643Y305940D01*
X800017D01*
X802312Y306555D01*
X804368Y307742D01*
X806048Y309422D01*
X807235Y311478D01*
X807850Y313773D01*
Y316147D01*
X807235Y318442D01*
X806048Y320498D01*
X804368Y322178D01*
X802312Y323365D01*
X800017Y323980D01*
D02*
G37*
G36*
X534900Y321540D02*
X516660D01*
Y303300D01*
X534900D01*
Y321540D01*
D02*
G37*
G36*
X501581D02*
X499179D01*
X496860Y320919D01*
X494780Y319718D01*
X493082Y318020D01*
X491881Y315940D01*
X491260Y313621D01*
Y311219D01*
X491881Y308900D01*
X493082Y306820D01*
X494780Y305122D01*
X496860Y303922D01*
X499179Y303300D01*
X501581D01*
X503900Y303922D01*
X505980Y305122D01*
X507678Y306820D01*
X508879Y308900D01*
X509500Y311219D01*
Y313621D01*
X508879Y315940D01*
X507678Y318020D01*
X505980Y319718D01*
X503900Y320919D01*
X501581Y321540D01*
D02*
G37*
G36*
X476181D02*
X473779D01*
X471460Y320919D01*
X469380Y319718D01*
X467682Y318020D01*
X466482Y315940D01*
X465860Y313621D01*
Y311219D01*
X466482Y308900D01*
X467682Y306820D01*
X469380Y305122D01*
X471460Y303922D01*
X473779Y303300D01*
X476181D01*
X478500Y303922D01*
X480580Y305122D01*
X482278Y306820D01*
X483479Y308900D01*
X484100Y311219D01*
Y313621D01*
X483479Y315940D01*
X482278Y318020D01*
X480580Y319718D01*
X478500Y320919D01*
X476181Y321540D01*
D02*
G37*
G36*
X501581Y296140D02*
X501015D01*
Y287655D01*
X509500D01*
Y288221D01*
X508879Y290540D01*
X507678Y292620D01*
X505980Y294318D01*
X503900Y295518D01*
X501581Y296140D01*
D02*
G37*
G36*
X476181D02*
X475615D01*
Y287655D01*
X484100D01*
Y288221D01*
X483479Y290540D01*
X482278Y292620D01*
X480580Y294318D01*
X478500Y295518D01*
X476181Y296140D01*
D02*
G37*
G36*
X499745D02*
X499179D01*
X496860Y295518D01*
X494780Y294318D01*
X493082Y292620D01*
X491881Y290540D01*
X491260Y288221D01*
Y287655D01*
X499745D01*
Y296140D01*
D02*
G37*
G36*
X474345D02*
X473779D01*
X471460Y295518D01*
X469380Y294318D01*
X467682Y292620D01*
X466482Y290540D01*
X465860Y288221D01*
Y287655D01*
X474345D01*
Y296140D01*
D02*
G37*
G36*
X926655Y305750D02*
X925195D01*
Y285115D01*
X945830D01*
Y286575D01*
X945013Y290684D01*
X943409Y294555D01*
X941081Y298039D01*
X938119Y301001D01*
X934635Y303329D01*
X930764Y304933D01*
X926655Y305750D01*
D02*
G37*
G36*
X923925D02*
X922465D01*
X918356Y304933D01*
X914485Y303329D01*
X911001Y301001D01*
X908038Y298039D01*
X905711Y294555D01*
X904107Y290684D01*
X903290Y286575D01*
Y285115D01*
X923925D01*
Y305750D01*
D02*
G37*
G36*
X287845Y304480D02*
X286385D01*
Y283845D01*
X307020D01*
Y285305D01*
X306203Y289414D01*
X304599Y293285D01*
X302271Y296769D01*
X299309Y299732D01*
X295825Y302059D01*
X291954Y303663D01*
X287845Y304480D01*
D02*
G37*
G36*
X285115D02*
X283655D01*
X279546Y303663D01*
X275675Y302059D01*
X272191Y299732D01*
X269228Y296769D01*
X266901Y293285D01*
X265297Y289414D01*
X264480Y285305D01*
Y283845D01*
X285115D01*
Y304480D01*
D02*
G37*
G36*
X526981Y296140D02*
X524579D01*
X522260Y295518D01*
X520180Y294318D01*
X518482Y292620D01*
X517281Y290540D01*
X516660Y288221D01*
Y285819D01*
X517281Y283500D01*
X518482Y281420D01*
X520180Y279722D01*
X522260Y278521D01*
X524579Y277900D01*
X526981D01*
X529300Y278521D01*
X531380Y279722D01*
X533078Y281420D01*
X534278Y283500D01*
X534900Y285819D01*
Y288221D01*
X534278Y290540D01*
X533078Y292620D01*
X531380Y294318D01*
X529300Y295518D01*
X526981Y296140D01*
D02*
G37*
G36*
X509500Y286385D02*
X501015D01*
Y277900D01*
X501581D01*
X503900Y278521D01*
X505980Y279722D01*
X507678Y281420D01*
X508879Y283500D01*
X509500Y285819D01*
Y286385D01*
D02*
G37*
G36*
X499745D02*
X491260D01*
Y285819D01*
X491881Y283500D01*
X493082Y281420D01*
X494780Y279722D01*
X496860Y278521D01*
X499179Y277900D01*
X499745D01*
Y286385D01*
D02*
G37*
G36*
X484100D02*
X475615D01*
Y277900D01*
X476181D01*
X478500Y278521D01*
X480580Y279722D01*
X482278Y281420D01*
X483479Y283500D01*
X484100Y285819D01*
Y286385D01*
D02*
G37*
G36*
X474345D02*
X465860D01*
Y285819D01*
X466482Y283500D01*
X467682Y281420D01*
X469380Y279722D01*
X471460Y278521D01*
X473779Y277900D01*
X474345D01*
Y286385D01*
D02*
G37*
G36*
X945830Y283845D02*
X925195D01*
Y263210D01*
X926655D01*
X930764Y264027D01*
X934635Y265631D01*
X938119Y267959D01*
X941081Y270921D01*
X943409Y274405D01*
X945013Y278276D01*
X945830Y282385D01*
Y283845D01*
D02*
G37*
G36*
X923925D02*
X903290D01*
Y282385D01*
X904107Y278276D01*
X905711Y274405D01*
X908038Y270921D01*
X911001Y267959D01*
X914485Y265631D01*
X918356Y264027D01*
X922465Y263210D01*
X923925D01*
Y283845D01*
D02*
G37*
G36*
X307020Y282575D02*
X286385D01*
Y261940D01*
X287845D01*
X291954Y262757D01*
X295825Y264361D01*
X299309Y266688D01*
X302271Y269651D01*
X304599Y273135D01*
X306203Y277006D01*
X307020Y281115D01*
Y282575D01*
D02*
G37*
G36*
X285115D02*
X264480D01*
Y281115D01*
X265297Y277006D01*
X266901Y273135D01*
X269228Y269651D01*
X272191Y266688D01*
X275675Y264361D01*
X279546Y262757D01*
X283655Y261940D01*
X285115D01*
Y282575D01*
D02*
G37*
%LPD*%
G36*
X395151Y406583D02*
X395854Y406229D01*
Y350520D01*
X396077Y349400D01*
X396711Y348451D01*
X406871Y338291D01*
X407820Y337657D01*
X408940Y337434D01*
X485882D01*
X487001Y337657D01*
X487951Y338291D01*
X490740Y341080D01*
X491089Y340879D01*
X493027Y340360D01*
X495033D01*
X496971Y340879D01*
X498195Y341586D01*
X499286Y340749D01*
X499110Y340093D01*
Y338087D01*
X499629Y336149D01*
X499637Y336135D01*
X496628Y333126D01*
X403802D01*
X391546Y345382D01*
Y404375D01*
X391561Y404379D01*
X393299Y405382D01*
X394584Y406667D01*
X395151Y406583D01*
D02*
G37*
D33*
X863600Y613410D02*
D03*
X838200D02*
D03*
X812800D02*
D03*
X863600Y588010D02*
D03*
X838200D02*
D03*
X474980Y287020D02*
D03*
X500380D02*
D03*
X525780D02*
D03*
X474980Y312420D02*
D03*
X500380D02*
D03*
D34*
X812800Y588010D02*
D03*
X525780Y312420D02*
D03*
D41*
X924730Y544630D02*
D03*
X326220Y532330D02*
D03*
D42*
X924730Y519630D02*
D03*
X798830Y314960D02*
D03*
X326220Y557330D02*
D03*
D43*
X823830Y314960D02*
D03*
D48*
X805380Y547170D02*
X922190D01*
X924730Y544630D01*
X904240Y482600D02*
X910590Y488950D01*
X943610D02*
X951230Y481330D01*
X910590Y488950D02*
X943610D01*
X792480Y560070D02*
X805380Y547170D01*
X792480Y560070D02*
Y588010D01*
X767080Y613410D02*
X792480Y588010D01*
X704850Y613410D02*
X767080D01*
X685800Y594360D02*
X704850Y613410D01*
X659130Y594360D02*
X685800D01*
X626110Y537210D02*
X664210Y575310D01*
Y556260D02*
X665810Y554660D01*
Y487350D02*
Y554660D01*
X425450Y608330D02*
X539750D01*
X412750Y595630D02*
X425450Y608330D01*
X539750D02*
X552450Y595630D01*
Y502920D02*
Y595630D01*
X525780Y476250D02*
X552450Y502920D01*
X525780Y463550D02*
Y476250D01*
X513080Y427990D02*
Y519430D01*
X478790Y553720D02*
X513080Y519430D01*
Y427990D02*
X541020Y400050D01*
X556260Y336550D02*
X571500Y351790D01*
X556260Y281940D02*
Y336550D01*
X539750Y265430D02*
X556260Y281940D01*
X448310Y284480D02*
X467360Y265430D01*
X539750D01*
X548970Y354660D02*
Y455732D01*
X541020Y363220D02*
Y400050D01*
X539750Y361950D02*
X541020Y363220D01*
Y346710D02*
X548970Y354660D01*
X542290Y462411D02*
X548970Y455732D01*
X542290Y462411D02*
Y464820D01*
X515620Y346710D02*
X541020D01*
X519826Y361554D02*
X520700Y360680D01*
X512206Y361554D02*
X519826D01*
X501650Y372110D02*
X512206Y361554D01*
X501650Y372110D02*
Y509270D01*
Y360680D02*
X515620Y346710D01*
X482600Y360680D02*
X501650D01*
X477520Y533400D02*
X501650Y509270D01*
X485882Y340360D02*
X493502Y347980D01*
X494030D01*
X408940Y340360D02*
X485882D01*
X497840Y330200D02*
X506730Y339090D01*
X402590Y330200D02*
X497840D01*
X398780Y350520D02*
X408940Y340360D01*
X398780Y350520D02*
Y421640D01*
X388620Y431800D02*
X398780Y421640D01*
X388620Y344170D02*
Y411480D01*
Y344170D02*
X402590Y330200D01*
X433070Y372110D02*
X444500Y360680D01*
X433070Y372110D02*
Y452120D01*
X448310Y467360D01*
X482600D01*
X800970Y337820D02*
X823830Y314960D01*
X600710Y337820D02*
X800970D01*
X557530Y582930D02*
X589280Y614680D01*
X557530Y381000D02*
Y582930D01*
Y381000D02*
X600710Y337820D01*
X792480Y482600D02*
X904240D01*
X777240Y497840D02*
X792480Y482600D01*
X951230Y340360D02*
Y481330D01*
X935990Y416560D02*
Y469931D01*
X927131Y478790D02*
X935990Y469931D01*
X924560Y478790D02*
X927131D01*
X829310Y275590D02*
X852170D01*
X887730Y311150D01*
X922020D01*
X951230Y340360D01*
X589280Y614680D02*
X642620D01*
X626110Y370840D02*
Y537210D01*
Y370840D02*
X640080Y356870D01*
X838200Y388620D02*
X908050D01*
X935990Y416560D01*
X717550Y412750D02*
X835660D01*
X849630Y398780D01*
X681990Y448310D02*
X717550Y412750D01*
X822210Y372630D02*
X838200Y388620D01*
X655840Y372630D02*
X822210D01*
X640080Y356870D02*
X655840Y372630D01*
X668020Y384810D02*
X800100D01*
X641350Y411480D02*
X668020Y384810D01*
X641350Y411480D02*
Y431800D01*
X681990Y448310D02*
Y471170D01*
X665810Y487350D02*
X681990Y471170D01*
X641350Y488950D02*
X656590Y504190D01*
Y535940D01*
X641350Y431800D02*
Y488950D01*
D49*
X412750Y595630D02*
D03*
D50*
X387350D02*
D03*
D51*
X525780Y561610D02*
D03*
Y512810D02*
D03*
X735330Y363760D02*
D03*
D52*
X290830Y435610D02*
D03*
Y380610D02*
D03*
D53*
X909320Y450850D02*
D03*
Y366470D02*
D03*
D54*
Y415850D02*
D03*
Y331470D02*
D03*
D55*
X735330Y314960D02*
D03*
D56*
X285750Y283210D02*
D03*
Y604520D02*
D03*
X924560Y284480D02*
D03*
X925830Y604520D02*
D03*
D57*
X940001Y500000D02*
D03*
Y380000D02*
D03*
X930001Y360000D02*
D03*
X900001Y620000D02*
D03*
Y580000D02*
D03*
X910001Y560000D02*
D03*
X900001Y300000D02*
D03*
X890001Y560000D02*
D03*
Y520000D02*
D03*
X880001Y460000D02*
D03*
X890001Y440000D02*
D03*
X880001Y420000D02*
D03*
Y340000D02*
D03*
X890001Y280000D02*
D03*
X870001Y560000D02*
D03*
Y520000D02*
D03*
Y440000D02*
D03*
X850001Y560000D02*
D03*
Y360000D02*
D03*
X840001Y340000D02*
D03*
X850001Y320000D02*
D03*
X840001Y300000D02*
D03*
X830000Y440000D02*
D03*
Y400000D02*
D03*
Y360000D02*
D03*
X820000Y340000D02*
D03*
X810000Y360000D02*
D03*
X790000Y440000D02*
D03*
Y400000D02*
D03*
Y360000D02*
D03*
X780000Y300000D02*
D03*
X790000Y280000D02*
D03*
X770000Y400000D02*
D03*
Y360000D02*
D03*
Y320000D02*
D03*
X760000Y300000D02*
D03*
X770000Y280000D02*
D03*
X750000D02*
D03*
X730000Y560000D02*
D03*
X720000Y540000D02*
D03*
X730000Y400000D02*
D03*
Y280000D02*
D03*
X710000Y560000D02*
D03*
Y400000D02*
D03*
Y360000D02*
D03*
Y320000D02*
D03*
X680000Y620000D02*
D03*
X670000Y440000D02*
D03*
Y320000D02*
D03*
X650000D02*
D03*
X630000Y600000D02*
D03*
Y320000D02*
D03*
X600000Y540000D02*
D03*
X610000Y320000D02*
D03*
X580000Y580000D02*
D03*
X590000Y320000D02*
D03*
X560000Y620000D02*
D03*
X540000D02*
D03*
Y580000D02*
D03*
Y540000D02*
D03*
X520000Y620000D02*
D03*
Y540000D02*
D03*
X500000Y620000D02*
D03*
X480000D02*
D03*
X460000D02*
D03*
Y540000D02*
D03*
Y420000D02*
D03*
X440000Y620000D02*
D03*
Y540000D02*
D03*
X450000Y480000D02*
D03*
X420000Y620000D02*
D03*
X430000Y560000D02*
D03*
Y480000D02*
D03*
X400000Y620000D02*
D03*
Y500000D02*
D03*
X380000Y620000D02*
D03*
X390000Y520000D02*
D03*
X380000Y500000D02*
D03*
X390000Y480000D02*
D03*
X380000Y460000D02*
D03*
X360000Y620000D02*
D03*
X370000Y600000D02*
D03*
X360000Y580000D02*
D03*
X370000Y560000D02*
D03*
Y520000D02*
D03*
X360000Y500000D02*
D03*
X370000Y480000D02*
D03*
X360000Y460000D02*
D03*
X370000Y440000D02*
D03*
Y360000D02*
D03*
X360000Y340000D02*
D03*
X370000Y320000D02*
D03*
X340000Y620000D02*
D03*
X350000Y600000D02*
D03*
X340000Y580000D02*
D03*
X350000Y560000D02*
D03*
Y520000D02*
D03*
X340000Y500000D02*
D03*
X350000Y480000D02*
D03*
X340000Y460000D02*
D03*
X350000Y440000D02*
D03*
Y360000D02*
D03*
X340000Y340000D02*
D03*
X350000Y320000D02*
D03*
X340000Y300000D02*
D03*
X320000Y620000D02*
D03*
X330000Y600000D02*
D03*
X320000Y580000D02*
D03*
X330000Y440000D02*
D03*
X320000Y420000D02*
D03*
X330000Y400000D02*
D03*
X320000Y380000D02*
D03*
Y300000D02*
D03*
X330000Y280000D02*
D03*
X300000Y540000D02*
D03*
X310000Y520000D02*
D03*
Y440000D02*
D03*
X300000Y420000D02*
D03*
X310000Y400000D02*
D03*
X290000Y560000D02*
D03*
X280000Y540000D02*
D03*
X290000Y520000D02*
D03*
X280000Y420000D02*
D03*
X290000Y400000D02*
D03*
X270000Y560000D02*
D03*
Y520000D02*
D03*
Y440000D02*
D03*
Y400000D02*
D03*
D58*
X664210Y556260D02*
D03*
Y575310D02*
D03*
X659130Y594360D02*
D03*
X525780Y463550D02*
D03*
X571500Y351790D02*
D03*
X539750Y361950D02*
D03*
X478790Y553720D02*
D03*
X477520Y533400D02*
D03*
X520700Y360680D02*
D03*
X494030Y347980D02*
D03*
X506730Y339090D02*
D03*
X542290Y464820D02*
D03*
X482600Y360680D02*
D03*
X444500D02*
D03*
X482600Y467360D02*
D03*
X448310Y284480D02*
D03*
X924560Y478790D02*
D03*
X829310Y275590D02*
D03*
X777240Y497840D02*
D03*
X642620Y614680D02*
D03*
X640080Y356870D02*
D03*
X681990Y471170D02*
D03*
X641350Y431800D02*
D03*
X849630Y398780D02*
D03*
X800100Y384810D02*
D03*
X656590Y535940D02*
D03*
X388620Y431800D02*
D03*
Y411480D02*
D03*
M02*
