G04*
G04 #@! TF.GenerationSoftware,Altium Limited,Altium Designer,23.10.1 (27)*
G04*
G04 Layer_Color=8421504*
%FSLAX44Y44*%
%MOMM*%
G71*
G04*
G04 #@! TF.SameCoordinates,8FD05F9E-8C87-4FDC-AA44-F0996D1C9290*
G04*
G04*
G04 #@! TF.FilePolarity,Positive*
G04*
G01*
G75*
%ADD15R,1.2557X1.7582*%
%ADD16R,1.5057X1.8582*%
G04:AMPARAMS|DCode=17|XSize=1.31mm|YSize=0.62mm|CornerRadius=0.0775mm|HoleSize=0mm|Usage=FLASHONLY|Rotation=90.000|XOffset=0mm|YOffset=0mm|HoleType=Round|Shape=RoundedRectangle|*
%AMROUNDEDRECTD17*
21,1,1.3100,0.4650,0,0,90.0*
21,1,1.1550,0.6200,0,0,90.0*
1,1,0.1550,0.2325,0.5775*
1,1,0.1550,0.2325,-0.5775*
1,1,0.1550,-0.2325,-0.5775*
1,1,0.1550,-0.2325,0.5775*
%
%ADD17ROUNDEDRECTD17*%
%ADD18R,1.5000X1.5000*%
%ADD19R,1.8582X1.5057*%
%ADD20R,3.0000X0.7000*%
%ADD21R,6.0400X3.4000*%
%ADD22R,1.7582X1.2557*%
%ADD23R,1.5500X1.3000*%
%ADD24O,0.6000X1.9500*%
%ADD25O,1.9500X0.6000*%
%ADD26R,1.6000X2.8000*%
%ADD27R,1.5000X1.5000*%
D15*
X384810Y543560D02*
D03*
X412835D02*
D03*
X703538Y466090D02*
D03*
X731562D02*
D03*
X689652Y358140D02*
D03*
X661628D02*
D03*
X688425Y415290D02*
D03*
X660400D02*
D03*
X835702Y505460D02*
D03*
X807678D02*
D03*
X642662Y516890D02*
D03*
X614638D02*
D03*
X642662Y568960D02*
D03*
X614638D02*
D03*
D16*
X446248Y577850D02*
D03*
X475772D02*
D03*
X444978Y509270D02*
D03*
X474502D02*
D03*
X357348Y285750D02*
D03*
X386872D02*
D03*
X576265Y299720D02*
D03*
X605790D02*
D03*
X570708Y482600D02*
D03*
X600232D02*
D03*
X655798Y300990D02*
D03*
X685322D02*
D03*
D17*
X457200Y385250D02*
D03*
X482600Y440250D02*
D03*
X444500Y385250D02*
D03*
X469900D02*
D03*
X482600D02*
D03*
X469900Y440250D02*
D03*
X495300D02*
D03*
X508000D02*
D03*
Y385250D02*
D03*
X533400Y440250D02*
D03*
X495300Y385250D02*
D03*
X520700D02*
D03*
Y440250D02*
D03*
X533400Y385250D02*
D03*
X457200Y440250D02*
D03*
X444500D02*
D03*
D18*
X415290Y394690D02*
D03*
Y359690D02*
D03*
D19*
X422910Y282418D02*
D03*
Y311942D02*
D03*
X582930Y523718D02*
D03*
Y553242D02*
D03*
D20*
X360830Y414360D02*
D03*
Y401860D02*
D03*
Y426860D02*
D03*
Y389360D02*
D03*
D21*
X296830Y340110D02*
D03*
Y476110D02*
D03*
D22*
X415290Y430488D02*
D03*
Y458512D02*
D03*
D23*
X850010Y425810D02*
D03*
X770510D02*
D03*
X850010Y470810D02*
D03*
X770510D02*
D03*
D24*
X700980Y503600D02*
D03*
X708980D02*
D03*
X716980D02*
D03*
X724980D02*
D03*
X732980D02*
D03*
X740980D02*
D03*
X748980D02*
D03*
X756980D02*
D03*
Y588600D02*
D03*
X748980D02*
D03*
X740980D02*
D03*
X732980D02*
D03*
X724980D02*
D03*
X716980D02*
D03*
X708980D02*
D03*
X700980D02*
D03*
D25*
X771480Y518100D02*
D03*
Y526100D02*
D03*
Y534100D02*
D03*
Y542100D02*
D03*
Y550100D02*
D03*
Y558100D02*
D03*
Y566100D02*
D03*
Y574100D02*
D03*
X686480D02*
D03*
Y566100D02*
D03*
Y558100D02*
D03*
Y550100D02*
D03*
Y542100D02*
D03*
Y534100D02*
D03*
Y526100D02*
D03*
Y518100D02*
D03*
D26*
X594360Y427900D02*
D03*
Y384900D02*
D03*
D27*
X804470Y567690D02*
D03*
X839470D02*
D03*
M02*
