G04*
G04 #@! TF.GenerationSoftware,Altium Limited,Altium Designer,23.10.1 (27)*
G04*
G04 Layer_Physical_Order=1*
G04 Layer_Color=255*
%FSLAX44Y44*%
%MOMM*%
G71*
G04*
G04 #@! TF.SameCoordinates,CD13E35F-318D-4E2D-A327-3576DA5FE6F9*
G04*
G04*
G04 #@! TF.FilePolarity,Positive*
G04*
G01*
G75*
%ADD15R,1.5000X1.5000*%
%ADD16R,1.2557X1.7582*%
%ADD17R,1.5057X1.8582*%
G04:AMPARAMS|DCode=18|XSize=1.31mm|YSize=0.62mm|CornerRadius=0.0775mm|HoleSize=0mm|Usage=FLASHONLY|Rotation=90.000|XOffset=0mm|YOffset=0mm|HoleType=Round|Shape=RoundedRectangle|*
%AMROUNDEDRECTD18*
21,1,1.3100,0.4650,0,0,90.0*
21,1,1.1550,0.6200,0,0,90.0*
1,1,0.1550,0.2325,0.5775*
1,1,0.1550,0.2325,-0.5775*
1,1,0.1550,-0.2325,-0.5775*
1,1,0.1550,-0.2325,0.5775*
%
%ADD18ROUNDEDRECTD18*%
%ADD19R,1.5000X1.5000*%
%ADD20R,1.8582X1.5057*%
%ADD21R,3.0000X0.7000*%
%ADD22R,6.0400X3.4000*%
%ADD23R,1.7582X1.2557*%
%ADD24R,1.5500X1.3000*%
%ADD25O,0.6000X1.9500*%
%ADD26O,1.9500X0.6000*%
%ADD27R,1.6000X2.8000*%
%ADD33C,1.5700*%
%ADD34R,1.5700X1.5700*%
%ADD41R,1.5500X1.5500*%
%ADD42C,1.5500*%
%ADD43R,1.5500X1.5500*%
%ADD48C,0.3200*%
%ADD49R,1.7000X1.7000*%
%ADD50C,1.7000*%
%ADD51C,1.2000*%
%ADD52C,1.3000*%
%ADD53C,1.9500*%
G04:AMPARAMS|DCode=54|XSize=1.95mm|YSize=1.95mm|CornerRadius=0.4875mm|HoleSize=0mm|Usage=FLASHONLY|Rotation=90.000|XOffset=0mm|YOffset=0mm|HoleType=Round|Shape=RoundedRectangle|*
%AMROUNDEDRECTD54*
21,1,1.9500,0.9750,0,0,90.0*
21,1,0.9750,1.9500,0,0,90.0*
1,1,0.9750,0.4875,0.4875*
1,1,0.9750,0.4875,-0.4875*
1,1,0.9750,-0.4875,-0.4875*
1,1,0.9750,-0.4875,0.4875*
%
%ADD54ROUNDEDRECTD54*%
%ADD55R,1.2000X1.2000*%
%ADD56C,4.0000*%
%ADD57C,0.5500*%
%ADD58C,1.2700*%
G36*
X827422Y624550D02*
X821680Y618809D01*
X821645Y618774D01*
X820180Y618867D01*
X820098Y619010D01*
X818400Y620708D01*
X816320Y621908D01*
X814001Y622530D01*
X811599D01*
X809280Y621908D01*
X807200Y620708D01*
X805502Y619010D01*
X804302Y616930D01*
X804142Y616336D01*
X756920D01*
X755800Y616114D01*
X754851Y615479D01*
X746911Y607539D01*
X746276Y606590D01*
X746054Y605470D01*
Y598530D01*
X745901Y598428D01*
X745615Y598000D01*
X744345D01*
X744059Y598428D01*
X742646Y599372D01*
X740980Y599704D01*
X739314Y599372D01*
X737902Y598428D01*
X737615Y598000D01*
X736345D01*
X736059Y598428D01*
X734646Y599372D01*
X732980Y599704D01*
X731314Y599372D01*
X729902Y598428D01*
X729615Y598000D01*
X728345D01*
X728058Y598428D01*
X726646Y599372D01*
X725615Y599577D01*
Y588600D01*
Y577623D01*
X726646Y577828D01*
X728058Y578772D01*
X728345Y579200D01*
X729615D01*
X729902Y578772D01*
X731314Y577828D01*
X732980Y577496D01*
X734646Y577828D01*
X736059Y578772D01*
X736345Y579200D01*
X737615D01*
X737902Y578772D01*
X739314Y577828D01*
X740980Y577496D01*
X742646Y577828D01*
X744059Y578772D01*
X744219Y579012D01*
X745520Y579093D01*
X746374Y578245D01*
Y562552D01*
X738911Y555089D01*
X738277Y554140D01*
X738054Y553020D01*
Y513530D01*
X737902Y513428D01*
X737615Y513000D01*
X736345D01*
X736059Y513428D01*
X734646Y514372D01*
X733615Y514577D01*
Y503600D01*
X732345D01*
Y514577D01*
X731314Y514372D01*
X729902Y513428D01*
X729615Y513000D01*
X728345D01*
X728058Y513428D01*
X726646Y514372D01*
X724980Y514704D01*
X723314Y514372D01*
X721901Y513428D01*
X721615Y513000D01*
X720345D01*
X720059Y513428D01*
X718646Y514372D01*
X717615Y514577D01*
Y503600D01*
Y492623D01*
X718646Y492828D01*
X720058Y493772D01*
X721449Y493738D01*
X722054Y493112D01*
Y487870D01*
X722277Y486750D01*
X722911Y485801D01*
X731080Y477632D01*
X731395Y477421D01*
X731010Y476151D01*
X724014D01*
Y456029D01*
X728636D01*
Y449565D01*
X727768Y448696D01*
X706062D01*
X700569Y454189D01*
X699716Y454759D01*
X699706Y454851D01*
X700491Y456029D01*
X711086D01*
Y476151D01*
X695989D01*
Y467746D01*
X692123D01*
X689610Y470259D01*
Y472173D01*
X689091Y474111D01*
X688087Y475849D01*
X686669Y477267D01*
X684931Y478271D01*
X682993Y478790D01*
X680987D01*
X679049Y478271D01*
X677311Y477267D01*
X675892Y475849D01*
X674889Y474111D01*
X674370Y472173D01*
Y470167D01*
X674889Y468229D01*
X675892Y466491D01*
X677311Y465073D01*
X679049Y464069D01*
X680987Y463550D01*
X682993D01*
X684931Y464069D01*
X686574Y465018D01*
X688841Y462751D01*
X689791Y462117D01*
X690911Y461894D01*
X695989D01*
Y456316D01*
X695989Y456029D01*
X695295Y455046D01*
X627306D01*
X626820Y456220D01*
X675829Y505228D01*
X676463Y506178D01*
X676686Y507298D01*
Y513651D01*
X677806Y514250D01*
X678064Y514078D01*
X679730Y513746D01*
X693230D01*
X694896Y514078D01*
X696309Y515022D01*
X697252Y516434D01*
X697584Y518100D01*
X697252Y519766D01*
X696309Y521179D01*
X695880Y521465D01*
Y522735D01*
X696309Y523022D01*
X697252Y524434D01*
X697584Y526100D01*
X697252Y527766D01*
X696309Y529179D01*
X695880Y529465D01*
Y530735D01*
X696309Y531021D01*
X697252Y532434D01*
X697584Y534100D01*
X697252Y535766D01*
X696309Y537178D01*
X695880Y537465D01*
Y538735D01*
X696309Y539021D01*
X697252Y540434D01*
X697584Y542100D01*
X697252Y543766D01*
X696309Y545178D01*
X695880Y545465D01*
Y546735D01*
X696309Y547021D01*
X697252Y548434D01*
X697584Y550100D01*
X697252Y551766D01*
X696309Y553178D01*
X695880Y553465D01*
Y554735D01*
X696309Y555022D01*
X697252Y556434D01*
X697584Y558100D01*
X697252Y559766D01*
X696309Y561179D01*
X695880Y561465D01*
Y562735D01*
X696309Y563022D01*
X697252Y564434D01*
X697584Y566100D01*
X697252Y567766D01*
X696309Y569179D01*
X695880Y569465D01*
Y570735D01*
X696309Y571021D01*
X697252Y572434D01*
X697584Y574100D01*
X697252Y575766D01*
X696309Y577178D01*
X694896Y578122D01*
X693230Y578454D01*
X679730D01*
X678064Y578122D01*
X676652Y577178D01*
X675708Y575766D01*
X675376Y574100D01*
X675708Y572434D01*
X676652Y571021D01*
X677080Y570735D01*
Y569465D01*
X676652Y569179D01*
X675708Y567766D01*
X675671Y567580D01*
X674455Y567211D01*
X670574Y571093D01*
X671311Y572369D01*
X671830Y574307D01*
Y576313D01*
X671311Y578251D01*
X670307Y579989D01*
X669353Y580944D01*
X669879Y582214D01*
X671500D01*
X672620Y582436D01*
X673569Y583071D01*
X716222Y625724D01*
X826936D01*
X827422Y624550D01*
D02*
G37*
G36*
X804302Y609890D02*
X805502Y607810D01*
X806816Y606496D01*
X806290Y605226D01*
X776290D01*
X775170Y605003D01*
X774221Y604369D01*
X768408Y598556D01*
X759867D01*
X758646Y599372D01*
X756980Y599704D01*
X755314Y599372D01*
X753902Y598428D01*
X752511Y598462D01*
X751906Y599088D01*
Y604258D01*
X758132Y610484D01*
X804142D01*
X804302Y609890D01*
D02*
G37*
G36*
X955541Y256039D02*
X256039D01*
Y630421D01*
X710983D01*
X711469Y629248D01*
X670288Y588066D01*
X665409D01*
X664883Y589336D01*
X665228Y589681D01*
X666231Y591419D01*
X666750Y593357D01*
Y595363D01*
X666231Y597301D01*
X665228Y599039D01*
X663809Y600457D01*
X662071Y601461D01*
X662056Y601465D01*
Y615950D01*
X661833Y617070D01*
X661199Y618019D01*
X653249Y625969D01*
X652300Y626604D01*
X651180Y626826D01*
X623900D01*
X622780Y626604D01*
X621831Y625969D01*
X597371Y601509D01*
X596736Y600560D01*
X596514Y599440D01*
Y562625D01*
X596736Y561505D01*
X597371Y560556D01*
X635114Y522813D01*
Y506829D01*
X650211D01*
Y526951D01*
X639252D01*
X608478Y557726D01*
X608964Y558899D01*
X614003D01*
Y568325D01*
X607089D01*
Y560774D01*
X605916Y560288D01*
X602366Y563837D01*
Y598228D01*
X625112Y620974D01*
X636341D01*
X636867Y619704D01*
X636522Y619359D01*
X635519Y617621D01*
X635000Y615683D01*
Y613677D01*
X635519Y611739D01*
X636522Y610001D01*
X637941Y608582D01*
X639679Y607579D01*
X639694Y607575D01*
Y579021D01*
X635114D01*
Y558899D01*
X650211D01*
Y579021D01*
X645546D01*
Y607575D01*
X645561Y607579D01*
X647299Y608582D01*
X648717Y610001D01*
X649721Y611739D01*
X650240Y613677D01*
Y615683D01*
X649721Y617621D01*
X648717Y619359D01*
X648472Y619604D01*
X648924Y620745D01*
X650072Y620870D01*
X656204Y614738D01*
Y601465D01*
X656189Y601461D01*
X654451Y600457D01*
X653033Y599039D01*
X652029Y597301D01*
X651510Y595363D01*
Y593357D01*
X652029Y591419D01*
X653033Y589681D01*
X654451Y588262D01*
X656189Y587259D01*
X656975Y587049D01*
X657355Y585632D01*
X652921Y581198D01*
X652287Y580249D01*
X652064Y579129D01*
Y542126D01*
X651911Y542038D01*
X650492Y540619D01*
X649489Y538881D01*
X648970Y536943D01*
Y534937D01*
X649489Y532999D01*
X650492Y531261D01*
X651911Y529842D01*
X653649Y528839D01*
X655587Y528320D01*
X657593D01*
X659531Y528839D01*
X661269Y529842D01*
X662688Y531261D01*
X663691Y532999D01*
X664210Y534937D01*
Y536851D01*
X666533Y539174D01*
X676550D01*
X676652Y539021D01*
X677080Y538735D01*
Y537465D01*
X676652Y537178D01*
X675708Y535766D01*
X675398Y534207D01*
X667221Y526031D01*
X666587Y525081D01*
X666364Y523961D01*
Y510361D01*
X620478Y464475D01*
X589668D01*
X589182Y465648D01*
X595572Y472039D01*
X609031D01*
Y493161D01*
X591434D01*
Y476177D01*
X584202Y468945D01*
X548707D01*
X548387Y469499D01*
X546969Y470918D01*
X545231Y471921D01*
X543293Y472440D01*
X541287D01*
X539349Y471921D01*
X537611Y470918D01*
X536193Y469499D01*
X535189Y467761D01*
X534670Y465823D01*
Y463817D01*
X535189Y461879D01*
X536193Y460141D01*
X537611Y458722D01*
X539349Y457719D01*
X541287Y457200D01*
X543293D01*
X545231Y457719D01*
X546969Y458722D01*
X548387Y460141D01*
X549391Y461879D01*
X549716Y463093D01*
X567785D01*
X568271Y461919D01*
X524568Y418216D01*
X473710D01*
X472590Y417994D01*
X471641Y417359D01*
X455131Y400849D01*
X454496Y399900D01*
X454274Y398780D01*
Y392990D01*
X454077Y392951D01*
X453401Y392499D01*
X452949Y391823D01*
X452790Y391025D01*
Y379475D01*
X452949Y378677D01*
X453401Y378001D01*
X454077Y377549D01*
X454274Y377510D01*
Y360680D01*
X454496Y359560D01*
X455131Y358611D01*
X472054Y341688D01*
Y321078D01*
X471460Y320919D01*
X469380Y319718D01*
X467682Y318020D01*
X466482Y315940D01*
X465860Y313621D01*
Y311219D01*
X466482Y308900D01*
X467682Y306820D01*
X469316Y305186D01*
X469295Y304896D01*
X468929Y303916D01*
X458412D01*
X449174Y313155D01*
Y354580D01*
X449179Y354582D01*
X450597Y356001D01*
X451601Y357739D01*
X452120Y359677D01*
Y361683D01*
X451601Y363621D01*
X450597Y365359D01*
X449179Y366777D01*
X447441Y367781D01*
X445503Y368300D01*
X443497D01*
X441559Y367781D01*
X439821Y366777D01*
X438402Y365359D01*
X437399Y363621D01*
X436880Y361683D01*
Y359677D01*
X437399Y357739D01*
X438402Y356001D01*
X439821Y354582D01*
X441559Y353579D01*
X443321Y353107D01*
Y314869D01*
X433471D01*
Y320741D01*
X412349D01*
Y303144D01*
X433471D01*
Y309016D01*
X445036D01*
X455131Y298921D01*
X456080Y298286D01*
X457200Y298064D01*
X514350D01*
X515470Y298286D01*
X516419Y298921D01*
X520798Y303300D01*
X534900D01*
Y321540D01*
X516660D01*
Y307438D01*
X513138Y303916D01*
X506431D01*
X506065Y304896D01*
X506044Y305186D01*
X507678Y306820D01*
X508879Y308900D01*
X509500Y311219D01*
Y313621D01*
X508879Y315940D01*
X507678Y318020D01*
X505980Y319718D01*
X503900Y320919D01*
X503306Y321078D01*
Y327660D01*
X503083Y328780D01*
X502449Y329729D01*
X493088Y339090D01*
X493614Y340360D01*
X495033D01*
X496971Y340879D01*
X498195Y341586D01*
X499286Y340749D01*
X499110Y340093D01*
Y338087D01*
X499629Y336149D01*
X500633Y334411D01*
X502051Y332993D01*
X503789Y331989D01*
X505727Y331470D01*
X507733D01*
X509671Y331989D01*
X511409Y332993D01*
X512827Y334411D01*
X513831Y336149D01*
X514350Y338087D01*
Y340093D01*
X513831Y342031D01*
X512827Y343769D01*
X511409Y345187D01*
X510926Y345466D01*
Y377510D01*
X511123Y377549D01*
X511799Y378001D01*
X512251Y378677D01*
X512410Y379475D01*
Y391025D01*
X512251Y391823D01*
X511799Y392499D01*
X511123Y392951D01*
X510325Y393110D01*
X505675D01*
X504877Y392951D01*
X504201Y392499D01*
X503749Y391823D01*
X503590Y391025D01*
Y379475D01*
X503749Y378677D01*
X504201Y378001D01*
X504877Y377549D01*
X505074Y377510D01*
Y346535D01*
X503789Y346191D01*
X502565Y345484D01*
X501474Y346321D01*
X501650Y346977D01*
Y348983D01*
X501131Y350921D01*
X500127Y352659D01*
X498709Y354077D01*
X497591Y354723D01*
Y377390D01*
X497625D01*
X498423Y377549D01*
X499099Y378001D01*
X499551Y378677D01*
X499710Y379475D01*
Y391025D01*
X499551Y391823D01*
X499099Y392499D01*
X498423Y392951D01*
X497625Y393110D01*
X492975D01*
X492177Y392951D01*
X491501Y392499D01*
X491049Y391823D01*
X490890Y391025D01*
Y379475D01*
X491049Y378677D01*
X491501Y378001D01*
X491739Y377841D01*
Y355255D01*
X491089Y355081D01*
X489351Y354077D01*
X487933Y352659D01*
X486929Y350921D01*
X486410Y348983D01*
Y347564D01*
X485140Y347038D01*
X480007Y352171D01*
X480665Y353310D01*
X481597Y353060D01*
X483603D01*
X485541Y353579D01*
X487279Y354582D01*
X488698Y356001D01*
X489701Y357739D01*
X490220Y359677D01*
Y361683D01*
X489701Y363621D01*
X488698Y365359D01*
X487279Y366777D01*
X485541Y367781D01*
X485526Y367785D01*
Y377510D01*
X485723Y377549D01*
X486399Y378001D01*
X486851Y378677D01*
X487010Y379475D01*
Y391025D01*
X486851Y391823D01*
X486399Y392499D01*
X485723Y392951D01*
X484925Y393110D01*
X480275D01*
X479477Y392951D01*
X478801Y392499D01*
X478349Y391823D01*
X478190Y391025D01*
Y379475D01*
X478349Y378677D01*
X478801Y378001D01*
X479477Y377549D01*
X479674Y377510D01*
Y367785D01*
X479659Y367781D01*
X477921Y366777D01*
X476502Y365359D01*
X475499Y363621D01*
X474980Y361683D01*
Y359677D01*
X475230Y358745D01*
X474091Y358087D01*
X472826Y359352D01*
Y377510D01*
X473023Y377549D01*
X473699Y378001D01*
X474151Y378677D01*
X474310Y379475D01*
Y391025D01*
X474151Y391823D01*
X473699Y392499D01*
X473023Y392951D01*
X472826Y392990D01*
Y398907D01*
X481813Y407894D01*
X528942D01*
X530061Y408116D01*
X531011Y408751D01*
X575924Y453664D01*
X595186D01*
X595672Y452490D01*
X592291Y449109D01*
X591656Y448160D01*
X591434Y447040D01*
Y443170D01*
X585090D01*
Y416768D01*
X550381Y382059D01*
X549747Y381110D01*
X549524Y379990D01*
Y294582D01*
X544888Y289946D01*
X534438D01*
X534278Y290540D01*
X533078Y292620D01*
X531380Y294318D01*
X529300Y295518D01*
X526981Y296140D01*
X524579D01*
X522260Y295518D01*
X520180Y294318D01*
X518482Y292620D01*
X517281Y290540D01*
X516660Y288221D01*
Y285819D01*
X517281Y283500D01*
X517589Y282967D01*
X500438Y265816D01*
X364432D01*
X360274Y269974D01*
Y275189D01*
X366146D01*
Y296311D01*
X360274D01*
Y298986D01*
X365702Y304414D01*
X382270D01*
X383390Y304636D01*
X384339Y305271D01*
X393229Y314161D01*
X393863Y315110D01*
X394086Y316230D01*
Y387408D01*
X400849Y394171D01*
X401483Y395120D01*
X401706Y396240D01*
Y447098D01*
X402255Y447646D01*
X404838D01*
X405958Y447869D01*
X406907Y448504D01*
X409367Y450964D01*
X419686D01*
X419969Y450908D01*
X433154D01*
X440090Y443972D01*
Y434475D01*
X440249Y433677D01*
X440701Y433001D01*
X441377Y432549D01*
X442175Y432390D01*
X446825D01*
X447623Y432549D01*
X448299Y433001D01*
X448751Y433677D01*
X448910Y434475D01*
Y446025D01*
X448751Y446823D01*
X448299Y447499D01*
X447623Y447951D01*
X447426Y447990D01*
Y457258D01*
X464762Y474594D01*
X477349D01*
X477703Y473891D01*
X477787Y473324D01*
X476502Y472039D01*
X475499Y470301D01*
X474980Y468363D01*
Y466357D01*
X475499Y464419D01*
X476502Y462681D01*
X477921Y461263D01*
X479659Y460259D01*
X479674Y460255D01*
Y447990D01*
X479477Y447951D01*
X478801Y447499D01*
X478349Y446823D01*
X478190Y446025D01*
Y434475D01*
X478349Y433677D01*
X478801Y433001D01*
X479477Y432549D01*
X480275Y432390D01*
X484925D01*
X485723Y432549D01*
X486399Y433001D01*
X486851Y433677D01*
X487010Y434475D01*
Y446025D01*
X486851Y446823D01*
X486399Y447499D01*
X485723Y447951D01*
X485526Y447990D01*
Y460255D01*
X485541Y460259D01*
X487279Y461263D01*
X488698Y462681D01*
X489701Y464419D01*
X490220Y466357D01*
Y468363D01*
X489701Y470301D01*
X488698Y472039D01*
X487413Y473324D01*
X487497Y473891D01*
X487851Y474594D01*
X538480D01*
X539600Y474817D01*
X540549Y475451D01*
X567219Y502121D01*
X567854Y503070D01*
X568076Y504190D01*
Y534250D01*
X577308Y543482D01*
X577942Y544431D01*
X577945Y544444D01*
X593491D01*
Y562041D01*
X572369D01*
Y547597D01*
X572313Y547314D01*
Y546763D01*
X563081Y537532D01*
X562447Y536582D01*
X562224Y535462D01*
Y505402D01*
X537268Y480446D01*
X463550D01*
X462430Y480224D01*
X461481Y479589D01*
X442431Y460539D01*
X441796Y459590D01*
X441574Y458470D01*
Y452424D01*
X440400Y451938D01*
X436435Y455903D01*
X435486Y456537D01*
X434366Y456760D01*
X425351D01*
Y466061D01*
X418216D01*
Y495300D01*
X417994Y496420D01*
X417359Y497369D01*
X415761Y498967D01*
Y533499D01*
X420383D01*
Y553621D01*
X405286D01*
Y533499D01*
X409909D01*
Y497755D01*
X410131Y496635D01*
X410766Y495686D01*
X412364Y494088D01*
Y466061D01*
X405229D01*
Y455102D01*
X403626Y453499D01*
X401043D01*
X399923Y453276D01*
X398974Y452642D01*
X396711Y450379D01*
X396077Y449430D01*
X395854Y448310D01*
Y437051D01*
X395151Y436697D01*
X394584Y436613D01*
X393299Y437897D01*
X391561Y438901D01*
X389623Y439420D01*
X387617D01*
X385679Y438901D01*
X383941Y437897D01*
X382523Y436479D01*
X381519Y434741D01*
X381000Y432803D01*
Y430889D01*
X379897Y429786D01*
X377100D01*
Y431630D01*
X344560D01*
Y422090D01*
X377100D01*
Y423934D01*
X381109D01*
X382229Y424156D01*
X383178Y424791D01*
X384036Y425648D01*
X385679Y424699D01*
X387617Y424180D01*
X389623D01*
X391561Y424699D01*
X393299Y425703D01*
X394584Y426987D01*
X395151Y426903D01*
X395854Y426549D01*
Y416731D01*
X395151Y416377D01*
X394584Y416293D01*
X393299Y417578D01*
X391561Y418581D01*
X389623Y419100D01*
X387617D01*
X385679Y418581D01*
X383941Y417578D01*
X382523Y416159D01*
X382342Y415846D01*
X377100D01*
Y419130D01*
X344560D01*
Y409590D01*
X377100D01*
Y409994D01*
X381129D01*
X381519Y408539D01*
X382523Y406801D01*
X383941Y405382D01*
X385679Y404379D01*
X387617Y403860D01*
X389623D01*
X391561Y404379D01*
X393299Y405382D01*
X394584Y406667D01*
X395151Y406583D01*
X395854Y406229D01*
Y397452D01*
X390644Y392242D01*
X390420Y392286D01*
X377100D01*
Y394130D01*
X344560D01*
Y384590D01*
X377100D01*
Y386434D01*
X388234D01*
Y317442D01*
X381058Y310266D01*
X364490D01*
X363370Y310044D01*
X362421Y309409D01*
X355278Y302267D01*
X354644Y301317D01*
X354421Y300198D01*
Y296311D01*
X348549D01*
Y275189D01*
X354421D01*
Y268762D01*
X354644Y267643D01*
X355278Y266693D01*
X361151Y260821D01*
X362100Y260187D01*
X363220Y259964D01*
X501650D01*
X502770Y260187D01*
X503719Y260821D01*
X521727Y278829D01*
X522260Y278521D01*
X524579Y277900D01*
X526981D01*
X529300Y278521D01*
X531380Y279722D01*
X533078Y281420D01*
X534278Y283500D01*
X534438Y284094D01*
X546100D01*
X547220Y284317D01*
X548169Y284951D01*
X554519Y291301D01*
X555154Y292250D01*
X555376Y293370D01*
Y378778D01*
X589228Y412630D01*
X603630D01*
Y443170D01*
X597286D01*
Y445828D01*
X600652Y449194D01*
X697288D01*
X700712Y445770D01*
X686356Y431414D01*
X685721Y430465D01*
X685499Y429345D01*
Y425351D01*
X680876D01*
Y405229D01*
X686726D01*
Y368201D01*
X682104D01*
Y353804D01*
X681341Y353652D01*
X680392Y353018D01*
X671930Y344556D01*
X588010D01*
X586890Y344333D01*
X585941Y343699D01*
X558001Y315759D01*
X557366Y314810D01*
X557144Y313690D01*
Y276860D01*
X557366Y275740D01*
X558001Y274791D01*
X571971Y260821D01*
X572920Y260187D01*
X574040Y259964D01*
X848360D01*
X849480Y260187D01*
X850429Y260821D01*
X866939Y277331D01*
X867573Y278280D01*
X867796Y279400D01*
Y349308D01*
X882592Y364104D01*
X898545D01*
X899051Y362216D01*
X900502Y359703D01*
X902554Y357652D01*
X905066Y356201D01*
X907869Y355450D01*
X910771D01*
X913574Y356201D01*
X916086Y357652D01*
X918138Y359703D01*
X919589Y362216D01*
X920340Y365019D01*
Y367921D01*
X919589Y370723D01*
X918138Y373236D01*
X916086Y375288D01*
X913574Y376739D01*
X910771Y377490D01*
X907869D01*
X905066Y376739D01*
X902554Y375288D01*
X900502Y373236D01*
X899051Y370723D01*
X898845Y369956D01*
X881380D01*
X880260Y369734D01*
X879311Y369099D01*
X862801Y352589D01*
X862167Y351640D01*
X861944Y350520D01*
Y280612D01*
X847148Y265816D01*
X575252D01*
X562996Y278072D01*
Y312478D01*
X589222Y338704D01*
X673142D01*
X674262Y338927D01*
X675212Y339561D01*
X683673Y348023D01*
X684974D01*
X685257Y348079D01*
X697201D01*
Y368201D01*
X692579D01*
Y405229D01*
X695974D01*
Y425351D01*
X691351D01*
Y428133D01*
X706062Y442844D01*
X728980D01*
X730100Y443066D01*
X731049Y443701D01*
X733632Y446283D01*
X734266Y447233D01*
X734489Y448352D01*
Y456029D01*
X739111D01*
Y470486D01*
X739167Y470769D01*
Y478489D01*
X743049Y482371D01*
X743683Y483320D01*
X743906Y484440D01*
Y493670D01*
X744058Y493772D01*
X745449Y493738D01*
X746054Y493112D01*
Y378622D01*
X738002Y370570D01*
X736287Y371030D01*
X734373D01*
X732524Y370535D01*
X730866Y369577D01*
X729513Y368224D01*
X728555Y366566D01*
X728060Y364717D01*
Y362803D01*
X728520Y361088D01*
X683253Y315822D01*
X682619Y314872D01*
X682396Y313752D01*
Y311551D01*
X676524D01*
Y290429D01*
X694121D01*
Y311551D01*
X688926D01*
X688529Y312821D01*
X732658Y356950D01*
X734373Y356490D01*
X736287D01*
X738136Y356985D01*
X739794Y357943D01*
X741147Y359296D01*
X742105Y360954D01*
X742600Y362803D01*
Y364717D01*
X742141Y366432D01*
X751049Y375341D01*
X751684Y376290D01*
X751906Y377410D01*
Y493670D01*
X752058Y493772D01*
X753449Y493738D01*
X754054Y493112D01*
Y337822D01*
X738462Y322230D01*
X728060D01*
Y311828D01*
X696018Y279786D01*
X598575D01*
X585064Y293297D01*
Y310281D01*
X567467D01*
Y289159D01*
X580925D01*
X595294Y274791D01*
X596243Y274156D01*
X597363Y273934D01*
X697230D01*
X698350Y274156D01*
X699299Y274791D01*
X732198Y307690D01*
X742600D01*
Y318092D01*
X759049Y334541D01*
X759684Y335490D01*
X759906Y336610D01*
Y493670D01*
X760059Y493772D01*
X761002Y495184D01*
X761334Y496850D01*
Y510350D01*
X761002Y512016D01*
X760059Y513428D01*
X758646Y514372D01*
X756980Y514704D01*
X755314Y514372D01*
X753902Y513428D01*
X753615Y513000D01*
X752345D01*
X752058Y513428D01*
X750646Y514372D01*
X748980Y514704D01*
X747314Y514372D01*
X745901Y513428D01*
X744511Y513462D01*
X743906Y514088D01*
Y551808D01*
X751369Y559271D01*
X752003Y560220D01*
X752226Y561340D01*
Y579023D01*
X752345Y579200D01*
X753615D01*
X753902Y578772D01*
X755314Y577828D01*
X756980Y577496D01*
X758646Y577828D01*
X760059Y578772D01*
X761002Y580184D01*
X761334Y581850D01*
Y592704D01*
X769620D01*
X770740Y592926D01*
X771689Y593561D01*
X777502Y599374D01*
X816850D01*
X817970Y599596D01*
X818919Y600231D01*
X825784Y607096D01*
X826419Y608045D01*
X826641Y609165D01*
Y615493D01*
X828585Y617436D01*
X829057Y617222D01*
X829638Y616694D01*
X829080Y614611D01*
Y612209D01*
X829702Y609890D01*
X830009Y609357D01*
X823431Y602779D01*
X822796Y601830D01*
X822574Y600710D01*
Y598129D01*
X821920Y597130D01*
X803680D01*
Y590936D01*
X782320D01*
X781200Y590714D01*
X780251Y590079D01*
X774561Y584389D01*
X773926Y583440D01*
X773704Y582320D01*
Y578454D01*
X764730D01*
X763064Y578122D01*
X761652Y577178D01*
X760708Y575766D01*
X760376Y574100D01*
X760708Y572434D01*
X761652Y571021D01*
X762080Y570735D01*
Y569465D01*
X761652Y569179D01*
X760708Y567766D01*
X760376Y566100D01*
X760708Y564434D01*
X761652Y563022D01*
X762080Y562735D01*
Y561465D01*
X761652Y561179D01*
X760708Y559766D01*
X760376Y558100D01*
X760708Y556434D01*
X761652Y555022D01*
X762080Y554735D01*
Y553465D01*
X761652Y553178D01*
X760708Y551766D01*
X760376Y550100D01*
X760708Y548434D01*
X761652Y547021D01*
X762080Y546735D01*
Y545465D01*
X761652Y545178D01*
X760708Y543766D01*
X760376Y542100D01*
X760708Y540434D01*
X761652Y539021D01*
X762080Y538735D01*
Y537465D01*
X761652Y537178D01*
X760708Y535766D01*
X760376Y534100D01*
X760708Y532434D01*
X761652Y531021D01*
X762080Y530735D01*
Y529465D01*
X761652Y529179D01*
X760708Y527766D01*
X760376Y526100D01*
X760708Y524434D01*
X761652Y523022D01*
X762080Y522735D01*
Y521465D01*
X761652Y521179D01*
X760708Y519766D01*
X760376Y518100D01*
X760708Y516434D01*
X761652Y515022D01*
X763064Y514078D01*
X764730Y513746D01*
X778230D01*
X779896Y514078D01*
X781309Y515022D01*
X782252Y516434D01*
X782584Y518100D01*
X782252Y519766D01*
X781309Y521179D01*
X780880Y521465D01*
Y522735D01*
X781309Y523022D01*
X782252Y524434D01*
X782584Y526100D01*
X782252Y527766D01*
X781309Y529179D01*
X780880Y529465D01*
Y530735D01*
X781309Y531021D01*
X782252Y532434D01*
X782584Y534100D01*
X782252Y535766D01*
X781309Y537178D01*
X781342Y538569D01*
X781968Y539174D01*
X785108D01*
X785744Y538538D01*
Y504132D01*
X784196Y502584D01*
X783272D01*
X781919Y503937D01*
X780181Y504941D01*
X778243Y505460D01*
X776237D01*
X774299Y504941D01*
X772561Y503937D01*
X771143Y502519D01*
X770139Y500781D01*
X769620Y498843D01*
Y496837D01*
X770139Y494899D01*
X771143Y493161D01*
X772561Y491743D01*
X774299Y490739D01*
X776237Y490220D01*
X778243D01*
X780181Y490739D01*
X781919Y491743D01*
X783337Y493161D01*
X784341Y494899D01*
X784832Y496731D01*
X785408D01*
X786527Y496954D01*
X787477Y497589D01*
X790739Y500851D01*
X790824Y500978D01*
X792094Y500592D01*
Y490220D01*
X792317Y489100D01*
X792951Y488151D01*
X796761Y484341D01*
X797710Y483707D01*
X798830Y483484D01*
X851800D01*
X852920Y483707D01*
X853869Y484341D01*
X870792Y501264D01*
X909290D01*
X910410Y501487D01*
X911359Y502121D01*
X920751Y511512D01*
X921248Y511225D01*
X923542Y510610D01*
X925918D01*
X928212Y511225D01*
X930268Y512412D01*
X931948Y514092D01*
X933135Y516148D01*
X933750Y518442D01*
Y520817D01*
X933135Y523112D01*
X931948Y525168D01*
X930268Y526848D01*
X928212Y528035D01*
X925918Y528650D01*
X923542D01*
X921248Y528035D01*
X919192Y526848D01*
X917512Y525168D01*
X916325Y523112D01*
X915710Y520817D01*
Y518442D01*
X916325Y516148D01*
X916612Y515650D01*
X908078Y507116D01*
X869580D01*
X868460Y506894D01*
X867511Y506259D01*
X850588Y489336D01*
X800042D01*
X797946Y491432D01*
Y543560D01*
X797723Y544680D01*
X797089Y545629D01*
X790549Y552169D01*
X789600Y552803D01*
X788480Y553026D01*
X781410D01*
X781309Y553178D01*
X780880Y553465D01*
Y554735D01*
X781309Y555022D01*
X782252Y556434D01*
X782584Y558100D01*
X782252Y559766D01*
X781309Y561179D01*
X781342Y562569D01*
X781968Y563174D01*
X815020D01*
X816140Y563396D01*
X817089Y564031D01*
X827569Y574511D01*
X828204Y575460D01*
X828426Y576580D01*
Y584342D01*
X829696Y584510D01*
X829702Y584490D01*
X830902Y582410D01*
X832600Y580712D01*
X834680Y579511D01*
X835274Y579352D01*
Y564532D01*
X812912Y542170D01*
X799510D01*
Y524630D01*
X817050D01*
Y538032D01*
X840269Y561251D01*
X840903Y562200D01*
X841126Y563320D01*
Y579352D01*
X841720Y579511D01*
X843800Y580712D01*
X845498Y582410D01*
X846699Y584490D01*
X847320Y586809D01*
Y589211D01*
X846699Y591530D01*
X846391Y592063D01*
X851699Y597371D01*
X852334Y598320D01*
X852556Y599440D01*
Y619760D01*
X852334Y620880D01*
X851699Y621829D01*
X848978Y624550D01*
X849464Y625724D01*
X872548D01*
X886074Y612198D01*
Y593032D01*
X883978Y590936D01*
X872258D01*
X872098Y591530D01*
X870898Y593610D01*
X869200Y595308D01*
X867120Y596508D01*
X864801Y597130D01*
X862399D01*
X860080Y596508D01*
X858000Y595308D01*
X856302Y593610D01*
X855101Y591530D01*
X854480Y589211D01*
Y586809D01*
X855101Y584490D01*
X856302Y582410D01*
X858000Y580712D01*
X860080Y579511D01*
X862399Y578890D01*
X864801D01*
X867120Y579511D01*
X869200Y580712D01*
X870898Y582410D01*
X872098Y584490D01*
X872258Y585084D01*
X885190D01*
X886310Y585307D01*
X887259Y585941D01*
X891069Y589751D01*
X891703Y590700D01*
X891926Y591820D01*
Y613410D01*
X891703Y614530D01*
X891069Y615479D01*
X877301Y629248D01*
X877787Y630421D01*
X955541D01*
Y256039D01*
D02*
G37*
G36*
X803680Y578890D02*
X821920D01*
X822574Y577891D01*
Y577792D01*
X813808Y569026D01*
X781410D01*
X781309Y569179D01*
X780880Y569465D01*
Y570735D01*
X781309Y571021D01*
X782252Y572434D01*
X782584Y574100D01*
X782252Y575766D01*
X781309Y577178D01*
X779896Y578122D01*
X779556Y578190D01*
Y581108D01*
X783532Y585084D01*
X803680D01*
Y578890D01*
D02*
G37*
G36*
X476833Y411190D02*
X467831Y402188D01*
X467197Y401239D01*
X466974Y400119D01*
Y392990D01*
X466777Y392951D01*
X466101Y392499D01*
X465649Y391823D01*
X465490Y391025D01*
Y379475D01*
X465649Y378677D01*
X466101Y378001D01*
X466777Y377549D01*
X466974Y377510D01*
Y358140D01*
X467197Y357020D01*
X467831Y356071D01*
X497454Y326448D01*
Y321078D01*
X496860Y320919D01*
X494780Y319718D01*
X493082Y318020D01*
X491881Y315940D01*
X491260Y313621D01*
Y311219D01*
X491881Y308900D01*
X493082Y306820D01*
X494716Y305186D01*
X494695Y304896D01*
X494329Y303916D01*
X481031D01*
X480665Y304896D01*
X480644Y305186D01*
X482278Y306820D01*
X483479Y308900D01*
X484100Y311219D01*
Y313621D01*
X483479Y315940D01*
X482278Y318020D01*
X480580Y319718D01*
X478500Y320919D01*
X477906Y321078D01*
Y342900D01*
X477683Y344020D01*
X477049Y344969D01*
X460126Y361892D01*
Y377510D01*
X460323Y377549D01*
X460999Y378001D01*
X461451Y378677D01*
X461610Y379475D01*
Y391025D01*
X461451Y391823D01*
X460999Y392499D01*
X460323Y392951D01*
X460126Y392990D01*
Y397568D01*
X474922Y412364D01*
X476347D01*
X476833Y411190D01*
D02*
G37*
%LPC*%
G36*
X716980Y599704D02*
X715314Y599372D01*
X713902Y598428D01*
X713615Y598000D01*
X712345D01*
X712058Y598428D01*
X710646Y599372D01*
X708980Y599704D01*
X707314Y599372D01*
X705901Y598428D01*
X705615Y598000D01*
X704345D01*
X704059Y598428D01*
X702646Y599372D01*
X700980Y599704D01*
X699314Y599372D01*
X697902Y598428D01*
X696958Y597016D01*
X696626Y595350D01*
Y581850D01*
X696958Y580184D01*
X697902Y578772D01*
X699314Y577828D01*
X700980Y577496D01*
X702646Y577828D01*
X704059Y578772D01*
X704345Y579200D01*
X705615D01*
X705901Y578772D01*
X707314Y577828D01*
X708980Y577496D01*
X710646Y577828D01*
X712058Y578772D01*
X712345Y579200D01*
X713615D01*
X713902Y578772D01*
X715314Y577828D01*
X716980Y577496D01*
X718646Y577828D01*
X720059Y578772D01*
X720345Y579200D01*
X721615D01*
X721901Y578772D01*
X723314Y577828D01*
X724345Y577623D01*
Y588600D01*
Y599577D01*
X723314Y599372D01*
X721901Y598428D01*
X721615Y598000D01*
X720345D01*
X720059Y598428D01*
X718646Y599372D01*
X716980Y599704D01*
D02*
G37*
G36*
X708980Y514704D02*
X707314Y514372D01*
X705901Y513428D01*
X705615Y513000D01*
X704345D01*
X704059Y513428D01*
X702646Y514372D01*
X700980Y514704D01*
X699314Y514372D01*
X697902Y513428D01*
X696958Y512016D01*
X696626Y510350D01*
Y496850D01*
X696958Y495184D01*
X697902Y493772D01*
X699314Y492828D01*
X700980Y492496D01*
X702646Y492828D01*
X704059Y493772D01*
X704345Y494200D01*
X705615D01*
X705901Y493772D01*
X707314Y492828D01*
X708980Y492496D01*
X710646Y492828D01*
X712058Y493772D01*
X712345Y494200D01*
X713615D01*
X713902Y493772D01*
X715314Y492828D01*
X716345Y492623D01*
Y503600D01*
Y514577D01*
X715314Y514372D01*
X713902Y513428D01*
X713615Y513000D01*
X712345D01*
X712058Y513428D01*
X710646Y514372D01*
X708980Y514704D01*
D02*
G37*
G36*
X864801Y622530D02*
X864235D01*
Y614045D01*
X872720D01*
Y614611D01*
X872098Y616930D01*
X870898Y619010D01*
X869200Y620708D01*
X867120Y621908D01*
X864801Y622530D01*
D02*
G37*
G36*
X862965D02*
X862399D01*
X860080Y621908D01*
X858000Y620708D01*
X856302Y619010D01*
X855101Y616930D01*
X854480Y614611D01*
Y614045D01*
X862965D01*
Y622530D01*
D02*
G37*
G36*
X927925Y625790D02*
X926465D01*
Y605155D01*
X947100D01*
Y606615D01*
X946283Y610724D01*
X944679Y614595D01*
X942352Y618079D01*
X939389Y621041D01*
X935905Y623369D01*
X932034Y624973D01*
X927925Y625790D01*
D02*
G37*
G36*
X925195D02*
X923735D01*
X919626Y624973D01*
X915755Y623369D01*
X912271Y621041D01*
X909308Y618079D01*
X906981Y614595D01*
X905377Y610724D01*
X904560Y606615D01*
Y605155D01*
X925195D01*
Y625790D01*
D02*
G37*
G36*
X287845D02*
X286385D01*
Y605155D01*
X307020D01*
Y606615D01*
X306203Y610724D01*
X304599Y614595D01*
X302271Y618079D01*
X299309Y621041D01*
X295825Y623369D01*
X291954Y624973D01*
X287845Y625790D01*
D02*
G37*
G36*
X285115D02*
X283655D01*
X279546Y624973D01*
X275675Y623369D01*
X272191Y621041D01*
X269228Y618079D01*
X266901Y614595D01*
X265297Y610724D01*
X264480Y606615D01*
Y605155D01*
X285115D01*
Y625790D01*
D02*
G37*
G36*
X872720Y612775D02*
X864235D01*
Y604290D01*
X864801D01*
X867120Y604911D01*
X869200Y606112D01*
X870898Y607810D01*
X872098Y609890D01*
X872720Y612209D01*
Y612775D01*
D02*
G37*
G36*
X862965D02*
X854480D01*
Y612209D01*
X855101Y609890D01*
X856302Y607810D01*
X858000Y606112D01*
X860080Y604911D01*
X862399Y604290D01*
X862965D01*
Y612775D01*
D02*
G37*
G36*
X388636Y605400D02*
X387985D01*
Y596265D01*
X397120D01*
Y596916D01*
X396454Y599401D01*
X395168Y601629D01*
X393349Y603448D01*
X391121Y604734D01*
X388636Y605400D01*
D02*
G37*
G36*
X386715D02*
X386064D01*
X383579Y604734D01*
X381351Y603448D01*
X379532Y601629D01*
X378246Y599401D01*
X377580Y596916D01*
Y596265D01*
X386715D01*
Y605400D01*
D02*
G37*
G36*
X422520D02*
X402980D01*
Y585860D01*
X422520D01*
Y605400D01*
D02*
G37*
G36*
X397120Y594995D02*
X387985D01*
Y585860D01*
X388636D01*
X391121Y586526D01*
X393349Y587812D01*
X395168Y589631D01*
X396454Y591859D01*
X397120Y594344D01*
Y594995D01*
D02*
G37*
G36*
X386715D02*
X377580D01*
Y594344D01*
X378246Y591859D01*
X379532Y589631D01*
X381351Y587812D01*
X383579Y586526D01*
X386064Y585860D01*
X386715D01*
Y594995D01*
D02*
G37*
G36*
X947100Y603885D02*
X926465D01*
Y583250D01*
X927925D01*
X932034Y584067D01*
X935905Y585671D01*
X939389Y587999D01*
X942352Y590961D01*
X944679Y594445D01*
X946283Y598316D01*
X947100Y602425D01*
Y603885D01*
D02*
G37*
G36*
X925195D02*
X904560D01*
Y602425D01*
X905377Y598316D01*
X906981Y594445D01*
X909308Y590961D01*
X912271Y587999D01*
X915755Y585671D01*
X919626Y584067D01*
X923735Y583250D01*
X925195D01*
Y603885D01*
D02*
G37*
G36*
X307020D02*
X286385D01*
Y583250D01*
X287845D01*
X291954Y584067D01*
X295825Y585671D01*
X299309Y587999D01*
X302271Y590961D01*
X304599Y594445D01*
X306203Y598316D01*
X307020Y602425D01*
Y603885D01*
D02*
G37*
G36*
X285115D02*
X264480D01*
Y602425D01*
X265297Y598316D01*
X266901Y594445D01*
X269228Y590961D01*
X272191Y587999D01*
X275675Y585671D01*
X279546Y584067D01*
X283655Y583250D01*
X285115D01*
Y603885D01*
D02*
G37*
G36*
X455046Y588411D02*
X446883D01*
Y578485D01*
X455046D01*
Y588411D01*
D02*
G37*
G36*
X445613D02*
X437449D01*
Y578485D01*
X445613D01*
Y588411D01*
D02*
G37*
G36*
X622186Y579021D02*
X615273D01*
Y569595D01*
X622186D01*
Y579021D01*
D02*
G37*
G36*
X614003D02*
X607089D01*
Y569595D01*
X614003D01*
Y579021D01*
D02*
G37*
G36*
X455046Y577215D02*
X446883D01*
Y567289D01*
X455046D01*
Y577215D01*
D02*
G37*
G36*
X445613D02*
X437449D01*
Y567289D01*
X445613D01*
Y577215D01*
D02*
G37*
G36*
X622186Y568325D02*
X615273D01*
Y558899D01*
X622186D01*
Y568325D01*
D02*
G37*
G36*
X327407Y566350D02*
X326855D01*
Y557965D01*
X335240D01*
Y558517D01*
X334625Y560812D01*
X333438Y562868D01*
X331758Y564548D01*
X329702Y565735D01*
X327407Y566350D01*
D02*
G37*
G36*
X325585D02*
X325033D01*
X322738Y565735D01*
X320682Y564548D01*
X319002Y562868D01*
X317815Y560812D01*
X317200Y558517D01*
Y557965D01*
X325585D01*
Y566350D01*
D02*
G37*
G36*
X484571Y588411D02*
X466974D01*
Y567289D01*
X484571D01*
Y574924D01*
X508328D01*
X518969Y564282D01*
X518510Y562567D01*
Y560653D01*
X518758Y559726D01*
X515678Y556646D01*
X485895D01*
X485891Y556661D01*
X484888Y558399D01*
X483469Y559818D01*
X481731Y560821D01*
X479793Y561340D01*
X477787D01*
X475849Y560821D01*
X474111Y559818D01*
X472692Y558399D01*
X471689Y556661D01*
X471170Y554723D01*
Y552717D01*
X471689Y550779D01*
X472692Y549041D01*
X474111Y547622D01*
X475849Y546619D01*
X477787Y546100D01*
X479793D01*
X481731Y546619D01*
X483469Y547622D01*
X484888Y549041D01*
X485891Y550779D01*
X485895Y550794D01*
X516890D01*
X518010Y551017D01*
X518959Y551651D01*
X522448Y555139D01*
X522974Y554836D01*
X524823Y554340D01*
X526737D01*
X528586Y554836D01*
X530244Y555793D01*
X531597Y557146D01*
X532555Y558804D01*
X533050Y560653D01*
Y562567D01*
X532555Y564416D01*
X531597Y566074D01*
X530244Y567427D01*
X528586Y568385D01*
X526737Y568880D01*
X524823D01*
X523108Y568420D01*
X511609Y579919D01*
X510660Y580554D01*
X509540Y580776D01*
X484571D01*
Y588411D01*
D02*
G37*
G36*
X335240Y556695D02*
X326855D01*
Y548310D01*
X327407D01*
X329702Y548925D01*
X331758Y550112D01*
X333438Y551792D01*
X334625Y553848D01*
X335240Y556143D01*
Y556695D01*
D02*
G37*
G36*
X325585D02*
X317200D01*
Y556143D01*
X317815Y553848D01*
X319002Y551792D01*
X320682Y550112D01*
X322738Y548925D01*
X325033Y548310D01*
X325585D01*
Y556695D01*
D02*
G37*
G36*
X933750Y553650D02*
X915710D01*
Y535610D01*
X933750D01*
Y553650D01*
D02*
G37*
G36*
X392359Y553621D02*
X377261D01*
Y546486D01*
X367030D01*
X365910Y546264D01*
X364961Y545629D01*
X354588Y535256D01*
X335240D01*
Y541350D01*
X317200D01*
Y523310D01*
X335240D01*
Y529404D01*
X355800D01*
X356920Y529627D01*
X357869Y530261D01*
X368242Y540634D01*
X377261D01*
Y533499D01*
X392359D01*
Y553621D01*
D02*
G37*
G36*
X593491Y532516D02*
X583565D01*
Y524353D01*
X593491D01*
Y532516D01*
D02*
G37*
G36*
X582295D02*
X572369D01*
Y524353D01*
X582295D01*
Y532516D01*
D02*
G37*
G36*
X622186Y526951D02*
X615273D01*
Y517525D01*
X622186D01*
Y526951D01*
D02*
G37*
G36*
X614003D02*
X607089D01*
Y517525D01*
X614003D01*
Y526951D01*
D02*
G37*
G36*
X593491Y523083D02*
X583565D01*
Y514919D01*
X593491D01*
Y523083D01*
D02*
G37*
G36*
X582295D02*
X572369D01*
Y514919D01*
X582295D01*
Y523083D01*
D02*
G37*
G36*
X478523Y541020D02*
X476517D01*
X474579Y540501D01*
X472841Y539497D01*
X471423Y538079D01*
X470419Y536341D01*
X469900Y534403D01*
Y532397D01*
X470419Y530459D01*
X471423Y528721D01*
X472841Y527303D01*
X474579Y526299D01*
X476517Y525780D01*
X478523D01*
X480461Y526299D01*
X482199Y527303D01*
X483618Y528721D01*
X484621Y530459D01*
X484625Y530474D01*
X503978D01*
X518969Y515482D01*
X518510Y513767D01*
Y512196D01*
X483301D01*
Y519831D01*
X465704D01*
Y498709D01*
X483301D01*
Y506344D01*
X519859D01*
X520979Y506567D01*
X521477Y506900D01*
X522974Y506035D01*
X524823Y505540D01*
X526737D01*
X528586Y506035D01*
X530244Y506993D01*
X531597Y508346D01*
X532555Y510004D01*
X533050Y511853D01*
Y513767D01*
X532555Y515616D01*
X531597Y517274D01*
X530244Y518628D01*
X528586Y519585D01*
X526737Y520080D01*
X524823D01*
X523108Y519621D01*
X507259Y535469D01*
X506310Y536104D01*
X505190Y536326D01*
X484625D01*
X484621Y536341D01*
X483618Y538079D01*
X482199Y539497D01*
X480461Y540501D01*
X478523Y541020D01*
D02*
G37*
G36*
X453776Y519831D02*
X445613D01*
Y509905D01*
X453776D01*
Y519831D01*
D02*
G37*
G36*
X444343D02*
X436179D01*
Y509905D01*
X444343D01*
Y519831D01*
D02*
G37*
G36*
X622186Y516255D02*
X615273D01*
Y506829D01*
X622186D01*
Y516255D01*
D02*
G37*
G36*
X614003D02*
X607089D01*
Y506829D01*
X614003D01*
Y516255D01*
D02*
G37*
G36*
X815226Y515521D02*
X808313D01*
Y506095D01*
X815226D01*
Y515521D01*
D02*
G37*
G36*
X807043D02*
X800129D01*
Y506095D01*
X807043D01*
Y515521D01*
D02*
G37*
G36*
X453776Y508635D02*
X445613D01*
Y498709D01*
X453776D01*
Y508635D01*
D02*
G37*
G36*
X444343D02*
X436179D01*
Y498709D01*
X444343D01*
Y508635D01*
D02*
G37*
G36*
X852050Y542170D02*
X834510D01*
Y528768D01*
X833633Y527892D01*
X832999Y526942D01*
X832776Y525822D01*
Y515521D01*
X828154D01*
Y495399D01*
X843251D01*
Y515521D01*
X838629D01*
Y524610D01*
X838648Y524630D01*
X852050D01*
Y542170D01*
D02*
G37*
G36*
X815226Y504825D02*
X808313D01*
Y495399D01*
X815226D01*
Y504825D01*
D02*
G37*
G36*
X807043D02*
X800129D01*
Y495399D01*
X807043D01*
Y504825D01*
D02*
G37*
G36*
X579506Y493161D02*
X571343D01*
Y483235D01*
X579506D01*
Y493161D01*
D02*
G37*
G36*
X570073D02*
X561909D01*
Y483235D01*
X570073D01*
Y493161D01*
D02*
G37*
G36*
X328300Y494380D02*
X297465D01*
Y476745D01*
X328300D01*
Y494380D01*
D02*
G37*
G36*
X296195D02*
X265360D01*
Y476745D01*
X296195D01*
Y494380D01*
D02*
G37*
G36*
X859030Y478580D02*
X840990D01*
Y473736D01*
X779530D01*
Y478580D01*
X761490D01*
Y463040D01*
X779530D01*
Y467884D01*
X794168D01*
X809874Y452178D01*
Y398722D01*
X803055Y391903D01*
X803041Y391911D01*
X801103Y392430D01*
X799097D01*
X797159Y391911D01*
X795421Y390908D01*
X794003Y389489D01*
X792999Y387751D01*
X792480Y385813D01*
Y383807D01*
X792999Y381869D01*
X794003Y380131D01*
X795421Y378713D01*
X797159Y377709D01*
X799097Y377190D01*
X801103D01*
X803041Y377709D01*
X804779Y378713D01*
X806198Y380131D01*
X807201Y381869D01*
X807720Y383807D01*
Y385813D01*
X807201Y387751D01*
X807193Y387765D01*
X814869Y395441D01*
X815503Y396390D01*
X815726Y397510D01*
Y453390D01*
X815503Y454510D01*
X814869Y455459D01*
X803618Y466710D01*
X804104Y467884D01*
X840990D01*
Y463040D01*
X859030D01*
Y478580D01*
D02*
G37*
G36*
X579506Y481965D02*
X571343D01*
Y472039D01*
X579506D01*
Y481965D01*
D02*
G37*
G36*
X570073D02*
X561909D01*
Y472039D01*
X570073D01*
Y481965D01*
D02*
G37*
G36*
X925563Y486410D02*
X923557D01*
X921619Y485891D01*
X919881Y484888D01*
X918463Y483469D01*
X917459Y481731D01*
X916940Y479793D01*
Y477879D01*
X907861Y468801D01*
X907227Y467851D01*
X907004Y466731D01*
Y461638D01*
X905066Y461119D01*
X902554Y459668D01*
X900502Y457616D01*
X899051Y455104D01*
X898300Y452301D01*
Y449399D01*
X899051Y446596D01*
X900502Y444084D01*
X902554Y442032D01*
X905066Y440581D01*
X907869Y439830D01*
X910771D01*
X913574Y440581D01*
X916086Y442032D01*
X918138Y444084D01*
X919589Y446596D01*
X920340Y449399D01*
Y452301D01*
X919589Y455104D01*
X918138Y457616D01*
X916086Y459668D01*
X913574Y461119D01*
X912857Y461311D01*
Y465519D01*
X919976Y472638D01*
X921619Y471689D01*
X923557Y471170D01*
X925563D01*
X927501Y471689D01*
X929239Y472692D01*
X930658Y474111D01*
X931661Y475849D01*
X932180Y477787D01*
Y479793D01*
X931661Y481731D01*
X930658Y483469D01*
X929239Y484888D01*
X927501Y485891D01*
X925563Y486410D01*
D02*
G37*
G36*
X328300Y475475D02*
X297465D01*
Y457840D01*
X328300D01*
Y475475D01*
D02*
G37*
G36*
X296195D02*
X265360D01*
Y457840D01*
X296195D01*
Y475475D01*
D02*
G37*
G36*
X526783Y471170D02*
X524777D01*
X522839Y470651D01*
X521101Y469647D01*
X519683Y468229D01*
X518679Y466491D01*
X518160Y464553D01*
Y462547D01*
X518679Y460609D01*
X519683Y458871D01*
X521101Y457453D01*
X522839Y456449D01*
X524777Y455930D01*
X526783D01*
X528321Y456342D01*
X530474Y454189D01*
Y447990D01*
X530277Y447951D01*
X529601Y447499D01*
X529149Y446823D01*
X528990Y446025D01*
Y434475D01*
X529149Y433677D01*
X529601Y433001D01*
X530277Y432549D01*
X531075Y432390D01*
X535725D01*
X536523Y432549D01*
X537199Y433001D01*
X537651Y433677D01*
X537810Y434475D01*
Y446025D01*
X537651Y446823D01*
X537199Y447499D01*
X536523Y447951D01*
X536326Y447990D01*
Y455402D01*
X536104Y456521D01*
X535469Y457471D01*
X532680Y460260D01*
X532881Y460609D01*
X533400Y462547D01*
Y464553D01*
X532881Y466491D01*
X531878Y468229D01*
X530459Y469647D01*
X528721Y470651D01*
X526783Y471170D01*
D02*
G37*
G36*
X523025Y448110D02*
X518375D01*
X517577Y447951D01*
X516901Y447499D01*
X516449Y446823D01*
X516290Y446025D01*
Y434475D01*
X516449Y433677D01*
X516901Y433001D01*
X517577Y432549D01*
X518375Y432390D01*
X523025D01*
X523823Y432549D01*
X524499Y433001D01*
X524951Y433677D01*
X525110Y434475D01*
Y446025D01*
X524951Y446823D01*
X524499Y447499D01*
X523823Y447951D01*
X523025Y448110D01*
D02*
G37*
G36*
X510325D02*
X505675D01*
X504877Y447951D01*
X504201Y447499D01*
X503749Y446823D01*
X503590Y446025D01*
Y434475D01*
X503749Y433677D01*
X504201Y433001D01*
X504877Y432549D01*
X505675Y432390D01*
X510325D01*
X511123Y432549D01*
X511799Y433001D01*
X512251Y433677D01*
X512410Y434475D01*
Y446025D01*
X512251Y446823D01*
X511799Y447499D01*
X511123Y447951D01*
X510325Y448110D01*
D02*
G37*
G36*
X497625D02*
X492975D01*
X492177Y447951D01*
X491501Y447499D01*
X491049Y446823D01*
X490890Y446025D01*
Y434475D01*
X491049Y433677D01*
X491501Y433001D01*
X492177Y432549D01*
X492975Y432390D01*
X497625D01*
X498423Y432549D01*
X499099Y433001D01*
X499551Y433677D01*
X499710Y434475D01*
Y446025D01*
X499551Y446823D01*
X499099Y447499D01*
X498423Y447951D01*
X497625Y448110D01*
D02*
G37*
G36*
X472225D02*
X467575D01*
X466777Y447951D01*
X466101Y447499D01*
X465649Y446823D01*
X465490Y446025D01*
Y434475D01*
X465649Y433677D01*
X466101Y433001D01*
X466777Y432549D01*
X467575Y432390D01*
X472225D01*
X473023Y432549D01*
X473699Y433001D01*
X474151Y433677D01*
X474310Y434475D01*
Y446025D01*
X474151Y446823D01*
X473699Y447499D01*
X473023Y447951D01*
X472225Y448110D01*
D02*
G37*
G36*
X459525D02*
X454875D01*
X454077Y447951D01*
X453401Y447499D01*
X452949Y446823D01*
X452790Y446025D01*
Y434475D01*
X452949Y433677D01*
X453401Y433001D01*
X454077Y432549D01*
X454875Y432390D01*
X459525D01*
X460323Y432549D01*
X460999Y433001D01*
X461451Y433677D01*
X461610Y434475D01*
Y446025D01*
X461451Y446823D01*
X460999Y447499D01*
X460323Y447951D01*
X459525Y448110D01*
D02*
G37*
G36*
X292015Y444610D02*
X289645D01*
X287356Y443997D01*
X285304Y442812D01*
X283628Y441136D01*
X282443Y439084D01*
X281830Y436795D01*
Y434425D01*
X282443Y432136D01*
X283628Y430084D01*
X285304Y428408D01*
X287356Y427223D01*
X289645Y426610D01*
X292015D01*
X294304Y427223D01*
X296356Y428408D01*
X298032Y430084D01*
X299217Y432136D01*
X299830Y434425D01*
Y436795D01*
X299217Y439084D01*
X298032Y441136D01*
X296356Y442812D01*
X294304Y443997D01*
X292015Y444610D01*
D02*
G37*
G36*
X779530Y433580D02*
X771145D01*
Y426445D01*
X779530D01*
Y433580D01*
D02*
G37*
G36*
X859030D02*
X850645D01*
Y426445D01*
X859030D01*
Y433580D01*
D02*
G37*
G36*
X849375D02*
X840990D01*
Y426445D01*
X849375D01*
Y433580D01*
D02*
G37*
G36*
X769875D02*
X761490D01*
Y426445D01*
X769875D01*
Y433580D01*
D02*
G37*
G36*
X859030Y425175D02*
X850645D01*
Y418040D01*
X859030D01*
Y425175D01*
D02*
G37*
G36*
X849375D02*
X840990D01*
Y418040D01*
X849375D01*
Y425175D01*
D02*
G37*
G36*
X779530D02*
X771145D01*
Y418040D01*
X779530D01*
Y425175D01*
D02*
G37*
G36*
X769875D02*
X761490D01*
Y418040D01*
X769875D01*
Y425175D01*
D02*
G37*
G36*
X642353Y439420D02*
X640347D01*
X638409Y438901D01*
X636671Y437897D01*
X635252Y436479D01*
X634249Y434741D01*
X633730Y432803D01*
Y430797D01*
X634249Y428859D01*
X635252Y427121D01*
X636671Y425703D01*
X638409Y424699D01*
X640347Y424180D01*
X642353D01*
X644291Y424699D01*
X646029Y425703D01*
X647195Y426869D01*
X652851Y421213D01*
Y415362D01*
X651196D01*
X650076Y415139D01*
X649127Y414505D01*
X639281Y404659D01*
X638647Y403710D01*
X638424Y402590D01*
Y382212D01*
X610928Y354716D01*
X578605D01*
X578601Y354731D01*
X577598Y356469D01*
X576179Y357887D01*
X574441Y358891D01*
X572503Y359410D01*
X570497D01*
X568559Y358891D01*
X566821Y357887D01*
X565402Y356469D01*
X564399Y354731D01*
X563880Y352793D01*
Y350787D01*
X564399Y348849D01*
X565402Y347111D01*
X566821Y345692D01*
X568559Y344689D01*
X570497Y344170D01*
X572503D01*
X574441Y344689D01*
X576179Y345692D01*
X577598Y347111D01*
X578601Y348849D01*
X578605Y348864D01*
X612140D01*
X613260Y349086D01*
X614209Y349721D01*
X643419Y378931D01*
X644053Y379880D01*
X644276Y381000D01*
Y401378D01*
X651581Y408683D01*
X652851Y408157D01*
Y405229D01*
X667949D01*
Y425351D01*
X656990D01*
X650289Y432051D01*
X649340Y432686D01*
X648970Y432759D01*
Y432803D01*
X648451Y434741D01*
X647448Y436479D01*
X646029Y437897D01*
X644291Y438901D01*
X642353Y439420D01*
D02*
G37*
G36*
X377100Y406630D02*
X361465D01*
Y402495D01*
X377100D01*
Y406630D01*
D02*
G37*
G36*
X360195D02*
X344560D01*
Y402495D01*
X360195D01*
Y406630D01*
D02*
G37*
G36*
X914195Y426990D02*
X904445D01*
X902047Y426513D01*
X900015Y425155D01*
X898656Y423123D01*
X898180Y420725D01*
Y410975D01*
X898532Y409201D01*
X891038Y401706D01*
X856735D01*
X856731Y401721D01*
X855727Y403459D01*
X854309Y404878D01*
X852571Y405881D01*
X850633Y406400D01*
X848627D01*
X846689Y405881D01*
X844951Y404878D01*
X843532Y403459D01*
X842529Y401721D01*
X842010Y399783D01*
Y397777D01*
X842529Y395839D01*
X843532Y394101D01*
X844951Y392682D01*
X846689Y391679D01*
X848627Y391160D01*
X850633D01*
X852571Y391679D01*
X854309Y392682D01*
X855727Y394101D01*
X856731Y395839D01*
X856735Y395854D01*
X892250D01*
X893370Y396077D01*
X894319Y396711D01*
X902671Y405062D01*
X904445Y404710D01*
X914195D01*
X916593Y405187D01*
X918625Y406545D01*
X919984Y408577D01*
X920460Y410975D01*
Y420725D01*
X919984Y423123D01*
X918625Y425155D01*
X916593Y426513D01*
X914195Y426990D01*
D02*
G37*
G36*
X377100Y401225D02*
X361465D01*
Y397090D01*
X377100D01*
Y401225D01*
D02*
G37*
G36*
X360195D02*
X344560D01*
Y397090D01*
X360195D01*
Y401225D01*
D02*
G37*
G36*
X425351Y438036D02*
X405229D01*
Y422939D01*
X412364D01*
Y403460D01*
X406520D01*
Y385920D01*
X424060D01*
Y403460D01*
X418216D01*
Y422939D01*
X425351D01*
Y438036D01*
D02*
G37*
G36*
X446825Y393110D02*
X445135D01*
Y385885D01*
X448910D01*
Y391025D01*
X448751Y391823D01*
X448299Y392499D01*
X447623Y392951D01*
X446825Y393110D01*
D02*
G37*
G36*
X443865D02*
X442175D01*
X441377Y392951D01*
X440701Y392499D01*
X440249Y391823D01*
X440090Y391025D01*
Y385885D01*
X443865D01*
Y393110D01*
D02*
G37*
G36*
X603630Y400170D02*
X594995D01*
Y385535D01*
X603630D01*
Y400170D01*
D02*
G37*
G36*
X593725D02*
X585090D01*
Y385535D01*
X593725D01*
Y400170D01*
D02*
G37*
G36*
X448910Y384615D02*
X445135D01*
Y377390D01*
X446825D01*
X447623Y377549D01*
X448299Y378001D01*
X448751Y378677D01*
X448910Y379475D01*
Y384615D01*
D02*
G37*
G36*
X443865D02*
X440090D01*
Y379475D01*
X440249Y378677D01*
X440701Y378001D01*
X441377Y377549D01*
X442175Y377390D01*
X443865D01*
Y384615D01*
D02*
G37*
G36*
X292015Y389610D02*
X289645D01*
X287356Y388997D01*
X285304Y387812D01*
X283628Y386136D01*
X282443Y384084D01*
X281830Y381795D01*
Y379425D01*
X282443Y377136D01*
X283628Y375084D01*
X285304Y373408D01*
X287356Y372223D01*
X289645Y371610D01*
X292015D01*
X294304Y372223D01*
X296356Y373408D01*
X298032Y375084D01*
X299217Y377136D01*
X299830Y379425D01*
Y381795D01*
X299217Y384084D01*
X298032Y386136D01*
X296356Y387812D01*
X294304Y388997D01*
X292015Y389610D01*
D02*
G37*
G36*
X603630Y384265D02*
X594995D01*
Y369630D01*
X603630D01*
Y384265D01*
D02*
G37*
G36*
X593725D02*
X585090D01*
Y369630D01*
X593725D01*
Y384265D01*
D02*
G37*
G36*
X424060Y368460D02*
X415925D01*
Y360325D01*
X424060D01*
Y368460D01*
D02*
G37*
G36*
X414655D02*
X406520D01*
Y360325D01*
X414655D01*
Y368460D01*
D02*
G37*
G36*
X669176Y368201D02*
X654079D01*
Y359796D01*
X647185D01*
X647181Y359811D01*
X646178Y361549D01*
X644759Y362967D01*
X643021Y363971D01*
X641083Y364490D01*
X639077D01*
X637139Y363971D01*
X635401Y362967D01*
X633983Y361549D01*
X632979Y359811D01*
X632460Y357873D01*
Y355867D01*
X632979Y353929D01*
X633983Y352191D01*
X635401Y350773D01*
X637139Y349769D01*
X639077Y349250D01*
X641083D01*
X643021Y349769D01*
X644759Y350773D01*
X646178Y352191D01*
X647181Y353929D01*
X647185Y353944D01*
X654079D01*
Y348079D01*
X669176D01*
Y368201D01*
D02*
G37*
G36*
X535725Y393110D02*
X531075D01*
X530277Y392951D01*
X529601Y392499D01*
X529149Y391823D01*
X528990Y391025D01*
Y379475D01*
X529149Y378677D01*
X529601Y378001D01*
X530277Y377549D01*
X530474Y377510D01*
Y370871D01*
X530696Y369751D01*
X531331Y368801D01*
X533598Y366534D01*
X532649Y364891D01*
X532130Y362953D01*
Y360947D01*
X532649Y359009D01*
X533652Y357271D01*
X535071Y355853D01*
X536809Y354849D01*
X538747Y354330D01*
X540753D01*
X542691Y354849D01*
X544429Y355853D01*
X545848Y357271D01*
X546851Y359009D01*
X547370Y360947D01*
Y362953D01*
X546851Y364891D01*
X545848Y366629D01*
X544429Y368047D01*
X542691Y369051D01*
X540753Y369570D01*
X538839D01*
X536326Y372083D01*
Y377510D01*
X536523Y377549D01*
X537199Y378001D01*
X537651Y378677D01*
X537810Y379475D01*
Y391025D01*
X537651Y391823D01*
X537199Y392499D01*
X536523Y392951D01*
X535725Y393110D01*
D02*
G37*
G36*
X523025D02*
X518375D01*
X517577Y392951D01*
X516901Y392499D01*
X516449Y391823D01*
X516290Y391025D01*
Y379475D01*
X516449Y378677D01*
X516901Y378001D01*
X517577Y377549D01*
X517774Y377510D01*
Y367785D01*
X517759Y367781D01*
X516021Y366777D01*
X514603Y365359D01*
X513599Y363621D01*
X513080Y361683D01*
Y359677D01*
X513599Y357739D01*
X514603Y356001D01*
X516021Y354582D01*
X517759Y353579D01*
X519697Y353060D01*
X521703D01*
X523641Y353579D01*
X525379Y354582D01*
X526797Y356001D01*
X527801Y357739D01*
X528320Y359677D01*
Y361683D01*
X527801Y363621D01*
X526797Y365359D01*
X525379Y366777D01*
X523641Y367781D01*
X523626Y367785D01*
Y377510D01*
X523823Y377549D01*
X524499Y378001D01*
X524951Y378677D01*
X525110Y379475D01*
Y391025D01*
X524951Y391823D01*
X524499Y392499D01*
X523823Y392951D01*
X523025Y393110D01*
D02*
G37*
G36*
X424060Y359055D02*
X415925D01*
Y350920D01*
X424060D01*
Y359055D01*
D02*
G37*
G36*
X414655D02*
X406520D01*
Y350920D01*
X414655D01*
Y359055D01*
D02*
G37*
G36*
X328300Y358380D02*
X297465D01*
Y340745D01*
X328300D01*
Y358380D01*
D02*
G37*
G36*
X296195D02*
X265360D01*
Y340745D01*
X296195D01*
Y358380D01*
D02*
G37*
G36*
X914195Y342610D02*
X909955D01*
Y332105D01*
X920460D01*
Y336345D01*
X919984Y338743D01*
X918625Y340775D01*
X916593Y342133D01*
X914195Y342610D01*
D02*
G37*
G36*
X908685D02*
X904445D01*
X902047Y342133D01*
X900015Y340775D01*
X898656Y338743D01*
X898180Y336345D01*
Y332105D01*
X908685D01*
Y342610D01*
D02*
G37*
G36*
X328300Y339475D02*
X297465D01*
Y321840D01*
X328300D01*
Y339475D01*
D02*
G37*
G36*
X296195D02*
X265360D01*
Y321840D01*
X296195D01*
Y339475D01*
D02*
G37*
G36*
X920460Y330835D02*
X909955D01*
Y320330D01*
X914195D01*
X916593Y320807D01*
X918625Y322165D01*
X919984Y324197D01*
X920460Y326595D01*
Y330835D01*
D02*
G37*
G36*
X908685D02*
X898180D01*
Y326595D01*
X898656Y324197D01*
X900015Y322165D01*
X902047Y320807D01*
X904445Y320330D01*
X908685D01*
Y330835D01*
D02*
G37*
G36*
X832850Y323980D02*
X814810D01*
Y305940D01*
X832850D01*
Y323980D01*
D02*
G37*
G36*
X664596Y311551D02*
X656433D01*
Y301625D01*
X664596D01*
Y311551D01*
D02*
G37*
G36*
X655163D02*
X646999D01*
Y301625D01*
X655163D01*
Y311551D01*
D02*
G37*
G36*
X614589Y310281D02*
X606425D01*
Y300355D01*
X614589D01*
Y310281D01*
D02*
G37*
G36*
X605155D02*
X596991D01*
Y300355D01*
X605155D01*
Y310281D01*
D02*
G37*
G36*
X664596Y300355D02*
X656433D01*
Y290429D01*
X664596D01*
Y300355D01*
D02*
G37*
G36*
X655163D02*
X646999D01*
Y290429D01*
X655163D01*
Y300355D01*
D02*
G37*
G36*
X614589Y299085D02*
X606425D01*
Y289159D01*
X614589D01*
Y299085D01*
D02*
G37*
G36*
X605155D02*
X596991D01*
Y289159D01*
X605155D01*
Y299085D01*
D02*
G37*
G36*
X501581Y296140D02*
X501015D01*
Y287655D01*
X509500D01*
Y288221D01*
X508879Y290540D01*
X507678Y292620D01*
X505980Y294318D01*
X503900Y295518D01*
X501581Y296140D01*
D02*
G37*
G36*
X476181D02*
X475615D01*
Y287655D01*
X484100D01*
Y288221D01*
X483479Y290540D01*
X482278Y292620D01*
X480580Y294318D01*
X478500Y295518D01*
X476181Y296140D01*
D02*
G37*
G36*
X499745D02*
X499179D01*
X496860Y295518D01*
X494780Y294318D01*
X493082Y292620D01*
X491881Y290540D01*
X491260Y288221D01*
Y287655D01*
X499745D01*
Y296140D01*
D02*
G37*
G36*
X474345D02*
X473779D01*
X471460Y295518D01*
X469380Y294318D01*
X467682Y292620D01*
X466482Y290540D01*
X465860Y288221D01*
Y287655D01*
X474345D01*
Y296140D01*
D02*
G37*
G36*
X449313Y292100D02*
X447307D01*
X445369Y291581D01*
X443631Y290578D01*
X442212Y289159D01*
X441209Y287421D01*
X441205Y287406D01*
X433471D01*
Y291216D01*
X412349D01*
Y273619D01*
X433471D01*
Y281554D01*
X441205D01*
X441209Y281539D01*
X442212Y279801D01*
X443631Y278382D01*
X445369Y277379D01*
X447307Y276860D01*
X449313D01*
X451251Y277379D01*
X452989Y278382D01*
X454408Y279801D01*
X455411Y281539D01*
X455930Y283477D01*
Y285483D01*
X455411Y287421D01*
X454408Y289159D01*
X452989Y290578D01*
X451251Y291581D01*
X449313Y292100D01*
D02*
G37*
G36*
X395671Y296311D02*
X387507D01*
Y286385D01*
X395671D01*
Y296311D01*
D02*
G37*
G36*
X386237D02*
X378074D01*
Y286385D01*
X386237D01*
Y296311D01*
D02*
G37*
G36*
X926655Y305750D02*
X925195D01*
Y285115D01*
X945830D01*
Y286575D01*
X945013Y290684D01*
X943409Y294555D01*
X941081Y298039D01*
X938119Y301001D01*
X934635Y303329D01*
X930764Y304933D01*
X926655Y305750D01*
D02*
G37*
G36*
X923925D02*
X922465D01*
X918356Y304933D01*
X914485Y303329D01*
X911001Y301001D01*
X908038Y298039D01*
X905711Y294555D01*
X904107Y290684D01*
X903290Y286575D01*
Y285115D01*
X923925D01*
Y305750D01*
D02*
G37*
G36*
X287845Y304480D02*
X286385D01*
Y283845D01*
X307020D01*
Y285305D01*
X306203Y289414D01*
X304599Y293285D01*
X302271Y296769D01*
X299309Y299732D01*
X295825Y302059D01*
X291954Y303663D01*
X287845Y304480D01*
D02*
G37*
G36*
X285115D02*
X283655D01*
X279546Y303663D01*
X275675Y302059D01*
X272191Y299732D01*
X269228Y296769D01*
X266901Y293285D01*
X265297Y289414D01*
X264480Y285305D01*
Y283845D01*
X285115D01*
Y304480D01*
D02*
G37*
G36*
X509500Y286385D02*
X501015D01*
Y277900D01*
X501581D01*
X503900Y278521D01*
X505980Y279722D01*
X507678Y281420D01*
X508879Y283500D01*
X509500Y285819D01*
Y286385D01*
D02*
G37*
G36*
X499745D02*
X491260D01*
Y285819D01*
X491881Y283500D01*
X493082Y281420D01*
X494780Y279722D01*
X496860Y278521D01*
X499179Y277900D01*
X499745D01*
Y286385D01*
D02*
G37*
G36*
X484100D02*
X475615D01*
Y277900D01*
X476181D01*
X478500Y278521D01*
X480580Y279722D01*
X482278Y281420D01*
X483479Y283500D01*
X484100Y285819D01*
Y286385D01*
D02*
G37*
G36*
X474345D02*
X465860D01*
Y285819D01*
X466482Y283500D01*
X467682Y281420D01*
X469380Y279722D01*
X471460Y278521D01*
X473779Y277900D01*
X474345D01*
Y286385D01*
D02*
G37*
G36*
X395671Y285115D02*
X387507D01*
Y275189D01*
X395671D01*
Y285115D01*
D02*
G37*
G36*
X386237D02*
X378074D01*
Y275189D01*
X386237D01*
Y285115D01*
D02*
G37*
G36*
X800017Y323980D02*
X797643D01*
X795348Y323365D01*
X793292Y322178D01*
X791612Y320498D01*
X790425Y318442D01*
X789810Y316147D01*
Y313773D01*
X790425Y311478D01*
X791612Y309422D01*
X793292Y307742D01*
X795348Y306555D01*
X795904Y306406D01*
Y287020D01*
X796126Y285900D01*
X796761Y284951D01*
X808191Y273521D01*
X809140Y272887D01*
X810260Y272664D01*
X822205D01*
X822209Y272649D01*
X823213Y270911D01*
X824631Y269492D01*
X826369Y268489D01*
X828307Y267970D01*
X830313D01*
X832251Y268489D01*
X833989Y269492D01*
X835407Y270911D01*
X836411Y272649D01*
X836930Y274587D01*
Y276593D01*
X836411Y278531D01*
X835407Y280269D01*
X833989Y281688D01*
X832251Y282691D01*
X830313Y283210D01*
X828307D01*
X826369Y282691D01*
X824631Y281688D01*
X823213Y280269D01*
X822209Y278531D01*
X822205Y278516D01*
X811472D01*
X801756Y288232D01*
Y306406D01*
X802312Y306555D01*
X804368Y307742D01*
X806048Y309422D01*
X807235Y311478D01*
X807850Y313773D01*
Y316147D01*
X807235Y318442D01*
X806048Y320498D01*
X804368Y322178D01*
X802312Y323365D01*
X800017Y323980D01*
D02*
G37*
G36*
X945830Y283845D02*
X925195D01*
Y263210D01*
X926655D01*
X930764Y264027D01*
X934635Y265631D01*
X938119Y267959D01*
X941081Y270921D01*
X943409Y274405D01*
X945013Y278276D01*
X945830Y282385D01*
Y283845D01*
D02*
G37*
G36*
X923925D02*
X903290D01*
Y282385D01*
X904107Y278276D01*
X905711Y274405D01*
X908038Y270921D01*
X911001Y267959D01*
X914485Y265631D01*
X918356Y264027D01*
X922465Y263210D01*
X923925D01*
Y283845D01*
D02*
G37*
G36*
X307020Y282575D02*
X286385D01*
Y261940D01*
X287845D01*
X291954Y262757D01*
X295825Y264361D01*
X299309Y266688D01*
X302271Y269651D01*
X304599Y273135D01*
X306203Y277006D01*
X307020Y281115D01*
Y282575D01*
D02*
G37*
G36*
X285115D02*
X264480D01*
Y281115D01*
X265297Y277006D01*
X266901Y273135D01*
X269228Y269651D01*
X272191Y266688D01*
X275675Y264361D01*
X279546Y262757D01*
X283655Y261940D01*
X285115D01*
Y282575D01*
D02*
G37*
%LPD*%
D15*
X843280Y533400D02*
D03*
X808280D02*
D03*
D16*
X807678Y505460D02*
D03*
X835702D02*
D03*
X412835Y543560D02*
D03*
X384810D02*
D03*
X703538Y466090D02*
D03*
X731562D02*
D03*
X689652Y358140D02*
D03*
X661628D02*
D03*
X688425Y415290D02*
D03*
X660400D02*
D03*
X642662Y516890D02*
D03*
X614638D02*
D03*
X642662Y568960D02*
D03*
X614638D02*
D03*
D17*
X446248Y577850D02*
D03*
X475772D02*
D03*
X444978Y509270D02*
D03*
X474502D02*
D03*
X357348Y285750D02*
D03*
X386872D02*
D03*
X576265Y299720D02*
D03*
X605790D02*
D03*
X570708Y482600D02*
D03*
X600232D02*
D03*
X655798Y300990D02*
D03*
X685322D02*
D03*
D18*
X457200Y385250D02*
D03*
X482600Y440250D02*
D03*
X444500Y385250D02*
D03*
X469900D02*
D03*
X482600D02*
D03*
X469900Y440250D02*
D03*
X495300D02*
D03*
X508000D02*
D03*
Y385250D02*
D03*
X533400Y440250D02*
D03*
X495300Y385250D02*
D03*
X520700D02*
D03*
Y440250D02*
D03*
X533400Y385250D02*
D03*
X457200Y440250D02*
D03*
X444500D02*
D03*
D19*
X415290Y394690D02*
D03*
Y359690D02*
D03*
D20*
X422910Y282418D02*
D03*
Y311942D02*
D03*
X582930Y523718D02*
D03*
Y553242D02*
D03*
D21*
X360830Y414360D02*
D03*
Y401860D02*
D03*
Y426860D02*
D03*
Y389360D02*
D03*
D22*
X296830Y340110D02*
D03*
Y476110D02*
D03*
D23*
X415290Y430488D02*
D03*
Y458512D02*
D03*
D24*
X850010Y425810D02*
D03*
X770510D02*
D03*
X850010Y470810D02*
D03*
X770510D02*
D03*
D25*
X700980Y503600D02*
D03*
X708980D02*
D03*
X716980D02*
D03*
X724980D02*
D03*
X732980D02*
D03*
X740980D02*
D03*
X748980D02*
D03*
X756980D02*
D03*
Y588600D02*
D03*
X748980D02*
D03*
X740980D02*
D03*
X732980D02*
D03*
X724980D02*
D03*
X716980D02*
D03*
X708980D02*
D03*
X700980D02*
D03*
D26*
X771480Y518100D02*
D03*
Y526100D02*
D03*
Y534100D02*
D03*
Y542100D02*
D03*
Y550100D02*
D03*
Y558100D02*
D03*
Y566100D02*
D03*
Y574100D02*
D03*
X686480D02*
D03*
Y566100D02*
D03*
Y558100D02*
D03*
Y550100D02*
D03*
Y542100D02*
D03*
Y534100D02*
D03*
Y526100D02*
D03*
Y518100D02*
D03*
D27*
X594360Y427900D02*
D03*
Y384900D02*
D03*
D33*
X863600Y613410D02*
D03*
X838200D02*
D03*
X812800D02*
D03*
X863600Y588010D02*
D03*
X838200D02*
D03*
X474980Y287020D02*
D03*
X500380D02*
D03*
X525780D02*
D03*
X474980Y312420D02*
D03*
X500380D02*
D03*
D34*
X812800Y588010D02*
D03*
X525780Y312420D02*
D03*
D41*
X924730Y544630D02*
D03*
X326220Y532330D02*
D03*
D42*
X924730Y519630D02*
D03*
X798830Y314960D02*
D03*
X326220Y557330D02*
D03*
D43*
X823830Y314960D02*
D03*
D48*
X909290Y504190D02*
X924730Y519630D01*
X869580Y504190D02*
X909290D01*
X659130Y594360D02*
Y615950D01*
X623900Y623900D02*
X651180D01*
X659130Y615950D01*
X599440Y599440D02*
X623900Y623900D01*
X599440Y562625D02*
X642662Y519402D01*
Y516890D02*
Y519402D01*
X599440Y562625D02*
Y599440D01*
X654990Y537540D02*
Y579129D01*
X664210Y556260D02*
X665770D01*
X654990Y579129D02*
X661001Y585140D01*
X664210Y573319D02*
X679429Y558100D01*
X664210Y573319D02*
Y575310D01*
X823715Y616705D02*
X831140Y624130D01*
X845260D02*
X849630Y619760D01*
X715010Y628650D02*
X873760D01*
X671500Y585140D02*
X715010Y628650D01*
X873760D02*
X889000Y613410D01*
X831140Y624130D02*
X845260D01*
X849630Y599440D02*
Y619760D01*
X838200Y588010D02*
X849630Y599440D01*
X816850Y602300D02*
X823715Y609165D01*
X776290Y602300D02*
X816850D01*
X769620Y595630D02*
X776290Y602300D01*
X823715Y609165D02*
Y616705D01*
X756980Y594337D02*
X758273Y595630D01*
X756980Y588600D02*
Y594337D01*
X758273Y595630D02*
X769620D01*
X776630Y582320D02*
X782320Y588010D01*
X812800D01*
X776630Y575393D02*
Y582320D01*
X835702Y505460D02*
Y525822D01*
X843280Y533400D01*
X808280D02*
X838200Y563320D01*
Y588010D01*
X885190D02*
X889000Y591820D01*
X863600Y588010D02*
X885190D01*
X889000Y591820D02*
Y613410D01*
X661001Y585140D02*
X671500D01*
X654990Y537540D02*
X656590Y535940D01*
X748980Y588600D02*
Y605470D01*
X756920Y613410D01*
X812800D01*
X825500Y600710D02*
X838200Y613410D01*
X825500Y576580D02*
Y600710D01*
X815020Y566100D02*
X825500Y576580D01*
X771480Y566100D02*
X815020D01*
X771480Y574100D02*
X775337D01*
X776630Y575393D01*
X533400Y440250D02*
Y455402D01*
X525780Y463022D02*
X533400Y455402D01*
X525780Y463022D02*
Y463550D01*
X648220Y429982D02*
X660400Y417802D01*
X641350Y431800D02*
X643168Y429982D01*
X648220D01*
X660400Y415290D02*
Y417802D01*
X641350Y381000D02*
Y402590D01*
X657546Y412436D02*
X660400Y415290D01*
X651196Y412436D02*
X657546D01*
X641350Y402590D02*
X651196Y412436D01*
X612140Y351790D02*
X641350Y381000D01*
X571500Y351790D02*
X612140D01*
X524780Y561610D02*
X525780D01*
X516890Y553720D02*
X524780Y561610D01*
X478790Y553720D02*
X516890D01*
X477520Y533400D02*
X505190D01*
X525780Y512810D01*
X533400Y370871D02*
X539750Y364521D01*
X533400Y370871D02*
Y385250D01*
X539750Y361950D02*
Y364521D01*
X520700Y360680D02*
Y385250D01*
X494665Y348615D02*
Y384615D01*
X494030Y347980D02*
X494665Y348615D01*
Y384615D02*
X495300Y385250D01*
X506730Y339090D02*
X508000Y340360D01*
Y385250D01*
X543489Y466019D02*
X585414D01*
X600232Y480838D01*
Y482600D01*
X542290Y464820D02*
X543489Y466019D01*
X572039Y461549D02*
X621690D01*
X525780Y415290D02*
X572039Y461549D01*
X482600Y360680D02*
Y385250D01*
X444500Y360680D02*
X446248Y358932D01*
Y311942D02*
Y358932D01*
X500380Y312420D02*
Y327660D01*
X469900Y358140D02*
Y385250D01*
Y358140D02*
X500380Y327660D01*
X444500Y458470D02*
X463550Y477520D01*
X538480D02*
X565150Y504190D01*
X463550Y477520D02*
X538480D01*
X444500Y443700D02*
Y458470D01*
Y440250D02*
Y443700D01*
X575239Y547314D02*
X581168Y553242D01*
X582930D01*
X575239Y545551D02*
Y547314D01*
X565150Y535462D02*
X575239Y545551D01*
X565150Y504190D02*
Y535462D01*
X474502Y509270D02*
X519859D01*
X523399Y512810D01*
X525780D01*
X509540Y577850D02*
X525780Y561610D01*
X475772Y577850D02*
X509540D01*
X419969Y453834D02*
X434366D01*
X444500Y443700D01*
X415290Y458512D02*
X419969Y453834D01*
X482600Y440250D02*
Y467360D01*
X473710Y415290D02*
X525780D01*
X457200Y385250D02*
Y398780D01*
X473710Y415290D01*
X480601Y410820D02*
X528942D01*
X469900Y400119D02*
X480601Y410820D01*
X469900Y385250D02*
Y400119D01*
X457200Y360680D02*
Y385250D01*
Y360680D02*
X474980Y342900D01*
Y312420D02*
Y342900D01*
X525780Y287020D02*
X546100D01*
X552450Y293370D02*
Y379990D01*
X546100Y287020D02*
X552450Y293370D01*
Y379990D02*
X594360Y421900D01*
X810260Y275590D02*
X829310D01*
X798830Y287020D02*
X810260Y275590D01*
X798830Y287020D02*
Y314960D01*
X415290Y394690D02*
Y430488D01*
X560070Y313690D02*
X588010Y341630D01*
X560070Y276860D02*
Y313690D01*
Y276860D02*
X574040Y262890D01*
X673142Y341630D02*
X682461Y350949D01*
X588010Y341630D02*
X673142D01*
X424972Y284480D02*
X448310D01*
X422910Y282418D02*
X424972Y284480D01*
X422910Y311942D02*
X446248D01*
X457200Y300990D01*
X514350D01*
X525780Y312420D01*
X501650Y262890D02*
X525780Y287020D01*
X357348Y285750D02*
Y300198D01*
Y268762D02*
Y285750D01*
X363220Y262890D02*
X501650D01*
X357348Y268762D02*
X363220Y262890D01*
X382270Y307340D02*
X391160Y316230D01*
X364490Y307340D02*
X382270D01*
X357348Y300198D02*
X364490Y307340D01*
X391160Y316230D02*
Y388620D01*
X367030Y543560D02*
X384810D01*
X355800Y532330D02*
X367030Y543560D01*
X326220Y532330D02*
X355800D01*
X851800Y486410D02*
X869580Y504190D01*
X909931Y466731D02*
X921989Y478790D01*
X909931Y451461D02*
Y466731D01*
X921989Y478790D02*
X924560D01*
X909320Y450850D02*
X909931Y451461D01*
X892250Y398780D02*
X909320Y415850D01*
X849630Y398780D02*
X892250D01*
X864870Y279400D02*
Y350520D01*
X848360Y262890D02*
X864870Y279400D01*
X574040Y262890D02*
X848360D01*
X777240Y497840D02*
X779058Y499658D01*
X785408D01*
X788670Y502920D01*
Y539750D01*
X771480Y542100D02*
X786320D01*
X788670Y539750D01*
X642620Y569002D02*
Y614680D01*
Y569002D02*
X642662Y568960D01*
X770510Y470810D02*
X795380D01*
X850010D01*
X812800Y397510D02*
Y453390D01*
X800100Y384810D02*
X812800Y397510D01*
X795380Y470810D02*
X812800Y453390D01*
X748980Y377410D02*
Y503600D01*
X735330Y314960D02*
X756980Y336610D01*
Y503600D01*
X735330Y363760D02*
X748980Y377410D01*
X908760Y367030D02*
X909320Y366470D01*
X881380Y367030D02*
X908760D01*
X864870Y350520D02*
X881380Y367030D01*
X749300Y561340D02*
Y588280D01*
X748980Y588600D02*
X749300Y588280D01*
X740980Y503600D02*
Y553020D01*
X749300Y561340D01*
X702268Y464820D02*
X703538Y466090D01*
X690911Y464820D02*
X702268D01*
X681990Y471170D02*
X684561D01*
X690911Y464820D01*
X640080Y356870D02*
X660358D01*
X661628Y358140D01*
X659161Y535940D02*
X665321Y542100D01*
X656590Y535940D02*
X659161D01*
X665321Y542100D02*
X686480D01*
X671930Y550100D02*
X686480D01*
X665770Y556260D02*
X671930Y550100D01*
X679429Y558100D02*
X686480D01*
X386049Y431800D02*
X388620D01*
X391160Y388620D02*
X398780Y396240D01*
Y448310D01*
X404838Y450573D02*
X412778Y458512D01*
X398780Y448310D02*
X401043Y450573D01*
X404838D01*
X362270Y412920D02*
X387180D01*
X360830Y414360D02*
X362270Y412920D01*
X387180D02*
X388620Y411480D01*
X360830Y426860D02*
X381109D01*
X386049Y431800D01*
X415290Y458512D02*
Y495300D01*
X412835Y497755D02*
X415290Y495300D01*
X412835Y497755D02*
Y543560D01*
X412778Y458512D02*
X415290D01*
X360830Y389360D02*
X390420D01*
X391160Y388620D01*
X733149Y479701D02*
X736241D01*
X724980Y487870D02*
Y503600D01*
Y487870D02*
X733149Y479701D01*
X594360Y421900D02*
Y427900D01*
Y447040D01*
X599440Y452120D01*
X669290Y509149D02*
Y523961D01*
X528942Y410820D02*
X574712Y456590D01*
X673760Y520431D02*
X679429Y526100D01*
X673760Y507298D02*
Y520431D01*
X599440Y452120D02*
X698500D01*
X679429Y526100D02*
X686480D01*
X623052Y456590D02*
X673760Y507298D01*
X621690Y461549D02*
X669290Y509149D01*
X574712Y456590D02*
X623052D01*
X669290Y523961D02*
X679428Y534100D01*
X686480D01*
X795020Y490220D02*
X798830Y486410D01*
X795020Y490220D02*
Y543560D01*
X798830Y486410D02*
X851800D01*
X788480Y550100D02*
X795020Y543560D01*
X771480Y550100D02*
X788480D01*
X682461Y350949D02*
X684974D01*
X689652Y355628D02*
Y358140D01*
X684974Y350949D02*
X689652Y355628D01*
X697230Y276860D02*
X735330Y314960D01*
X576265Y297958D02*
X597363Y276860D01*
X697230D01*
X698500Y452120D02*
X704850Y445770D01*
X731562Y448352D02*
Y466090D01*
X728980Y445770D02*
X731562Y448352D01*
X704850Y445770D02*
X728980D01*
X688425Y429345D02*
X704850Y445770D01*
X688425Y415290D02*
Y429345D01*
X689652Y358140D02*
Y414062D01*
X688425Y415290D02*
X689652Y414062D01*
X736241Y479701D02*
X740980Y484440D01*
Y503600D01*
X736241Y470769D02*
Y479701D01*
X731562Y466090D02*
X736241Y470769D01*
X685322Y313752D02*
X735330Y363760D01*
X685322Y300990D02*
Y313752D01*
X576265Y297958D02*
Y299720D01*
X415290Y281148D02*
X417052D01*
D49*
X412750Y595630D02*
D03*
D50*
X387350D02*
D03*
D51*
X525780Y561610D02*
D03*
Y512810D02*
D03*
X735330Y363760D02*
D03*
D52*
X290830Y435610D02*
D03*
Y380610D02*
D03*
D53*
X909320Y450850D02*
D03*
Y366470D02*
D03*
D54*
Y415850D02*
D03*
Y331470D02*
D03*
D55*
X735330Y314960D02*
D03*
D56*
X285750Y283210D02*
D03*
Y604520D02*
D03*
X924560Y284480D02*
D03*
X925830Y604520D02*
D03*
D57*
X940001Y500000D02*
D03*
Y380000D02*
D03*
X930001Y360000D02*
D03*
X900001Y620000D02*
D03*
Y580000D02*
D03*
X910001Y560000D02*
D03*
X900001Y300000D02*
D03*
X890001Y560000D02*
D03*
Y520000D02*
D03*
X880001Y460000D02*
D03*
X890001Y440000D02*
D03*
X880001Y420000D02*
D03*
Y340000D02*
D03*
X890001Y280000D02*
D03*
X870001Y560000D02*
D03*
Y520000D02*
D03*
Y440000D02*
D03*
X850001Y560000D02*
D03*
Y360000D02*
D03*
X840001Y340000D02*
D03*
X850001Y320000D02*
D03*
X840001Y300000D02*
D03*
X830000Y440000D02*
D03*
Y400000D02*
D03*
Y360000D02*
D03*
X820000Y340000D02*
D03*
X810000Y360000D02*
D03*
X790000Y440000D02*
D03*
Y400000D02*
D03*
Y360000D02*
D03*
X780000Y300000D02*
D03*
X790000Y280000D02*
D03*
X770000Y400000D02*
D03*
Y360000D02*
D03*
Y320000D02*
D03*
X760000Y300000D02*
D03*
X770000Y280000D02*
D03*
X750000D02*
D03*
X730000Y560000D02*
D03*
X720000Y540000D02*
D03*
X730000Y400000D02*
D03*
Y280000D02*
D03*
X710000Y560000D02*
D03*
Y400000D02*
D03*
Y360000D02*
D03*
Y320000D02*
D03*
X680000Y620000D02*
D03*
X670000Y440000D02*
D03*
Y320000D02*
D03*
X650000D02*
D03*
X630000Y600000D02*
D03*
Y320000D02*
D03*
X600000Y540000D02*
D03*
X610000Y320000D02*
D03*
X580000Y580000D02*
D03*
X590000Y320000D02*
D03*
X560000Y620000D02*
D03*
X540000D02*
D03*
Y580000D02*
D03*
Y540000D02*
D03*
X520000Y620000D02*
D03*
Y540000D02*
D03*
X500000Y620000D02*
D03*
X480000D02*
D03*
X460000D02*
D03*
Y540000D02*
D03*
Y420000D02*
D03*
X440000Y620000D02*
D03*
Y540000D02*
D03*
X450000Y480000D02*
D03*
X420000Y620000D02*
D03*
X430000Y560000D02*
D03*
Y480000D02*
D03*
X400000Y620000D02*
D03*
Y500000D02*
D03*
X380000Y620000D02*
D03*
X390000Y520000D02*
D03*
X380000Y500000D02*
D03*
X390000Y480000D02*
D03*
X380000Y460000D02*
D03*
X360000Y620000D02*
D03*
X370000Y600000D02*
D03*
X360000Y580000D02*
D03*
X370000Y560000D02*
D03*
Y520000D02*
D03*
X360000Y500000D02*
D03*
X370000Y480000D02*
D03*
X360000Y460000D02*
D03*
X370000Y440000D02*
D03*
Y360000D02*
D03*
X360000Y340000D02*
D03*
X370000Y320000D02*
D03*
X340000Y620000D02*
D03*
X350000Y600000D02*
D03*
X340000Y580000D02*
D03*
X350000Y560000D02*
D03*
Y520000D02*
D03*
X340000Y500000D02*
D03*
X350000Y480000D02*
D03*
X340000Y460000D02*
D03*
X350000Y440000D02*
D03*
Y360000D02*
D03*
X340000Y340000D02*
D03*
X350000Y320000D02*
D03*
X340000Y300000D02*
D03*
X320000Y620000D02*
D03*
X330000Y600000D02*
D03*
X320000Y580000D02*
D03*
X330000Y440000D02*
D03*
X320000Y420000D02*
D03*
X330000Y400000D02*
D03*
X320000Y380000D02*
D03*
Y300000D02*
D03*
X330000Y280000D02*
D03*
X300000Y540000D02*
D03*
X310000Y520000D02*
D03*
Y440000D02*
D03*
X300000Y420000D02*
D03*
X310000Y400000D02*
D03*
X290000Y560000D02*
D03*
X280000Y540000D02*
D03*
X290000Y520000D02*
D03*
X280000Y420000D02*
D03*
X290000Y400000D02*
D03*
X270000Y560000D02*
D03*
Y520000D02*
D03*
Y440000D02*
D03*
Y400000D02*
D03*
D58*
X664210Y556260D02*
D03*
Y575310D02*
D03*
X659130Y594360D02*
D03*
X525780Y463550D02*
D03*
X571500Y351790D02*
D03*
X539750Y361950D02*
D03*
X478790Y553720D02*
D03*
X477520Y533400D02*
D03*
X520700Y360680D02*
D03*
X494030Y347980D02*
D03*
X506730Y339090D02*
D03*
X542290Y464820D02*
D03*
X482600Y360680D02*
D03*
X444500D02*
D03*
X482600Y467360D02*
D03*
X448310Y284480D02*
D03*
X924560Y478790D02*
D03*
X829310Y275590D02*
D03*
X777240Y497840D02*
D03*
X642620Y614680D02*
D03*
X640080Y356870D02*
D03*
X681990Y471170D02*
D03*
X641350Y431800D02*
D03*
X849630Y398780D02*
D03*
X800100Y384810D02*
D03*
X656590Y535940D02*
D03*
X388620Y431800D02*
D03*
Y411480D02*
D03*
M02*
