G04*
G04 #@! TF.GenerationSoftware,Altium Limited,Altium Designer,23.10.1 (27)*
G04*
G04 Layer_Color=65535*
%FSLAX44Y44*%
%MOMM*%
G71*
G04*
G04 #@! TF.SameCoordinates,CD13E35F-318D-4E2D-A327-3576DA5FE6F9*
G04*
G04*
G04 #@! TF.FilePolarity,Positive*
G04*
G01*
G75*
%ADD10C,0.2500*%
%ADD11C,0.2000*%
%ADD12C,0.6000*%
%ADD13C,0.1270*%
%ADD14C,0.2540*%
D10*
X793100Y588010D02*
G03*
X793100Y588010I-1250J0D01*
G01*
X433200Y595630D02*
G03*
X433200Y595630I-1250J0D01*
G01*
X547980Y312420D02*
G03*
X547980Y312420I-1250J0D01*
G01*
X925980Y575880D02*
G03*
X925980Y575880I-1250J0D01*
G01*
X856330Y314960D02*
G03*
X856330Y314960I-1250J0D01*
G01*
X736580Y276110D02*
G03*
X736580Y276110I-1250J0D01*
G01*
X865510Y425810D02*
G03*
X865510Y425810I-1250J0D01*
G01*
X693730Y503600D02*
G03*
X693730Y503600I-1250J0D01*
G01*
X327470Y501080D02*
G03*
X327470Y501080I-1250J0D01*
G01*
X595610Y365400D02*
G03*
X595610Y365400I-1250J0D01*
G01*
D11*
X502530Y503710D02*
G03*
X549030Y503710I23250J0D01*
G01*
Y570710D02*
G03*
X502530Y570710I-23250J0D01*
G01*
X432400Y385250D02*
G03*
X432400Y385250I-1000J0D01*
G01*
X712080Y290860D02*
G03*
X720330Y282610I8250J0D01*
G01*
X750330Y282610D02*
G03*
X758580Y290860I0J8250D01*
G01*
Y387860D02*
G03*
X750330Y396110I-8250J0D01*
G01*
X720330Y396110D02*
G03*
X712080Y387860I0J-8250D01*
G01*
X797600Y574310D02*
Y627110D01*
Y574310D02*
X878800D01*
Y627110D01*
X797600D02*
X878800D01*
X819780Y524900D02*
X831780D01*
X819780Y541900D02*
X831780D01*
X829030Y525650D02*
Y541150D01*
X816956Y496669D02*
X826424D01*
X816956Y514251D02*
X826424D01*
X374650Y566630D02*
Y624630D01*
X425450D01*
X374650Y566630D02*
X425450D01*
Y624630D01*
X394089Y552351D02*
X403556D01*
X394089Y534769D02*
X403556D01*
X549030Y503710D02*
Y570710D01*
X502530Y503710D02*
Y570710D01*
X456776Y568559D02*
X465244D01*
X456776Y587141D02*
X465244D01*
X455506Y499979D02*
X463974D01*
X455506Y518561D02*
X463974D01*
X540980Y273320D02*
Y326120D01*
X459780D02*
X540980D01*
X459780Y273320D02*
Y326120D01*
Y273320D02*
X540980D01*
X407540Y373940D02*
X423040D01*
X423790Y371190D02*
Y383190D01*
X406790Y371190D02*
Y383190D01*
X432201Y292946D02*
Y301414D01*
X413619Y292946D02*
Y301414D01*
X367876Y276459D02*
X376344D01*
X367876Y295041D02*
X376344D01*
X360830Y347910D02*
Y382610D01*
Y433610D02*
Y468310D01*
X330330Y347910D02*
X360830D01*
X330330Y468310D02*
X360830D01*
X869320Y398350D02*
Y468350D01*
X943320Y398350D02*
Y468350D01*
X869320D02*
X943320D01*
X931770Y394350D02*
X938270D01*
X937520Y398350D02*
X938270Y394350D01*
X931770D02*
X932520Y398350D01*
X937520D02*
X943320D01*
X880120D02*
X880870Y394350D01*
X874370D02*
X875120Y398350D01*
X874370Y394350D02*
X880870D01*
X869320Y398350D02*
X875120D01*
X880120D02*
X932520D01*
X948230Y495130D02*
Y569130D01*
X890730Y495130D02*
X948230D01*
X890730D02*
Y569130D01*
X948230D01*
X848330Y291460D02*
Y348960D01*
X774330D02*
X848330D01*
X774330Y291460D02*
Y348960D01*
Y291460D02*
X848330D01*
X424081Y439766D02*
Y449234D01*
X406499Y439766D02*
Y449234D01*
X869320Y313970D02*
Y383970D01*
X943320Y313970D02*
Y383970D01*
X869320D02*
X943320D01*
X931770Y309970D02*
X938270D01*
X937520Y313970D02*
X938270Y309970D01*
X931770D02*
X932520Y313970D01*
X937520D02*
X943320D01*
X880120D02*
X880870Y309970D01*
X874370D02*
X875120Y313970D01*
X874370Y309970D02*
X880870D01*
X869320Y313970D02*
X875120D01*
X880120D02*
X932520D01*
X758580Y290860D02*
Y387860D01*
X712080Y290860D02*
Y387860D01*
X720330Y396110D02*
X750330D01*
X720330Y282610D02*
X750330D01*
X750330Y282610D01*
X712816Y457299D02*
X722284D01*
X712816Y474881D02*
X722284D01*
X586794Y290429D02*
X595261D01*
X586794Y309011D02*
X595261D01*
X782010Y418310D02*
X838510D01*
X780260Y436060D02*
Y460560D01*
X782010Y478310D02*
X838510D01*
X840260Y436060D02*
Y460560D01*
X700480Y517600D02*
X757480D01*
X700480Y574600D02*
X757480D01*
X700480Y517600D02*
Y574600D01*
X757480Y517600D02*
Y574600D01*
X302720Y507830D02*
X360220D01*
Y581830D01*
X302720D02*
X360220D01*
X302720Y507830D02*
Y581830D01*
X611860Y433900D02*
X621860Y423900D01*
X566860D02*
X576860Y433900D01*
X606110D02*
X611860D01*
X576860D02*
X582610D01*
X621860Y378900D02*
Y423900D01*
X566860Y378900D02*
Y423900D01*
Y378900D02*
X582610D01*
X606110D02*
X621860D01*
X581236Y473309D02*
X589704D01*
X581236Y491891D02*
X589704D01*
X670906Y366931D02*
X680374D01*
X670906Y349349D02*
X680374D01*
X669679Y424081D02*
X679146D01*
X669679Y406499D02*
X679146D01*
X592221Y534246D02*
Y542714D01*
X573639Y534246D02*
Y542714D01*
X623916Y525681D02*
X633384D01*
X623916Y508099D02*
X633384D01*
X623916Y577751D02*
X633384D01*
X623916Y560169D02*
X633384D01*
X666326Y291699D02*
X674794D01*
X666326Y310281D02*
X674794D01*
D12*
X713480Y527600D02*
G03*
X713480Y527600I-3000J0D01*
G01*
D13*
X438950Y395000D02*
Y430500D01*
X538950Y395000D02*
Y430500D01*
D14*
X773431Y626107D02*
X768353D01*
X770892D01*
Y613412D01*
X768353Y610872D01*
X765813D01*
X763274Y613412D01*
X778509Y623568D02*
X781048Y626107D01*
X786127D01*
X788666Y623568D01*
Y621029D01*
X786127Y618490D01*
X788666Y615951D01*
Y613412D01*
X786127Y610872D01*
X781048D01*
X778509Y613412D01*
Y615951D01*
X781048Y618490D01*
X778509Y621029D01*
Y623568D01*
X781048Y618490D02*
X786127D01*
X350523Y608332D02*
Y623568D01*
X358141D01*
X360680Y621028D01*
Y615950D01*
X358141Y613411D01*
X350523D01*
X365758Y608332D02*
X370837D01*
X368298D01*
Y623568D01*
X365758Y621028D01*
X503936Y617977D02*
Y615438D01*
X509014Y610359D01*
X514093Y615438D01*
Y617977D01*
X509014Y610359D02*
Y602742D01*
X529328D02*
X519171D01*
X529328Y612899D01*
Y615438D01*
X526789Y617977D01*
X521710D01*
X519171Y615438D01*
X445513Y613406D02*
X442974Y615945D01*
X437895D01*
X435356Y613406D01*
Y603249D01*
X437895Y600710D01*
X442974D01*
X445513Y603249D01*
X450591D02*
X453130Y600710D01*
X458209D01*
X460748Y603249D01*
Y613406D01*
X458209Y615945D01*
X453130D01*
X450591Y613406D01*
Y610867D01*
X453130Y608327D01*
X460748D01*
X444243Y544826D02*
X441703Y547365D01*
X436625D01*
X434086Y544826D01*
Y534669D01*
X436625Y532130D01*
X441703D01*
X444243Y534669D01*
X449321Y544826D02*
X451860Y547365D01*
X456939D01*
X459478Y544826D01*
Y542287D01*
X456939Y539748D01*
X459478Y537208D01*
Y534669D01*
X456939Y532130D01*
X451860D01*
X449321Y534669D01*
Y537208D01*
X451860Y539748D01*
X449321Y542287D01*
Y544826D01*
X451860Y539748D02*
X456939D01*
X472441Y346707D02*
X467363D01*
X469902D01*
Y334012D01*
X467363Y331473D01*
X464823D01*
X462284Y334012D01*
X477519Y346707D02*
X487676D01*
Y344168D01*
X477519Y334012D01*
Y331473D01*
X739143Y416558D02*
Y414018D01*
X744222Y408940D01*
X749300Y414018D01*
Y416558D01*
X744222Y408940D02*
Y401323D01*
X754378D02*
X759457D01*
X756918D01*
Y416558D01*
X754378Y414018D01*
X379736Y511813D02*
Y527048D01*
X387354D01*
X389893Y524508D01*
Y519430D01*
X387354Y516891D01*
X379736D01*
X384814D02*
X389893Y511813D01*
X394971D02*
X400050D01*
X397510D01*
Y527048D01*
X394971Y524508D01*
X407667D02*
X410206Y527048D01*
X415285D01*
X417824Y524508D01*
Y514352D01*
X415285Y511813D01*
X410206D01*
X407667Y514352D01*
Y524508D01*
X281943Y518161D02*
Y513083D01*
Y515622D01*
X294638D01*
X297178Y513083D01*
Y510543D01*
X294638Y508004D01*
X281943Y533396D02*
X284482Y528317D01*
X289560Y523239D01*
X294638D01*
X297178Y525778D01*
Y530857D01*
X294638Y533396D01*
X292099D01*
X289560Y530857D01*
Y523239D01*
X358141Y321307D02*
X353063D01*
X355602D01*
Y308612D01*
X353063Y306073D01*
X350523D01*
X347984Y308612D01*
X373376Y321307D02*
X363219D01*
Y313690D01*
X368298Y316229D01*
X370837D01*
X373376Y313690D01*
Y308612D01*
X370837Y306073D01*
X365758D01*
X363219Y308612D01*
X429264Y486408D02*
Y473712D01*
X431803Y471172D01*
X436882D01*
X439421Y473712D01*
Y486408D01*
X454656Y471172D02*
X444499D01*
X454656Y481329D01*
Y483868D01*
X452117Y486408D01*
X447038D01*
X444499Y483868D01*
X674370Y626105D02*
Y613409D01*
X676909Y610870D01*
X681988D01*
X684527Y613409D01*
Y626105D01*
X689605Y610870D02*
X694683D01*
X692144D01*
Y626105D01*
X689605Y623566D01*
X810263Y411478D02*
X807723Y414017D01*
X802645D01*
X800106Y411478D01*
Y408939D01*
X802645Y406400D01*
X807723D01*
X810263Y403861D01*
Y401322D01*
X807723Y398783D01*
X802645D01*
X800106Y401322D01*
X815341Y414017D02*
Y398783D01*
X820419Y403861D01*
X825498Y398783D01*
Y414017D01*
X830576Y398783D02*
X835654D01*
X833115D01*
Y414017D01*
X830576Y411478D01*
X386084Y473713D02*
Y488947D01*
X393702D01*
X396241Y486408D01*
Y481330D01*
X393702Y478791D01*
X386084D01*
X391162D02*
X396241Y473713D01*
X401319Y476252D02*
X403858Y473713D01*
X408937D01*
X411476Y476252D01*
Y486408D01*
X408937Y488947D01*
X403858D01*
X401319Y486408D01*
Y483869D01*
X403858Y481330D01*
X411476D01*
X607314Y588772D02*
Y604007D01*
X614931D01*
X617471Y601468D01*
Y596390D01*
X614931Y593850D01*
X607314D01*
X612392D02*
X617471Y588772D01*
X632706Y604007D02*
X627627Y601468D01*
X622549Y596390D01*
Y591311D01*
X625088Y588772D01*
X630167D01*
X632706Y591311D01*
Y593850D01*
X630167Y596390D01*
X622549D01*
X607314Y536702D02*
Y551937D01*
X614931D01*
X617471Y549398D01*
Y544319D01*
X614931Y541780D01*
X607314D01*
X612392D02*
X617471Y536702D01*
X632706Y551937D02*
X622549D01*
Y544319D01*
X627627Y546859D01*
X630167D01*
X632706Y544319D01*
Y539241D01*
X630167Y536702D01*
X625088D01*
X622549Y539241D01*
X848364Y495303D02*
Y510537D01*
X855982D01*
X858521Y507998D01*
Y502920D01*
X855982Y500381D01*
X848364D01*
X853443D02*
X858521Y495303D01*
X871217D02*
Y510537D01*
X863599Y502920D01*
X873756D01*
X653288Y435102D02*
Y450337D01*
X660906D01*
X663445Y447798D01*
Y442719D01*
X660906Y440180D01*
X653288D01*
X658366D02*
X663445Y435102D01*
X668523Y447798D02*
X671062Y450337D01*
X676141D01*
X678680Y447798D01*
Y445259D01*
X676141Y442719D01*
X673601D01*
X676141D01*
X678680Y440180D01*
Y437641D01*
X676141Y435102D01*
X671062D01*
X668523Y437641D01*
X708622Y427993D02*
Y443228D01*
X716239D01*
X718778Y440688D01*
Y435610D01*
X716239Y433071D01*
X708622D01*
X713700D02*
X718778Y427993D01*
X734014D02*
X723857D01*
X734014Y438149D01*
Y440688D01*
X731474Y443228D01*
X726396D01*
X723857Y440688D01*
X654304Y377952D02*
Y393187D01*
X661921D01*
X664461Y390648D01*
Y385569D01*
X661921Y383030D01*
X654304D01*
X659382D02*
X664461Y377952D01*
X669539D02*
X674617D01*
X672078D01*
Y393187D01*
X669539Y390648D01*
X783591Y367028D02*
X778512D01*
X781052D01*
Y354332D01*
X778512Y351792D01*
X775973D01*
X773434Y354332D01*
X796287Y351792D02*
Y367028D01*
X788669Y359410D01*
X798826D01*
X869952Y543561D02*
Y538483D01*
Y541022D01*
X882648D01*
X885188Y538483D01*
Y535943D01*
X882648Y533404D01*
X872492Y548639D02*
X869952Y551178D01*
Y556257D01*
X872492Y558796D01*
X875031D01*
X877570Y556257D01*
Y553717D01*
Y556257D01*
X880109Y558796D01*
X882648D01*
X885188Y556257D01*
Y551178D01*
X882648Y548639D01*
X845823Y369011D02*
Y363932D01*
Y366472D01*
X858518D01*
X861058Y363932D01*
Y361393D01*
X858518Y358854D01*
X861058Y384246D02*
Y374089D01*
X850901Y384246D01*
X848362D01*
X845823Y381707D01*
Y376628D01*
X848362Y374089D01*
X880110Y487677D02*
X875032D01*
X877571D01*
Y474982D01*
X875032Y472443D01*
X872493D01*
X869953Y474982D01*
X885188Y472443D02*
X890267D01*
X887728D01*
Y487677D01*
X885188Y485138D01*
X386082Y351794D02*
X401317D01*
Y359412D01*
X398778Y361951D01*
X388622D01*
X386082Y359412D01*
Y351794D01*
X401317Y374647D02*
X386082D01*
X393700Y367029D01*
Y377186D01*
X800103Y562607D02*
Y547373D01*
X807721D01*
X810260Y549912D01*
Y560068D01*
X807721Y562607D01*
X800103D01*
X815338Y547373D02*
X820417D01*
X817878D01*
Y562607D01*
X815338Y560068D01*
X625633Y483868D02*
X623094Y486408D01*
X618016D01*
X615476Y483868D01*
Y473712D01*
X618016Y471172D01*
X623094D01*
X625633Y473712D01*
X630712Y486408D02*
X640868D01*
Y483868D01*
X630712Y473712D01*
Y471172D01*
X326391Y284478D02*
X323852Y287017D01*
X318773D01*
X316234Y284478D01*
Y274322D01*
X318773Y271782D01*
X323852D01*
X326391Y274322D01*
X341626Y287017D02*
X336548Y284478D01*
X331469Y279400D01*
Y274322D01*
X334008Y271782D01*
X339087D01*
X341626Y274322D01*
Y276861D01*
X339087Y279400D01*
X331469D01*
X612141Y359408D02*
X609602Y361948D01*
X604523D01*
X601984Y359408D01*
Y349252D01*
X604523Y346712D01*
X609602D01*
X612141Y349252D01*
X627376Y361948D02*
X617219D01*
Y354330D01*
X622298Y356869D01*
X624837D01*
X627376Y354330D01*
Y349252D01*
X624837Y346712D01*
X619758D01*
X617219Y349252D01*
X655063Y336546D02*
X652523Y339085D01*
X647445D01*
X644906Y336546D01*
Y326389D01*
X647445Y323850D01*
X652523D01*
X655063Y326389D01*
X667759Y323850D02*
Y339085D01*
X660141Y331468D01*
X670298D01*
X614681Y339088D02*
X612142Y341628D01*
X607063D01*
X604524Y339088D01*
Y328932D01*
X607063Y326393D01*
X612142D01*
X614681Y328932D01*
X619759Y339088D02*
X622298Y341628D01*
X627377D01*
X629916Y339088D01*
Y336549D01*
X627377Y334010D01*
X624837D01*
X627377D01*
X629916Y331471D01*
Y328932D01*
X627377Y326393D01*
X622298D01*
X619759Y328932D01*
X580387Y586990D02*
X577848Y589529D01*
X572769D01*
X570230Y586990D01*
Y576833D01*
X572769Y574294D01*
X577848D01*
X580387Y576833D01*
X595622Y574294D02*
X585465D01*
X595622Y584451D01*
Y586990D01*
X593083Y589529D01*
X588004D01*
X585465Y586990D01*
X420370Y341628D02*
X417831Y344168D01*
X412752D01*
X410213Y341628D01*
Y331472D01*
X412752Y328932D01*
X417831D01*
X420370Y331472D01*
X425448Y328932D02*
X430527D01*
X427988D01*
Y344168D01*
X425448Y341628D01*
M02*
