M48
;Layer_Color=9474304
;FILE_FORMAT=4:4
METRIC,LZ
;TYPE=PLATED
T01F00S00C0.3500
T02F00S00C0.7000
T03F00S00C0.7112
T04F00S00C1.0000
T05F00S00C1.0200
T06F00S00C1.1900
T07F00S00C1.3000
T08F00S00C3.0000
;TYPE=NON_PLATED
T09F00S00C1.3000
%
T01
X0033Y0028
X0034Y003
X0032
X0035Y0032
X0037
X0036Y0034
X0034
X0035Y0036
X0037
X0032Y0038
X0059Y0032
X0061
X0063
X0065
X0067
X0071
Y0036
X0077
X0079
X0077Y0032
X0078Y003
X0076
X0077Y0028
X0079
X0075
X0073
X00840001Y003
X00850001Y0032
X00840001Y0034
X0082
X0083Y0036
X00850001
X0081
X00880001Y0034
X00900001Y003
X00890001Y0028
X00930001Y0036
X00940001Y0038
X00880001Y0042
X00890001Y0044
X00870001
X00880001Y0046
X00890001Y0052
X00870001
Y0056
X00890001
X00910001
X00900001Y0058
Y0062
X00850001Y0056
X0083Y0044
Y004
X00940001Y005
X0079Y0044
Y004
X0077
X0073
X0071
X0067Y0044
X0072Y0054
X0073Y0056
X0071
X0068Y0062
X0063Y006
X0058Y0058
X0054
Y0062
X0056
X0052
X005
X0048
X0046
X0044
X0042
X004
X0043Y0056
X0044Y0054
X0046
X0052
X0054
X006
X0045Y0048
X0043
X004Y005
X0046Y0042
X0037Y0044
X0035
X0033
X0031
X0032Y0042
X003
X0028
X0029Y004
X0031
X0033
X0027
Y0044
Y0052
X0029
X0031
X003Y0054
X0028
X0029Y0056
X0027
X0032Y0058
X0034
X0036
X0037Y006
X0035
X0033
X0034Y0062
X0036
X0038
X0032
X0035Y0056
X0037
Y0052
X0039
X0038Y005
X0036
X0034
X0035Y0052
Y0048
X0037
X0039
X0038Y0046
X0036
X0034
T02
X0073533Y0031496
Y0036376
X0052578Y0051281
Y0056161
T03
X0044831Y0028448
X004445Y0036068
X004826
X0049403Y0034798
X0050673Y0033909
X005207Y0036068
X0053975Y0036195
X005715Y0035179
X0064008Y0035687
X008001Y0038481
X0082931Y0027559
X0084963Y0039878
X0092456Y0047879
X0077724Y0049784
X0068199Y0047117
X0064135Y004318
X0065659Y0053594
X0066421Y0055626
Y0057531
X0065913Y0059436
X0064262Y0061468
X0047879Y0055372
X0047752Y005334
X004826Y0046736
X0052578Y0046355
X0054229Y0046482
X0038862Y004318
Y0041148
T04
X0079883Y0031496
X0082383
X0092473Y0051963
Y0054463
X0032622Y0053233
Y0055733
T05
X0047498Y0028702
X0050038
X0052578
Y0031242
X0050038
X0047498
X008128Y0058801
Y0061341
X008382
X008636
Y0058801
X008382
T06
X0041275Y0059563
X0038735
T07
X0090932Y0033147
Y0036647
Y0041585
Y0045085
T08
X0028575Y0028321
X0092456Y0028448
X0092583Y0060452
X0028575
T09
X0029083Y0038061
Y0043561
M30
