M48
;Layer_Color=9474304
;FILE_FORMAT=4:4
METRIC,LZ
;TYPE=PLATED
T01F00S00C1.0000
T02F00S00C1.1900
T03F00S00C1.3000
T04F00S00C3.0000
%
T01
X0056769Y0056642
X0059309
X0061849
X0033Y0055008
X00305
T02
X004064Y0029718
Y0032258
Y0034798
Y0037338
Y0039878
Y0042418
Y0044958
Y0047498
T03
X0027813Y003302
Y003652
X0066213Y0038199
Y0034699
X0066294Y0045395
Y0048895
X0027767Y004747
Y004397
T04
X0026289Y0027178
X0052451Y003048
X0067564Y0027178
Y0059944
X0052451Y0046482
X0026289Y0060071
M30
