G04*
G04 #@! TF.GenerationSoftware,Altium Limited,Altium Designer,23.10.1 (27)*
G04*
G04 Layer_Color=8388736*
%FSLAX44Y44*%
%MOMM*%
G71*
G04*
G04 #@! TF.SameCoordinates,9E8A772B-6CE0-4ADA-886F-7999F10CD83F*
G04*
G04*
G04 #@! TF.FilePolarity,Negative*
G04*
G01*
G75*
%ADD14R,1.5000X1.5000*%
%ADD15R,1.2557X1.7582*%
%ADD16C,4.1500*%
%ADD17C,1.5500*%
%ADD18R,1.5500X1.5500*%
%ADD19C,1.8400*%
%ADD20R,1.8400X1.8400*%
G04:AMPARAMS|DCode=21|XSize=2.1mm|YSize=2.1mm|CornerRadius=0.5625mm|HoleSize=0mm|Usage=FLASHONLY|Rotation=90.000|XOffset=0mm|YOffset=0mm|HoleType=Round|Shape=RoundedRectangle|*
%AMROUNDEDRECTD21*
21,1,2.1000,0.9750,0,0,90.0*
21,1,0.9750,2.1000,0,0,90.0*
1,1,1.1250,0.4875,0.4875*
1,1,1.1250,0.4875,-0.4875*
1,1,1.1250,-0.4875,-0.4875*
1,1,1.1250,-0.4875,0.4875*
%
%ADD21ROUNDEDRECTD21*%
%ADD22C,2.1000*%
D14*
X500380Y561620D02*
D03*
Y596620D02*
D03*
D15*
X433070Y562610D02*
D03*
X405045D02*
D03*
X433112Y594360D02*
D03*
X405088D02*
D03*
D16*
X524510Y304800D02*
D03*
Y464820D02*
D03*
X675640Y271780D02*
D03*
Y599440D02*
D03*
X262890Y271780D02*
D03*
Y600710D02*
D03*
D17*
X567690Y566420D02*
D03*
X593090D02*
D03*
X330000Y550080D02*
D03*
D18*
X618490Y566420D02*
D03*
X305000Y550080D02*
D03*
D19*
X406400Y297180D02*
D03*
Y322580D02*
D03*
Y347980D02*
D03*
Y373380D02*
D03*
Y398780D02*
D03*
Y424180D02*
D03*
Y449580D02*
D03*
D20*
Y474980D02*
D03*
D21*
X662940Y453950D02*
D03*
X277670Y474700D02*
D03*
X662130Y346990D02*
D03*
X278130Y365200D02*
D03*
D22*
X662940Y488950D02*
D03*
X277670Y439700D02*
D03*
X662130Y381990D02*
D03*
X278130Y330200D02*
D03*
M02*
