G04*
G04 #@! TF.GenerationSoftware,Altium Limited,Altium Designer,23.10.1 (27)*
G04*
G04 Layer_Color=65535*
%FSLAX44Y44*%
%MOMM*%
G71*
G04*
G04 #@! TF.SameCoordinates,9E8A772B-6CE0-4ADA-886F-7999F10CD83F*
G04*
G04*
G04 #@! TF.FilePolarity,Positive*
G04*
G01*
G75*
%ADD10C,0.2500*%
%ADD11C,0.2000*%
%ADD12C,0.1000*%
%ADD13C,0.2540*%
D10*
X638840Y566670D02*
G03*
X638840Y566670I-1250J0D01*
G01*
X275000Y550080D02*
G03*
X275000Y550080I-1250J0D01*
G01*
X407650Y494930D02*
G03*
X407650Y494930I-1250J0D01*
G01*
D11*
X631190Y553720D02*
Y579120D01*
X554990D02*
X631190D01*
X554990Y553720D02*
Y579120D01*
Y553720D02*
X631190D01*
X492630Y582370D02*
X508130D01*
X491880Y573120D02*
Y585120D01*
X508880Y573120D02*
Y585120D01*
X414324Y571401D02*
X423791D01*
X414324Y553819D02*
X423791D01*
X414366Y603151D02*
X423834D01*
X414366Y585569D02*
X423834D01*
X280500Y516080D02*
Y573580D01*
Y516080D02*
X354500D01*
Y573580D01*
X280500D02*
X354500D01*
X375850Y283230D02*
X437350D01*
Y488930D01*
X375850D02*
X437350D01*
X375850Y283230D02*
Y488930D01*
X633740Y436450D02*
X686140D01*
X622940D02*
X628740D01*
X627990Y432450D02*
X634490D01*
X627990D02*
X628740Y436450D01*
X633740D02*
X634490Y432450D01*
X691140Y436450D02*
X696940D01*
X685390Y432450D02*
X686140Y436450D01*
X691140D02*
X691890Y432450D01*
X685390D02*
X691890D01*
X622940Y506450D02*
X696940D01*
Y436450D02*
Y506450D01*
X622940Y436450D02*
Y506450D01*
X254470Y492200D02*
X306870D01*
X311870D02*
X317670D01*
X306120Y496200D02*
X312620D01*
X311870Y492200D02*
X312620Y496200D01*
X306120D02*
X306870Y492200D01*
X243670D02*
X249470D01*
X254470D02*
X255220Y496200D01*
X248720D02*
X249470Y492200D01*
X248720Y496200D02*
X255220D01*
X243670Y422200D02*
X317670D01*
X243670D02*
Y492200D01*
X317670Y422200D02*
Y492200D01*
X632930Y329490D02*
X685330D01*
X622130D02*
X627930D01*
X627180Y325490D02*
X633680D01*
X627180D02*
X627930Y329490D01*
X632930D02*
X633680Y325490D01*
X690330Y329490D02*
X696130D01*
X684580Y325490D02*
X685330Y329490D01*
X690330D02*
X691080Y325490D01*
X684580D02*
X691080D01*
X622130Y399490D02*
X696130D01*
Y329490D02*
Y399490D01*
X622130Y329490D02*
Y399490D01*
X254930Y382700D02*
X307330D01*
X312330D02*
X318130D01*
X306580Y386700D02*
X313080D01*
X312330Y382700D02*
X313080Y386700D01*
X306580D02*
X307330Y382700D01*
X244130D02*
X249930D01*
X254930D02*
X255680Y386700D01*
X249180D02*
X249930Y382700D01*
X249180Y386700D02*
X255680D01*
X244130Y312700D02*
X318130D01*
X244130D02*
Y382700D01*
X318130Y312700D02*
Y382700D01*
X422500Y318250D02*
Y323582D01*
X425166Y326247D01*
X427832Y323582D01*
Y318250D01*
Y322249D01*
X422500D01*
X430497Y326247D02*
Y318250D01*
X434496D01*
X435829Y319583D01*
Y324915D01*
X434496Y326247D01*
X430497D01*
X442494D02*
X439828D01*
X438495Y324915D01*
Y319583D01*
X439828Y318250D01*
X442494D01*
X443826Y319583D01*
Y324915D01*
X442494Y326247D01*
X427582Y401414D02*
X426249Y402747D01*
X423583D01*
X422250Y401414D01*
Y400082D01*
X423583Y398749D01*
X426249D01*
X427582Y397416D01*
Y396083D01*
X426249Y394750D01*
X423583D01*
X422250Y396083D01*
X430247Y402747D02*
Y394750D01*
X434246D01*
X435579Y396083D01*
Y401414D01*
X434246Y402747D01*
X430247D01*
X438245Y394750D02*
Y400082D01*
X440911Y402747D01*
X443577Y400082D01*
Y394750D01*
Y398749D01*
X438245D01*
X427582Y426414D02*
X426249Y427747D01*
X423583D01*
X422250Y426414D01*
Y425082D01*
X423583Y423749D01*
X426249D01*
X427582Y422416D01*
Y421083D01*
X426249Y419750D01*
X423583D01*
X422250Y421083D01*
X435579Y426414D02*
X434246Y427747D01*
X431580D01*
X430247Y426414D01*
Y421083D01*
X431580Y419750D01*
X434246D01*
X435579Y421083D01*
X438245Y427747D02*
Y419750D01*
X443577D01*
X427332Y452415D02*
X425999Y453747D01*
X423333D01*
X422000Y452415D01*
Y447083D01*
X423333Y445750D01*
X425999D01*
X427332Y447083D01*
Y449749D01*
X424666D01*
X429997Y445750D02*
Y453747D01*
X435329Y445750D01*
Y453747D01*
X437995D02*
Y445750D01*
X441994D01*
X443326Y447083D01*
Y452415D01*
X441994Y453747D01*
X437995D01*
X422500Y478247D02*
Y472916D01*
X425166Y470250D01*
X427832Y472916D01*
Y478247D01*
X435829Y476914D02*
X434496Y478247D01*
X431830D01*
X430497Y476914D01*
Y471583D01*
X431830Y470250D01*
X434496D01*
X435829Y471583D01*
X443826Y476914D02*
X442494Y478247D01*
X439828D01*
X438495Y476914D01*
Y471583D01*
X439828Y470250D01*
X442494D01*
X443826Y471583D01*
X561250Y586833D02*
Y592164D01*
X563916Y594830D01*
X566582Y592164D01*
Y586833D01*
Y590832D01*
X561250D01*
X569247Y594830D02*
Y586833D01*
X573246D01*
X574579Y588166D01*
Y593497D01*
X573246Y594830D01*
X569247D01*
X577245D02*
Y586833D01*
X581244D01*
X582576Y588166D01*
Y593497D01*
X581244Y594830D01*
X577245D01*
X585242Y586833D02*
Y594830D01*
X589241D01*
X590574Y593497D01*
Y590832D01*
X589241Y589499D01*
X585242D01*
X587908D02*
X590574Y586833D01*
X593240Y585500D02*
X598571D01*
X606569Y593497D02*
X605236Y594830D01*
X602570D01*
X601237Y593497D01*
Y592164D01*
X602570Y590832D01*
X605236D01*
X606569Y589499D01*
Y588166D01*
X605236Y586833D01*
X602570D01*
X601237Y588166D01*
X609235Y594830D02*
Y586833D01*
X614566D01*
X622564Y593497D02*
X621231Y594830D01*
X618565D01*
X617232Y593497D01*
Y588166D01*
X618565Y586833D01*
X621231D01*
X622564Y588166D01*
X625229Y594830D02*
X630561D01*
X627895D01*
Y586833D01*
X600332Y347915D02*
X598999Y349247D01*
X596333D01*
X595000Y347915D01*
Y342583D01*
X596333Y341250D01*
X598999D01*
X600332Y342583D01*
Y345249D01*
X597666D01*
X602997Y341250D02*
Y349247D01*
X608329Y341250D01*
Y349247D01*
X610995D02*
Y341250D01*
X614994D01*
X616326Y342583D01*
Y347915D01*
X614994Y349247D01*
X610995D01*
X594250Y387247D02*
Y381916D01*
X596916Y379250D01*
X599582Y381916D01*
Y387247D01*
X607579Y385914D02*
X606246Y387247D01*
X603580D01*
X602247Y385914D01*
Y380583D01*
X603580Y379250D01*
X606246D01*
X607579Y380583D01*
X615576Y385914D02*
X614244Y387247D01*
X611578D01*
X610245Y385914D01*
Y380583D01*
X611578Y379250D01*
X614244D01*
X615576Y380583D01*
X600582Y453914D02*
X599249Y455247D01*
X596583D01*
X595250Y453914D01*
Y452582D01*
X596583Y451249D01*
X599249D01*
X600582Y449916D01*
Y448583D01*
X599249Y447250D01*
X596583D01*
X595250Y448583D01*
X608579Y453914D02*
X607246Y455247D01*
X604580D01*
X603247Y453914D01*
Y448583D01*
X604580Y447250D01*
X607246D01*
X608579Y448583D01*
X611245Y455247D02*
Y447250D01*
X616576D01*
X599832Y494165D02*
X598499Y495497D01*
X595833D01*
X594500Y494165D01*
Y492832D01*
X595833Y491499D01*
X598499D01*
X599832Y490166D01*
Y488833D01*
X598499Y487500D01*
X595833D01*
X594500Y488833D01*
X602497Y495497D02*
Y487500D01*
X606496D01*
X607829Y488833D01*
Y494165D01*
X606496Y495497D01*
X602497D01*
X610495Y487500D02*
Y492832D01*
X613161Y495497D01*
X615826Y492832D01*
Y487500D01*
Y491499D01*
X610495D01*
X334832Y330914D02*
X333499Y332247D01*
X330833D01*
X329500Y330914D01*
Y325583D01*
X330833Y324250D01*
X333499D01*
X334832Y325583D01*
Y328249D01*
X332166D01*
X337497Y324250D02*
Y332247D01*
X342829Y324250D01*
Y332247D01*
X345495D02*
Y324250D01*
X349494D01*
X350826Y325583D01*
Y330914D01*
X349494Y332247D01*
X345495D01*
X328500Y368997D02*
Y363666D01*
X331166Y361000D01*
X333832Y363666D01*
Y368997D01*
X341829Y367664D02*
X340496Y368997D01*
X337830D01*
X336497Y367664D01*
Y362333D01*
X337830Y361000D01*
X340496D01*
X341829Y362333D01*
X349827Y367664D02*
X348494Y368997D01*
X345828D01*
X344495Y367664D01*
Y362333D01*
X345828Y361000D01*
X348494D01*
X349827Y362333D01*
X333582Y441165D02*
X332249Y442497D01*
X329583D01*
X328250Y441165D01*
Y439832D01*
X329583Y438499D01*
X332249D01*
X333582Y437166D01*
Y435833D01*
X332249Y434500D01*
X329583D01*
X328250Y435833D01*
X341579Y441165D02*
X340246Y442497D01*
X337580D01*
X336247Y441165D01*
Y435833D01*
X337580Y434500D01*
X340246D01*
X341579Y435833D01*
X344245Y442497D02*
Y434500D01*
X349576D01*
X331832Y476414D02*
X330499Y477747D01*
X327833D01*
X326500Y476414D01*
Y475082D01*
X327833Y473749D01*
X330499D01*
X331832Y472416D01*
Y471083D01*
X330499Y469750D01*
X327833D01*
X326500Y471083D01*
X334497Y477747D02*
Y469750D01*
X338496D01*
X339829Y471083D01*
Y476414D01*
X338496Y477747D01*
X334497D01*
X342495Y469750D02*
Y475082D01*
X345161Y477747D01*
X347826Y475082D01*
Y469750D01*
Y473749D01*
X342495D01*
D12*
X567500Y545998D02*
Y541000D01*
X570832D01*
X574998Y545998D02*
X573331D01*
X572498Y545165D01*
Y541833D01*
X573331Y541000D01*
X574998D01*
X575831Y541833D01*
Y545165D01*
X574998Y545998D01*
X577497D02*
Y541000D01*
X579163Y542666D01*
X580829Y541000D01*
Y545998D01*
X604500Y545498D02*
Y540500D01*
Y542999D01*
X607832D01*
Y545498D01*
Y540500D01*
X609498Y545498D02*
X611165D01*
X610331D01*
Y540500D01*
X609498D01*
X611165D01*
X616996Y544665D02*
X616163Y545498D01*
X614497D01*
X613664Y544665D01*
Y541333D01*
X614497Y540500D01*
X616163D01*
X616996Y541333D01*
Y542999D01*
X615330D01*
X618662Y545498D02*
Y540500D01*
Y542999D01*
X621994D01*
Y545498D01*
Y540500D01*
D13*
X445774Y554992D02*
Y570228D01*
X453392D01*
X455931Y567688D01*
Y562610D01*
X453392Y560071D01*
X445774D01*
X450853D02*
X455931Y554992D01*
X471166D02*
X461009D01*
X471166Y565149D01*
Y567688D01*
X468627Y570228D01*
X463548D01*
X461009Y567688D01*
X445816Y588013D02*
Y603247D01*
X453433D01*
X455972Y600708D01*
Y595630D01*
X453433Y593091D01*
X445816D01*
X450894D02*
X455972Y588013D01*
X461051D02*
X466129D01*
X463590D01*
Y603247D01*
X461051Y600708D01*
X254505Y411729D02*
X249426D01*
X251966D01*
Y399033D01*
X249426Y396494D01*
X246887D01*
X244348Y399033D01*
X259583Y411729D02*
X269740D01*
Y409190D01*
X259583Y399033D01*
Y396494D01*
X632457Y424683D02*
X627378D01*
X629917D01*
Y411987D01*
X627378Y409448D01*
X624839D01*
X622300Y411987D01*
X647692Y424683D02*
X642613Y422144D01*
X637535Y417066D01*
Y411987D01*
X640074Y409448D01*
X645153D01*
X647692Y411987D01*
Y414526D01*
X645153Y417066D01*
X637535D01*
X337821Y594357D02*
X332743D01*
X335282D01*
Y581662D01*
X332743Y579123D01*
X330203D01*
X327664Y581662D01*
X353056Y594357D02*
X342899D01*
Y586740D01*
X347977Y589279D01*
X350517D01*
X353056Y586740D01*
Y581662D01*
X350517Y579123D01*
X345438D01*
X342899Y581662D01*
X534211Y574118D02*
X529132D01*
X531672D01*
Y561422D01*
X529132Y558882D01*
X526593D01*
X524054Y561422D01*
X546907Y558882D02*
Y574118D01*
X539289Y566500D01*
X549446D01*
X253997Y521203D02*
X248918D01*
X251458D01*
Y508507D01*
X248918Y505968D01*
X246379D01*
X243840Y508507D01*
X259075Y518664D02*
X261614Y521203D01*
X266693D01*
X269232Y518664D01*
Y516125D01*
X266693Y513586D01*
X264153D01*
X266693D01*
X269232Y511046D01*
Y508507D01*
X266693Y505968D01*
X261614D01*
X259075Y508507D01*
X633473Y531617D02*
X628394D01*
X630933D01*
Y518921D01*
X628394Y516382D01*
X625855D01*
X623316Y518921D01*
X648708Y516382D02*
X638551D01*
X648708Y526539D01*
Y529078D01*
X646169Y531617D01*
X641090D01*
X638551Y529078D01*
X386585Y520187D02*
X381506D01*
X384045D01*
Y507491D01*
X381506Y504952D01*
X378967D01*
X376428Y507491D01*
X391663Y504952D02*
X396741D01*
X394202D01*
Y520187D01*
X391663Y517648D01*
X515623Y604518D02*
Y589282D01*
X523241D01*
X525780Y591822D01*
Y601978D01*
X523241Y604518D01*
X515623D01*
X530858Y589282D02*
X535937D01*
X533398D01*
Y604518D01*
X530858Y601978D01*
M02*
