G04*
G04 #@! TF.GenerationSoftware,Altium Limited,Altium Designer,23.10.1 (27)*
G04*
G04 Layer_Color=8421504*
%FSLAX44Y44*%
%MOMM*%
G71*
G04*
G04 #@! TF.SameCoordinates,F5A69C73-B6B7-4C8D-B8A1-BB125D59BB46*
G04*
G04*
G04 #@! TF.FilePolarity,Positive*
G04*
G01*
G75*
%ADD14R,1.5000X1.5000*%
%ADD15R,1.2557X1.7582*%
%ADD16R,1.5000X1.5000*%
%ADD17R,1.8582X1.5057*%
%ADD18R,1.5057X1.8582*%
%ADD19R,3.0000X0.7000*%
%ADD20R,6.0400X3.4000*%
%ADD21O,0.4500X1.8500*%
%ADD22R,1.7582X1.2557*%
%ADD23R,1.5500X1.3000*%
%ADD24O,0.6000X1.9500*%
%ADD25O,1.9500X0.6000*%
%ADD26R,1.6000X2.8000*%
D14*
X843280Y532130D02*
D03*
X808280D02*
D03*
X483590Y515620D02*
D03*
X448590D02*
D03*
X483590Y568960D02*
D03*
X448590D02*
D03*
D15*
X813985Y504190D02*
D03*
X842010D02*
D03*
X703538Y466090D02*
D03*
X731562D02*
D03*
X412835Y543560D02*
D03*
X384810D02*
D03*
X689652Y358140D02*
D03*
X661628D02*
D03*
X688425Y415290D02*
D03*
X660400D02*
D03*
X642662Y516890D02*
D03*
X614638D02*
D03*
X642662Y568960D02*
D03*
X614638D02*
D03*
X541062Y515620D02*
D03*
X513038D02*
D03*
X541062Y568960D02*
D03*
X513038D02*
D03*
D16*
X415290Y394690D02*
D03*
Y359690D02*
D03*
D17*
X422910Y282418D02*
D03*
Y311942D02*
D03*
X582930Y523718D02*
D03*
Y553242D02*
D03*
D18*
X357348Y285750D02*
D03*
X386872D02*
D03*
X576265Y299720D02*
D03*
X605790D02*
D03*
X570708Y482600D02*
D03*
X600232D02*
D03*
X655798Y300990D02*
D03*
X685322D02*
D03*
D19*
X360830Y414360D02*
D03*
Y401860D02*
D03*
Y426860D02*
D03*
Y389360D02*
D03*
D20*
X296830Y340110D02*
D03*
Y476110D02*
D03*
D21*
X531200Y450000D02*
D03*
X524700D02*
D03*
X518200D02*
D03*
X511700D02*
D03*
X505200D02*
D03*
X498700D02*
D03*
X492200D02*
D03*
X485700D02*
D03*
X479200D02*
D03*
X472700D02*
D03*
X466200D02*
D03*
X459700D02*
D03*
X453200D02*
D03*
X446700D02*
D03*
X531200Y375500D02*
D03*
X524700D02*
D03*
X518200D02*
D03*
X511700D02*
D03*
X505200D02*
D03*
X498700D02*
D03*
X492200D02*
D03*
X485700D02*
D03*
X479200D02*
D03*
X472700D02*
D03*
X466200D02*
D03*
X459700D02*
D03*
X453200D02*
D03*
X446700D02*
D03*
D22*
X415290Y430488D02*
D03*
Y458512D02*
D03*
D23*
X850010Y425810D02*
D03*
X770510D02*
D03*
X850010Y470810D02*
D03*
X770510D02*
D03*
D24*
X700980Y503600D02*
D03*
X708980D02*
D03*
X716980D02*
D03*
X724980D02*
D03*
X732980D02*
D03*
X740980D02*
D03*
X748980D02*
D03*
X756980D02*
D03*
Y588600D02*
D03*
X748980D02*
D03*
X740980D02*
D03*
X732980D02*
D03*
X724980D02*
D03*
X716980D02*
D03*
X708980D02*
D03*
X700980D02*
D03*
D25*
X771480Y518100D02*
D03*
Y526100D02*
D03*
Y534100D02*
D03*
Y542100D02*
D03*
Y550100D02*
D03*
Y558100D02*
D03*
Y566100D02*
D03*
Y574100D02*
D03*
X686480D02*
D03*
Y566100D02*
D03*
Y558100D02*
D03*
Y550100D02*
D03*
Y542100D02*
D03*
Y534100D02*
D03*
Y526100D02*
D03*
Y518100D02*
D03*
D26*
X594360Y427900D02*
D03*
Y384900D02*
D03*
M02*
