M48
;Layer_Color=9474304
;FILE_FORMAT=4:4
METRIC,LZ
;TYPE=PLATED
T01F00S00C0.3500
T02F00S00C0.7000
T03F00S00C0.7112
T04F00S00C1.0000
T05F00S00C1.0200
T06F00S00C1.3000
T07F00S00C3.0000
;TYPE=NON_PLATED
T08F00S00C1.3000
%
T01
X0033Y0028
X0034Y003
X0032
X0035Y0032
X0037
X0038Y0034
X0036
X0034
X0035Y0036
X0037
X0032Y0038
X0042Y0034
X0059Y0032
X0061
X0063
X0065
X0067
X0071
Y0036
X0077
X0079
X0077Y0032
X0078Y003
X0076
X0077Y0028
X0079
X0075
X0073
X00840001Y003
X00850001Y0032
X00840001Y0034
X0082
X0083Y0036
X00850001
X0081
X00880001Y0034
X00900001Y003
X00890001Y0028
X00930001Y0036
X00940001Y0038
X00880001Y0042
X00890001Y0044
X00870001
X00880001Y0046
Y005
X00860001
X00870001Y0052
X00890001
X00910001
Y0056
X00930001
X00890001
X00870001
X00850001
X00900001Y0058
Y0062
X00940001Y005
X0083Y0044
Y004
X0079
X0077
X0073
X0071
X0067Y0044
X0079
Y006
X0073Y0056
X0071
X0072Y0054
X0063Y006
X0059
X0058Y0058
X0055Y006
X0053
X0051
X0049
X0047
X0045
X0043
X0041
X0042Y0062
X0044
X0046
X0048
X005
X0052
X0054
X0056
X004
Y0058
Y005
X005
X0051Y004
X0053
X0049
X0033
X0031
X0029
X0027
X0028Y0042
X003
X0032
X0033Y0044
X0035
X0036Y0046
X0034
X0035Y0048
X0037
X0039
X0038Y005
X0036
X0034
X0035Y0052
X0037
X0039
X0037Y0056
X0035
X0036Y0058
X0038
X0039Y006
X0037
X0035
X0033
X0034Y0062
X0036
X0038
X0032
Y0058
X0034
X0029Y0056
X0027
X0028Y0054
X003
X0031Y0052
X0029
X0027
Y0044
X0031
T02
X0073533Y0031496
Y0036376
T03
X0044831Y0028448
X0044958Y0032258
X0044323Y0034671
X0046101Y0034417
X0056134Y0034671
X0055118Y0026797
X0064008Y0035687
X008001Y0038481
X0082931Y0027559
X0084963Y0039878
X0092456Y0047879
X0077724Y0049784
X0068199Y0047117
X0064135Y004318
X0065659Y0053594
X0066421Y0055626
Y0057531
X006604Y0061595
X0064262Y0061468
X00547436Y00484546
X0053467Y0049022
X0048514Y0047625
X0046482Y0048006
Y0049911
X0042799Y0057658
X0038862Y004318
Y0041148
T04
X0079883Y0031496
X0082383
X0092964Y0051816
Y0054316
X0032622Y0053233
Y0055733
T05
X0047498Y0028702
X0050038
X0052578
Y0031242
X0050038
X0047498
X0081153Y0058547
Y0061087
X0083693
X0086233
Y0058547
X0083693
T06
X0090932Y0033147
Y0036647
Y0041585
Y0045085
T07
X0028575Y0028321
X0092456Y0028448
X0092583Y0060452
X0028575
T08
X0029083Y0038061
Y0043561
M30
