G04*
G04 #@! TF.GenerationSoftware,Altium Limited,Altium Designer,23.10.1 (27)*
G04*
G04 Layer_Physical_Order=1*
G04 Layer_Color=255*
%FSLAX44Y44*%
%MOMM*%
G71*
G04*
G04 #@! TF.SameCoordinates,F5A69C73-B6B7-4C8D-B8A1-BB125D59BB46*
G04*
G04*
G04 #@! TF.FilePolarity,Positive*
G04*
G01*
G75*
%ADD14R,1.5000X1.5000*%
%ADD15R,1.2557X1.7582*%
%ADD16R,1.5000X1.5000*%
%ADD17R,1.8582X1.5057*%
%ADD18R,1.5057X1.8582*%
%ADD19R,3.0000X0.7000*%
%ADD20R,6.0400X3.4000*%
%ADD21O,0.4500X1.8500*%
%ADD22R,1.7582X1.2557*%
%ADD23R,1.5500X1.3000*%
%ADD24O,0.6000X1.9500*%
%ADD25O,1.9500X0.6000*%
%ADD26R,1.6000X2.8000*%
%ADD32C,1.5700*%
%ADD33R,1.5700X1.5700*%
%ADD37R,1.5500X1.5500*%
%ADD38C,1.5500*%
%ADD39R,1.5500X1.5500*%
%ADD45C,0.3200*%
%ADD46C,1.3000*%
%ADD47C,1.9500*%
G04:AMPARAMS|DCode=48|XSize=1.95mm|YSize=1.95mm|CornerRadius=0.4875mm|HoleSize=0mm|Usage=FLASHONLY|Rotation=90.000|XOffset=0mm|YOffset=0mm|HoleType=Round|Shape=RoundedRectangle|*
%AMROUNDEDRECTD48*
21,1,1.9500,0.9750,0,0,90.0*
21,1,0.9750,1.9500,0,0,90.0*
1,1,0.9750,0.4875,0.4875*
1,1,0.9750,0.4875,-0.4875*
1,1,0.9750,-0.4875,-0.4875*
1,1,0.9750,-0.4875,0.4875*
%
%ADD48ROUNDEDRECTD48*%
%ADD49C,1.2000*%
%ADD50R,1.2000X1.2000*%
%ADD51C,4.0000*%
%ADD52C,0.5500*%
%ADD53C,1.2700*%
G36*
X955541Y256039D02*
X256039D01*
Y630421D01*
X955541D01*
Y256039D01*
D02*
G37*
%LPC*%
G36*
X863531Y619990D02*
X862965D01*
Y611505D01*
X871450D01*
Y612071D01*
X870828Y614390D01*
X869628Y616470D01*
X867930Y618168D01*
X865850Y619369D01*
X863531Y619990D01*
D02*
G37*
G36*
X652450Y626826D02*
X623900D01*
X622780Y626604D01*
X621831Y625969D01*
X599911Y604049D01*
X599277Y603100D01*
X599054Y601980D01*
Y552450D01*
X599277Y551330D01*
X599911Y550381D01*
X608801Y541491D01*
X609750Y540857D01*
X610870Y540634D01*
X614780D01*
X633402Y522012D01*
X634352Y521378D01*
X635114Y521226D01*
Y506829D01*
X650211D01*
Y526951D01*
X638267D01*
X637984Y527007D01*
X636683D01*
X618062Y545629D01*
X617112Y546264D01*
X615992Y546486D01*
X612082D01*
X604906Y553662D01*
Y600768D01*
X625112Y620974D01*
X636341D01*
X636867Y619704D01*
X636522Y619359D01*
X635519Y617621D01*
X635000Y615683D01*
Y613677D01*
X635519Y611739D01*
X636522Y610001D01*
X637941Y608582D01*
X639679Y607579D01*
X639694Y607575D01*
Y579021D01*
X635114D01*
Y558899D01*
X650211D01*
Y579021D01*
X645546D01*
Y607575D01*
X645561Y607579D01*
X647299Y608582D01*
X648717Y610001D01*
X649721Y611739D01*
X650240Y613677D01*
Y615683D01*
X649721Y617621D01*
X648717Y619359D01*
X648373Y619704D01*
X648899Y620974D01*
X651238D01*
X653307Y618905D01*
X653299Y618891D01*
X652780Y616953D01*
Y614947D01*
X653299Y613009D01*
X654303Y611271D01*
X655721Y609852D01*
X657459Y608849D01*
X659397Y608330D01*
X661403D01*
X663341Y608849D01*
X665079Y609852D01*
X666497Y611271D01*
X667501Y613009D01*
X668020Y614947D01*
Y616953D01*
X667501Y618891D01*
X666497Y620629D01*
X665079Y622048D01*
X663341Y623051D01*
X661403Y623570D01*
X659397D01*
X657459Y623051D01*
X657445Y623043D01*
X654519Y625969D01*
X653570Y626604D01*
X652450Y626826D01*
D02*
G37*
G36*
X927925Y625790D02*
X926465D01*
Y605155D01*
X947100D01*
Y606615D01*
X946283Y610724D01*
X944679Y614595D01*
X942352Y618079D01*
X939389Y621041D01*
X935905Y623369D01*
X932034Y624973D01*
X927925Y625790D01*
D02*
G37*
G36*
X925195D02*
X923735D01*
X919626Y624973D01*
X915755Y623369D01*
X912271Y621041D01*
X909308Y618079D01*
X906981Y614595D01*
X905377Y610724D01*
X904560Y606615D01*
Y605155D01*
X925195D01*
Y625790D01*
D02*
G37*
G36*
X287845D02*
X286385D01*
Y605155D01*
X307020D01*
Y606615D01*
X306203Y610724D01*
X304599Y614595D01*
X302271Y618079D01*
X299309Y621041D01*
X295825Y623369D01*
X291954Y624973D01*
X287845Y625790D01*
D02*
G37*
G36*
X285115D02*
X283655D01*
X279546Y624973D01*
X275675Y623369D01*
X272191Y621041D01*
X269228Y618079D01*
X266901Y614595D01*
X265297Y610724D01*
X264480Y606615D01*
Y605155D01*
X285115D01*
Y625790D01*
D02*
G37*
G36*
X871450Y610235D02*
X862965D01*
Y601750D01*
X863531D01*
X865850Y602371D01*
X867930Y603572D01*
X869628Y605270D01*
X870828Y607350D01*
X871450Y609669D01*
Y610235D01*
D02*
G37*
G36*
X875030Y629036D02*
X689610D01*
X688490Y628814D01*
X687541Y628179D01*
X652921Y593559D01*
X652287Y592610D01*
X652064Y591490D01*
Y542126D01*
X651911Y542038D01*
X650492Y540619D01*
X649489Y538881D01*
X648970Y536943D01*
Y534937D01*
X649489Y532999D01*
X650492Y531261D01*
X651911Y529842D01*
X653649Y528839D01*
X655587Y528320D01*
X657593D01*
X659531Y528839D01*
X661269Y529842D01*
X662688Y531261D01*
X663691Y532999D01*
X664210Y534937D01*
Y536851D01*
X666533Y539174D01*
X676550D01*
X676652Y539021D01*
X677080Y538735D01*
Y537465D01*
X676652Y537178D01*
X675708Y535766D01*
X675398Y534207D01*
X667221Y526031D01*
X666587Y525081D01*
X666364Y523961D01*
Y510361D01*
X620478Y464475D01*
X569499D01*
X568379Y464252D01*
X567430Y463618D01*
X522028Y418216D01*
X478749D01*
X477629Y417994D01*
X476680Y417359D01*
X446011Y386690D01*
X445442Y385839D01*
X445327Y385816D01*
X444162Y385038D01*
X443384Y383873D01*
X443111Y382500D01*
Y377733D01*
X437037D01*
X435917Y377510D01*
X434968Y376876D01*
X428461Y370369D01*
X427826Y369420D01*
X427604Y368300D01*
Y341630D01*
X427826Y340510D01*
X428461Y339561D01*
X434811Y333211D01*
X435760Y332576D01*
X436880Y332354D01*
X453448D01*
X458797Y327004D01*
Y325676D01*
X459020Y324557D01*
X459655Y323607D01*
X466789Y316473D01*
X466482Y315940D01*
X465860Y313621D01*
Y311219D01*
X466482Y308900D01*
X467682Y306820D01*
X469316Y305186D01*
X469295Y304896D01*
X468929Y303916D01*
X458412D01*
X450276Y312053D01*
X450466Y312337D01*
X450689Y313457D01*
Y314988D01*
X452521Y315479D01*
X454259Y316483D01*
X455677Y317901D01*
X456681Y319639D01*
X457200Y321577D01*
Y323583D01*
X456681Y325521D01*
X455677Y327259D01*
X454259Y328677D01*
X452521Y329681D01*
X450583Y330200D01*
X448577D01*
X446639Y329681D01*
X444901Y328677D01*
X443483Y327259D01*
X442479Y325521D01*
X441960Y323583D01*
Y321577D01*
X442479Y319639D01*
X443483Y317901D01*
X444836Y316548D01*
Y314869D01*
X433471D01*
Y320741D01*
X412349D01*
Y303144D01*
X433471D01*
Y309016D01*
X445036D01*
X455131Y298921D01*
X456080Y298286D01*
X457200Y298064D01*
X514350D01*
X515470Y298286D01*
X516419Y298921D01*
X520798Y303300D01*
X534900D01*
Y321540D01*
X516660D01*
Y307438D01*
X513138Y303916D01*
X506431D01*
X506065Y304896D01*
X506044Y305186D01*
X507678Y306820D01*
X508879Y308900D01*
X509500Y311219D01*
Y313621D01*
X508879Y315940D01*
X507678Y318020D01*
X505980Y319718D01*
X503900Y320919D01*
X501581Y321540D01*
X499179D01*
X496860Y320919D01*
X496327Y320611D01*
X475626Y341312D01*
Y365243D01*
X476046Y365535D01*
X476896Y365806D01*
X477827Y365184D01*
X479200Y364911D01*
X480573Y365184D01*
X481738Y365962D01*
X481815Y366078D01*
X483085D01*
X483162Y365962D01*
X484327Y365184D01*
X485065Y365037D01*
Y375500D01*
Y385963D01*
X484327Y385816D01*
X483162Y385038D01*
X483085Y384922D01*
X481815D01*
X481738Y385038D01*
X480573Y385816D01*
X479200Y386089D01*
X477827Y385816D01*
X476896Y385194D01*
X476046Y385465D01*
X475626Y385757D01*
Y401707D01*
X481813Y407894D01*
X528942D01*
X530061Y408116D01*
X531011Y408751D01*
X575924Y453664D01*
X595186D01*
X595672Y452490D01*
X592291Y449109D01*
X591656Y448160D01*
X591434Y447040D01*
Y443170D01*
X585090D01*
Y416768D01*
X547841Y379519D01*
X547206Y378570D01*
X546984Y377450D01*
Y304742D01*
X540745Y298503D01*
X536987D01*
X535867Y298281D01*
X534918Y297646D01*
X531484Y294213D01*
X531380Y294318D01*
X529300Y295518D01*
X526981Y296140D01*
X524579D01*
X522260Y295518D01*
X520180Y294318D01*
X518482Y292620D01*
X517281Y290540D01*
X516660Y288221D01*
Y285819D01*
X517281Y283500D01*
X517589Y282967D01*
X500438Y265816D01*
X364432D01*
X360274Y269974D01*
Y275189D01*
X366146D01*
Y296311D01*
X360274D01*
Y298986D01*
X365702Y304414D01*
X382270D01*
X383390Y304636D01*
X384339Y305271D01*
X393229Y314161D01*
X393863Y315110D01*
X394086Y316230D01*
Y387408D01*
X400849Y394171D01*
X401483Y395120D01*
X401706Y396240D01*
Y447098D01*
X402255Y447646D01*
X404838D01*
X405958Y447869D01*
X406907Y448504D01*
X409367Y450964D01*
X425351D01*
Y461923D01*
X449782Y486354D01*
X458541D01*
X459067Y485084D01*
X458722Y484739D01*
X457719Y483001D01*
X457200Y481063D01*
Y479057D01*
X457719Y477119D01*
X458722Y475381D01*
X460141Y473963D01*
X461879Y472959D01*
X463712Y472468D01*
Y470622D01*
X463934Y469502D01*
X464569Y468553D01*
X471563Y461559D01*
X471137Y460189D01*
X470162Y459538D01*
X470085Y459422D01*
X468815D01*
X468738Y459538D01*
X467573Y460316D01*
X466835Y460463D01*
Y450000D01*
Y439537D01*
X467573Y439684D01*
X468738Y440462D01*
X468815Y440578D01*
X470085D01*
X470162Y440462D01*
X471327Y439684D01*
X472700Y439411D01*
X474073Y439684D01*
X475238Y440462D01*
X475315Y440578D01*
X476585D01*
X476662Y440462D01*
X477827Y439684D01*
X479200Y439411D01*
X480573Y439684D01*
X481738Y440462D01*
X481815Y440578D01*
X483085D01*
X483162Y440462D01*
X484327Y439684D01*
X485700Y439411D01*
X487073Y439684D01*
X488238Y440462D01*
X488315Y440578D01*
X489585D01*
X489662Y440462D01*
X490827Y439684D01*
X491565Y439537D01*
Y450000D01*
X492835D01*
Y439537D01*
X493573Y439684D01*
X494738Y440462D01*
X494815Y440578D01*
X496085D01*
X496162Y440462D01*
X497327Y439684D01*
X498700Y439411D01*
X500073Y439684D01*
X501238Y440462D01*
X501315Y440578D01*
X502585D01*
X502662Y440462D01*
X503827Y439684D01*
X505200Y439411D01*
X506573Y439684D01*
X507738Y440462D01*
X507815Y440578D01*
X509085D01*
X509162Y440462D01*
X510327Y439684D01*
X511065Y439537D01*
Y450000D01*
Y460463D01*
X510327Y460316D01*
X509162Y459538D01*
X509085Y459422D01*
X507815D01*
X507738Y459538D01*
X506573Y460316D01*
X505200Y460589D01*
X503827Y460316D01*
X502896Y459694D01*
X502046Y459965D01*
X501626Y460257D01*
Y479200D01*
X501404Y480320D01*
X500769Y481269D01*
X490689Y491349D01*
X489740Y491983D01*
X488620Y492206D01*
X470489D01*
X469963Y493476D01*
X470918Y494431D01*
X471921Y496169D01*
X472440Y498107D01*
Y500113D01*
X471921Y502051D01*
X470918Y503789D01*
X469499Y505207D01*
X467761Y506211D01*
X465823Y506730D01*
X463817D01*
X462083Y506265D01*
X457360Y510988D01*
Y524390D01*
X439820D01*
Y506850D01*
X453222D01*
X457830Y502242D01*
X457719Y502051D01*
X457200Y500113D01*
Y498107D01*
X457719Y496169D01*
X458722Y494431D01*
X459677Y493476D01*
X459151Y492206D01*
X448570D01*
X447450Y491983D01*
X446501Y491349D01*
X421213Y466061D01*
X418216D01*
Y495300D01*
X417994Y496420D01*
X417359Y497369D01*
X415761Y498967D01*
Y533499D01*
X420383D01*
Y540634D01*
X518175D01*
X519295Y540857D01*
X520244Y541491D01*
X536866Y558113D01*
X538136Y557587D01*
Y525681D01*
X533514D01*
Y505559D01*
X548611D01*
Y525681D01*
X543989D01*
Y557587D01*
X545259Y558113D01*
X552198Y551173D01*
X553148Y550539D01*
X554268Y550316D01*
X572369D01*
Y544444D01*
X593491D01*
Y562041D01*
X572369D01*
Y556169D01*
X555480D01*
X548611Y563037D01*
Y579021D01*
X533514D01*
Y563037D01*
X516963Y546486D01*
X420383D01*
Y553621D01*
X405286D01*
Y533499D01*
X409909D01*
Y497755D01*
X410131Y496635D01*
X410766Y495686D01*
X412364Y494088D01*
Y466061D01*
X405229D01*
Y455102D01*
X403626Y453499D01*
X401043D01*
X399923Y453276D01*
X398974Y452642D01*
X396711Y450379D01*
X396077Y449430D01*
X395854Y448310D01*
Y437051D01*
X395151Y436697D01*
X394584Y436613D01*
X393299Y437897D01*
X391561Y438901D01*
X389623Y439420D01*
X387617D01*
X385679Y438901D01*
X383941Y437897D01*
X382523Y436479D01*
X381519Y434741D01*
X381000Y432803D01*
Y430889D01*
X379897Y429786D01*
X377100D01*
Y431630D01*
X344560D01*
Y422090D01*
X377100D01*
Y423934D01*
X381109D01*
X382229Y424156D01*
X383178Y424791D01*
X384036Y425648D01*
X385679Y424699D01*
X387617Y424180D01*
X389623D01*
X391561Y424699D01*
X393299Y425703D01*
X394584Y426987D01*
X395151Y426903D01*
X395854Y426549D01*
Y416731D01*
X395151Y416377D01*
X394584Y416293D01*
X393299Y417578D01*
X391561Y418581D01*
X389623Y419100D01*
X387617D01*
X385679Y418581D01*
X383941Y417578D01*
X382523Y416159D01*
X382342Y415846D01*
X377100D01*
Y419130D01*
X344560D01*
Y409590D01*
X377100D01*
Y409994D01*
X381129D01*
X381519Y408539D01*
X382523Y406801D01*
X383941Y405382D01*
X385679Y404379D01*
X387617Y403860D01*
X389623D01*
X391561Y404379D01*
X393299Y405382D01*
X394584Y406667D01*
X395151Y406583D01*
X395854Y406229D01*
Y397452D01*
X390644Y392242D01*
X390420Y392286D01*
X377100D01*
Y394130D01*
X344560D01*
Y384590D01*
X377100D01*
Y386434D01*
X388234D01*
Y317442D01*
X381058Y310266D01*
X364490D01*
X363370Y310044D01*
X362421Y309409D01*
X355278Y302267D01*
X354644Y301317D01*
X354421Y300198D01*
Y296311D01*
X348549D01*
Y275189D01*
X354421D01*
Y268762D01*
X354644Y267643D01*
X355278Y266693D01*
X361151Y260821D01*
X362100Y260187D01*
X363220Y259964D01*
X501650D01*
X502770Y260187D01*
X503719Y260821D01*
X521727Y278829D01*
X522260Y278521D01*
X524579Y277900D01*
X526981D01*
X529300Y278521D01*
X529833Y278829D01*
X532880Y275781D01*
X533829Y275147D01*
X534949Y274924D01*
X540087D01*
X544087Y270925D01*
X544079Y270911D01*
X543560Y268973D01*
Y266967D01*
X544079Y265029D01*
X545083Y263291D01*
X546501Y261873D01*
X548239Y260869D01*
X550177Y260350D01*
X552183D01*
X554121Y260869D01*
X555859Y261873D01*
X557277Y263291D01*
X558281Y265029D01*
X558800Y266967D01*
Y268973D01*
X558281Y270911D01*
X557277Y272649D01*
X555859Y274067D01*
X554121Y275071D01*
X552183Y275590D01*
X550177D01*
X548239Y275071D01*
X548225Y275063D01*
X543368Y279920D01*
X542419Y280554D01*
X541299Y280777D01*
X536161D01*
X533971Y282967D01*
X534278Y283500D01*
X534900Y285819D01*
Y288221D01*
X534661Y289113D01*
X538199Y292651D01*
X541957D01*
X543077Y292874D01*
X544026Y293508D01*
X551979Y301461D01*
X552613Y302410D01*
X552836Y303530D01*
Y344098D01*
X554106Y344265D01*
X554239Y343769D01*
X555243Y342031D01*
X556661Y340612D01*
X558399Y339609D01*
X560337Y339090D01*
X562343D01*
X564281Y339609D01*
X566019Y340612D01*
X567438Y342031D01*
X568441Y343769D01*
X568445Y343784D01*
X584229D01*
X584755Y342514D01*
X558001Y315759D01*
X557366Y314810D01*
X557144Y313690D01*
Y276860D01*
X557366Y275740D01*
X558001Y274791D01*
X571971Y260821D01*
X572920Y260187D01*
X574040Y259964D01*
X848360D01*
X849480Y260187D01*
X850429Y260821D01*
X866939Y277331D01*
X867573Y278280D01*
X867796Y279400D01*
Y349308D01*
X882592Y364104D01*
X898545D01*
X899051Y362216D01*
X900502Y359703D01*
X902554Y357652D01*
X905066Y356201D01*
X907869Y355450D01*
X910771D01*
X913574Y356201D01*
X916086Y357652D01*
X918138Y359703D01*
X919589Y362216D01*
X920340Y365019D01*
Y367921D01*
X919589Y370723D01*
X918138Y373236D01*
X916086Y375288D01*
X913574Y376739D01*
X910771Y377490D01*
X907869D01*
X905066Y376739D01*
X902554Y375288D01*
X900502Y373236D01*
X899051Y370723D01*
X898845Y369956D01*
X881380D01*
X880260Y369734D01*
X879311Y369099D01*
X862801Y352589D01*
X862167Y351640D01*
X861944Y350520D01*
Y280612D01*
X847148Y265816D01*
X575252D01*
X562996Y278072D01*
Y312478D01*
X589222Y338704D01*
X673142D01*
X674262Y338927D01*
X675212Y339561D01*
X683673Y348023D01*
X684974D01*
X685257Y348079D01*
X697201D01*
Y368201D01*
X692579D01*
Y405229D01*
X695974D01*
Y425351D01*
X691351D01*
Y428133D01*
X706062Y442844D01*
X728980D01*
X730100Y443066D01*
X731049Y443701D01*
X733632Y446283D01*
X734266Y447233D01*
X734489Y448352D01*
Y456029D01*
X739111D01*
Y470486D01*
X739167Y470769D01*
Y478489D01*
X743049Y482371D01*
X743683Y483320D01*
X743906Y484440D01*
Y493670D01*
X744058Y493772D01*
X745449Y493738D01*
X746054Y493112D01*
Y378622D01*
X738002Y370570D01*
X736287Y371030D01*
X734373D01*
X732524Y370535D01*
X730866Y369577D01*
X729513Y368224D01*
X728555Y366566D01*
X728060Y364717D01*
Y362803D01*
X728520Y361088D01*
X683253Y315822D01*
X682619Y314872D01*
X682396Y313752D01*
Y311551D01*
X676524D01*
Y290429D01*
X694121D01*
Y311551D01*
X688926D01*
X688529Y312821D01*
X732658Y356950D01*
X734373Y356490D01*
X736287D01*
X738136Y356985D01*
X739794Y357943D01*
X741147Y359296D01*
X742105Y360954D01*
X742600Y362803D01*
Y364717D01*
X742141Y366432D01*
X751049Y375341D01*
X751684Y376290D01*
X751906Y377410D01*
Y493670D01*
X752058Y493772D01*
X753449Y493738D01*
X754054Y493112D01*
Y337822D01*
X738462Y322230D01*
X728060D01*
Y311828D01*
X696018Y279786D01*
X598575D01*
X585064Y293297D01*
Y310281D01*
X567467D01*
Y289159D01*
X580925D01*
X595294Y274791D01*
X596243Y274156D01*
X597363Y273934D01*
X697230D01*
X698350Y274156D01*
X699299Y274791D01*
X732198Y307690D01*
X742600D01*
Y318092D01*
X759049Y334541D01*
X759684Y335490D01*
X759906Y336610D01*
Y493670D01*
X760059Y493772D01*
X761002Y495184D01*
X761334Y496850D01*
Y510350D01*
X761002Y512016D01*
X760059Y513428D01*
X758646Y514372D01*
X756980Y514704D01*
X755314Y514372D01*
X753902Y513428D01*
X753615Y513000D01*
X752345D01*
X752058Y513428D01*
X750646Y514372D01*
X748980Y514704D01*
X747314Y514372D01*
X745901Y513428D01*
X744511Y513462D01*
X743906Y514088D01*
Y551808D01*
X751369Y559271D01*
X752003Y560220D01*
X752226Y561340D01*
Y579023D01*
X752345Y579200D01*
X753615D01*
X753902Y578772D01*
X755314Y577828D01*
X756980Y577496D01*
X758646Y577828D01*
X760059Y578772D01*
X761002Y580184D01*
X761334Y581850D01*
Y585674D01*
X794901D01*
X796021Y585896D01*
X796970Y586531D01*
X801237Y590797D01*
X802410Y590311D01*
Y580488D01*
X798948Y577026D01*
X781410D01*
X781309Y577178D01*
X779896Y578122D01*
X778230Y578454D01*
X764730D01*
X763064Y578122D01*
X761652Y577178D01*
X760708Y575766D01*
X760376Y574100D01*
X760708Y572434D01*
X761652Y571021D01*
X762080Y570735D01*
Y569465D01*
X761652Y569179D01*
X760708Y567766D01*
X760376Y566100D01*
X760708Y564434D01*
X761652Y563022D01*
X762080Y562735D01*
Y561465D01*
X761652Y561179D01*
X760708Y559766D01*
X760376Y558100D01*
X760708Y556434D01*
X761652Y555022D01*
X762080Y554735D01*
Y553465D01*
X761652Y553178D01*
X760708Y551766D01*
X760376Y550100D01*
X760708Y548434D01*
X761652Y547021D01*
X762080Y546735D01*
Y545465D01*
X761652Y545178D01*
X760708Y543766D01*
X760376Y542100D01*
X760708Y540434D01*
X761652Y539021D01*
X762080Y538735D01*
Y537465D01*
X761652Y537178D01*
X760708Y535766D01*
X760376Y534100D01*
X760708Y532434D01*
X761652Y531021D01*
X762080Y530735D01*
Y529465D01*
X761652Y529179D01*
X760708Y527766D01*
X760376Y526100D01*
X760708Y524434D01*
X761652Y523022D01*
X762080Y522735D01*
Y521465D01*
X761652Y521179D01*
X760708Y519766D01*
X760376Y518100D01*
X760708Y516434D01*
X761652Y515022D01*
X763064Y514078D01*
X764730Y513746D01*
X778230D01*
X779896Y514078D01*
X781309Y515022D01*
X782252Y516434D01*
X782584Y518100D01*
X782252Y519766D01*
X781309Y521179D01*
X780880Y521465D01*
Y522735D01*
X781309Y523022D01*
X782252Y524434D01*
X782584Y526100D01*
X782252Y527766D01*
X781309Y529179D01*
X780880Y529465D01*
Y530735D01*
X781309Y531021D01*
X782252Y532434D01*
X782584Y534100D01*
X782252Y535766D01*
X781309Y537178D01*
X781342Y538569D01*
X781968Y539174D01*
X785108D01*
X785744Y538538D01*
Y504132D01*
X784196Y502584D01*
X783272D01*
X781919Y503937D01*
X780181Y504941D01*
X778243Y505460D01*
X776237D01*
X774299Y504941D01*
X772561Y503937D01*
X771143Y502519D01*
X770139Y500781D01*
X769620Y498843D01*
Y496837D01*
X770139Y494899D01*
X771143Y493161D01*
X772561Y491743D01*
X774299Y490739D01*
X776237Y490220D01*
X778243D01*
X780181Y490739D01*
X781919Y491743D01*
X783337Y493161D01*
X784341Y494899D01*
X784832Y496731D01*
X785408D01*
X786527Y496954D01*
X787477Y497589D01*
X790739Y500851D01*
X790824Y500978D01*
X792094Y500592D01*
Y495300D01*
X792317Y494180D01*
X792951Y493231D01*
X800571Y485611D01*
X801520Y484977D01*
X802640Y484754D01*
X899160D01*
X900280Y484977D01*
X901229Y485611D01*
X925660Y510042D01*
X926158Y509755D01*
X928453Y509140D01*
X930827D01*
X933122Y509755D01*
X935178Y510942D01*
X936858Y512622D01*
X938045Y514678D01*
X938660Y516973D01*
Y519347D01*
X938045Y521642D01*
X936858Y523698D01*
X935178Y525378D01*
X933122Y526565D01*
X930827Y527180D01*
X928453D01*
X926158Y526565D01*
X924102Y525378D01*
X922422Y523698D01*
X921235Y521642D01*
X920620Y519347D01*
Y516973D01*
X921235Y514678D01*
X921522Y514180D01*
X897948Y490606D01*
X803852D01*
X797946Y496512D01*
Y543560D01*
X797723Y544680D01*
X797089Y545629D01*
X790549Y552169D01*
X789600Y552803D01*
X788480Y553026D01*
X781410D01*
X781309Y553178D01*
X780880Y553465D01*
Y554735D01*
X781309Y555022D01*
X782252Y556434D01*
X782584Y558100D01*
X782252Y559766D01*
X781309Y561179D01*
X781342Y562569D01*
X781968Y563174D01*
X811919D01*
X813039Y563396D01*
X813988Y564031D01*
X825298Y575341D01*
X825932Y576290D01*
X826155Y577410D01*
Y595956D01*
X832877Y602679D01*
X833410Y602371D01*
X835729Y601750D01*
X838131D01*
X840450Y602371D01*
X842530Y603572D01*
X844228Y605270D01*
X845428Y607350D01*
X845434Y607369D01*
X846704Y607202D01*
Y599382D01*
X840983Y593661D01*
X840450Y593969D01*
X838131Y594590D01*
X835729D01*
X833410Y593969D01*
X831330Y592768D01*
X829632Y591070D01*
X828431Y588990D01*
X827810Y586671D01*
Y584269D01*
X828431Y581950D01*
X829632Y579870D01*
X831330Y578172D01*
X833410Y576972D01*
X834004Y576812D01*
Y561992D01*
X812912Y540900D01*
X799510D01*
Y523360D01*
X817050D01*
Y536762D01*
X838999Y558711D01*
X839633Y559660D01*
X839856Y560780D01*
Y576812D01*
X840450Y576972D01*
X842530Y578172D01*
X844228Y579870D01*
X845428Y581950D01*
X846050Y584269D01*
Y586671D01*
X845428Y588990D01*
X845121Y589523D01*
X851699Y596101D01*
X852334Y597050D01*
X852556Y598170D01*
Y607202D01*
X853826Y607369D01*
X853831Y607350D01*
X855032Y605270D01*
X856730Y603572D01*
X858810Y602371D01*
X861129Y601750D01*
X861695D01*
Y610870D01*
Y619990D01*
X861129D01*
X858810Y619369D01*
X856730Y618168D01*
X855032Y616470D01*
X853831Y614390D01*
X853826Y614370D01*
X852556Y614538D01*
Y617220D01*
X852334Y618340D01*
X851699Y619289D01*
X848978Y622010D01*
X849464Y623184D01*
X873818D01*
X883534Y613468D01*
Y596842D01*
X875088Y588396D01*
X870988D01*
X870828Y588990D01*
X869628Y591070D01*
X867930Y592768D01*
X865850Y593969D01*
X863531Y594590D01*
X861129D01*
X858810Y593969D01*
X856730Y592768D01*
X855032Y591070D01*
X853831Y588990D01*
X853210Y586671D01*
Y584269D01*
X853831Y581950D01*
X855032Y579870D01*
X856730Y578172D01*
X858810Y576972D01*
X861129Y576350D01*
X863531D01*
X865850Y576972D01*
X867930Y578172D01*
X869628Y579870D01*
X870828Y581950D01*
X870988Y582544D01*
X876300D01*
X877420Y582766D01*
X878369Y583401D01*
X888529Y593561D01*
X889164Y594510D01*
X889386Y595630D01*
Y614680D01*
X889164Y615800D01*
X888529Y616749D01*
X877099Y628179D01*
X876150Y628814D01*
X875030Y629036D01*
D02*
G37*
G36*
X947100Y603885D02*
X926465D01*
Y583250D01*
X927925D01*
X932034Y584067D01*
X935905Y585671D01*
X939389Y587999D01*
X942352Y590961D01*
X944679Y594445D01*
X946283Y598316D01*
X947100Y602425D01*
Y603885D01*
D02*
G37*
G36*
X925195D02*
X904560D01*
Y602425D01*
X905377Y598316D01*
X906981Y594445D01*
X909308Y590961D01*
X912271Y587999D01*
X915755Y585671D01*
X919626Y584067D01*
X923735Y583250D01*
X925195D01*
Y603885D01*
D02*
G37*
G36*
X307020D02*
X286385D01*
Y583250D01*
X287845D01*
X291954Y584067D01*
X295825Y585671D01*
X299309Y587999D01*
X302271Y590961D01*
X304599Y594445D01*
X306203Y598316D01*
X307020Y602425D01*
Y603885D01*
D02*
G37*
G36*
X285115D02*
X264480D01*
Y602425D01*
X265297Y598316D01*
X266901Y594445D01*
X269228Y590961D01*
X272191Y587999D01*
X275675Y585671D01*
X279546Y584067D01*
X283655Y583250D01*
X285115D01*
Y603885D01*
D02*
G37*
G36*
X520586Y579021D02*
X505489D01*
Y571886D01*
X492360D01*
Y577730D01*
X474820D01*
Y560190D01*
X492360D01*
Y566034D01*
X505489D01*
Y558899D01*
X520586D01*
Y579021D01*
D02*
G37*
G36*
X622186D02*
X615273D01*
Y569595D01*
X622186D01*
Y579021D01*
D02*
G37*
G36*
X614003D02*
X607089D01*
Y569595D01*
X614003D01*
Y579021D01*
D02*
G37*
G36*
X428993Y584200D02*
X426987D01*
X425049Y583681D01*
X423311Y582677D01*
X421893Y581259D01*
X420889Y579521D01*
X420370Y577583D01*
Y575577D01*
X420889Y573639D01*
X421893Y571901D01*
X423311Y570482D01*
X425049Y569479D01*
X426987Y568960D01*
X428993D01*
X430931Y569479D01*
X432669Y570482D01*
X434087Y571901D01*
X435091Y573639D01*
X435095Y573654D01*
X439758D01*
X439820Y573592D01*
Y560190D01*
X457360D01*
Y577730D01*
X443958D01*
X443039Y578649D01*
X442090Y579283D01*
X440970Y579506D01*
X435095D01*
X435091Y579521D01*
X434087Y581259D01*
X432669Y582677D01*
X430931Y583681D01*
X428993Y584200D01*
D02*
G37*
G36*
X622186Y568325D02*
X615273D01*
Y558899D01*
X622186D01*
Y568325D01*
D02*
G37*
G36*
X614003D02*
X607089D01*
Y558899D01*
X614003D01*
Y568325D01*
D02*
G37*
G36*
X327407Y566350D02*
X326855D01*
Y557965D01*
X335240D01*
Y558517D01*
X334625Y560812D01*
X333438Y562868D01*
X331758Y564548D01*
X329702Y565735D01*
X327407Y566350D01*
D02*
G37*
G36*
X325585D02*
X325033D01*
X322738Y565735D01*
X320682Y564548D01*
X319002Y562868D01*
X317815Y560812D01*
X317200Y558517D01*
Y557965D01*
X325585D01*
Y566350D01*
D02*
G37*
G36*
X335240Y556695D02*
X326855D01*
Y548310D01*
X327407D01*
X329702Y548925D01*
X331758Y550112D01*
X333438Y551792D01*
X334625Y553848D01*
X335240Y556143D01*
Y556695D01*
D02*
G37*
G36*
X325585D02*
X317200D01*
Y556143D01*
X317815Y553848D01*
X319002Y551792D01*
X320682Y550112D01*
X322738Y548925D01*
X325033Y548310D01*
X325585D01*
Y556695D01*
D02*
G37*
G36*
X392359Y553621D02*
X377261D01*
Y546486D01*
X367030D01*
X365910Y546264D01*
X364961Y545629D01*
X354588Y535256D01*
X335240D01*
Y541350D01*
X317200D01*
Y523310D01*
X335240D01*
Y529404D01*
X355800D01*
X356920Y529627D01*
X357869Y530261D01*
X368242Y540634D01*
X377261D01*
Y533499D01*
X392359D01*
Y553621D01*
D02*
G37*
G36*
X938660Y552180D02*
X920620D01*
Y534140D01*
X938660D01*
Y552180D01*
D02*
G37*
G36*
X593491Y532516D02*
X583565D01*
Y524353D01*
X593491D01*
Y532516D01*
D02*
G37*
G36*
X582295D02*
X572369D01*
Y524353D01*
X582295D01*
Y532516D01*
D02*
G37*
G36*
X520586Y525681D02*
X505489D01*
Y518546D01*
X492360D01*
Y524390D01*
X474820D01*
Y506850D01*
X492360D01*
Y512694D01*
X505489D01*
Y505559D01*
X520586D01*
Y525681D01*
D02*
G37*
G36*
X622186Y526951D02*
X615273D01*
Y517525D01*
X622186D01*
Y526951D01*
D02*
G37*
G36*
X614003D02*
X607089D01*
Y517525D01*
X614003D01*
Y526951D01*
D02*
G37*
G36*
X593491Y523083D02*
X583565D01*
Y514919D01*
X593491D01*
Y523083D01*
D02*
G37*
G36*
X582295D02*
X572369D01*
Y514919D01*
X582295D01*
Y523083D01*
D02*
G37*
G36*
X622186Y516255D02*
X615273D01*
Y506829D01*
X622186D01*
Y516255D01*
D02*
G37*
G36*
X614003D02*
X607089D01*
Y506829D01*
X614003D01*
Y516255D01*
D02*
G37*
G36*
X821534Y514251D02*
X814620D01*
Y504825D01*
X821534D01*
Y514251D01*
D02*
G37*
G36*
X813350D02*
X806436D01*
Y504825D01*
X813350D01*
Y514251D01*
D02*
G37*
G36*
X852050Y540900D02*
X834510D01*
Y523360D01*
X840354D01*
Y514251D01*
X834461D01*
Y494129D01*
X849559D01*
Y514251D01*
X846206D01*
Y523360D01*
X852050D01*
Y540900D01*
D02*
G37*
G36*
X821534Y503555D02*
X814620D01*
Y494129D01*
X821534D01*
Y503555D01*
D02*
G37*
G36*
X813350D02*
X806436D01*
Y494129D01*
X813350D01*
Y503555D01*
D02*
G37*
G36*
X579506Y493161D02*
X571343D01*
Y483235D01*
X579506D01*
Y493161D01*
D02*
G37*
G36*
X570073D02*
X561909D01*
Y483235D01*
X570073D01*
Y493161D01*
D02*
G37*
G36*
X328300Y494380D02*
X297465D01*
Y476745D01*
X328300D01*
Y494380D01*
D02*
G37*
G36*
X296195D02*
X265360D01*
Y476745D01*
X296195D01*
Y494380D01*
D02*
G37*
G36*
X859030Y478580D02*
X840990D01*
Y473736D01*
X779530D01*
Y478580D01*
X761490D01*
Y463040D01*
X779530D01*
Y467884D01*
X794168D01*
X809874Y452178D01*
Y398722D01*
X803055Y391903D01*
X803041Y391911D01*
X801103Y392430D01*
X799097D01*
X797159Y391911D01*
X795421Y390908D01*
X794003Y389489D01*
X792999Y387751D01*
X792480Y385813D01*
Y383807D01*
X792999Y381869D01*
X794003Y380131D01*
X795421Y378713D01*
X797159Y377709D01*
X799097Y377190D01*
X801103D01*
X803041Y377709D01*
X804779Y378713D01*
X806198Y380131D01*
X807201Y381869D01*
X807720Y383807D01*
Y385813D01*
X807201Y387751D01*
X807193Y387765D01*
X814869Y395441D01*
X815503Y396390D01*
X815726Y397510D01*
Y453390D01*
X815503Y454510D01*
X814869Y455459D01*
X803618Y466710D01*
X804104Y467884D01*
X840990D01*
Y463040D01*
X859030D01*
Y478580D01*
D02*
G37*
G36*
X582452Y503306D02*
X528320D01*
X527200Y503083D01*
X526251Y502449D01*
X516131Y492329D01*
X515496Y491380D01*
X515274Y490260D01*
Y460257D01*
X514854Y459965D01*
X514004Y459694D01*
X513073Y460316D01*
X512335Y460463D01*
Y450000D01*
Y439537D01*
X513073Y439684D01*
X514238Y440462D01*
X514315Y440578D01*
X515585D01*
X515662Y440462D01*
X516827Y439684D01*
X518200Y439411D01*
X519573Y439684D01*
X520738Y440462D01*
X520815Y440578D01*
X522085D01*
X522162Y440462D01*
X523327Y439684D01*
X524700Y439411D01*
X526073Y439684D01*
X527238Y440462D01*
X527315Y440578D01*
X528585D01*
X528662Y440462D01*
X529827Y439684D01*
X531200Y439411D01*
X532573Y439684D01*
X533738Y440462D01*
X534516Y441627D01*
X534789Y443000D01*
Y457000D01*
X534516Y458373D01*
X533877Y459329D01*
Y464279D01*
X546525Y476926D01*
X548439D01*
X550377Y477445D01*
X552115Y478449D01*
X553534Y479867D01*
X554537Y481605D01*
X555056Y483543D01*
Y485549D01*
X554537Y487487D01*
X553534Y489225D01*
X552115Y490644D01*
X550377Y491647D01*
X548439Y492166D01*
X546433D01*
X544495Y491647D01*
X543560Y491107D01*
X543289Y491132D01*
X542147Y491758D01*
X541771Y493161D01*
X540768Y494899D01*
X539483Y496184D01*
X539567Y496751D01*
X539921Y497454D01*
X581240D01*
X590472Y488222D01*
X591422Y487588D01*
X591434Y487585D01*
Y472039D01*
X609031D01*
Y493161D01*
X594587D01*
X594304Y493217D01*
X593753D01*
X584522Y502449D01*
X583572Y503083D01*
X582452Y503306D01*
D02*
G37*
G36*
X579506Y481965D02*
X571343D01*
Y472039D01*
X579506D01*
Y481965D01*
D02*
G37*
G36*
X570073D02*
X561909D01*
Y472039D01*
X570073D01*
Y481965D01*
D02*
G37*
G36*
X925563Y486410D02*
X923557D01*
X921619Y485891D01*
X919881Y484888D01*
X918463Y483469D01*
X917459Y481731D01*
X916940Y479793D01*
Y477879D01*
X907861Y468801D01*
X907227Y467851D01*
X907004Y466731D01*
Y461638D01*
X905066Y461119D01*
X902554Y459668D01*
X900502Y457616D01*
X899051Y455104D01*
X898300Y452301D01*
Y449399D01*
X899051Y446596D01*
X900502Y444084D01*
X902554Y442032D01*
X905066Y440581D01*
X907869Y439830D01*
X910771D01*
X913574Y440581D01*
X916086Y442032D01*
X918138Y444084D01*
X919589Y446596D01*
X920340Y449399D01*
Y452301D01*
X919589Y455104D01*
X918138Y457616D01*
X916086Y459668D01*
X913574Y461119D01*
X912857Y461311D01*
Y465519D01*
X919976Y472638D01*
X921619Y471689D01*
X923557Y471170D01*
X925563D01*
X927501Y471689D01*
X929239Y472692D01*
X930658Y474111D01*
X931661Y475849D01*
X932180Y477787D01*
Y479793D01*
X931661Y481731D01*
X930658Y483469D01*
X929239Y484888D01*
X927501Y485891D01*
X925563Y486410D01*
D02*
G37*
G36*
X453200Y460589D02*
X451827Y460316D01*
X450662Y459538D01*
X450585Y459422D01*
X449315D01*
X449238Y459538D01*
X448073Y460316D01*
X446700Y460589D01*
X445327Y460316D01*
X444162Y459538D01*
X443384Y458373D01*
X443111Y457000D01*
Y443000D01*
X443384Y441627D01*
X444162Y440462D01*
X445327Y439684D01*
X446700Y439411D01*
X448073Y439684D01*
X449238Y440462D01*
X449315Y440578D01*
X450585D01*
X450662Y440462D01*
X451827Y439684D01*
X453200Y439411D01*
X454573Y439684D01*
X455738Y440462D01*
X455815Y440578D01*
X457085D01*
X457162Y440462D01*
X458327Y439684D01*
X459065Y439537D01*
Y450000D01*
Y460463D01*
X458327Y460316D01*
X457162Y459538D01*
X457085Y459422D01*
X455815D01*
X455738Y459538D01*
X454573Y460316D01*
X453200Y460589D01*
D02*
G37*
G36*
X328300Y475475D02*
X297465D01*
Y457840D01*
X328300D01*
Y475475D01*
D02*
G37*
G36*
X296195D02*
X265360D01*
Y457840D01*
X296195D01*
Y475475D01*
D02*
G37*
G36*
X460335Y460463D02*
Y450000D01*
Y439537D01*
X461073Y439684D01*
X462238Y440462D01*
X462315Y440578D01*
X463585D01*
X463662Y440462D01*
X464827Y439684D01*
X465565Y439537D01*
Y450000D01*
Y460463D01*
X464827Y460316D01*
X463662Y459538D01*
X463585Y459422D01*
X462315D01*
X462238Y459538D01*
X461073Y460316D01*
X460335Y460463D01*
D02*
G37*
G36*
X292015Y444610D02*
X289645D01*
X287356Y443997D01*
X285304Y442812D01*
X283628Y441136D01*
X282443Y439084D01*
X281830Y436795D01*
Y434425D01*
X282443Y432136D01*
X283628Y430084D01*
X285304Y428408D01*
X287356Y427223D01*
X289645Y426610D01*
X292015D01*
X294304Y427223D01*
X296356Y428408D01*
X298032Y430084D01*
X299217Y432136D01*
X299830Y434425D01*
Y436795D01*
X299217Y439084D01*
X298032Y441136D01*
X296356Y442812D01*
X294304Y443997D01*
X292015Y444610D01*
D02*
G37*
G36*
X779530Y433580D02*
X771145D01*
Y426445D01*
X779530D01*
Y433580D01*
D02*
G37*
G36*
X859030D02*
X850645D01*
Y426445D01*
X859030D01*
Y433580D01*
D02*
G37*
G36*
X849375D02*
X840990D01*
Y426445D01*
X849375D01*
Y433580D01*
D02*
G37*
G36*
X769875D02*
X761490D01*
Y426445D01*
X769875D01*
Y433580D01*
D02*
G37*
G36*
X859030Y425175D02*
X850645D01*
Y418040D01*
X859030D01*
Y425175D01*
D02*
G37*
G36*
X849375D02*
X840990D01*
Y418040D01*
X849375D01*
Y425175D01*
D02*
G37*
G36*
X779530D02*
X771145D01*
Y418040D01*
X779530D01*
Y425175D01*
D02*
G37*
G36*
X769875D02*
X761490D01*
Y418040D01*
X769875D01*
Y425175D01*
D02*
G37*
G36*
X377100Y406630D02*
X361465D01*
Y402495D01*
X377100D01*
Y406630D01*
D02*
G37*
G36*
X360195D02*
X344560D01*
Y402495D01*
X360195D01*
Y406630D01*
D02*
G37*
G36*
X914195Y426990D02*
X904445D01*
X902047Y426513D01*
X900015Y425155D01*
X898656Y423123D01*
X898180Y420725D01*
Y410975D01*
X898532Y409201D01*
X891038Y401706D01*
X856735D01*
X856731Y401721D01*
X855727Y403459D01*
X854309Y404878D01*
X852571Y405881D01*
X850633Y406400D01*
X848627D01*
X846689Y405881D01*
X844951Y404878D01*
X843532Y403459D01*
X842529Y401721D01*
X842010Y399783D01*
Y397777D01*
X842529Y395839D01*
X843532Y394101D01*
X844951Y392682D01*
X846689Y391679D01*
X848627Y391160D01*
X850633D01*
X852571Y391679D01*
X854309Y392682D01*
X855727Y394101D01*
X856731Y395839D01*
X856735Y395854D01*
X892250D01*
X893370Y396077D01*
X894319Y396711D01*
X902671Y405062D01*
X904445Y404710D01*
X914195D01*
X916593Y405187D01*
X918625Y406545D01*
X919984Y408577D01*
X920460Y410975D01*
Y420725D01*
X919984Y423123D01*
X918625Y425155D01*
X916593Y426513D01*
X914195Y426990D01*
D02*
G37*
G36*
X377100Y401225D02*
X361465D01*
Y397090D01*
X377100D01*
Y401225D01*
D02*
G37*
G36*
X360195D02*
X344560D01*
Y397090D01*
X360195D01*
Y401225D01*
D02*
G37*
G36*
X425351Y438036D02*
X405229D01*
Y422939D01*
X412364D01*
Y403460D01*
X406520D01*
Y385920D01*
X424060D01*
Y403460D01*
X418216D01*
Y422939D01*
X425351D01*
Y438036D01*
D02*
G37*
G36*
X531200Y386089D02*
X529827Y385816D01*
X528662Y385038D01*
X528585Y384922D01*
X527315D01*
X527238Y385038D01*
X526073Y385816D01*
X524700Y386089D01*
X523327Y385816D01*
X522162Y385038D01*
X522085Y384922D01*
X520815D01*
X520738Y385038D01*
X519573Y385816D01*
X518200Y386089D01*
X516827Y385816D01*
X515662Y385038D01*
X515585Y384922D01*
X514315D01*
X514238Y385038D01*
X513073Y385816D01*
X512335Y385963D01*
Y375500D01*
Y365037D01*
X513073Y365184D01*
X514238Y365962D01*
X514315Y366078D01*
X515585D01*
X515662Y365962D01*
X516827Y365184D01*
X518200Y364911D01*
X519573Y365184D01*
X520738Y365962D01*
X520815Y366078D01*
X522085D01*
X522162Y365962D01*
X523327Y365184D01*
X524700Y364911D01*
X526073Y365184D01*
X527238Y365962D01*
X527315Y366078D01*
X528585D01*
X528662Y365962D01*
X529827Y365184D01*
X531200Y364911D01*
X532573Y365184D01*
X533738Y365962D01*
X534516Y367127D01*
X534789Y368500D01*
Y382500D01*
X534516Y383873D01*
X533738Y385038D01*
X532573Y385816D01*
X531200Y386089D01*
D02*
G37*
G36*
X505200D02*
X503827Y385816D01*
X502662Y385038D01*
X502585Y384922D01*
X501315D01*
X501238Y385038D01*
X500073Y385816D01*
X498700Y386089D01*
X497327Y385816D01*
X496162Y385038D01*
X496085Y384922D01*
X494815D01*
X494738Y385038D01*
X493573Y385816D01*
X492200Y386089D01*
X490827Y385816D01*
X489662Y385038D01*
X489585Y384922D01*
X488315D01*
X488238Y385038D01*
X487073Y385816D01*
X486335Y385963D01*
Y375500D01*
Y365037D01*
X487073Y365184D01*
X488238Y365962D01*
X488315Y366078D01*
X489585D01*
X489662Y365962D01*
X490827Y365184D01*
X492200Y364911D01*
X493573Y365184D01*
X494738Y365962D01*
X494815Y366078D01*
X496085D01*
X496162Y365962D01*
X497327Y365184D01*
X498700Y364911D01*
X500073Y365184D01*
X501238Y365962D01*
X501315Y366078D01*
X502585D01*
X502662Y365962D01*
X503827Y365184D01*
X505200Y364911D01*
X506573Y365184D01*
X507738Y365962D01*
X507815Y366078D01*
X509085D01*
X509162Y365962D01*
X510327Y365184D01*
X511065Y365037D01*
Y375500D01*
Y385963D01*
X510327Y385816D01*
X509162Y385038D01*
X509085Y384922D01*
X507815D01*
X507738Y385038D01*
X506573Y385816D01*
X505200Y386089D01*
D02*
G37*
G36*
X292015Y389610D02*
X289645D01*
X287356Y388997D01*
X285304Y387812D01*
X283628Y386136D01*
X282443Y384084D01*
X281830Y381795D01*
Y379425D01*
X282443Y377136D01*
X283628Y375084D01*
X285304Y373408D01*
X287356Y372223D01*
X289645Y371610D01*
X292015D01*
X294304Y372223D01*
X296356Y373408D01*
X298032Y375084D01*
X299217Y377136D01*
X299830Y379425D01*
Y381795D01*
X299217Y384084D01*
X298032Y386136D01*
X296356Y387812D01*
X294304Y388997D01*
X292015Y389610D01*
D02*
G37*
G36*
X424060Y368460D02*
X415925D01*
Y360325D01*
X424060D01*
Y368460D01*
D02*
G37*
G36*
X414655D02*
X406520D01*
Y360325D01*
X414655D01*
Y368460D01*
D02*
G37*
G36*
X424060Y359055D02*
X415925D01*
Y350920D01*
X424060D01*
Y359055D01*
D02*
G37*
G36*
X414655D02*
X406520D01*
Y350920D01*
X414655D01*
Y359055D01*
D02*
G37*
G36*
X328300Y358380D02*
X297465D01*
Y340745D01*
X328300D01*
Y358380D01*
D02*
G37*
G36*
X296195D02*
X265360D01*
Y340745D01*
X296195D01*
Y358380D01*
D02*
G37*
G36*
X914195Y342610D02*
X909955D01*
Y332105D01*
X920460D01*
Y336345D01*
X919984Y338743D01*
X918625Y340775D01*
X916593Y342133D01*
X914195Y342610D01*
D02*
G37*
G36*
X908685D02*
X904445D01*
X902047Y342133D01*
X900015Y340775D01*
X898656Y338743D01*
X898180Y336345D01*
Y332105D01*
X908685D01*
Y342610D01*
D02*
G37*
G36*
X328300Y339475D02*
X297465D01*
Y321840D01*
X328300D01*
Y339475D01*
D02*
G37*
G36*
X296195D02*
X265360D01*
Y321840D01*
X296195D01*
Y339475D01*
D02*
G37*
G36*
X920460Y330835D02*
X909955D01*
Y320330D01*
X914195D01*
X916593Y320807D01*
X918625Y322165D01*
X919984Y324197D01*
X920460Y326595D01*
Y330835D01*
D02*
G37*
G36*
X908685D02*
X898180D01*
Y326595D01*
X898656Y324197D01*
X900015Y322165D01*
X902047Y320807D01*
X904445Y320330D01*
X908685D01*
Y330835D01*
D02*
G37*
G36*
X832850Y323980D02*
X814810D01*
Y305940D01*
X832850D01*
Y323980D01*
D02*
G37*
G36*
X664596Y311551D02*
X656433D01*
Y301625D01*
X664596D01*
Y311551D01*
D02*
G37*
G36*
X655163D02*
X646999D01*
Y301625D01*
X655163D01*
Y311551D01*
D02*
G37*
G36*
X614589Y310281D02*
X606425D01*
Y300355D01*
X614589D01*
Y310281D01*
D02*
G37*
G36*
X605155D02*
X596991D01*
Y300355D01*
X605155D01*
Y310281D01*
D02*
G37*
G36*
X664596Y300355D02*
X656433D01*
Y290429D01*
X664596D01*
Y300355D01*
D02*
G37*
G36*
X655163D02*
X646999D01*
Y290429D01*
X655163D01*
Y300355D01*
D02*
G37*
G36*
X614589Y299085D02*
X606425D01*
Y289159D01*
X614589D01*
Y299085D01*
D02*
G37*
G36*
X605155D02*
X596991D01*
Y289159D01*
X605155D01*
Y299085D01*
D02*
G37*
G36*
X501581Y296140D02*
X501015D01*
Y287655D01*
X509500D01*
Y288221D01*
X508879Y290540D01*
X507678Y292620D01*
X505980Y294318D01*
X503900Y295518D01*
X501581Y296140D01*
D02*
G37*
G36*
X476181D02*
X475615D01*
Y287655D01*
X484100D01*
Y288221D01*
X483479Y290540D01*
X482278Y292620D01*
X480580Y294318D01*
X478500Y295518D01*
X476181Y296140D01*
D02*
G37*
G36*
X499745D02*
X499179D01*
X496860Y295518D01*
X494780Y294318D01*
X493082Y292620D01*
X491881Y290540D01*
X491260Y288221D01*
Y287655D01*
X499745D01*
Y296140D01*
D02*
G37*
G36*
X474345D02*
X473779D01*
X471460Y295518D01*
X469380Y294318D01*
X467682Y292620D01*
X466482Y290540D01*
X465860Y288221D01*
Y287655D01*
X474345D01*
Y296140D01*
D02*
G37*
G36*
X449313Y292100D02*
X447307D01*
X445369Y291581D01*
X443631Y290578D01*
X442212Y289159D01*
X441209Y287421D01*
X441205Y287406D01*
X433471D01*
Y291216D01*
X412349D01*
Y273619D01*
X433471D01*
Y281554D01*
X441205D01*
X441209Y281539D01*
X442212Y279801D01*
X443631Y278382D01*
X445369Y277379D01*
X447307Y276860D01*
X449313D01*
X451251Y277379D01*
X452989Y278382D01*
X454408Y279801D01*
X455411Y281539D01*
X455930Y283477D01*
Y285483D01*
X455411Y287421D01*
X454408Y289159D01*
X452989Y290578D01*
X451251Y291581D01*
X449313Y292100D01*
D02*
G37*
G36*
X395671Y296311D02*
X387507D01*
Y286385D01*
X395671D01*
Y296311D01*
D02*
G37*
G36*
X386237D02*
X378074D01*
Y286385D01*
X386237D01*
Y296311D01*
D02*
G37*
G36*
X926655Y305750D02*
X925195D01*
Y285115D01*
X945830D01*
Y286575D01*
X945013Y290684D01*
X943409Y294555D01*
X941081Y298039D01*
X938119Y301001D01*
X934635Y303329D01*
X930764Y304933D01*
X926655Y305750D01*
D02*
G37*
G36*
X923925D02*
X922465D01*
X918356Y304933D01*
X914485Y303329D01*
X911001Y301001D01*
X908038Y298039D01*
X905711Y294555D01*
X904107Y290684D01*
X903290Y286575D01*
Y285115D01*
X923925D01*
Y305750D01*
D02*
G37*
G36*
X287845Y304480D02*
X286385D01*
Y283845D01*
X307020D01*
Y285305D01*
X306203Y289414D01*
X304599Y293285D01*
X302271Y296769D01*
X299309Y299732D01*
X295825Y302059D01*
X291954Y303663D01*
X287845Y304480D01*
D02*
G37*
G36*
X285115D02*
X283655D01*
X279546Y303663D01*
X275675Y302059D01*
X272191Y299732D01*
X269228Y296769D01*
X266901Y293285D01*
X265297Y289414D01*
X264480Y285305D01*
Y283845D01*
X285115D01*
Y304480D01*
D02*
G37*
G36*
X509500Y286385D02*
X501015D01*
Y277900D01*
X501581D01*
X503900Y278521D01*
X505980Y279722D01*
X507678Y281420D01*
X508879Y283500D01*
X509500Y285819D01*
Y286385D01*
D02*
G37*
G36*
X499745D02*
X491260D01*
Y285819D01*
X491881Y283500D01*
X493082Y281420D01*
X494780Y279722D01*
X496860Y278521D01*
X499179Y277900D01*
X499745D01*
Y286385D01*
D02*
G37*
G36*
X484100D02*
X475615D01*
Y277900D01*
X476181D01*
X478500Y278521D01*
X480580Y279722D01*
X482278Y281420D01*
X483479Y283500D01*
X484100Y285819D01*
Y286385D01*
D02*
G37*
G36*
X474345D02*
X465860D01*
Y285819D01*
X466482Y283500D01*
X467682Y281420D01*
X469380Y279722D01*
X471460Y278521D01*
X473779Y277900D01*
X474345D01*
Y286385D01*
D02*
G37*
G36*
X395671Y285115D02*
X387507D01*
Y275189D01*
X395671D01*
Y285115D01*
D02*
G37*
G36*
X386237D02*
X378074D01*
Y275189D01*
X386237D01*
Y285115D01*
D02*
G37*
G36*
X800017Y323980D02*
X797643D01*
X795348Y323365D01*
X793292Y322178D01*
X791612Y320498D01*
X790425Y318442D01*
X789810Y316147D01*
Y313773D01*
X790425Y311478D01*
X791612Y309422D01*
X793292Y307742D01*
X795348Y306555D01*
X795904Y306406D01*
Y287020D01*
X796126Y285900D01*
X796761Y284951D01*
X808191Y273521D01*
X809140Y272887D01*
X810260Y272664D01*
X822205D01*
X822209Y272649D01*
X823213Y270911D01*
X824631Y269492D01*
X826369Y268489D01*
X828307Y267970D01*
X830313D01*
X832251Y268489D01*
X833989Y269492D01*
X835407Y270911D01*
X836411Y272649D01*
X836930Y274587D01*
Y276593D01*
X836411Y278531D01*
X835407Y280269D01*
X833989Y281688D01*
X832251Y282691D01*
X830313Y283210D01*
X828307D01*
X826369Y282691D01*
X824631Y281688D01*
X823213Y280269D01*
X822209Y278531D01*
X822205Y278516D01*
X811472D01*
X801756Y288232D01*
Y306406D01*
X802312Y306555D01*
X804368Y307742D01*
X806048Y309422D01*
X807235Y311478D01*
X807850Y313773D01*
Y316147D01*
X807235Y318442D01*
X806048Y320498D01*
X804368Y322178D01*
X802312Y323365D01*
X800017Y323980D01*
D02*
G37*
G36*
X945830Y283845D02*
X925195D01*
Y263210D01*
X926655D01*
X930764Y264027D01*
X934635Y265631D01*
X938119Y267959D01*
X941081Y270921D01*
X943409Y274405D01*
X945013Y278276D01*
X945830Y282385D01*
Y283845D01*
D02*
G37*
G36*
X923925D02*
X903290D01*
Y282385D01*
X904107Y278276D01*
X905711Y274405D01*
X908038Y270921D01*
X911001Y267959D01*
X914485Y265631D01*
X918356Y264027D01*
X922465Y263210D01*
X923925D01*
Y283845D01*
D02*
G37*
G36*
X307020Y282575D02*
X286385D01*
Y261940D01*
X287845D01*
X291954Y262757D01*
X295825Y264361D01*
X299309Y266688D01*
X302271Y269651D01*
X304599Y273135D01*
X306203Y277006D01*
X307020Y281115D01*
Y282575D01*
D02*
G37*
G36*
X285115D02*
X264480D01*
Y281115D01*
X265297Y277006D01*
X266901Y273135D01*
X269228Y269651D01*
X272191Y266688D01*
X275675Y264361D01*
X279546Y262757D01*
X283655Y261940D01*
X285115D01*
Y282575D01*
D02*
G37*
%LPD*%
G36*
X824882Y622010D02*
X820843Y617972D01*
X820209Y617022D01*
X820149Y616721D01*
X818828Y616470D01*
X817130Y618168D01*
X815050Y619369D01*
X812731Y619990D01*
X810329D01*
X808010Y619369D01*
X805930Y618168D01*
X804232Y616470D01*
X803031Y614390D01*
X802872Y613796D01*
X764199D01*
X763079Y613573D01*
X762129Y612939D01*
X748873Y599682D01*
X747314Y599372D01*
X745901Y598428D01*
X745615Y598000D01*
X744345D01*
X744059Y598428D01*
X742646Y599372D01*
X740980Y599704D01*
X739314Y599372D01*
X737902Y598428D01*
X737615Y598000D01*
X736345D01*
X736059Y598428D01*
X734646Y599372D01*
X732980Y599704D01*
X731314Y599372D01*
X729902Y598428D01*
X729615Y598000D01*
X728345D01*
X728058Y598428D01*
X726646Y599372D01*
X725615Y599577D01*
Y588600D01*
Y577623D01*
X726646Y577828D01*
X728058Y578772D01*
X728345Y579200D01*
X729615D01*
X729902Y578772D01*
X731314Y577828D01*
X732980Y577496D01*
X734646Y577828D01*
X736059Y578772D01*
X736345Y579200D01*
X737615D01*
X737902Y578772D01*
X739314Y577828D01*
X740980Y577496D01*
X742646Y577828D01*
X744059Y578772D01*
X744219Y579012D01*
X745520Y579093D01*
X746374Y578245D01*
Y562552D01*
X738911Y555089D01*
X738277Y554140D01*
X738054Y553020D01*
Y513530D01*
X737902Y513428D01*
X737615Y513000D01*
X736345D01*
X736059Y513428D01*
X734646Y514372D01*
X733615Y514577D01*
Y503600D01*
X732345D01*
Y514577D01*
X731314Y514372D01*
X729902Y513428D01*
X729615Y513000D01*
X728345D01*
X728058Y513428D01*
X726646Y514372D01*
X724980Y514704D01*
X723314Y514372D01*
X721901Y513428D01*
X721615Y513000D01*
X720345D01*
X720059Y513428D01*
X718646Y514372D01*
X717615Y514577D01*
Y503600D01*
Y492623D01*
X718646Y492828D01*
X720058Y493772D01*
X721449Y493738D01*
X722054Y493112D01*
Y487870D01*
X722277Y486750D01*
X722911Y485801D01*
X731080Y477632D01*
X731395Y477421D01*
X731010Y476151D01*
X724014D01*
Y456029D01*
X728636D01*
Y449565D01*
X727768Y448696D01*
X706062D01*
X700569Y454189D01*
X699716Y454759D01*
X699706Y454851D01*
X700491Y456029D01*
X711086D01*
Y476151D01*
X695989D01*
Y467746D01*
X692123D01*
X689610Y470259D01*
Y472173D01*
X689091Y474111D01*
X688087Y475849D01*
X686669Y477267D01*
X684931Y478271D01*
X682993Y478790D01*
X680987D01*
X679049Y478271D01*
X677311Y477267D01*
X675892Y475849D01*
X674889Y474111D01*
X674370Y472173D01*
Y470167D01*
X674889Y468229D01*
X675892Y466491D01*
X677311Y465073D01*
X679049Y464069D01*
X680987Y463550D01*
X682993D01*
X684931Y464069D01*
X686574Y465018D01*
X688841Y462751D01*
X689791Y462117D01*
X690911Y461894D01*
X695989D01*
Y456316D01*
X695989Y456029D01*
X695295Y455046D01*
X627306D01*
X626820Y456220D01*
X675829Y505228D01*
X676463Y506178D01*
X676686Y507298D01*
Y513651D01*
X677806Y514250D01*
X678064Y514078D01*
X679730Y513746D01*
X693230D01*
X694896Y514078D01*
X696309Y515022D01*
X697252Y516434D01*
X697584Y518100D01*
X697252Y519766D01*
X696309Y521179D01*
X695880Y521465D01*
Y522735D01*
X696309Y523022D01*
X697252Y524434D01*
X697584Y526100D01*
X697252Y527766D01*
X696309Y529179D01*
X695880Y529465D01*
Y530735D01*
X696309Y531021D01*
X697252Y532434D01*
X697584Y534100D01*
X697252Y535766D01*
X696309Y537178D01*
X695880Y537465D01*
Y538735D01*
X696309Y539021D01*
X697252Y540434D01*
X697584Y542100D01*
X697252Y543766D01*
X696309Y545178D01*
X695880Y545465D01*
Y546735D01*
X696309Y547021D01*
X697252Y548434D01*
X697584Y550100D01*
X697252Y551766D01*
X696309Y553178D01*
X695880Y553465D01*
Y554735D01*
X696309Y555022D01*
X697252Y556434D01*
X697584Y558100D01*
X697252Y559766D01*
X696309Y561179D01*
X695880Y561465D01*
Y562735D01*
X696309Y563022D01*
X697252Y564434D01*
X697584Y566100D01*
X697252Y567766D01*
X696309Y569179D01*
X695880Y569465D01*
Y570735D01*
X696309Y571021D01*
X697252Y572434D01*
X697584Y574100D01*
X697252Y575766D01*
X696309Y577178D01*
X694896Y578122D01*
X693230Y578454D01*
X679730D01*
X678064Y578122D01*
X676652Y577178D01*
X675708Y575766D01*
X675376Y574100D01*
X675708Y572434D01*
X676652Y571021D01*
X677080Y570735D01*
Y569465D01*
X676652Y569179D01*
X675708Y567766D01*
X675671Y567580D01*
X674455Y567211D01*
X670574Y571093D01*
X671311Y572369D01*
X671830Y574307D01*
Y576313D01*
X671311Y578251D01*
X670307Y579989D01*
X668889Y581408D01*
X667151Y582411D01*
X665213Y582930D01*
X663207D01*
X661269Y582411D01*
X659531Y581408D01*
X659186Y581063D01*
X657916Y581589D01*
Y590278D01*
X690822Y623184D01*
X824396D01*
X824882Y622010D01*
D02*
G37*
G36*
X803031Y607350D02*
X804232Y605270D01*
X805930Y603572D01*
X808010Y602371D01*
X810178Y601791D01*
X810508Y601295D01*
X810829Y600480D01*
X810804Y600441D01*
X803816D01*
X802696Y600218D01*
X801747Y599584D01*
X793689Y591526D01*
X761334D01*
Y595350D01*
X761002Y597016D01*
X760059Y598428D01*
X758646Y599372D01*
X758460Y599409D01*
X758091Y600625D01*
X765411Y607944D01*
X802872D01*
X803031Y607350D01*
D02*
G37*
G36*
X490124Y483638D02*
X489344Y482622D01*
X488081Y483351D01*
X486143Y483870D01*
X484137D01*
X482199Y483351D01*
X480461Y482347D01*
X479043Y480929D01*
X478039Y479191D01*
X477520Y477253D01*
Y475247D01*
X478039Y473309D01*
X479043Y471571D01*
X480461Y470153D01*
X482199Y469149D01*
X482774Y468995D01*
Y461331D01*
X481530Y460193D01*
X481124Y460223D01*
X481020Y460378D01*
X469564Y471834D01*
Y474028D01*
X470918Y475381D01*
X471921Y477119D01*
X472440Y479057D01*
Y481063D01*
X471921Y483001D01*
X470918Y484739D01*
X470573Y485084D01*
X471099Y486354D01*
X487408D01*
X490124Y483638D01*
D02*
G37*
G36*
X443111Y368500D02*
X443384Y367127D01*
X444162Y365962D01*
X445327Y365184D01*
X446700Y364911D01*
X448073Y365184D01*
X449004Y365806D01*
X449854Y365535D01*
X450274Y365243D01*
Y357892D01*
X446185Y353803D01*
X446171Y353811D01*
X444233Y354330D01*
X442227D01*
X440289Y353811D01*
X438551Y352808D01*
X437132Y351389D01*
X436129Y349651D01*
X435610Y347713D01*
Y345707D01*
X436129Y343769D01*
X437132Y342031D01*
X438551Y340612D01*
X440289Y339609D01*
X440785Y339476D01*
X440618Y338206D01*
X438092D01*
X433456Y342842D01*
Y367088D01*
X438249Y371881D01*
X443111D01*
Y368500D01*
D02*
G37*
G36*
X700712Y445770D02*
X686356Y431414D01*
X685721Y430465D01*
X685499Y429345D01*
Y425351D01*
X680876D01*
Y405229D01*
X686726D01*
Y368201D01*
X682104D01*
Y353804D01*
X681341Y353652D01*
X680392Y353018D01*
X671930Y344556D01*
X612111D01*
X611585Y345826D01*
X633259Y367501D01*
X633894Y368450D01*
X634116Y369570D01*
Y382355D01*
X656990Y405229D01*
X667949D01*
Y425351D01*
X656990D01*
X650289Y432051D01*
X649340Y432686D01*
X648970Y432759D01*
Y432803D01*
X648451Y434741D01*
X647448Y436479D01*
X646029Y437897D01*
X644291Y438901D01*
X642353Y439420D01*
X640347D01*
X638409Y438901D01*
X636671Y437897D01*
X635252Y436479D01*
X634249Y434741D01*
X633730Y432803D01*
Y430797D01*
X634249Y428859D01*
X635252Y427121D01*
X636671Y425703D01*
X638409Y424699D01*
X640347Y424180D01*
X642353D01*
X644291Y424699D01*
X646029Y425703D01*
X647195Y426869D01*
X652851Y421213D01*
Y409367D01*
X629121Y385637D01*
X628487Y384687D01*
X628264Y383568D01*
Y370782D01*
X607118Y349636D01*
X568445D01*
X568441Y349651D01*
X567438Y351389D01*
X566019Y352808D01*
X564281Y353811D01*
X562343Y354330D01*
X560337D01*
X558399Y353811D01*
X556661Y352808D01*
X555243Y351389D01*
X554239Y349651D01*
X554106Y349155D01*
X552836Y349322D01*
Y376238D01*
X589228Y412630D01*
X603630D01*
Y443170D01*
X597286D01*
Y445828D01*
X600652Y449194D01*
X697288D01*
X700712Y445770D01*
D02*
G37*
G36*
X469774Y342528D02*
Y340100D01*
X469996Y338980D01*
X470631Y338031D01*
X492189Y316473D01*
X491881Y315940D01*
X491260Y313621D01*
Y311219D01*
X491881Y308900D01*
X493082Y306820D01*
X494716Y305186D01*
X494695Y304896D01*
X494329Y303916D01*
X481031D01*
X480665Y304896D01*
X480644Y305186D01*
X482278Y306820D01*
X483479Y308900D01*
X484100Y311219D01*
Y313621D01*
X483479Y315940D01*
X482278Y318020D01*
X480580Y319718D01*
X478500Y320919D01*
X476181Y321540D01*
X473779D01*
X471460Y320919D01*
X470927Y320611D01*
X464650Y326888D01*
Y328216D01*
X464427Y329336D01*
X463793Y330285D01*
X458417Y335661D01*
X459075Y336800D01*
X460007Y336550D01*
X462013D01*
X463951Y337069D01*
X465689Y338073D01*
X467108Y339491D01*
X468111Y341229D01*
X468504Y342696D01*
X469774Y342528D01*
D02*
G37*
%LPC*%
G36*
X716980Y599704D02*
X715314Y599372D01*
X713902Y598428D01*
X713615Y598000D01*
X712345D01*
X712058Y598428D01*
X710646Y599372D01*
X708980Y599704D01*
X707314Y599372D01*
X705901Y598428D01*
X705615Y598000D01*
X704345D01*
X704059Y598428D01*
X702646Y599372D01*
X700980Y599704D01*
X699314Y599372D01*
X697902Y598428D01*
X696958Y597016D01*
X696626Y595350D01*
Y581850D01*
X696958Y580184D01*
X697902Y578772D01*
X699314Y577828D01*
X700980Y577496D01*
X702646Y577828D01*
X704059Y578772D01*
X704345Y579200D01*
X705615D01*
X705901Y578772D01*
X707314Y577828D01*
X708980Y577496D01*
X710646Y577828D01*
X712058Y578772D01*
X712345Y579200D01*
X713615D01*
X713902Y578772D01*
X715314Y577828D01*
X716980Y577496D01*
X718646Y577828D01*
X720059Y578772D01*
X720345Y579200D01*
X721615D01*
X721901Y578772D01*
X723314Y577828D01*
X724345Y577623D01*
Y588600D01*
Y599577D01*
X723314Y599372D01*
X721901Y598428D01*
X721615Y598000D01*
X720345D01*
X720059Y598428D01*
X718646Y599372D01*
X716980Y599704D01*
D02*
G37*
G36*
X708980Y514704D02*
X707314Y514372D01*
X705901Y513428D01*
X705615Y513000D01*
X704345D01*
X704059Y513428D01*
X702646Y514372D01*
X700980Y514704D01*
X699314Y514372D01*
X697902Y513428D01*
X696958Y512016D01*
X696626Y510350D01*
Y496850D01*
X696958Y495184D01*
X697902Y493772D01*
X699314Y492828D01*
X700980Y492496D01*
X702646Y492828D01*
X704059Y493772D01*
X704345Y494200D01*
X705615D01*
X705901Y493772D01*
X707314Y492828D01*
X708980Y492496D01*
X710646Y492828D01*
X712058Y493772D01*
X712345Y494200D01*
X713615D01*
X713902Y493772D01*
X715314Y492828D01*
X716345Y492623D01*
Y503600D01*
Y514577D01*
X715314Y514372D01*
X713902Y513428D01*
X713615Y513000D01*
X712345D01*
X712058Y513428D01*
X710646Y514372D01*
X708980Y514704D01*
D02*
G37*
G36*
X603630Y400170D02*
X594995D01*
Y385535D01*
X603630D01*
Y400170D01*
D02*
G37*
G36*
X593725D02*
X585090D01*
Y385535D01*
X593725D01*
Y400170D01*
D02*
G37*
G36*
X603630Y384265D02*
X594995D01*
Y369630D01*
X603630D01*
Y384265D01*
D02*
G37*
G36*
X593725D02*
X585090D01*
Y369630D01*
X593725D01*
Y384265D01*
D02*
G37*
G36*
X669176Y368201D02*
X654079D01*
Y359796D01*
X647185D01*
X647181Y359811D01*
X646178Y361549D01*
X644759Y362967D01*
X643021Y363971D01*
X641083Y364490D01*
X639077D01*
X637139Y363971D01*
X635401Y362967D01*
X633983Y361549D01*
X632979Y359811D01*
X632460Y357873D01*
Y355867D01*
X632979Y353929D01*
X633983Y352191D01*
X635401Y350773D01*
X637139Y349769D01*
X639077Y349250D01*
X641083D01*
X643021Y349769D01*
X644759Y350773D01*
X646178Y352191D01*
X647181Y353929D01*
X647185Y353944D01*
X654079D01*
Y348079D01*
X669176D01*
Y368201D01*
D02*
G37*
%LPD*%
D14*
X843280Y532130D02*
D03*
X808280D02*
D03*
X483590Y515620D02*
D03*
X448590D02*
D03*
X483590Y568960D02*
D03*
X448590D02*
D03*
D15*
X813985Y504190D02*
D03*
X842010D02*
D03*
X703538Y466090D02*
D03*
X731562D02*
D03*
X412835Y543560D02*
D03*
X384810D02*
D03*
X689652Y358140D02*
D03*
X661628D02*
D03*
X688425Y415290D02*
D03*
X660400D02*
D03*
X642662Y516890D02*
D03*
X614638D02*
D03*
X642662Y568960D02*
D03*
X614638D02*
D03*
X541062Y515620D02*
D03*
X513038D02*
D03*
X541062Y568960D02*
D03*
X513038D02*
D03*
D16*
X415290Y394690D02*
D03*
Y359690D02*
D03*
D17*
X422910Y282418D02*
D03*
Y311942D02*
D03*
X582930Y523718D02*
D03*
Y553242D02*
D03*
D18*
X357348Y285750D02*
D03*
X386872D02*
D03*
X576265Y299720D02*
D03*
X605790D02*
D03*
X570708Y482600D02*
D03*
X600232D02*
D03*
X655798Y300990D02*
D03*
X685322D02*
D03*
D19*
X360830Y414360D02*
D03*
Y401860D02*
D03*
Y426860D02*
D03*
Y389360D02*
D03*
D20*
X296830Y340110D02*
D03*
Y476110D02*
D03*
D21*
X531200Y450000D02*
D03*
X524700D02*
D03*
X518200D02*
D03*
X511700D02*
D03*
X505200D02*
D03*
X498700D02*
D03*
X492200D02*
D03*
X485700D02*
D03*
X479200D02*
D03*
X472700D02*
D03*
X466200D02*
D03*
X459700D02*
D03*
X453200D02*
D03*
X446700D02*
D03*
X531200Y375500D02*
D03*
X524700D02*
D03*
X518200D02*
D03*
X511700D02*
D03*
X505200D02*
D03*
X498700D02*
D03*
X492200D02*
D03*
X485700D02*
D03*
X479200D02*
D03*
X472700D02*
D03*
X466200D02*
D03*
X459700D02*
D03*
X453200D02*
D03*
X446700D02*
D03*
D22*
X415290Y430488D02*
D03*
Y458512D02*
D03*
D23*
X850010Y425810D02*
D03*
X770510D02*
D03*
X850010Y470810D02*
D03*
X770510D02*
D03*
D24*
X700980Y503600D02*
D03*
X708980D02*
D03*
X716980D02*
D03*
X724980D02*
D03*
X732980D02*
D03*
X740980D02*
D03*
X748980D02*
D03*
X756980D02*
D03*
Y588600D02*
D03*
X748980D02*
D03*
X740980D02*
D03*
X732980D02*
D03*
X724980D02*
D03*
X716980D02*
D03*
X708980D02*
D03*
X700980D02*
D03*
D25*
X771480Y518100D02*
D03*
Y526100D02*
D03*
Y534100D02*
D03*
Y542100D02*
D03*
Y550100D02*
D03*
Y558100D02*
D03*
Y566100D02*
D03*
Y574100D02*
D03*
X686480D02*
D03*
Y566100D02*
D03*
Y558100D02*
D03*
Y550100D02*
D03*
Y542100D02*
D03*
Y534100D02*
D03*
Y526100D02*
D03*
Y518100D02*
D03*
D26*
X594360Y427900D02*
D03*
Y384900D02*
D03*
D32*
X862330Y610870D02*
D03*
X836930D02*
D03*
X811530D02*
D03*
X862330Y585470D02*
D03*
X836930D02*
D03*
X474980Y287020D02*
D03*
X500380D02*
D03*
X525780D02*
D03*
X474980Y312420D02*
D03*
X500380D02*
D03*
D33*
X811530Y585470D02*
D03*
X525780Y312420D02*
D03*
D37*
X929640Y543160D02*
D03*
X326220Y532330D02*
D03*
D38*
X929640Y518160D02*
D03*
X798830Y314960D02*
D03*
X326220Y557330D02*
D03*
D39*
X823830Y314960D02*
D03*
D45*
X795020Y495300D02*
X802640Y487680D01*
X899160D01*
X795020Y495300D02*
Y543560D01*
X899160Y487680D02*
X929640Y518160D01*
X842010Y504190D02*
X843280Y505460D01*
Y532130D01*
X623900Y623900D02*
X652450D01*
X660400Y615950D01*
X601980Y601980D02*
X623900Y623900D01*
X601980Y552450D02*
Y601980D01*
Y552450D02*
X610870Y543560D01*
X635471Y524081D02*
X637984D01*
X610870Y543560D02*
X615992D01*
X642662Y516890D02*
Y519402D01*
X637984Y524081D02*
X642662Y519402D01*
X615992Y543560D02*
X635471Y524081D01*
X862330Y585470D02*
X876300D01*
X886460Y595630D02*
Y614680D01*
X876300Y585470D02*
X886460Y595630D01*
X689610Y626110D02*
X875030D01*
X886460Y614680D01*
X654990Y591490D02*
X689610Y626110D01*
X654990Y537540D02*
Y591490D01*
Y537540D02*
X656590Y535940D01*
X845260Y621590D02*
X849630Y617220D01*
X836930Y585470D02*
X849630Y598170D01*
Y617220D01*
X828600Y621590D02*
X845260D01*
X822912Y615902D02*
X828600Y621590D01*
X822912Y607092D02*
Y615902D01*
X813335Y597515D02*
X822912Y607092D01*
X794901Y588600D02*
X803816Y597515D01*
X813335D01*
X756980Y588600D02*
X794901D01*
X808280Y532130D02*
X836930Y560780D01*
Y585470D01*
X811919Y566100D02*
X823229Y577410D01*
Y597169D01*
X836930Y610870D01*
X771480Y566100D02*
X811919D01*
X800160Y574100D02*
X811530Y585470D01*
X771480Y574100D02*
X800160D01*
X748980Y595651D02*
X764199Y610870D01*
X748980Y588600D02*
Y595651D01*
X764199Y610870D02*
X811530D01*
X909931Y466731D02*
X921989Y478790D01*
X924560D01*
X810260Y275590D02*
X829310D01*
X798830Y287020D02*
X810260Y275590D01*
X798830Y287020D02*
Y314960D01*
X415290Y394690D02*
Y430488D01*
X466638Y470622D02*
X478951Y458309D01*
X466638Y470622D02*
Y478242D01*
X448570Y489280D02*
X488620D01*
X417802Y458512D02*
X448570Y489280D01*
X488620D02*
X498700Y479200D01*
X464820Y480060D02*
X466638Y478242D01*
X478951Y450249D02*
Y458309D01*
Y450249D02*
X479200Y450000D01*
X485700D02*
Y475690D01*
X485140Y476250D02*
X485700Y475690D01*
X530951Y450249D02*
Y465491D01*
X547436Y481976D01*
Y484546D01*
X524700Y480250D02*
X534670Y490220D01*
X524700Y450000D02*
Y480250D01*
X582452Y500380D02*
X592541Y490291D01*
X518200Y490260D02*
X528320Y500380D01*
X582452D01*
X518200Y450000D02*
Y490260D01*
X498700Y450000D02*
Y479200D01*
X448590Y515620D02*
X464820Y499390D01*
Y499110D02*
Y499390D01*
X461969Y345129D02*
Y355320D01*
X466200Y359551D01*
X461010Y344170D02*
X461969Y345129D01*
X466200Y359551D02*
Y375500D01*
X443230Y346710D02*
X453200Y356680D01*
Y375500D01*
X430530Y341630D02*
Y368300D01*
Y341630D02*
X436880Y335280D01*
X454660D01*
X461724Y328216D01*
Y325676D02*
Y328216D01*
X447762Y320762D02*
X449580Y322580D01*
X447762Y313457D02*
Y320762D01*
X446248Y311942D02*
X447762Y313457D01*
X534949Y277851D02*
X541299D01*
X525780Y287020D02*
X534949Y277851D01*
X541299D02*
X551180Y267970D01*
X536987Y295577D02*
X541957D01*
X549910Y303530D02*
Y377450D01*
X541957Y295577D02*
X549910Y303530D01*
Y377450D02*
X594360Y421900D01*
X528430Y287020D02*
X536987Y295577D01*
X525780Y287020D02*
X528430D01*
X560070Y313690D02*
X588010Y341630D01*
X560070Y276860D02*
Y313690D01*
Y276860D02*
X574040Y262890D01*
X561340Y346710D02*
X608330D01*
X673142Y341630D02*
X682461Y350949D01*
X588010Y341630D02*
X673142D01*
X424972Y284480D02*
X448310D01*
X422910Y282418D02*
X424972Y284480D01*
X437037Y374807D02*
X446100D01*
X430530Y368300D02*
X437037Y374807D01*
X446100D02*
X446700Y375407D01*
Y375500D02*
Y382852D01*
X422910Y311942D02*
X446248D01*
X457200Y300990D01*
X514350D01*
X525780Y312420D01*
X461724Y325676D02*
X474980Y312420D01*
X472700Y340100D02*
X500380Y312420D01*
X472700Y340100D02*
Y375500D01*
X501650Y262890D02*
X525780Y287020D01*
X357348Y285750D02*
Y300198D01*
Y268762D02*
Y285750D01*
X363220Y262890D02*
X501650D01*
X357348Y268762D02*
X363220Y262890D01*
X382270Y307340D02*
X391160Y316230D01*
X364490Y307340D02*
X382270D01*
X357348Y300198D02*
X364490Y307340D01*
X391160Y316230D02*
Y388620D01*
X367030Y543560D02*
X384810D01*
X355800Y532330D02*
X367030Y543560D01*
X326220Y532330D02*
X355800D01*
X909931Y451461D02*
Y466731D01*
X909320Y450850D02*
X909931Y451461D01*
X892250Y398780D02*
X909320Y415850D01*
X849630Y398780D02*
X892250D01*
X864870Y279400D02*
Y350520D01*
X848360Y262890D02*
X864870Y279400D01*
X574040Y262890D02*
X848360D01*
X777240Y497840D02*
X779058Y499658D01*
X785408D01*
X788670Y502920D01*
Y539750D01*
X771480Y542100D02*
X786320D01*
X788670Y539750D01*
X642620Y569002D02*
Y614680D01*
Y569002D02*
X642662Y568960D01*
X770510Y470810D02*
X795380D01*
X850010D01*
X812800Y397510D02*
Y453390D01*
X800100Y384810D02*
X812800Y397510D01*
X795380Y470810D02*
X812800Y453390D01*
X748980Y377410D02*
Y503600D01*
X735330Y314960D02*
X756980Y336610D01*
Y503600D01*
X735330Y363760D02*
X748980Y377410D01*
X908760Y367030D02*
X909320Y366470D01*
X881380Y367030D02*
X908760D01*
X864870Y350520D02*
X881380Y367030D01*
X749300Y561340D02*
Y588280D01*
X748980Y588600D02*
X749300Y588280D01*
X740980Y503600D02*
Y553020D01*
X749300Y561340D01*
X702268Y464820D02*
X703538Y466090D01*
X690911Y464820D02*
X702268D01*
X681990Y471170D02*
X684561D01*
X690911Y464820D01*
X640080Y356870D02*
X660358D01*
X661628Y358140D01*
X631190Y369570D02*
Y383568D01*
X608330Y346710D02*
X631190Y369570D01*
Y383568D02*
X660400Y412778D01*
X641350Y431800D02*
X643168Y429982D01*
X648220D02*
X660400Y417802D01*
Y415290D02*
Y417802D01*
Y412778D02*
Y415290D01*
X643168Y429982D02*
X648220D01*
X659161Y535940D02*
X665321Y542100D01*
X656590Y535940D02*
X659161D01*
X665321Y542100D02*
X686480D01*
X671930Y550100D02*
X686480D01*
X665770Y556260D02*
X671930Y550100D01*
X664210Y556260D02*
X665770D01*
X664210Y573319D02*
X679429Y558100D01*
X686480D01*
X664210Y573319D02*
Y575310D01*
X440970Y576580D02*
X448590Y568960D01*
X427990Y576580D02*
X440970D01*
X386049Y431800D02*
X388620D01*
X530951Y450249D02*
X531200Y450000D01*
X391160Y388620D02*
X398780Y396240D01*
Y448310D01*
X404838Y450573D02*
X412778Y458512D01*
X398780Y448310D02*
X401043Y450573D01*
X404838D01*
X362270Y412920D02*
X387180D01*
X360830Y414360D02*
X362270Y412920D01*
X387180D02*
X388620Y411480D01*
X360830Y426860D02*
X381109D01*
X386049Y431800D01*
X415290Y458512D02*
X417802D01*
X415290D02*
Y495300D01*
X412835Y497755D02*
X415290Y495300D01*
X412835Y497755D02*
Y543560D01*
X412778Y458512D02*
X415290D01*
X360830Y389360D02*
X390420D01*
X391160Y388620D01*
X472700Y375500D02*
Y402919D01*
X448080Y384621D02*
X478749Y415290D01*
X472700Y402919D02*
X480601Y410820D01*
X528942D01*
X478749Y415290D02*
X523240D01*
X733149Y479701D02*
X736241D01*
X724980Y487870D02*
Y503600D01*
Y487870D02*
X733149Y479701D01*
X592541Y490291D02*
X594304D01*
X600232Y482600D02*
Y484362D01*
X594304Y490291D02*
X600232Y484362D01*
X594360Y421900D02*
Y427900D01*
Y447040D01*
X599440Y452120D01*
X523240Y415290D02*
X569499Y461549D01*
X669290Y509149D02*
Y523961D01*
X528942Y410820D02*
X574712Y456590D01*
X673760Y520431D02*
X679429Y526100D01*
X673760Y507298D02*
Y520431D01*
X599440Y452120D02*
X698500D01*
X679429Y526100D02*
X686480D01*
X623052Y456590D02*
X673760Y507298D01*
X621690Y461549D02*
X669290Y509149D01*
X574712Y456590D02*
X623052D01*
X569499Y461549D02*
X621690D01*
X448080Y384232D02*
Y384621D01*
X446700Y382852D02*
X448080Y384232D01*
X669290Y523961D02*
X679428Y534100D01*
X686480D01*
X788480Y550100D02*
X795020Y543560D01*
X771480Y550100D02*
X788480D01*
X682461Y350949D02*
X684974D01*
X689652Y355628D02*
Y358140D01*
X684974Y350949D02*
X689652Y355628D01*
X697230Y276860D02*
X735330Y314960D01*
X576265Y297958D02*
X597363Y276860D01*
X697230D01*
X698500Y452120D02*
X704850Y445770D01*
X731562Y448352D02*
Y466090D01*
X728980Y445770D02*
X731562Y448352D01*
X704850Y445770D02*
X728980D01*
X688425Y429345D02*
X704850Y445770D01*
X688425Y415290D02*
Y429345D01*
X689652Y358140D02*
Y414062D01*
X688425Y415290D02*
X689652Y414062D01*
X736241Y479701D02*
X740980Y484440D01*
Y503600D01*
X736241Y470769D02*
Y479701D01*
X731562Y466090D02*
X736241Y470769D01*
X541062Y566448D02*
Y568960D01*
Y515620D02*
Y566448D01*
X685322Y313752D02*
X735330Y363760D01*
X685322Y300990D02*
Y313752D01*
X576265Y297958D02*
Y299720D01*
X415290Y281148D02*
X417052D01*
X518175Y543560D02*
X541062Y566448D01*
X412835Y543560D02*
X518175D01*
X541062Y566448D02*
X554268Y553242D01*
X582930D01*
X483590Y515620D02*
X513038D01*
X483590Y568960D02*
X513038D01*
D46*
X290830Y435610D02*
D03*
Y380610D02*
D03*
D47*
X909320Y450850D02*
D03*
Y366470D02*
D03*
D48*
Y415850D02*
D03*
Y331470D02*
D03*
D49*
X735330Y363760D02*
D03*
D50*
Y314960D02*
D03*
D51*
X285750Y283210D02*
D03*
Y604520D02*
D03*
X924560Y284480D02*
D03*
X925830Y604520D02*
D03*
D52*
X940001Y500000D02*
D03*
Y380000D02*
D03*
X930001Y560000D02*
D03*
Y360000D02*
D03*
X900001Y620000D02*
D03*
Y580000D02*
D03*
X910001Y560000D02*
D03*
Y520000D02*
D03*
X900001Y300000D02*
D03*
X890001Y560000D02*
D03*
Y520000D02*
D03*
X880001Y500000D02*
D03*
Y460000D02*
D03*
X890001Y440000D02*
D03*
X880001Y420000D02*
D03*
Y340000D02*
D03*
X890001Y280000D02*
D03*
X870001Y560000D02*
D03*
Y520000D02*
D03*
X860001Y500000D02*
D03*
X870001Y440000D02*
D03*
X850001Y560000D02*
D03*
Y360000D02*
D03*
X840001Y340000D02*
D03*
X850001Y320000D02*
D03*
X840001Y300000D02*
D03*
X830000Y440000D02*
D03*
Y400000D02*
D03*
Y360000D02*
D03*
X820000Y340000D02*
D03*
X810000Y360000D02*
D03*
X790000Y600000D02*
D03*
Y440000D02*
D03*
Y400000D02*
D03*
Y360000D02*
D03*
X780000Y300000D02*
D03*
X790000Y280000D02*
D03*
X770000Y400000D02*
D03*
Y360000D02*
D03*
Y320000D02*
D03*
X760000Y300000D02*
D03*
X770000Y280000D02*
D03*
X750000D02*
D03*
X730000Y560000D02*
D03*
X720000Y540000D02*
D03*
X730000Y400000D02*
D03*
Y280000D02*
D03*
X710000Y560000D02*
D03*
Y400000D02*
D03*
Y360000D02*
D03*
Y320000D02*
D03*
X670000Y440000D02*
D03*
Y320000D02*
D03*
X650000D02*
D03*
X630000Y600000D02*
D03*
Y320000D02*
D03*
X610000D02*
D03*
X590000Y600000D02*
D03*
X580000Y580000D02*
D03*
X590000Y320000D02*
D03*
X560000Y620000D02*
D03*
X540000D02*
D03*
X550000Y600000D02*
D03*
X520000Y620000D02*
D03*
X530000Y600000D02*
D03*
Y400000D02*
D03*
X500000Y620000D02*
D03*
X510000Y600000D02*
D03*
X500000Y500000D02*
D03*
X510000Y400000D02*
D03*
X480000Y620000D02*
D03*
X490000Y600000D02*
D03*
Y400000D02*
D03*
X460000Y620000D02*
D03*
X470000Y600000D02*
D03*
X440000Y620000D02*
D03*
X450000Y600000D02*
D03*
X420000Y620000D02*
D03*
X430000Y600000D02*
D03*
X420000Y340000D02*
D03*
X400000Y620000D02*
D03*
X410000Y600000D02*
D03*
X400000Y580000D02*
D03*
Y500000D02*
D03*
X380000Y620000D02*
D03*
X390000Y600000D02*
D03*
X380000Y580000D02*
D03*
X390000Y520000D02*
D03*
X380000Y500000D02*
D03*
X390000Y480000D02*
D03*
X380000Y340000D02*
D03*
X360000Y620000D02*
D03*
X370000Y600000D02*
D03*
X360000Y580000D02*
D03*
X370000Y560000D02*
D03*
Y520000D02*
D03*
X360000Y500000D02*
D03*
X370000Y480000D02*
D03*
X360000Y460000D02*
D03*
X370000Y360000D02*
D03*
X360000Y340000D02*
D03*
X370000Y320000D02*
D03*
X340000Y620000D02*
D03*
X350000Y600000D02*
D03*
X340000Y580000D02*
D03*
X350000Y560000D02*
D03*
Y520000D02*
D03*
X340000Y500000D02*
D03*
X350000Y480000D02*
D03*
X340000Y460000D02*
D03*
X350000Y440000D02*
D03*
Y360000D02*
D03*
X340000Y340000D02*
D03*
X350000Y320000D02*
D03*
X340000Y300000D02*
D03*
X320000Y620000D02*
D03*
X330000Y600000D02*
D03*
X320000Y580000D02*
D03*
X330000Y440000D02*
D03*
X320000Y420000D02*
D03*
X330000Y400000D02*
D03*
X320000Y380000D02*
D03*
Y300000D02*
D03*
X330000Y280000D02*
D03*
X300000Y540000D02*
D03*
X310000Y520000D02*
D03*
Y440000D02*
D03*
X300000Y420000D02*
D03*
X310000Y400000D02*
D03*
X290000Y560000D02*
D03*
X280000Y540000D02*
D03*
X290000Y520000D02*
D03*
X280000Y420000D02*
D03*
X290000Y400000D02*
D03*
X270000Y560000D02*
D03*
Y520000D02*
D03*
Y440000D02*
D03*
Y400000D02*
D03*
D53*
X660400Y615950D02*
D03*
X924560Y478790D02*
D03*
X464820Y480060D02*
D03*
X485140Y476250D02*
D03*
X547436Y484546D02*
D03*
X534670Y490220D02*
D03*
X464820Y499110D02*
D03*
X461010Y344170D02*
D03*
X443230Y346710D02*
D03*
X449580Y322580D02*
D03*
X551180Y267970D02*
D03*
X561340Y346710D02*
D03*
X448310Y284480D02*
D03*
X829310Y275590D02*
D03*
X777240Y497840D02*
D03*
X642620Y614680D02*
D03*
X640080Y356870D02*
D03*
X681990Y471170D02*
D03*
X641350Y431800D02*
D03*
X849630Y398780D02*
D03*
X664210Y556260D02*
D03*
X800100Y384810D02*
D03*
X656590Y535940D02*
D03*
X664210Y575310D02*
D03*
X427990Y576580D02*
D03*
X388620Y431800D02*
D03*
Y411480D02*
D03*
M02*
