G04*
G04 #@! TF.GenerationSoftware,Altium Limited,Altium Designer,23.10.1 (27)*
G04*
G04 Layer_Color=65535*
%FSLAX44Y44*%
%MOMM*%
G71*
G04*
G04 #@! TF.SameCoordinates,F5A69C73-B6B7-4C8D-B8A1-BB125D59BB46*
G04*
G04*
G04 #@! TF.FilePolarity,Positive*
G04*
G01*
G75*
%ADD10C,0.2500*%
%ADD11C,0.6000*%
%ADD12C,0.2000*%
%ADD13C,0.2540*%
D10*
X791830Y585470D02*
G03*
X791830Y585470I-1250J0D01*
G01*
X547980Y312420D02*
G03*
X547980Y312420I-1250J0D01*
G01*
X930890Y574410D02*
G03*
X930890Y574410I-1250J0D01*
G01*
X856330Y314960D02*
G03*
X856330Y314960I-1250J0D01*
G01*
X439700Y375500D02*
G03*
X439700Y375500I-1250J0D01*
G01*
X736580Y276110D02*
G03*
X736580Y276110I-1250J0D01*
G01*
X865510Y425810D02*
G03*
X865510Y425810I-1250J0D01*
G01*
X693730Y503600D02*
G03*
X693730Y503600I-1250J0D01*
G01*
X327470Y501080D02*
G03*
X327470Y501080I-1250J0D01*
G01*
X595610Y365400D02*
G03*
X595610Y365400I-1250J0D01*
G01*
D11*
X449450Y398750D02*
G03*
X449450Y398750I-3000J0D01*
G01*
X713480Y527600D02*
G03*
X713480Y527600I-3000J0D01*
G01*
D12*
X712080Y290860D02*
G03*
X720330Y282610I8250J0D01*
G01*
X750330Y282610D02*
G03*
X758580Y290860I0J8250D01*
G01*
Y387860D02*
G03*
X750330Y396110I-8250J0D01*
G01*
X720330Y396110D02*
G03*
X712080Y387860I0J-8250D01*
G01*
X796330Y571770D02*
Y624570D01*
Y571770D02*
X877530D01*
Y624570D01*
X796330D02*
X877530D01*
X819780Y523630D02*
X831780D01*
X819780Y540630D02*
X831780D01*
X829030Y524380D02*
Y539880D01*
X823264Y495399D02*
X832731D01*
X823264Y512981D02*
X832731D01*
X540980Y273320D02*
Y326120D01*
X459780D02*
X540980D01*
X459780Y273320D02*
Y326120D01*
Y273320D02*
X540980D01*
X407540Y373940D02*
X423040D01*
X423790Y371190D02*
Y383190D01*
X406790Y371190D02*
Y383190D01*
X432201Y292946D02*
Y301414D01*
X413619Y292946D02*
Y301414D01*
X367876Y276459D02*
X376344D01*
X367876Y295041D02*
X376344D01*
X360830Y347910D02*
Y382610D01*
Y433610D02*
Y468310D01*
X330330Y347910D02*
X360830D01*
X330330Y468310D02*
X360830D01*
X869320Y398350D02*
Y468350D01*
X943320Y398350D02*
Y468350D01*
X869320D02*
X943320D01*
X931770Y394350D02*
X938270D01*
X937520Y398350D02*
X938270Y394350D01*
X931770D02*
X932520Y398350D01*
X937520D02*
X943320D01*
X880120D02*
X880870Y394350D01*
X874370D02*
X875120Y398350D01*
X874370Y394350D02*
X880870D01*
X869320Y398350D02*
X875120D01*
X880120D02*
X932520D01*
X953140Y493660D02*
Y567660D01*
X895640Y493660D02*
X953140D01*
X895640D02*
Y567660D01*
X953140D01*
X848330Y291460D02*
Y348960D01*
X774330D02*
X848330D01*
X774330Y291460D02*
Y348960D01*
Y291460D02*
X848330D01*
X541450Y388750D02*
Y436750D01*
X436450Y388750D02*
Y436750D01*
X541450D01*
X436450Y388750D02*
X541450D01*
X424081Y439766D02*
Y449234D01*
X406499Y439766D02*
Y449234D01*
X869320Y313970D02*
Y383970D01*
X943320Y313970D02*
Y383970D01*
X869320D02*
X943320D01*
X931770Y309970D02*
X938270D01*
X937520Y313970D02*
X938270Y309970D01*
X931770D02*
X932520Y313970D01*
X937520D02*
X943320D01*
X880120D02*
X880870Y309970D01*
X874370D02*
X875120Y313970D01*
X874370Y309970D02*
X880870D01*
X869320Y313970D02*
X875120D01*
X880120D02*
X932520D01*
X758580Y290860D02*
Y387860D01*
X712080Y290860D02*
Y387860D01*
X720330Y396110D02*
X750330D01*
X720330Y282610D02*
X750330D01*
X750330Y282610D01*
X712816Y457299D02*
X722284D01*
X712816Y474881D02*
X722284D01*
X586794Y290429D02*
X595261D01*
X586794Y309011D02*
X595261D01*
X782010Y418310D02*
X838510D01*
X780260Y436060D02*
Y460560D01*
X782010Y478310D02*
X838510D01*
X840260Y436060D02*
Y460560D01*
X700480Y517600D02*
X757480D01*
X700480Y574600D02*
X757480D01*
X700480Y517600D02*
Y574600D01*
X757480Y517600D02*
Y574600D01*
X302720Y507830D02*
X360220D01*
Y581830D01*
X302720D02*
X360220D01*
X302720Y507830D02*
Y581830D01*
X611860Y433900D02*
X621860Y423900D01*
X566860D02*
X576860Y433900D01*
X606110D02*
X611860D01*
X576860D02*
X582610D01*
X621860Y378900D02*
Y423900D01*
X566860Y378900D02*
Y423900D01*
Y378900D02*
X582610D01*
X606110D02*
X621860D01*
X581236Y473309D02*
X589704D01*
X581236Y491891D02*
X589704D01*
X394089Y552351D02*
X403556D01*
X394089Y534769D02*
X403556D01*
X670906Y366931D02*
X680374D01*
X670906Y349349D02*
X680374D01*
X669679Y424081D02*
X679146D01*
X669679Y406499D02*
X679146D01*
X592221Y534246D02*
Y542714D01*
X573639Y534246D02*
Y542714D01*
X623916Y525681D02*
X633384D01*
X623916Y508099D02*
X633384D01*
X623916Y577751D02*
X633384D01*
X623916Y560169D02*
X633384D01*
X666326Y291699D02*
X674794D01*
X666326Y310281D02*
X674794D01*
X522316Y524411D02*
X531784D01*
X522316Y506829D02*
X531784D01*
X522316Y577751D02*
X531784D01*
X522316Y560169D02*
X531784D01*
X462840Y507870D02*
Y523370D01*
X460090Y507120D02*
X472090D01*
X460090Y524120D02*
X472090D01*
X462840Y561210D02*
Y576710D01*
X460090Y560460D02*
X472090D01*
X460090Y577460D02*
X472090D01*
D13*
X773431Y624837D02*
X768353D01*
X770892D01*
Y612142D01*
X768353Y609603D01*
X765813D01*
X763274Y612142D01*
X778509Y622298D02*
X781048Y624837D01*
X786127D01*
X788666Y622298D01*
Y619759D01*
X786127Y617220D01*
X788666Y614681D01*
Y612142D01*
X786127Y609603D01*
X781048D01*
X778509Y612142D01*
Y614681D01*
X781048Y617220D01*
X778509Y619759D01*
Y622298D01*
X781048Y617220D02*
X786127D01*
X801373Y562607D02*
Y547373D01*
X808991D01*
X811530Y549912D01*
Y560068D01*
X808991Y562607D01*
X801373D01*
X816608Y547373D02*
X821687D01*
X819148D01*
Y562607D01*
X816608Y560068D01*
X857254Y495303D02*
Y510537D01*
X864872D01*
X867411Y507998D01*
Y502920D01*
X864872Y500381D01*
X857254D01*
X862333D02*
X867411Y495303D01*
X880107D02*
Y510537D01*
X872489Y502920D01*
X882646D01*
X472441Y346707D02*
X467363D01*
X469902D01*
Y334012D01*
X467363Y331473D01*
X464823D01*
X462284Y334012D01*
X477519Y346707D02*
X487676D01*
Y344168D01*
X477519Y334012D01*
Y331473D01*
X739143Y416558D02*
Y414018D01*
X744222Y408940D01*
X749300Y414018D01*
Y416558D01*
X744222Y408940D02*
Y401323D01*
X754378D02*
X759457D01*
X756918D01*
Y416558D01*
X754378Y414018D01*
X377698Y563372D02*
Y578607D01*
X385316D01*
X387855Y576068D01*
Y570989D01*
X385316Y568450D01*
X377698D01*
X382776D02*
X387855Y563372D01*
X392933D02*
X398011D01*
X395472D01*
Y578607D01*
X392933Y576068D01*
X405629D02*
X408168Y578607D01*
X413246D01*
X415786Y576068D01*
Y565911D01*
X413246Y563372D01*
X408168D01*
X405629Y565911D01*
Y576068D01*
X281943Y518161D02*
Y513083D01*
Y515622D01*
X294638D01*
X297178Y513083D01*
Y510543D01*
X294638Y508004D01*
X281943Y533396D02*
X284482Y528317D01*
X289560Y523239D01*
X294638D01*
X297178Y525778D01*
Y530857D01*
X294638Y533396D01*
X292099D01*
X289560Y530857D01*
Y523239D01*
X358141Y321307D02*
X353063D01*
X355602D01*
Y308612D01*
X353063Y306073D01*
X350523D01*
X347984Y308612D01*
X373376Y321307D02*
X363219D01*
Y313690D01*
X368298Y316229D01*
X370837D01*
X373376Y313690D01*
Y308612D01*
X370837Y306073D01*
X365758D01*
X363219Y308612D01*
X429264Y486408D02*
Y473712D01*
X431803Y471172D01*
X436882D01*
X439421Y473712D01*
Y486408D01*
X454656Y471172D02*
X444499D01*
X454656Y481329D01*
Y483868D01*
X452117Y486408D01*
X447038D01*
X444499Y483868D01*
X674370Y626105D02*
Y613409D01*
X676909Y610870D01*
X681988D01*
X684527Y613409D01*
Y626105D01*
X689605Y610870D02*
X694683D01*
X692144D01*
Y626105D01*
X689605Y623566D01*
X810263Y411478D02*
X807723Y414017D01*
X802645D01*
X800106Y411478D01*
Y408939D01*
X802645Y406400D01*
X807723D01*
X810263Y403861D01*
Y401322D01*
X807723Y398783D01*
X802645D01*
X800106Y401322D01*
X815341Y414017D02*
Y398783D01*
X820419Y403861D01*
X825498Y398783D01*
Y414017D01*
X830576Y398783D02*
X835654D01*
X833115D01*
Y414017D01*
X830576Y411478D01*
X386084Y473713D02*
Y488947D01*
X393702D01*
X396241Y486408D01*
Y481330D01*
X393702Y478791D01*
X386084D01*
X391162D02*
X396241Y473713D01*
X401319Y476252D02*
X403858Y473713D01*
X408937D01*
X411476Y476252D01*
Y486408D01*
X408937Y488947D01*
X403858D01*
X401319Y486408D01*
Y483869D01*
X403858Y481330D01*
X411476D01*
X505714Y535432D02*
Y550667D01*
X513331D01*
X515871Y548128D01*
Y543050D01*
X513331Y540510D01*
X505714D01*
X510792D02*
X515871Y535432D01*
X520949Y548128D02*
X523488Y550667D01*
X528567D01*
X531106Y548128D01*
Y545589D01*
X528567Y543050D01*
X531106Y540510D01*
Y537971D01*
X528567Y535432D01*
X523488D01*
X520949Y537971D01*
Y540510D01*
X523488Y543050D01*
X520949Y545589D01*
Y548128D01*
X523488Y543050D02*
X528567D01*
X505714Y588772D02*
Y604007D01*
X513331D01*
X515871Y601468D01*
Y596390D01*
X513331Y593850D01*
X505714D01*
X510792D02*
X515871Y588772D01*
X520949Y604007D02*
X531106D01*
Y601468D01*
X520949Y591311D01*
Y588772D01*
X607314D02*
Y604007D01*
X614931D01*
X617471Y601468D01*
Y596390D01*
X614931Y593850D01*
X607314D01*
X612392D02*
X617471Y588772D01*
X632706Y604007D02*
X627627Y601468D01*
X622549Y596390D01*
Y591311D01*
X625088Y588772D01*
X630167D01*
X632706Y591311D01*
Y593850D01*
X630167Y596390D01*
X622549D01*
X607314Y536702D02*
Y551937D01*
X614931D01*
X617471Y549398D01*
Y544319D01*
X614931Y541780D01*
X607314D01*
X612392D02*
X617471Y536702D01*
X632706Y551937D02*
X622549D01*
Y544319D01*
X627627Y546859D01*
X630167D01*
X632706Y544319D01*
Y539241D01*
X630167Y536702D01*
X625088D01*
X622549Y539241D01*
X653288Y435102D02*
Y450337D01*
X660906D01*
X663445Y447798D01*
Y442719D01*
X660906Y440180D01*
X653288D01*
X658366D02*
X663445Y435102D01*
X668523Y447798D02*
X671062Y450337D01*
X676141D01*
X678680Y447798D01*
Y445259D01*
X676141Y442719D01*
X673601D01*
X676141D01*
X678680Y440180D01*
Y437641D01*
X676141Y435102D01*
X671062D01*
X668523Y437641D01*
X708622Y427993D02*
Y443228D01*
X716239D01*
X718778Y440688D01*
Y435610D01*
X716239Y433071D01*
X708622D01*
X713700D02*
X718778Y427993D01*
X734014D02*
X723857D01*
X734014Y438149D01*
Y440688D01*
X731474Y443228D01*
X726396D01*
X723857Y440688D01*
X654304Y377952D02*
Y393187D01*
X661921D01*
X664461Y390648D01*
Y385569D01*
X661921Y383030D01*
X654304D01*
X659382D02*
X664461Y377952D01*
X669539D02*
X674617D01*
X672078D01*
Y393187D01*
X669539Y390648D01*
X783591Y367028D02*
X778512D01*
X781052D01*
Y354332D01*
X778512Y351792D01*
X775973D01*
X773434Y354332D01*
X796287Y351792D02*
Y367028D01*
X788669Y359410D01*
X798826D01*
X875033Y534671D02*
Y529593D01*
Y532132D01*
X887728D01*
X890267Y529593D01*
Y527053D01*
X887728Y524514D01*
X877572Y539749D02*
X875033Y542288D01*
Y547367D01*
X877572Y549906D01*
X880111D01*
X882650Y547367D01*
Y544827D01*
Y547367D01*
X885189Y549906D01*
X887728D01*
X890267Y547367D01*
Y542288D01*
X887728Y539749D01*
X845823Y369011D02*
Y363932D01*
Y366472D01*
X858518D01*
X861058Y363932D01*
Y361393D01*
X858518Y358854D01*
X861058Y384246D02*
Y374089D01*
X850901Y384246D01*
X848362D01*
X845823Y381707D01*
Y376628D01*
X848362Y374089D01*
X881380Y488947D02*
X876302D01*
X878841D01*
Y476252D01*
X876302Y473713D01*
X873763D01*
X871223Y476252D01*
X886458Y473713D02*
X891537D01*
X888998D01*
Y488947D01*
X886458Y486408D01*
X386082Y351794D02*
X401317D01*
Y359412D01*
X398778Y361951D01*
X388622D01*
X386082Y359412D01*
Y351794D01*
X401317Y374647D02*
X386082D01*
X393700Y367029D01*
Y377186D01*
X441706Y548889D02*
Y533654D01*
X449324D01*
X451863Y536193D01*
Y546350D01*
X449324Y548889D01*
X441706D01*
X456941Y546350D02*
X459480Y548889D01*
X464559D01*
X467098Y546350D01*
Y543811D01*
X464559Y541272D01*
X462019D01*
X464559D01*
X467098Y538732D01*
Y536193D01*
X464559Y533654D01*
X459480D01*
X456941Y536193D01*
X441706Y602229D02*
Y586994D01*
X449324D01*
X451863Y589533D01*
Y599690D01*
X449324Y602229D01*
X441706D01*
X467098Y586994D02*
X456941D01*
X467098Y597151D01*
Y599690D01*
X464559Y602229D01*
X459480D01*
X456941Y599690D01*
X625633Y483868D02*
X623094Y486408D01*
X618016D01*
X615476Y483868D01*
Y473712D01*
X618016Y471172D01*
X623094D01*
X625633Y473712D01*
X630712Y486408D02*
X640868D01*
Y483868D01*
X630712Y473712D01*
Y471172D01*
X326391Y284478D02*
X323852Y287017D01*
X318773D01*
X316234Y284478D01*
Y274322D01*
X318773Y271782D01*
X323852D01*
X326391Y274322D01*
X341626Y287017D02*
X336548Y284478D01*
X331469Y279400D01*
Y274322D01*
X334008Y271782D01*
X339087D01*
X341626Y274322D01*
Y276861D01*
X339087Y279400D01*
X331469D01*
X570231Y356868D02*
X567692Y359408D01*
X562613D01*
X560074Y356868D01*
Y346712D01*
X562613Y344173D01*
X567692D01*
X570231Y346712D01*
X585466Y359408D02*
X575309D01*
Y351790D01*
X580387Y354329D01*
X582927D01*
X585466Y351790D01*
Y346712D01*
X582927Y344173D01*
X577848D01*
X575309Y346712D01*
X655063Y336546D02*
X652523Y339085D01*
X647445D01*
X644906Y336546D01*
Y326389D01*
X647445Y323850D01*
X652523D01*
X655063Y326389D01*
X667759Y323850D02*
Y339085D01*
X660141Y331468D01*
X670298D01*
X614681Y339088D02*
X612142Y341628D01*
X607063D01*
X604524Y339088D01*
Y328932D01*
X607063Y326393D01*
X612142D01*
X614681Y328932D01*
X619759Y339088D02*
X622298Y341628D01*
X627377D01*
X629916Y339088D01*
Y336549D01*
X627377Y334010D01*
X624837D01*
X627377D01*
X629916Y331471D01*
Y328932D01*
X627377Y326393D01*
X622298D01*
X619759Y328932D01*
X580387Y586990D02*
X577848Y589529D01*
X572769D01*
X570230Y586990D01*
Y576833D01*
X572769Y574294D01*
X577848D01*
X580387Y576833D01*
X595622Y574294D02*
X585465D01*
X595622Y584451D01*
Y586990D01*
X593083Y589529D01*
X588004D01*
X585465Y586990D01*
X420370Y341628D02*
X417831Y344168D01*
X412752D01*
X410213Y341628D01*
Y331472D01*
X412752Y328932D01*
X417831D01*
X420370Y331472D01*
X425448Y328932D02*
X430527D01*
X427988D01*
Y344168D01*
X425448Y341628D01*
M02*
