G04*
G04 #@! TF.GenerationSoftware,Altium Limited,Altium Designer,23.10.1 (27)*
G04*
G04 Layer_Color=16711935*
%FSLAX44Y44*%
%MOMM*%
G71*
G04*
G04 #@! TF.SameCoordinates,F5A69C73-B6B7-4C8D-B8A1-BB125D59BB46*
G04*
G04*
G04 #@! TF.FilePolarity,Negative*
G04*
G01*
G75*
%ADD32C,1.5700*%
%ADD33R,1.5700X1.5700*%
%ADD34C,1.4500*%
%ADD35C,2.1000*%
G04:AMPARAMS|DCode=36|XSize=2.1mm|YSize=2.1mm|CornerRadius=0.5625mm|HoleSize=0mm|Usage=FLASHONLY|Rotation=90.000|XOffset=0mm|YOffset=0mm|HoleType=Round|Shape=RoundedRectangle|*
%AMROUNDEDRECTD36*
21,1,2.1000,0.9750,0,0,90.0*
21,1,0.9750,2.1000,0,0,90.0*
1,1,1.1250,0.4875,0.4875*
1,1,1.1250,0.4875,-0.4875*
1,1,1.1250,-0.4875,-0.4875*
1,1,1.1250,-0.4875,0.4875*
%
%ADD36ROUNDEDRECTD36*%
%ADD37R,1.5500X1.5500*%
%ADD38C,1.5500*%
%ADD39R,1.5500X1.5500*%
%ADD40C,1.3500*%
%ADD41R,1.3500X1.3500*%
%ADD42C,4.1500*%
%ADD43C,0.7000*%
%ADD44C,1.4200*%
D32*
X862330Y610870D02*
D03*
X836930D02*
D03*
X811530D02*
D03*
X862330Y585470D02*
D03*
X836930D02*
D03*
X474980Y287020D02*
D03*
X500380D02*
D03*
X525780D02*
D03*
X474980Y312420D02*
D03*
X500380D02*
D03*
D33*
X811530Y585470D02*
D03*
X525780Y312420D02*
D03*
D34*
X290830Y435610D02*
D03*
Y380610D02*
D03*
D35*
X909320Y450850D02*
D03*
Y366470D02*
D03*
D36*
Y415850D02*
D03*
Y331470D02*
D03*
D37*
X929640Y543160D02*
D03*
X326220Y532330D02*
D03*
D38*
X929640Y518160D02*
D03*
X798830Y314960D02*
D03*
X326220Y557330D02*
D03*
D39*
X823830Y314960D02*
D03*
D40*
X735330Y363760D02*
D03*
D41*
Y314960D02*
D03*
D42*
X285750Y283210D02*
D03*
Y604520D02*
D03*
X924560Y284480D02*
D03*
X925830Y604520D02*
D03*
D43*
X940001Y500000D02*
D03*
Y380000D02*
D03*
X930001Y560000D02*
D03*
Y360000D02*
D03*
X900001Y620000D02*
D03*
Y580000D02*
D03*
X910001Y560000D02*
D03*
Y520000D02*
D03*
X900001Y300000D02*
D03*
X890001Y560000D02*
D03*
Y520000D02*
D03*
X880001Y500000D02*
D03*
Y460000D02*
D03*
X890001Y440000D02*
D03*
X880001Y420000D02*
D03*
Y340000D02*
D03*
X890001Y280000D02*
D03*
X870001Y560000D02*
D03*
Y520000D02*
D03*
X860001Y500000D02*
D03*
X870001Y440000D02*
D03*
X850001Y560000D02*
D03*
Y360000D02*
D03*
X840001Y340000D02*
D03*
X850001Y320000D02*
D03*
X840001Y300000D02*
D03*
X830000Y440000D02*
D03*
Y400000D02*
D03*
Y360000D02*
D03*
X820000Y340000D02*
D03*
X810000Y360000D02*
D03*
X790000Y600000D02*
D03*
Y440000D02*
D03*
Y400000D02*
D03*
Y360000D02*
D03*
X780000Y300000D02*
D03*
X790000Y280000D02*
D03*
X770000Y400000D02*
D03*
Y360000D02*
D03*
Y320000D02*
D03*
X760000Y300000D02*
D03*
X770000Y280000D02*
D03*
X750000D02*
D03*
X730000Y560000D02*
D03*
X720000Y540000D02*
D03*
X730000Y400000D02*
D03*
Y280000D02*
D03*
X710000Y560000D02*
D03*
Y400000D02*
D03*
Y360000D02*
D03*
Y320000D02*
D03*
X670000Y440000D02*
D03*
Y320000D02*
D03*
X650000D02*
D03*
X630000Y600000D02*
D03*
Y320000D02*
D03*
X610000D02*
D03*
X590000Y600000D02*
D03*
X580000Y580000D02*
D03*
X590000Y320000D02*
D03*
X560000Y620000D02*
D03*
X540000D02*
D03*
X550000Y600000D02*
D03*
X520000Y620000D02*
D03*
X530000Y600000D02*
D03*
Y400000D02*
D03*
X500000Y620000D02*
D03*
X510000Y600000D02*
D03*
X500000Y500000D02*
D03*
X510000Y400000D02*
D03*
X480000Y620000D02*
D03*
X490000Y600000D02*
D03*
Y400000D02*
D03*
X460000Y620000D02*
D03*
X470000Y600000D02*
D03*
X440000Y620000D02*
D03*
X450000Y600000D02*
D03*
X420000Y620000D02*
D03*
X430000Y600000D02*
D03*
X420000Y340000D02*
D03*
X400000Y620000D02*
D03*
X410000Y600000D02*
D03*
X400000Y580000D02*
D03*
Y500000D02*
D03*
X380000Y620000D02*
D03*
X390000Y600000D02*
D03*
X380000Y580000D02*
D03*
X390000Y520000D02*
D03*
X380000Y500000D02*
D03*
X390000Y480000D02*
D03*
X380000Y340000D02*
D03*
X360000Y620000D02*
D03*
X370000Y600000D02*
D03*
X360000Y580000D02*
D03*
X370000Y560000D02*
D03*
Y520000D02*
D03*
X360000Y500000D02*
D03*
X370000Y480000D02*
D03*
X360000Y460000D02*
D03*
X370000Y360000D02*
D03*
X360000Y340000D02*
D03*
X370000Y320000D02*
D03*
X340000Y620000D02*
D03*
X350000Y600000D02*
D03*
X340000Y580000D02*
D03*
X350000Y560000D02*
D03*
Y520000D02*
D03*
X340000Y500000D02*
D03*
X350000Y480000D02*
D03*
X340000Y460000D02*
D03*
X350000Y440000D02*
D03*
Y360000D02*
D03*
X340000Y340000D02*
D03*
X350000Y320000D02*
D03*
X340000Y300000D02*
D03*
X320000Y620000D02*
D03*
X330000Y600000D02*
D03*
X320000Y580000D02*
D03*
X330000Y440000D02*
D03*
X320000Y420000D02*
D03*
X330000Y400000D02*
D03*
X320000Y380000D02*
D03*
Y300000D02*
D03*
X330000Y280000D02*
D03*
X300000Y540000D02*
D03*
X310000Y520000D02*
D03*
Y440000D02*
D03*
X300000Y420000D02*
D03*
X310000Y400000D02*
D03*
X290000Y560000D02*
D03*
X280000Y540000D02*
D03*
X290000Y520000D02*
D03*
X280000Y420000D02*
D03*
X290000Y400000D02*
D03*
X270000Y560000D02*
D03*
Y520000D02*
D03*
Y440000D02*
D03*
Y400000D02*
D03*
D44*
X660400Y615950D02*
D03*
X924560Y478790D02*
D03*
X464820Y480060D02*
D03*
X485140Y476250D02*
D03*
X547436Y484546D02*
D03*
X534670Y490220D02*
D03*
X464820Y499110D02*
D03*
X461010Y344170D02*
D03*
X443230Y346710D02*
D03*
X449580Y322580D02*
D03*
X551180Y267970D02*
D03*
X561340Y346710D02*
D03*
X448310Y284480D02*
D03*
X829310Y275590D02*
D03*
X777240Y497840D02*
D03*
X642620Y614680D02*
D03*
X640080Y356870D02*
D03*
X681990Y471170D02*
D03*
X641350Y431800D02*
D03*
X849630Y398780D02*
D03*
X664210Y556260D02*
D03*
X800100Y384810D02*
D03*
X656590Y535940D02*
D03*
X664210Y575310D02*
D03*
X427990Y576580D02*
D03*
X388620Y431800D02*
D03*
Y411480D02*
D03*
M02*
