G04*
G04 #@! TF.GenerationSoftware,Altium Limited,Altium Designer,23.10.1 (27)*
G04*
G04 Layer_Physical_Order=2*
G04 Layer_Color=16711680*
%FSLAX44Y44*%
%MOMM*%
G71*
G04*
G04 #@! TF.SameCoordinates,F5A69C73-B6B7-4C8D-B8A1-BB125D59BB46*
G04*
G04*
G04 #@! TF.FilePolarity,Positive*
G04*
G01*
G75*
%ADD32C,1.5700*%
%ADD33R,1.5700X1.5700*%
%ADD37R,1.5500X1.5500*%
%ADD38C,1.5500*%
%ADD39R,1.5500X1.5500*%
%ADD45C,0.3200*%
%ADD46C,1.3000*%
%ADD47C,1.9500*%
G04:AMPARAMS|DCode=48|XSize=1.95mm|YSize=1.95mm|CornerRadius=0.4875mm|HoleSize=0mm|Usage=FLASHONLY|Rotation=90.000|XOffset=0mm|YOffset=0mm|HoleType=Round|Shape=RoundedRectangle|*
%AMROUNDEDRECTD48*
21,1,1.9500,0.9750,0,0,90.0*
21,1,0.9750,1.9500,0,0,90.0*
1,1,0.9750,0.4875,0.4875*
1,1,0.9750,0.4875,-0.4875*
1,1,0.9750,-0.4875,-0.4875*
1,1,0.9750,-0.4875,0.4875*
%
%ADD48ROUNDEDRECTD48*%
%ADD49C,1.2000*%
%ADD50R,1.2000X1.2000*%
%ADD51C,4.0000*%
%ADD52C,0.5500*%
%ADD53C,1.2700*%
G36*
X955541Y256039D02*
X256039D01*
Y630421D01*
X955541D01*
Y256039D01*
D02*
G37*
%LPC*%
G36*
X863531Y619990D02*
X862965D01*
Y611505D01*
X871450D01*
Y612071D01*
X870828Y614390D01*
X869628Y616470D01*
X867930Y618168D01*
X865850Y619369D01*
X863531Y619990D01*
D02*
G37*
G36*
X861695D02*
X861129D01*
X858810Y619369D01*
X856730Y618168D01*
X855032Y616470D01*
X853831Y614390D01*
X853210Y612071D01*
Y611505D01*
X861695D01*
Y619990D01*
D02*
G37*
G36*
X643623Y622300D02*
X641617D01*
X639679Y621781D01*
X637941Y620778D01*
X636522Y619359D01*
X635519Y617621D01*
X635515Y617606D01*
X589280D01*
X588160Y617383D01*
X587211Y616749D01*
X555461Y584999D01*
X554827Y584050D01*
X554604Y582930D01*
Y489883D01*
X554156Y489608D01*
X553334Y489425D01*
X552115Y490644D01*
X550377Y491647D01*
X548439Y492166D01*
X546433D01*
X544495Y491647D01*
X543560Y491107D01*
X543289Y491132D01*
X542147Y491758D01*
X541771Y493161D01*
X540768Y494899D01*
X539349Y496317D01*
X537611Y497321D01*
X535673Y497840D01*
X533667D01*
X531729Y497321D01*
X529991Y496317D01*
X528573Y494899D01*
X527569Y493161D01*
X527050Y491223D01*
Y489217D01*
X527569Y487279D01*
X528507Y485655D01*
X509328Y466476D01*
X380277D01*
X379157Y466254D01*
X378208Y465619D01*
X367081Y454492D01*
X366446Y453543D01*
X366224Y452423D01*
Y430950D01*
X366446Y429830D01*
X367081Y428881D01*
X381527Y414435D01*
X381519Y414421D01*
X381000Y412483D01*
Y410477D01*
X381519Y408539D01*
X382523Y406801D01*
X383941Y405382D01*
X385679Y404379D01*
X387617Y403860D01*
X389623D01*
X391561Y404379D01*
X393299Y405382D01*
X394717Y406801D01*
X395721Y408539D01*
X396240Y410477D01*
Y412483D01*
X395721Y414421D01*
X394717Y416159D01*
X393299Y417578D01*
X391561Y418581D01*
X389623Y419100D01*
X387617D01*
X385679Y418581D01*
X385665Y418573D01*
X372076Y432162D01*
Y451211D01*
X381489Y460624D01*
X510540D01*
X511660Y460846D01*
X512609Y461481D01*
X533728Y482600D01*
X535673D01*
X537611Y483119D01*
X538546Y483659D01*
X538817Y483634D01*
X539959Y483008D01*
X540335Y481605D01*
X541338Y479867D01*
X542757Y478449D01*
X544495Y477445D01*
X544510Y477441D01*
Y438158D01*
X528378Y422026D01*
X402532D01*
X395713Y428845D01*
X395721Y428859D01*
X396240Y430797D01*
Y432803D01*
X395721Y434741D01*
X394717Y436479D01*
X393299Y437897D01*
X391561Y438901D01*
X389623Y439420D01*
X387617D01*
X385679Y438901D01*
X383941Y437897D01*
X382523Y436479D01*
X381519Y434741D01*
X381000Y432803D01*
Y430797D01*
X381519Y428859D01*
X382523Y427121D01*
X383941Y425703D01*
X385679Y424699D01*
X387617Y424180D01*
X389623D01*
X391561Y424699D01*
X391575Y424707D01*
X399251Y417031D01*
X400200Y416396D01*
X401320Y416174D01*
X529590D01*
X530710Y416396D01*
X531659Y417031D01*
X549505Y434877D01*
X550139Y435826D01*
X550362Y436946D01*
Y477441D01*
X550377Y477445D01*
X552115Y478449D01*
X553334Y479668D01*
X554156Y479485D01*
X554604Y479210D01*
Y381000D01*
X554827Y379880D01*
X555461Y378931D01*
X598641Y335751D01*
X599590Y335117D01*
X600710Y334894D01*
X799758D01*
X814810Y319842D01*
Y305940D01*
X832850D01*
Y323980D01*
X818948D01*
X803039Y339889D01*
X802090Y340523D01*
X800970Y340746D01*
X601922D01*
X560456Y382212D01*
Y581718D01*
X590492Y611754D01*
X635515D01*
X635519Y611739D01*
X636522Y610001D01*
X637941Y608582D01*
X639679Y607579D01*
X641617Y607060D01*
X643623D01*
X645561Y607579D01*
X647299Y608582D01*
X648717Y610001D01*
X649721Y611739D01*
X650240Y613677D01*
Y615683D01*
X649721Y617621D01*
X648717Y619359D01*
X647299Y620778D01*
X645561Y621781D01*
X643623Y622300D01*
D02*
G37*
G36*
X927925Y625790D02*
X926465D01*
Y605155D01*
X947100D01*
Y606615D01*
X946283Y610724D01*
X944679Y614595D01*
X942352Y618079D01*
X939389Y621041D01*
X935905Y623369D01*
X932034Y624973D01*
X927925Y625790D01*
D02*
G37*
G36*
X925195D02*
X923735D01*
X919626Y624973D01*
X915755Y623369D01*
X912271Y621041D01*
X909308Y618079D01*
X906981Y614595D01*
X905377Y610724D01*
X904560Y606615D01*
Y605155D01*
X925195D01*
Y625790D01*
D02*
G37*
G36*
X287845D02*
X286385D01*
Y605155D01*
X307020D01*
Y606615D01*
X306203Y610724D01*
X304599Y614595D01*
X302271Y618079D01*
X299309Y621041D01*
X295825Y623369D01*
X291954Y624973D01*
X287845Y625790D01*
D02*
G37*
G36*
X285115D02*
X283655D01*
X279546Y624973D01*
X275675Y623369D01*
X272191Y621041D01*
X269228Y618079D01*
X266901Y614595D01*
X265297Y610724D01*
X264480Y606615D01*
Y605155D01*
X285115D01*
Y625790D01*
D02*
G37*
G36*
X871450Y610235D02*
X862965D01*
Y601750D01*
X863531D01*
X865850Y602371D01*
X867930Y603572D01*
X869628Y605270D01*
X870828Y607350D01*
X871450Y609669D01*
Y610235D01*
D02*
G37*
G36*
X861695D02*
X853210D01*
Y609669D01*
X853831Y607350D01*
X855032Y605270D01*
X856730Y603572D01*
X858810Y602371D01*
X861129Y601750D01*
X861695D01*
Y610235D01*
D02*
G37*
G36*
X838131Y619990D02*
X835729D01*
X833410Y619369D01*
X831330Y618168D01*
X829632Y616470D01*
X828431Y614390D01*
X827810Y612071D01*
Y609669D01*
X828431Y607350D01*
X829632Y605270D01*
X831330Y603572D01*
X833410Y602371D01*
X835729Y601750D01*
X838131D01*
X840450Y602371D01*
X842530Y603572D01*
X844228Y605270D01*
X845428Y607350D01*
X846050Y609669D01*
Y612071D01*
X845428Y614390D01*
X844228Y616470D01*
X842530Y618168D01*
X840450Y619369D01*
X838131Y619990D01*
D02*
G37*
G36*
X812731D02*
X810329D01*
X808010Y619369D01*
X805930Y618168D01*
X804232Y616470D01*
X803031Y614390D01*
X802410Y612071D01*
Y609669D01*
X803031Y607350D01*
X804232Y605270D01*
X805930Y603572D01*
X808010Y602371D01*
X810329Y601750D01*
X812731D01*
X815050Y602371D01*
X817130Y603572D01*
X818828Y605270D01*
X820029Y607350D01*
X820650Y609669D01*
Y612071D01*
X820029Y614390D01*
X818828Y616470D01*
X817130Y618168D01*
X815050Y619369D01*
X812731Y619990D01*
D02*
G37*
G36*
X947100Y603885D02*
X926465D01*
Y583250D01*
X927925D01*
X932034Y584067D01*
X935905Y585671D01*
X939389Y587999D01*
X942352Y590961D01*
X944679Y594445D01*
X946283Y598316D01*
X947100Y602425D01*
Y603885D01*
D02*
G37*
G36*
X925195D02*
X904560D01*
Y602425D01*
X905377Y598316D01*
X906981Y594445D01*
X909308Y590961D01*
X912271Y587999D01*
X915755Y585671D01*
X919626Y584067D01*
X923735Y583250D01*
X925195D01*
Y603885D01*
D02*
G37*
G36*
X307020D02*
X286385D01*
Y583250D01*
X287845D01*
X291954Y584067D01*
X295825Y585671D01*
X299309Y587999D01*
X302271Y590961D01*
X304599Y594445D01*
X306203Y598316D01*
X307020Y602425D01*
Y603885D01*
D02*
G37*
G36*
X285115D02*
X264480D01*
Y602425D01*
X265297Y598316D01*
X266901Y594445D01*
X269228Y590961D01*
X272191Y587999D01*
X275675Y585671D01*
X279546Y584067D01*
X283655Y583250D01*
X285115D01*
Y603885D01*
D02*
G37*
G36*
X863531Y594590D02*
X861129D01*
X858810Y593969D01*
X856730Y592768D01*
X855032Y591070D01*
X853831Y588990D01*
X853210Y586671D01*
Y584269D01*
X853831Y581950D01*
X855032Y579870D01*
X856730Y578172D01*
X858810Y576972D01*
X861129Y576350D01*
X863531D01*
X865850Y576972D01*
X867930Y578172D01*
X869628Y579870D01*
X870828Y581950D01*
X871450Y584269D01*
Y586671D01*
X870828Y588990D01*
X869628Y591070D01*
X867930Y592768D01*
X865850Y593969D01*
X863531Y594590D01*
D02*
G37*
G36*
X838131D02*
X835729D01*
X833410Y593969D01*
X831330Y592768D01*
X829632Y591070D01*
X828431Y588990D01*
X827810Y586671D01*
Y584269D01*
X828431Y581950D01*
X829632Y579870D01*
X831330Y578172D01*
X833410Y576972D01*
X835729Y576350D01*
X838131D01*
X840450Y576972D01*
X842530Y578172D01*
X844228Y579870D01*
X845428Y581950D01*
X846050Y584269D01*
Y586671D01*
X845428Y588990D01*
X844228Y591070D01*
X842530Y592768D01*
X840450Y593969D01*
X838131Y594590D01*
D02*
G37*
G36*
X820650D02*
X802410D01*
Y576350D01*
X820650D01*
Y594590D01*
D02*
G37*
G36*
X665213Y582930D02*
X663207D01*
X661269Y582411D01*
X659531Y581408D01*
X658112Y579989D01*
X657109Y578251D01*
X656590Y576313D01*
Y574307D01*
X657109Y572369D01*
X657117Y572355D01*
X624041Y539279D01*
X623406Y538330D01*
X623184Y537210D01*
Y370840D01*
X623406Y369720D01*
X624041Y368771D01*
X632987Y359825D01*
X632979Y359811D01*
X632460Y357873D01*
Y355867D01*
X632979Y353929D01*
X633983Y352191D01*
X635401Y350773D01*
X637139Y349769D01*
X639077Y349250D01*
X641083D01*
X643021Y349769D01*
X644759Y350773D01*
X646178Y352191D01*
X647181Y353929D01*
X647700Y355867D01*
Y357873D01*
X647181Y359811D01*
X647173Y359825D01*
X657052Y369704D01*
X729196D01*
X729723Y368434D01*
X729513Y368224D01*
X728555Y366566D01*
X728060Y364717D01*
Y362803D01*
X728555Y360954D01*
X729513Y359296D01*
X730866Y357943D01*
X732524Y356985D01*
X734373Y356490D01*
X736287D01*
X738136Y356985D01*
X739794Y357943D01*
X741147Y359296D01*
X742105Y360954D01*
X742600Y362803D01*
Y364717D01*
X742105Y366566D01*
X741147Y368224D01*
X740938Y368434D01*
X741464Y369704D01*
X822210D01*
X823330Y369926D01*
X824279Y370561D01*
X839412Y385694D01*
X908050D01*
X909170Y385917D01*
X910119Y386551D01*
X938059Y414491D01*
X938693Y415440D01*
X938916Y416560D01*
Y469931D01*
X938693Y471050D01*
X938059Y472000D01*
X932180Y477879D01*
Y479793D01*
X931661Y481731D01*
X930658Y483469D01*
X929373Y484754D01*
X929457Y485321D01*
X929811Y486024D01*
X942398D01*
X948304Y480118D01*
Y341572D01*
X920808Y314076D01*
X887730D01*
X886610Y313853D01*
X885661Y313219D01*
X850958Y278516D01*
X836415D01*
X836411Y278531D01*
X835407Y280269D01*
X833989Y281688D01*
X832251Y282691D01*
X830313Y283210D01*
X828307D01*
X826369Y282691D01*
X824631Y281688D01*
X823213Y280269D01*
X822209Y278531D01*
X821690Y276593D01*
Y274587D01*
X822209Y272649D01*
X823213Y270911D01*
X824631Y269492D01*
X826369Y268489D01*
X828307Y267970D01*
X830313D01*
X832251Y268489D01*
X833989Y269492D01*
X835407Y270911D01*
X836411Y272649D01*
X836415Y272664D01*
X852170D01*
X853290Y272887D01*
X854239Y273521D01*
X888942Y308224D01*
X922020D01*
X923140Y308447D01*
X924089Y309081D01*
X953299Y338291D01*
X953933Y339240D01*
X954156Y340360D01*
Y481330D01*
X953933Y482450D01*
X953299Y483399D01*
X945679Y491019D01*
X944730Y491654D01*
X943610Y491876D01*
X910590D01*
X909470Y491654D01*
X908521Y491019D01*
X903028Y485526D01*
X793692D01*
X784333Y494885D01*
X784341Y494899D01*
X784860Y496837D01*
Y498843D01*
X784341Y500781D01*
X783337Y502519D01*
X781919Y503937D01*
X780181Y504941D01*
X778243Y505460D01*
X776237D01*
X774299Y504941D01*
X772561Y503937D01*
X771143Y502519D01*
X770139Y500781D01*
X769620Y498843D01*
Y496837D01*
X770139Y494899D01*
X771143Y493161D01*
X772561Y491743D01*
X774299Y490739D01*
X776237Y490220D01*
X778243D01*
X780181Y490739D01*
X780195Y490747D01*
X790411Y480531D01*
X791360Y479897D01*
X792480Y479674D01*
X904240D01*
X905360Y479897D01*
X906309Y480531D01*
X911802Y486024D01*
X919309D01*
X919663Y485321D01*
X919747Y484754D01*
X918463Y483469D01*
X917459Y481731D01*
X916940Y479793D01*
Y477787D01*
X917459Y475849D01*
X918463Y474111D01*
X919881Y472692D01*
X921619Y471689D01*
X923557Y471170D01*
X925563D01*
X927501Y471689D01*
X929144Y472638D01*
X933064Y468719D01*
Y417772D01*
X906838Y391546D01*
X854881D01*
X854527Y392249D01*
X854443Y392816D01*
X855727Y394101D01*
X856731Y395839D01*
X857250Y397777D01*
Y399783D01*
X856731Y401721D01*
X855727Y403459D01*
X854309Y404878D01*
X852571Y405881D01*
X850633Y406400D01*
X848627D01*
X846689Y405881D01*
X846675Y405873D01*
X837729Y414819D01*
X836780Y415453D01*
X835660Y415676D01*
X718762D01*
X684916Y449522D01*
Y464065D01*
X684931Y464069D01*
X686669Y465073D01*
X688087Y466491D01*
X689091Y468229D01*
X689610Y470167D01*
Y472173D01*
X689091Y474111D01*
X688087Y475849D01*
X686669Y477267D01*
X684931Y478271D01*
X682993Y478790D01*
X680987D01*
X679049Y478271D01*
X679035Y478263D01*
X668736Y488562D01*
Y550074D01*
X668889Y550163D01*
X670307Y551581D01*
X671311Y553319D01*
X671830Y555257D01*
Y557263D01*
X671311Y559201D01*
X670307Y560939D01*
X668889Y562357D01*
X667151Y563361D01*
X665213Y563880D01*
X663207D01*
X661269Y563361D01*
X659531Y562357D01*
X658112Y560939D01*
X657109Y559201D01*
X656590Y557263D01*
Y555257D01*
X657109Y553319D01*
X658112Y551581D01*
X659531Y550163D01*
X661269Y549159D01*
X662884Y548727D01*
Y542219D01*
X661614Y541693D01*
X661269Y542038D01*
X659531Y543041D01*
X657593Y543560D01*
X655587D01*
X653649Y543041D01*
X651911Y542038D01*
X650492Y540619D01*
X649489Y538881D01*
X648970Y536943D01*
Y534937D01*
X649489Y532999D01*
X650492Y531261D01*
X651911Y529842D01*
X653649Y528839D01*
X653664Y528835D01*
Y505402D01*
X639281Y491019D01*
X638647Y490070D01*
X638424Y488950D01*
Y438905D01*
X638409Y438901D01*
X636671Y437897D01*
X635252Y436479D01*
X634249Y434741D01*
X633730Y432803D01*
Y430797D01*
X634249Y428859D01*
X635252Y427121D01*
X636671Y425703D01*
X638409Y424699D01*
X638424Y424695D01*
Y411480D01*
X638647Y410360D01*
X639281Y409411D01*
X665951Y382741D01*
X666900Y382107D01*
X668020Y381884D01*
X792995D01*
X792999Y381869D01*
X794003Y380131D01*
X795421Y378713D01*
X797159Y377709D01*
X799097Y377190D01*
X801103D01*
X803041Y377709D01*
X804779Y378713D01*
X806198Y380131D01*
X807201Y381869D01*
X807720Y383807D01*
Y385813D01*
X807201Y387751D01*
X806198Y389489D01*
X804779Y390908D01*
X803041Y391911D01*
X801103Y392430D01*
X799097D01*
X797159Y391911D01*
X795421Y390908D01*
X794003Y389489D01*
X792999Y387751D01*
X792995Y387736D01*
X669232D01*
X644276Y412692D01*
Y424695D01*
X644291Y424699D01*
X646029Y425703D01*
X647448Y427121D01*
X648451Y428859D01*
X648970Y430797D01*
Y432803D01*
X648451Y434741D01*
X647448Y436479D01*
X646029Y437897D01*
X644291Y438901D01*
X644276Y438905D01*
Y487738D01*
X658659Y502121D01*
X659294Y503070D01*
X659516Y504190D01*
Y528835D01*
X659531Y528839D01*
X661269Y529842D01*
X661614Y530187D01*
X662884Y529661D01*
Y487350D01*
X663107Y486230D01*
X663741Y485281D01*
X674897Y474125D01*
X674889Y474111D01*
X674370Y472173D01*
Y470167D01*
X674889Y468229D01*
X675892Y466491D01*
X677311Y465073D01*
X679049Y464069D01*
X679064Y464065D01*
Y448310D01*
X679286Y447190D01*
X679921Y446241D01*
X715481Y410681D01*
X716430Y410047D01*
X717550Y409824D01*
X834448D01*
X842537Y401735D01*
X842529Y401721D01*
X842010Y399783D01*
Y397777D01*
X842529Y395839D01*
X843532Y394101D01*
X844817Y392816D01*
X844733Y392249D01*
X844379Y391546D01*
X838200D01*
X837080Y391324D01*
X836131Y390689D01*
X820998Y375556D01*
X655840D01*
X654720Y375334D01*
X653771Y374699D01*
X643035Y363963D01*
X643021Y363971D01*
X641083Y364490D01*
X639077D01*
X637139Y363971D01*
X637125Y363963D01*
X629036Y372052D01*
Y535998D01*
X661255Y568217D01*
X661269Y568209D01*
X663207Y567690D01*
X665213D01*
X667151Y568209D01*
X668889Y569212D01*
X670307Y570631D01*
X671311Y572369D01*
X671830Y574307D01*
Y576313D01*
X671311Y578251D01*
X670307Y579989D01*
X668889Y581408D01*
X667151Y582411D01*
X665213Y582930D01*
D02*
G37*
G36*
X327407Y566350D02*
X326855D01*
Y557965D01*
X335240D01*
Y558517D01*
X334625Y560812D01*
X333438Y562868D01*
X331758Y564548D01*
X329702Y565735D01*
X327407Y566350D01*
D02*
G37*
G36*
X325585D02*
X325033D01*
X322738Y565735D01*
X320682Y564548D01*
X319002Y562868D01*
X317815Y560812D01*
X317200Y558517D01*
Y557965D01*
X325585D01*
Y566350D01*
D02*
G37*
G36*
X335240Y556695D02*
X326855D01*
Y548310D01*
X327407D01*
X329702Y548925D01*
X331758Y550112D01*
X333438Y551792D01*
X334625Y553848D01*
X335240Y556143D01*
Y556695D01*
D02*
G37*
G36*
X325585D02*
X317200D01*
Y556143D01*
X317815Y553848D01*
X319002Y551792D01*
X320682Y550112D01*
X322738Y548925D01*
X325033Y548310D01*
X325585D01*
Y556695D01*
D02*
G37*
G36*
X661403Y623570D02*
X659397D01*
X657459Y623051D01*
X655721Y622048D01*
X654303Y620629D01*
X653299Y618891D01*
X652780Y616953D01*
Y614947D01*
X653299Y613009D01*
X654303Y611271D01*
X655721Y609852D01*
X657459Y608849D01*
X659397Y608330D01*
X661403D01*
X663341Y608849D01*
X665079Y609852D01*
X666497Y611271D01*
X667501Y613009D01*
X667505Y613024D01*
X751898D01*
X788284Y576638D01*
Y556260D01*
X788506Y555140D01*
X789141Y554191D01*
X798031Y545301D01*
X798980Y544666D01*
X800100Y544444D01*
X870008D01*
X872961Y541491D01*
X873910Y540857D01*
X875030Y540634D01*
X920620D01*
Y534140D01*
X938660D01*
Y552180D01*
X920620D01*
Y546486D01*
X876242D01*
X873289Y549439D01*
X872340Y550074D01*
X871220Y550296D01*
X801312D01*
X794136Y557472D01*
Y577850D01*
X793913Y578970D01*
X793279Y579919D01*
X755179Y618019D01*
X754230Y618653D01*
X753110Y618876D01*
X667505D01*
X667501Y618891D01*
X666497Y620629D01*
X665079Y622048D01*
X663341Y623051D01*
X661403Y623570D01*
D02*
G37*
G36*
X335240Y541350D02*
X317200D01*
Y523310D01*
X335240D01*
Y541350D01*
D02*
G37*
G36*
X930827Y527180D02*
X928453D01*
X926158Y526565D01*
X924102Y525378D01*
X922422Y523698D01*
X921235Y521642D01*
X920620Y519347D01*
Y516973D01*
X921235Y514678D01*
X922422Y512622D01*
X924102Y510942D01*
X926158Y509755D01*
X928453Y509140D01*
X930827D01*
X933122Y509755D01*
X935178Y510942D01*
X936858Y512622D01*
X938045Y514678D01*
X938660Y516973D01*
Y519347D01*
X938045Y521642D01*
X936858Y523698D01*
X935178Y525378D01*
X933122Y526565D01*
X930827Y527180D01*
D02*
G37*
G36*
X428993Y584200D02*
X426987D01*
X425049Y583681D01*
X423311Y582677D01*
X421893Y581259D01*
X420889Y579521D01*
X420370Y577583D01*
Y575577D01*
X420889Y573639D01*
X421893Y571901D01*
X423311Y570482D01*
X425049Y569479D01*
X425064Y569475D01*
Y502920D01*
X425286Y501800D01*
X425921Y500851D01*
X448781Y477991D01*
X449730Y477356D01*
X450850Y477134D01*
X457715D01*
X457719Y477119D01*
X458722Y475381D01*
X460141Y473963D01*
X461879Y472959D01*
X463817Y472440D01*
X465823D01*
X467761Y472959D01*
X469499Y473963D01*
X470918Y475381D01*
X471921Y477119D01*
X472440Y479057D01*
Y481063D01*
X471921Y483001D01*
X470918Y484739D01*
X469499Y486157D01*
X467761Y487161D01*
X465823Y487680D01*
X463817D01*
X461879Y487161D01*
X460141Y486157D01*
X458722Y484739D01*
X457719Y483001D01*
X457715Y482986D01*
X452062D01*
X430916Y504132D01*
Y569475D01*
X430931Y569479D01*
X432669Y570482D01*
X434087Y571901D01*
X435091Y573639D01*
X435610Y575577D01*
Y577583D01*
X435091Y579521D01*
X434087Y581259D01*
X432669Y582677D01*
X430931Y583681D01*
X428993Y584200D01*
D02*
G37*
G36*
X465823Y506730D02*
X463817D01*
X461879Y506211D01*
X460141Y505207D01*
X458722Y503789D01*
X457719Y502051D01*
X457200Y500113D01*
Y498107D01*
X457719Y496169D01*
X458722Y494431D01*
X460141Y493013D01*
X461879Y492009D01*
X463817Y491490D01*
X465823D01*
X467761Y492009D01*
X469499Y493013D01*
X470918Y494431D01*
X471921Y496169D01*
X471925Y496184D01*
X476308D01*
X482214Y490278D01*
Y483355D01*
X482199Y483351D01*
X480461Y482347D01*
X479043Y480929D01*
X478039Y479191D01*
X477520Y477253D01*
Y475247D01*
X478039Y473309D01*
X479043Y471571D01*
X480461Y470153D01*
X482199Y469149D01*
X484137Y468630D01*
X486143D01*
X488081Y469149D01*
X489819Y470153D01*
X491237Y471571D01*
X492241Y473309D01*
X492760Y475247D01*
Y477253D01*
X492241Y479191D01*
X491237Y480929D01*
X489819Y482347D01*
X488081Y483351D01*
X488066Y483355D01*
Y491490D01*
X487844Y492610D01*
X487209Y493559D01*
X479589Y501179D01*
X478640Y501814D01*
X477520Y502036D01*
X471925D01*
X471921Y502051D01*
X470918Y503789D01*
X469499Y505207D01*
X467761Y506211D01*
X465823Y506730D01*
D02*
G37*
G36*
X910771Y461870D02*
X907869D01*
X905066Y461119D01*
X902554Y459668D01*
X900502Y457616D01*
X899051Y455104D01*
X898300Y452301D01*
Y449399D01*
X899051Y446596D01*
X900502Y444084D01*
X902554Y442032D01*
X905066Y440581D01*
X907869Y439830D01*
X910771D01*
X913574Y440581D01*
X916086Y442032D01*
X918138Y444084D01*
X919589Y446596D01*
X920340Y449399D01*
Y452301D01*
X919589Y455104D01*
X918138Y457616D01*
X916086Y459668D01*
X913574Y461119D01*
X910771Y461870D01*
D02*
G37*
G36*
X292015Y444610D02*
X289645D01*
X287356Y443997D01*
X285304Y442812D01*
X283628Y441136D01*
X282443Y439084D01*
X281830Y436795D01*
Y434425D01*
X282443Y432136D01*
X283628Y430084D01*
X285304Y428408D01*
X287356Y427223D01*
X289645Y426610D01*
X292015D01*
X294304Y427223D01*
X296356Y428408D01*
X298032Y430084D01*
X299217Y432136D01*
X299830Y434425D01*
Y436795D01*
X299217Y439084D01*
X298032Y441136D01*
X296356Y442812D01*
X294304Y443997D01*
X292015Y444610D01*
D02*
G37*
G36*
X914195Y426990D02*
X904445D01*
X902047Y426513D01*
X900015Y425155D01*
X898656Y423123D01*
X898180Y420725D01*
Y410975D01*
X898656Y408577D01*
X900015Y406545D01*
X902047Y405187D01*
X904445Y404710D01*
X914195D01*
X916593Y405187D01*
X918625Y406545D01*
X919984Y408577D01*
X920460Y410975D01*
Y420725D01*
X919984Y423123D01*
X918625Y425155D01*
X916593Y426513D01*
X914195Y426990D01*
D02*
G37*
G36*
X292015Y389610D02*
X289645D01*
X287356Y388997D01*
X285304Y387812D01*
X283628Y386136D01*
X282443Y384084D01*
X281830Y381795D01*
Y379425D01*
X282443Y377136D01*
X283628Y375084D01*
X285304Y373408D01*
X287356Y372223D01*
X289645Y371610D01*
X292015D01*
X294304Y372223D01*
X296356Y373408D01*
X298032Y375084D01*
X299217Y377136D01*
X299830Y379425D01*
Y381795D01*
X299217Y384084D01*
X298032Y386136D01*
X296356Y387812D01*
X294304Y388997D01*
X292015Y389610D01*
D02*
G37*
G36*
X910771Y377490D02*
X907869D01*
X905066Y376739D01*
X902554Y375288D01*
X900502Y373236D01*
X899051Y370723D01*
X898300Y367921D01*
Y365019D01*
X899051Y362216D01*
X900502Y359703D01*
X902554Y357652D01*
X905066Y356201D01*
X907869Y355450D01*
X910771D01*
X913574Y356201D01*
X916086Y357652D01*
X918138Y359703D01*
X919589Y362216D01*
X920340Y365019D01*
Y367921D01*
X919589Y370723D01*
X918138Y373236D01*
X916086Y375288D01*
X913574Y376739D01*
X910771Y377490D01*
D02*
G37*
G36*
X543560Y414406D02*
X440690D01*
X439570Y414184D01*
X438621Y413549D01*
X431001Y405929D01*
X430367Y404980D01*
X430144Y403860D01*
Y299720D01*
X430367Y298600D01*
X431001Y297651D01*
X441217Y287435D01*
X441209Y287421D01*
X440690Y285483D01*
Y283477D01*
X441209Y281539D01*
X442212Y279801D01*
X443631Y278382D01*
X445369Y277379D01*
X447307Y276860D01*
X449313D01*
X451251Y277379D01*
X452989Y278382D01*
X454408Y279801D01*
X455411Y281539D01*
X455930Y283477D01*
Y285483D01*
X455411Y287421D01*
X454408Y289159D01*
X452989Y290578D01*
X451251Y291581D01*
X449313Y292100D01*
X447307D01*
X445369Y291581D01*
X445355Y291573D01*
X435996Y300932D01*
Y341459D01*
X436699Y341813D01*
X437266Y341897D01*
X438551Y340612D01*
X440289Y339609D01*
X440304Y339605D01*
Y331501D01*
X440527Y330381D01*
X441161Y329431D01*
X443428Y327164D01*
X442479Y325521D01*
X441960Y323583D01*
Y321577D01*
X442479Y319639D01*
X443483Y317901D01*
X444901Y316483D01*
X446639Y315479D01*
X448577Y314960D01*
X450583D01*
X452521Y315479D01*
X454259Y316483D01*
X455677Y317901D01*
X456681Y319639D01*
X457200Y321577D01*
Y323583D01*
X456681Y325521D01*
X455677Y327259D01*
X454259Y328677D01*
X452521Y329681D01*
X450583Y330200D01*
X448669D01*
X446156Y332713D01*
Y339605D01*
X446171Y339609D01*
X447909Y340612D01*
X449328Y342031D01*
X450331Y343769D01*
X450850Y345707D01*
Y347713D01*
X450331Y349651D01*
X449328Y351389D01*
X447909Y352808D01*
X446171Y353811D01*
X444233Y354330D01*
X442227D01*
X440289Y353811D01*
X438551Y352808D01*
X437266Y351523D01*
X436699Y351607D01*
X435996Y351961D01*
Y402648D01*
X441902Y408554D01*
X542348D01*
X546984Y403918D01*
Y358140D01*
X547206Y357020D01*
X547841Y356071D01*
X554247Y349665D01*
X554239Y349651D01*
X553720Y347713D01*
Y345707D01*
X554239Y343769D01*
X555243Y342031D01*
X556661Y340612D01*
X558399Y339609D01*
X560337Y339090D01*
X562343D01*
X564281Y339609D01*
X566019Y340612D01*
X567438Y342031D01*
X568441Y343769D01*
X568960Y345707D01*
Y347713D01*
X568441Y349651D01*
X567438Y351389D01*
X566019Y352808D01*
X564281Y353811D01*
X562343Y354330D01*
X560337D01*
X558399Y353811D01*
X558385Y353803D01*
X552836Y359352D01*
Y405130D01*
X552613Y406250D01*
X551979Y407199D01*
X545629Y413549D01*
X544680Y414184D01*
X543560Y414406D01*
D02*
G37*
G36*
X914195Y342610D02*
X909955D01*
Y332105D01*
X920460D01*
Y336345D01*
X919984Y338743D01*
X918625Y340775D01*
X916593Y342133D01*
X914195Y342610D01*
D02*
G37*
G36*
X908685D02*
X904445D01*
X902047Y342133D01*
X900015Y340775D01*
X898656Y338743D01*
X898180Y336345D01*
Y332105D01*
X908685D01*
Y342610D01*
D02*
G37*
G36*
X920460Y330835D02*
X909955D01*
Y320330D01*
X914195D01*
X916593Y320807D01*
X918625Y322165D01*
X919984Y324197D01*
X920460Y326595D01*
Y330835D01*
D02*
G37*
G36*
X908685D02*
X898180D01*
Y326595D01*
X898656Y324197D01*
X900015Y322165D01*
X902047Y320807D01*
X904445Y320330D01*
X908685D01*
Y330835D01*
D02*
G37*
G36*
X742600Y322230D02*
X728060D01*
Y307690D01*
X742600D01*
Y322230D01*
D02*
G37*
G36*
X800017Y323980D02*
X797643D01*
X795348Y323365D01*
X793292Y322178D01*
X791612Y320498D01*
X790425Y318442D01*
X789810Y316147D01*
Y313773D01*
X790425Y311478D01*
X791612Y309422D01*
X793292Y307742D01*
X795348Y306555D01*
X797643Y305940D01*
X800017D01*
X802312Y306555D01*
X804368Y307742D01*
X806048Y309422D01*
X807235Y311478D01*
X807850Y313773D01*
Y316147D01*
X807235Y318442D01*
X806048Y320498D01*
X804368Y322178D01*
X802312Y323365D01*
X800017Y323980D01*
D02*
G37*
G36*
X534900Y321540D02*
X516660D01*
Y303300D01*
X534900D01*
Y321540D01*
D02*
G37*
G36*
X501581D02*
X499179D01*
X496860Y320919D01*
X494780Y319718D01*
X493082Y318020D01*
X491881Y315940D01*
X491260Y313621D01*
Y311219D01*
X491881Y308900D01*
X493082Y306820D01*
X494780Y305122D01*
X496860Y303922D01*
X499179Y303300D01*
X501581D01*
X503900Y303922D01*
X505980Y305122D01*
X507678Y306820D01*
X508879Y308900D01*
X509500Y311219D01*
Y313621D01*
X508879Y315940D01*
X507678Y318020D01*
X505980Y319718D01*
X503900Y320919D01*
X501581Y321540D01*
D02*
G37*
G36*
X476181D02*
X473779D01*
X471460Y320919D01*
X469380Y319718D01*
X467682Y318020D01*
X466482Y315940D01*
X465860Y313621D01*
Y311219D01*
X466482Y308900D01*
X467682Y306820D01*
X469380Y305122D01*
X471460Y303922D01*
X473779Y303300D01*
X476181D01*
X478500Y303922D01*
X480580Y305122D01*
X482278Y306820D01*
X483479Y308900D01*
X484100Y311219D01*
Y313621D01*
X483479Y315940D01*
X482278Y318020D01*
X480580Y319718D01*
X478500Y320919D01*
X476181Y321540D01*
D02*
G37*
G36*
X501581Y296140D02*
X501015D01*
Y287655D01*
X509500D01*
Y288221D01*
X508879Y290540D01*
X507678Y292620D01*
X505980Y294318D01*
X503900Y295518D01*
X501581Y296140D01*
D02*
G37*
G36*
X476181D02*
X475615D01*
Y287655D01*
X484100D01*
Y288221D01*
X483479Y290540D01*
X482278Y292620D01*
X480580Y294318D01*
X478500Y295518D01*
X476181Y296140D01*
D02*
G37*
G36*
X499745D02*
X499179D01*
X496860Y295518D01*
X494780Y294318D01*
X493082Y292620D01*
X491881Y290540D01*
X491260Y288221D01*
Y287655D01*
X499745D01*
Y296140D01*
D02*
G37*
G36*
X474345D02*
X473779D01*
X471460Y295518D01*
X469380Y294318D01*
X467682Y292620D01*
X466482Y290540D01*
X465860Y288221D01*
Y287655D01*
X474345D01*
Y296140D01*
D02*
G37*
G36*
X926655Y305750D02*
X925195D01*
Y285115D01*
X945830D01*
Y286575D01*
X945013Y290684D01*
X943409Y294555D01*
X941081Y298039D01*
X938119Y301001D01*
X934635Y303329D01*
X930764Y304933D01*
X926655Y305750D01*
D02*
G37*
G36*
X923925D02*
X922465D01*
X918356Y304933D01*
X914485Y303329D01*
X911001Y301001D01*
X908038Y298039D01*
X905711Y294555D01*
X904107Y290684D01*
X903290Y286575D01*
Y285115D01*
X923925D01*
Y305750D01*
D02*
G37*
G36*
X287845Y304480D02*
X286385D01*
Y283845D01*
X307020D01*
Y285305D01*
X306203Y289414D01*
X304599Y293285D01*
X302271Y296769D01*
X299309Y299732D01*
X295825Y302059D01*
X291954Y303663D01*
X287845Y304480D01*
D02*
G37*
G36*
X285115D02*
X283655D01*
X279546Y303663D01*
X275675Y302059D01*
X272191Y299732D01*
X269228Y296769D01*
X266901Y293285D01*
X265297Y289414D01*
X264480Y285305D01*
Y283845D01*
X285115D01*
Y304480D01*
D02*
G37*
G36*
X526981Y296140D02*
X524579D01*
X522260Y295518D01*
X520180Y294318D01*
X518482Y292620D01*
X517281Y290540D01*
X516660Y288221D01*
Y285819D01*
X517281Y283500D01*
X518482Y281420D01*
X520180Y279722D01*
X522260Y278521D01*
X524579Y277900D01*
X526981D01*
X529300Y278521D01*
X531380Y279722D01*
X533078Y281420D01*
X534278Y283500D01*
X534900Y285819D01*
Y288221D01*
X534278Y290540D01*
X533078Y292620D01*
X531380Y294318D01*
X529300Y295518D01*
X526981Y296140D01*
D02*
G37*
G36*
X509500Y286385D02*
X501015D01*
Y277900D01*
X501581D01*
X503900Y278521D01*
X505980Y279722D01*
X507678Y281420D01*
X508879Y283500D01*
X509500Y285819D01*
Y286385D01*
D02*
G37*
G36*
X499745D02*
X491260D01*
Y285819D01*
X491881Y283500D01*
X493082Y281420D01*
X494780Y279722D01*
X496860Y278521D01*
X499179Y277900D01*
X499745D01*
Y286385D01*
D02*
G37*
G36*
X484100D02*
X475615D01*
Y277900D01*
X476181D01*
X478500Y278521D01*
X480580Y279722D01*
X482278Y281420D01*
X483479Y283500D01*
X484100Y285819D01*
Y286385D01*
D02*
G37*
G36*
X474345D02*
X465860D01*
Y285819D01*
X466482Y283500D01*
X467682Y281420D01*
X469380Y279722D01*
X471460Y278521D01*
X473779Y277900D01*
X474345D01*
Y286385D01*
D02*
G37*
G36*
X945830Y283845D02*
X925195D01*
Y263210D01*
X926655D01*
X930764Y264027D01*
X934635Y265631D01*
X938119Y267959D01*
X941081Y270921D01*
X943409Y274405D01*
X945013Y278276D01*
X945830Y282385D01*
Y283845D01*
D02*
G37*
G36*
X923925D02*
X903290D01*
Y282385D01*
X904107Y278276D01*
X905711Y274405D01*
X908038Y270921D01*
X911001Y267959D01*
X914485Y265631D01*
X918356Y264027D01*
X922465Y263210D01*
X923925D01*
Y283845D01*
D02*
G37*
G36*
X307020Y282575D02*
X286385D01*
Y261940D01*
X287845D01*
X291954Y262757D01*
X295825Y264361D01*
X299309Y266688D01*
X302271Y269651D01*
X304599Y273135D01*
X306203Y277006D01*
X307020Y281115D01*
Y282575D01*
D02*
G37*
G36*
X285115D02*
X264480D01*
Y281115D01*
X265297Y277006D01*
X266901Y273135D01*
X269228Y269651D01*
X272191Y266688D01*
X275675Y264361D01*
X279546Y262757D01*
X283655Y261940D01*
X285115D01*
Y282575D01*
D02*
G37*
G36*
X462013Y351790D02*
X460007D01*
X458069Y351271D01*
X456331Y350267D01*
X454912Y348849D01*
X453909Y347111D01*
X453390Y345173D01*
Y343167D01*
X453909Y341229D01*
X454912Y339491D01*
X456331Y338073D01*
X458069Y337069D01*
X460007Y336550D01*
X462013D01*
X463951Y337069D01*
X465689Y338073D01*
X467108Y339491D01*
X468111Y341229D01*
X468115Y341244D01*
X532188D01*
X548254Y325178D01*
Y275075D01*
X548239Y275071D01*
X546501Y274067D01*
X545083Y272649D01*
X544079Y270911D01*
X543560Y268973D01*
Y266967D01*
X544079Y265029D01*
X545083Y263291D01*
X546501Y261873D01*
X548239Y260869D01*
X550177Y260350D01*
X552183D01*
X554121Y260869D01*
X555859Y261873D01*
X557277Y263291D01*
X558281Y265029D01*
X558800Y266967D01*
Y268973D01*
X558281Y270911D01*
X557277Y272649D01*
X555859Y274067D01*
X554121Y275071D01*
X554106Y275075D01*
Y326390D01*
X553884Y327510D01*
X553249Y328459D01*
X535469Y346239D01*
X534520Y346874D01*
X533400Y347096D01*
X468115D01*
X468111Y347111D01*
X467108Y348849D01*
X465689Y350267D01*
X463951Y351271D01*
X462013Y351790D01*
D02*
G37*
%LPD*%
D32*
X862330Y610870D02*
D03*
X836930D02*
D03*
X811530D02*
D03*
X862330Y585470D02*
D03*
X836930D02*
D03*
X474980Y287020D02*
D03*
X500380D02*
D03*
X525780D02*
D03*
X474980Y312420D02*
D03*
X500380D02*
D03*
D33*
X811530Y585470D02*
D03*
X525780Y312420D02*
D03*
D37*
X929640Y543160D02*
D03*
X326220Y532330D02*
D03*
D38*
X929640Y518160D02*
D03*
X798830Y314960D02*
D03*
X326220Y557330D02*
D03*
D39*
X823830Y314960D02*
D03*
D45*
X875030Y543560D02*
X929240D01*
X929640Y543160D01*
X871220Y547370D02*
X875030Y543560D01*
X800100Y547370D02*
X871220D01*
X791210Y556260D02*
X800100Y547370D01*
X791210Y556260D02*
Y577850D01*
X660400Y615950D02*
X753110D01*
X791210Y577850D01*
X904240Y482600D02*
X910590Y488950D01*
X943610D02*
X951230Y481330D01*
X910590Y488950D02*
X943610D01*
X927131Y478790D02*
X935990Y469931D01*
X924560Y478790D02*
X927131D01*
X800970Y337820D02*
X823830Y314960D01*
X600710Y337820D02*
X800970D01*
X449580Y322580D02*
Y325151D01*
X443230Y331501D02*
Y346710D01*
Y331501D02*
X449580Y325151D01*
X450850Y480060D02*
X464820D01*
X427990Y502920D02*
X450850Y480060D01*
X485140Y476250D02*
Y491490D01*
X464820Y499110D02*
X477520D01*
X485140Y491490D01*
X510540Y463550D02*
X534670Y487680D01*
X380277Y463550D02*
X510540D01*
X369150Y452423D02*
X380277Y463550D01*
X401320Y419100D02*
X529590D01*
X547436Y436946D02*
Y484546D01*
X529590Y419100D02*
X547436Y436946D01*
X388620Y431800D02*
X401320Y419100D01*
X433070Y403860D02*
X440690Y411480D01*
X543560D01*
X549910Y405130D01*
X557530Y582930D02*
X589280Y614680D01*
X557530Y381000D02*
Y582930D01*
Y381000D02*
X600710Y337820D01*
X534670Y487680D02*
Y490220D01*
X427990Y502920D02*
Y576580D01*
X461010Y344170D02*
X533400D01*
X551180Y326390D01*
Y267970D02*
Y326390D01*
X549910Y358140D02*
X561340Y346710D01*
X549910Y358140D02*
Y405130D01*
X433070Y299720D02*
Y403860D01*
Y299720D02*
X448310Y284480D01*
X792480Y482600D02*
X904240D01*
X777240Y497840D02*
X792480Y482600D01*
X951230Y340360D02*
Y481330D01*
X935990Y416560D02*
Y469931D01*
X829310Y275590D02*
X852170D01*
X887730Y311150D01*
X922020D01*
X951230Y340360D01*
X589280Y614680D02*
X642620D01*
X626110Y370840D02*
Y537210D01*
Y370840D02*
X640080Y356870D01*
X626110Y537210D02*
X664210Y575310D01*
X838200Y388620D02*
X908050D01*
X935990Y416560D01*
X717550Y412750D02*
X835660D01*
X849630Y398780D01*
X681990Y448310D02*
X717550Y412750D01*
X369150Y430950D02*
X388620Y411480D01*
X369150Y430950D02*
Y452423D01*
X822210Y372630D02*
X838200Y388620D01*
X655840Y372630D02*
X822210D01*
X640080Y356870D02*
X655840Y372630D01*
X668020Y384810D02*
X800100D01*
X641350Y411480D02*
X668020Y384810D01*
X641350Y411480D02*
Y431800D01*
X681990Y448310D02*
Y471170D01*
X665810Y487350D02*
Y554660D01*
X664210Y556260D02*
X665810Y554660D01*
Y487350D02*
X681990Y471170D01*
X641350Y488950D02*
X656590Y504190D01*
Y535940D01*
X641350Y431800D02*
Y488950D01*
D46*
X290830Y435610D02*
D03*
Y380610D02*
D03*
D47*
X909320Y450850D02*
D03*
Y366470D02*
D03*
D48*
Y415850D02*
D03*
Y331470D02*
D03*
D49*
X735330Y363760D02*
D03*
D50*
Y314960D02*
D03*
D51*
X285750Y283210D02*
D03*
Y604520D02*
D03*
X924560Y284480D02*
D03*
X925830Y604520D02*
D03*
D52*
X940001Y500000D02*
D03*
Y380000D02*
D03*
X930001Y560000D02*
D03*
Y360000D02*
D03*
X900001Y620000D02*
D03*
Y580000D02*
D03*
X910001Y560000D02*
D03*
Y520000D02*
D03*
X900001Y300000D02*
D03*
X890001Y560000D02*
D03*
Y520000D02*
D03*
X880001Y500000D02*
D03*
Y460000D02*
D03*
X890001Y440000D02*
D03*
X880001Y420000D02*
D03*
Y340000D02*
D03*
X890001Y280000D02*
D03*
X870001Y560000D02*
D03*
Y520000D02*
D03*
X860001Y500000D02*
D03*
X870001Y440000D02*
D03*
X850001Y560000D02*
D03*
Y360000D02*
D03*
X840001Y340000D02*
D03*
X850001Y320000D02*
D03*
X840001Y300000D02*
D03*
X830000Y440000D02*
D03*
Y400000D02*
D03*
Y360000D02*
D03*
X820000Y340000D02*
D03*
X810000Y360000D02*
D03*
X790000Y600000D02*
D03*
Y440000D02*
D03*
Y400000D02*
D03*
Y360000D02*
D03*
X780000Y300000D02*
D03*
X790000Y280000D02*
D03*
X770000Y400000D02*
D03*
Y360000D02*
D03*
Y320000D02*
D03*
X760000Y300000D02*
D03*
X770000Y280000D02*
D03*
X750000D02*
D03*
X730000Y560000D02*
D03*
X720000Y540000D02*
D03*
X730000Y400000D02*
D03*
Y280000D02*
D03*
X710000Y560000D02*
D03*
Y400000D02*
D03*
Y360000D02*
D03*
Y320000D02*
D03*
X670000Y440000D02*
D03*
Y320000D02*
D03*
X650000D02*
D03*
X630000Y600000D02*
D03*
Y320000D02*
D03*
X610000D02*
D03*
X590000Y600000D02*
D03*
X580000Y580000D02*
D03*
X590000Y320000D02*
D03*
X560000Y620000D02*
D03*
X540000D02*
D03*
X550000Y600000D02*
D03*
X520000Y620000D02*
D03*
X530000Y600000D02*
D03*
Y400000D02*
D03*
X500000Y620000D02*
D03*
X510000Y600000D02*
D03*
X500000Y500000D02*
D03*
X510000Y400000D02*
D03*
X480000Y620000D02*
D03*
X490000Y600000D02*
D03*
Y400000D02*
D03*
X460000Y620000D02*
D03*
X470000Y600000D02*
D03*
X440000Y620000D02*
D03*
X450000Y600000D02*
D03*
X420000Y620000D02*
D03*
X430000Y600000D02*
D03*
X420000Y340000D02*
D03*
X400000Y620000D02*
D03*
X410000Y600000D02*
D03*
X400000Y580000D02*
D03*
Y500000D02*
D03*
X380000Y620000D02*
D03*
X390000Y600000D02*
D03*
X380000Y580000D02*
D03*
X390000Y520000D02*
D03*
X380000Y500000D02*
D03*
X390000Y480000D02*
D03*
X380000Y340000D02*
D03*
X360000Y620000D02*
D03*
X370000Y600000D02*
D03*
X360000Y580000D02*
D03*
X370000Y560000D02*
D03*
Y520000D02*
D03*
X360000Y500000D02*
D03*
X370000Y480000D02*
D03*
X360000Y460000D02*
D03*
X370000Y360000D02*
D03*
X360000Y340000D02*
D03*
X370000Y320000D02*
D03*
X340000Y620000D02*
D03*
X350000Y600000D02*
D03*
X340000Y580000D02*
D03*
X350000Y560000D02*
D03*
Y520000D02*
D03*
X340000Y500000D02*
D03*
X350000Y480000D02*
D03*
X340000Y460000D02*
D03*
X350000Y440000D02*
D03*
Y360000D02*
D03*
X340000Y340000D02*
D03*
X350000Y320000D02*
D03*
X340000Y300000D02*
D03*
X320000Y620000D02*
D03*
X330000Y600000D02*
D03*
X320000Y580000D02*
D03*
X330000Y440000D02*
D03*
X320000Y420000D02*
D03*
X330000Y400000D02*
D03*
X320000Y380000D02*
D03*
Y300000D02*
D03*
X330000Y280000D02*
D03*
X300000Y540000D02*
D03*
X310000Y520000D02*
D03*
Y440000D02*
D03*
X300000Y420000D02*
D03*
X310000Y400000D02*
D03*
X290000Y560000D02*
D03*
X280000Y540000D02*
D03*
X290000Y520000D02*
D03*
X280000Y420000D02*
D03*
X290000Y400000D02*
D03*
X270000Y560000D02*
D03*
Y520000D02*
D03*
Y440000D02*
D03*
Y400000D02*
D03*
D53*
X660400Y615950D02*
D03*
X924560Y478790D02*
D03*
X464820Y480060D02*
D03*
X485140Y476250D02*
D03*
X547436Y484546D02*
D03*
X534670Y490220D02*
D03*
X464820Y499110D02*
D03*
X461010Y344170D02*
D03*
X443230Y346710D02*
D03*
X449580Y322580D02*
D03*
X551180Y267970D02*
D03*
X561340Y346710D02*
D03*
X448310Y284480D02*
D03*
X829310Y275590D02*
D03*
X777240Y497840D02*
D03*
X642620Y614680D02*
D03*
X640080Y356870D02*
D03*
X681990Y471170D02*
D03*
X641350Y431800D02*
D03*
X849630Y398780D02*
D03*
X664210Y556260D02*
D03*
X800100Y384810D02*
D03*
X656590Y535940D02*
D03*
X664210Y575310D02*
D03*
X427990Y576580D02*
D03*
X388620Y431800D02*
D03*
Y411480D02*
D03*
M02*
