G04*
G04 #@! TF.GenerationSoftware,Altium Limited,Altium Designer,23.10.1 (27)*
G04*
G04 Layer_Physical_Order=1*
G04 Layer_Color=255*
%FSLAX44Y44*%
%MOMM*%
G71*
G04*
G04 #@! TF.SameCoordinates,3B84DC82-68C0-41DF-859C-FDBE0299760B*
G04*
G04*
G04 #@! TF.FilePolarity,Positive*
G04*
G01*
G75*
%ADD10R,1.5000X1.5000*%
%ADD11R,1.2557X1.7582*%
%ADD12R,1.5057X1.8582*%
G04:AMPARAMS|DCode=13|XSize=1.31mm|YSize=0.62mm|CornerRadius=0.0775mm|HoleSize=0mm|Usage=FLASHONLY|Rotation=90.000|XOffset=0mm|YOffset=0mm|HoleType=Round|Shape=RoundedRectangle|*
%AMROUNDEDRECTD13*
21,1,1.3100,0.4650,0,0,90.0*
21,1,1.1550,0.6200,0,0,90.0*
1,1,0.1550,0.2325,0.5775*
1,1,0.1550,0.2325,-0.5775*
1,1,0.1550,-0.2325,-0.5775*
1,1,0.1550,-0.2325,0.5775*
%
%ADD13ROUNDEDRECTD13*%
%ADD14R,1.5000X1.5000*%
%ADD15R,1.8582X1.5057*%
%ADD16R,3.0000X0.7000*%
%ADD17R,6.0400X3.4000*%
%ADD18R,1.7582X1.2557*%
%ADD19R,1.5500X1.3000*%
%ADD20O,0.6000X1.9500*%
%ADD21O,1.9500X0.6000*%
%ADD22R,1.6000X2.8000*%
%ADD23C,0.3200*%
%ADD24O,0.4500X1.8500*%
%ADD25C,1.5700*%
%ADD26R,1.5700X1.5700*%
%ADD27R,1.7000X1.7000*%
%ADD28C,1.7000*%
%ADD29C,1.2000*%
%ADD30C,1.3000*%
%ADD31C,1.9500*%
G04:AMPARAMS|DCode=32|XSize=1.95mm|YSize=1.95mm|CornerRadius=0.4875mm|HoleSize=0mm|Usage=FLASHONLY|Rotation=90.000|XOffset=0mm|YOffset=0mm|HoleType=Round|Shape=RoundedRectangle|*
%AMROUNDEDRECTD32*
21,1,1.9500,0.9750,0,0,90.0*
21,1,0.9750,1.9500,0,0,90.0*
1,1,0.9750,0.4875,0.4875*
1,1,0.9750,0.4875,-0.4875*
1,1,0.9750,-0.4875,-0.4875*
1,1,0.9750,-0.4875,0.4875*
%
%ADD32ROUNDEDRECTD32*%
%ADD33R,1.5500X1.5500*%
%ADD34C,1.5500*%
%ADD35R,1.5500X1.5500*%
%ADD36R,1.2000X1.2000*%
%ADD37C,4.0000*%
%ADD38C,0.5500*%
%ADD39C,1.2700*%
G36*
X766311Y549409D02*
X66809D01*
Y923791D01*
X766311D01*
Y549409D01*
D02*
G37*
G36*
X644542Y436590D02*
X638800Y430849D01*
X638765Y430814D01*
X637300Y430907D01*
X637218Y431050D01*
X635520Y432748D01*
X633440Y433949D01*
X631121Y434570D01*
X628719D01*
X626400Y433949D01*
X624320Y432748D01*
X622622Y431050D01*
X621422Y428970D01*
X621262Y428376D01*
X574040D01*
X572920Y428153D01*
X571971Y427519D01*
X564031Y419579D01*
X563396Y418630D01*
X563174Y417510D01*
Y410570D01*
X563022Y410468D01*
X562735Y410040D01*
X561465D01*
X561179Y410468D01*
X559766Y411412D01*
X558100Y411744D01*
X556434Y411412D01*
X555022Y410468D01*
X554735Y410040D01*
X553465D01*
X553178Y410468D01*
X551766Y411412D01*
X550100Y411744D01*
X548434Y411412D01*
X547021Y410468D01*
X546735Y410040D01*
X545465D01*
X545178Y410468D01*
X543766Y411412D01*
X542735Y411617D01*
Y400640D01*
Y389663D01*
X543766Y389868D01*
X545178Y390812D01*
X545465Y391240D01*
X546735D01*
X547021Y390812D01*
X548434Y389868D01*
X550100Y389536D01*
X551766Y389868D01*
X553178Y390812D01*
X553465Y391240D01*
X554735D01*
X555022Y390812D01*
X556434Y389868D01*
X558100Y389536D01*
X559766Y389868D01*
X561179Y390812D01*
X561339Y391052D01*
X562640Y391133D01*
X563494Y390285D01*
Y374592D01*
X556031Y367129D01*
X555396Y366180D01*
X555174Y365060D01*
Y325570D01*
X555022Y325468D01*
X554735Y325040D01*
X553465D01*
X553178Y325468D01*
X551766Y326412D01*
X550735Y326617D01*
Y315640D01*
X549465D01*
Y326617D01*
X548434Y326412D01*
X547021Y325468D01*
X546735Y325040D01*
X545465D01*
X545178Y325468D01*
X543766Y326412D01*
X542100Y326744D01*
X540434Y326412D01*
X539021Y325468D01*
X538735Y325040D01*
X537465D01*
X537178Y325468D01*
X535766Y326412D01*
X534735Y326617D01*
Y315640D01*
Y304663D01*
X535766Y304868D01*
X537178Y305812D01*
X538569Y305778D01*
X539174Y305152D01*
Y299910D01*
X539397Y298790D01*
X540031Y297841D01*
X548200Y289672D01*
X548515Y289461D01*
X548130Y288191D01*
X541134D01*
Y268069D01*
X545756D01*
Y261604D01*
X544888Y260736D01*
X523182D01*
X517689Y266229D01*
X516837Y266799D01*
X516826Y266891D01*
X517611Y268069D01*
X528206D01*
Y288191D01*
X513109D01*
Y279786D01*
X509243D01*
X506730Y282299D01*
Y284213D01*
X506211Y286151D01*
X505207Y287889D01*
X503789Y289307D01*
X502051Y290311D01*
X500113Y290830D01*
X498107D01*
X496169Y290311D01*
X494431Y289307D01*
X493013Y287889D01*
X492009Y286151D01*
X491490Y284213D01*
Y282207D01*
X492009Y280269D01*
X493013Y278531D01*
X494431Y277113D01*
X496169Y276109D01*
X498107Y275590D01*
X500113D01*
X502051Y276109D01*
X503694Y277058D01*
X505961Y274791D01*
X506911Y274156D01*
X508031Y273934D01*
X513109D01*
Y268356D01*
X513109Y268069D01*
X512415Y267086D01*
X444426D01*
X443940Y268260D01*
X492949Y317268D01*
X493583Y318218D01*
X493806Y319338D01*
Y325691D01*
X494926Y326290D01*
X495184Y326118D01*
X496850Y325786D01*
X510350D01*
X512016Y326118D01*
X513428Y327062D01*
X514372Y328474D01*
X514704Y330140D01*
X514372Y331806D01*
X513428Y333218D01*
X513000Y333505D01*
Y334775D01*
X513428Y335061D01*
X514372Y336474D01*
X514704Y338140D01*
X514372Y339806D01*
X513428Y341218D01*
X513000Y341505D01*
Y342775D01*
X513428Y343061D01*
X514372Y344474D01*
X514704Y346140D01*
X514372Y347806D01*
X513428Y349218D01*
X513000Y349505D01*
Y350775D01*
X513428Y351062D01*
X514372Y352474D01*
X514704Y354140D01*
X514372Y355806D01*
X513428Y357219D01*
X513000Y357505D01*
Y358775D01*
X513428Y359062D01*
X514372Y360474D01*
X514704Y362140D01*
X514372Y363806D01*
X513428Y365219D01*
X513000Y365505D01*
Y366775D01*
X513428Y367062D01*
X514372Y368474D01*
X514704Y370140D01*
X514372Y371806D01*
X513428Y373218D01*
X513000Y373505D01*
Y374775D01*
X513428Y375061D01*
X514372Y376474D01*
X514704Y378140D01*
X514372Y379806D01*
X513428Y381218D01*
X513000Y381505D01*
Y382775D01*
X513428Y383061D01*
X514372Y384474D01*
X514704Y386140D01*
X514372Y387806D01*
X513428Y389218D01*
X512016Y390162D01*
X510350Y390494D01*
X496850D01*
X495184Y390162D01*
X493772Y389218D01*
X492828Y387806D01*
X492496Y386140D01*
X492828Y384474D01*
X493772Y383061D01*
X494200Y382775D01*
Y381505D01*
X493772Y381218D01*
X492828Y379806D01*
X492791Y379620D01*
X491575Y379252D01*
X487694Y383133D01*
X488431Y384409D01*
X488950Y386347D01*
Y388353D01*
X488431Y390291D01*
X487427Y392029D01*
X486473Y392984D01*
X486999Y394254D01*
X488620D01*
X489740Y394477D01*
X490689Y395111D01*
X533342Y437764D01*
X644056D01*
X644542Y436590D01*
D02*
G37*
G36*
X621422Y421930D02*
X622622Y419850D01*
X623936Y418536D01*
X623410Y417266D01*
X593410D01*
X592290Y417043D01*
X591341Y416409D01*
X585528Y410596D01*
X576987D01*
X575766Y411412D01*
X574100Y411744D01*
X572434Y411412D01*
X571021Y410468D01*
X569631Y410502D01*
X569026Y411128D01*
Y416298D01*
X575252Y422524D01*
X621262D01*
X621422Y421930D01*
D02*
G37*
G36*
X772661Y68079D02*
X73159D01*
Y442461D01*
X528103D01*
X528589Y441288D01*
X487408Y400106D01*
X482529D01*
X482003Y401376D01*
X482347Y401721D01*
X483351Y403459D01*
X483870Y405397D01*
Y407403D01*
X483351Y409341D01*
X482347Y411079D01*
X480929Y412497D01*
X479191Y413501D01*
X479176Y413505D01*
Y427990D01*
X478954Y429110D01*
X478319Y430059D01*
X470369Y438009D01*
X469420Y438643D01*
X468300Y438866D01*
X441020D01*
X439900Y438643D01*
X438951Y438009D01*
X414491Y413549D01*
X413857Y412600D01*
X413634Y411480D01*
Y374665D01*
X413857Y373545D01*
X414491Y372596D01*
X452234Y334853D01*
Y318869D01*
X467331D01*
Y338991D01*
X456372D01*
X425598Y369766D01*
X426084Y370939D01*
X431123D01*
Y380365D01*
X424209D01*
Y372814D01*
X423036Y372328D01*
X419486Y375877D01*
Y410268D01*
X442232Y433014D01*
X453461D01*
X453987Y431744D01*
X453643Y431399D01*
X452639Y429661D01*
X452120Y427723D01*
Y425717D01*
X452639Y423779D01*
X453643Y422041D01*
X455061Y420622D01*
X456799Y419619D01*
X456814Y419615D01*
Y391061D01*
X452234D01*
Y370939D01*
X467331D01*
Y391061D01*
X462666D01*
Y419615D01*
X462681Y419619D01*
X464419Y420622D01*
X465838Y422041D01*
X466841Y423779D01*
X467360Y425717D01*
Y427723D01*
X466841Y429661D01*
X465838Y431399D01*
X465592Y431644D01*
X466045Y432785D01*
X467192Y432910D01*
X473324Y426778D01*
Y413505D01*
X473309Y413501D01*
X471571Y412497D01*
X470153Y411079D01*
X469149Y409341D01*
X468630Y407403D01*
Y405397D01*
X469149Y403459D01*
X470153Y401721D01*
X471571Y400303D01*
X473309Y399299D01*
X474095Y399089D01*
X474475Y397672D01*
X470041Y393238D01*
X469407Y392289D01*
X469184Y391169D01*
Y354166D01*
X469031Y354077D01*
X467612Y352659D01*
X466609Y350921D01*
X466090Y348983D01*
Y346977D01*
X466609Y345039D01*
X467612Y343301D01*
X469031Y341883D01*
X470769Y340879D01*
X472707Y340360D01*
X474713D01*
X476651Y340879D01*
X478389Y341883D01*
X479808Y343301D01*
X480811Y345039D01*
X481330Y346977D01*
Y348891D01*
X483653Y351214D01*
X493670D01*
X493772Y351062D01*
X494200Y350775D01*
Y349505D01*
X493772Y349218D01*
X492828Y347806D01*
X492518Y346247D01*
X484341Y338071D01*
X483707Y337121D01*
X483484Y336002D01*
Y322401D01*
X437598Y276515D01*
X406788D01*
X406302Y277688D01*
X412692Y284079D01*
X426151D01*
Y305201D01*
X408554D01*
Y288217D01*
X401322Y280985D01*
X365827D01*
X365508Y281539D01*
X364089Y282957D01*
X362351Y283961D01*
X360413Y284480D01*
X358407D01*
X356469Y283961D01*
X354731Y282957D01*
X353312Y281539D01*
X352309Y279801D01*
X351790Y277863D01*
Y275857D01*
X352309Y273919D01*
X353312Y272181D01*
X354731Y270763D01*
X356469Y269759D01*
X358407Y269240D01*
X360413D01*
X362351Y269759D01*
X364089Y270763D01*
X365508Y272181D01*
X366511Y273919D01*
X366836Y275133D01*
X384905D01*
X385391Y273959D01*
X341688Y230256D01*
X290830D01*
X289710Y230033D01*
X288761Y229399D01*
X272251Y212889D01*
X271616Y211940D01*
X271394Y210820D01*
Y205030D01*
X271197Y204991D01*
X270521Y204539D01*
X270069Y203863D01*
X269910Y203065D01*
Y191515D01*
X270069Y190717D01*
X270521Y190041D01*
X271197Y189589D01*
X271394Y189550D01*
Y172720D01*
X271616Y171600D01*
X272251Y170651D01*
X289174Y153728D01*
Y133118D01*
X288580Y132958D01*
X286500Y131758D01*
X284802Y130060D01*
X283601Y127980D01*
X282980Y125661D01*
Y123259D01*
X283601Y120940D01*
X284802Y118860D01*
X286436Y117226D01*
X286415Y116936D01*
X286049Y115956D01*
X275532D01*
X266294Y125195D01*
Y166620D01*
X266299Y166623D01*
X267717Y168041D01*
X268721Y169779D01*
X269240Y171717D01*
Y173723D01*
X268721Y175661D01*
X267717Y177399D01*
X266299Y178818D01*
X264561Y179821D01*
X262623Y180340D01*
X260617D01*
X258679Y179821D01*
X256941Y178818D01*
X255522Y177399D01*
X254519Y175661D01*
X254000Y173723D01*
Y171717D01*
X254519Y169779D01*
X255522Y168041D01*
X256941Y166623D01*
X258679Y165619D01*
X260441Y165147D01*
Y126909D01*
X250591D01*
Y132781D01*
X229469D01*
Y115184D01*
X250591D01*
Y121056D01*
X262155D01*
X272251Y110961D01*
X273200Y110326D01*
X274320Y110104D01*
X331470D01*
X332590Y110326D01*
X333539Y110961D01*
X337918Y115340D01*
X352020D01*
Y133580D01*
X333780D01*
Y119478D01*
X330258Y115956D01*
X323551D01*
X323185Y116936D01*
X323164Y117226D01*
X324798Y118860D01*
X325998Y120940D01*
X326620Y123259D01*
Y125661D01*
X325998Y127980D01*
X324798Y130060D01*
X323100Y131758D01*
X321020Y132958D01*
X320426Y133118D01*
Y139700D01*
X320204Y140820D01*
X319569Y141769D01*
X310208Y151130D01*
X310734Y152400D01*
X312153D01*
X314091Y152919D01*
X315315Y153626D01*
X316406Y152789D01*
X316230Y152133D01*
Y150127D01*
X316749Y148189D01*
X317752Y146451D01*
X319171Y145033D01*
X320909Y144029D01*
X322847Y143510D01*
X324853D01*
X326791Y144029D01*
X328529Y145033D01*
X329948Y146451D01*
X330951Y148189D01*
X331470Y150127D01*
Y152133D01*
X330951Y154071D01*
X329948Y155809D01*
X328529Y157227D01*
X328046Y157506D01*
Y189550D01*
X328243Y189589D01*
X328919Y190041D01*
X329371Y190717D01*
X329530Y191515D01*
Y203065D01*
X329371Y203863D01*
X328919Y204539D01*
X328243Y204991D01*
X327445Y205150D01*
X322795D01*
X321997Y204991D01*
X321321Y204539D01*
X320869Y203863D01*
X320710Y203065D01*
Y191515D01*
X320869Y190717D01*
X321321Y190041D01*
X321997Y189589D01*
X322194Y189550D01*
Y158575D01*
X320909Y158231D01*
X319685Y157524D01*
X318594Y158361D01*
X318770Y159017D01*
Y161023D01*
X318251Y162961D01*
X317248Y164699D01*
X315829Y166117D01*
X314711Y166763D01*
Y189430D01*
X314745D01*
X315543Y189589D01*
X316219Y190041D01*
X316671Y190717D01*
X316830Y191515D01*
Y203065D01*
X316671Y203863D01*
X316219Y204539D01*
X315543Y204991D01*
X314745Y205150D01*
X310095D01*
X309297Y204991D01*
X308621Y204539D01*
X308169Y203863D01*
X308010Y203065D01*
Y191515D01*
X308169Y190717D01*
X308621Y190041D01*
X308859Y189881D01*
Y167295D01*
X308209Y167121D01*
X306471Y166117D01*
X305053Y164699D01*
X304049Y162961D01*
X303530Y161023D01*
Y159604D01*
X302260Y159078D01*
X297127Y164211D01*
X297785Y165350D01*
X298717Y165100D01*
X300723D01*
X302661Y165619D01*
X304399Y166623D01*
X305818Y168041D01*
X306821Y169779D01*
X307340Y171717D01*
Y173723D01*
X306821Y175661D01*
X305818Y177399D01*
X304399Y178818D01*
X302661Y179821D01*
X302646Y179825D01*
Y189550D01*
X302843Y189589D01*
X303519Y190041D01*
X303971Y190717D01*
X304130Y191515D01*
Y203065D01*
X303971Y203863D01*
X303519Y204539D01*
X302843Y204991D01*
X302045Y205150D01*
X297395D01*
X296597Y204991D01*
X295921Y204539D01*
X295469Y203863D01*
X295310Y203065D01*
Y191515D01*
X295469Y190717D01*
X295921Y190041D01*
X296597Y189589D01*
X296794Y189550D01*
Y179825D01*
X296779Y179821D01*
X295041Y178818D01*
X293622Y177399D01*
X292619Y175661D01*
X292100Y173723D01*
Y171717D01*
X292350Y170785D01*
X291211Y170127D01*
X289946Y171392D01*
Y189550D01*
X290143Y189589D01*
X290819Y190041D01*
X291271Y190717D01*
X291430Y191515D01*
Y203065D01*
X291271Y203863D01*
X290819Y204539D01*
X290143Y204991D01*
X289946Y205030D01*
Y210947D01*
X298933Y219934D01*
X346062D01*
X347181Y220156D01*
X348131Y220791D01*
X393044Y265704D01*
X412306D01*
X412792Y264530D01*
X409411Y261149D01*
X408777Y260200D01*
X408554Y259080D01*
Y255210D01*
X402210D01*
Y228808D01*
X367501Y194099D01*
X366866Y193150D01*
X366644Y192030D01*
Y106622D01*
X362008Y101986D01*
X351558D01*
X351399Y102580D01*
X350198Y104660D01*
X348500Y106358D01*
X346420Y107558D01*
X344101Y108180D01*
X341699D01*
X339380Y107558D01*
X337300Y106358D01*
X335602Y104660D01*
X334402Y102580D01*
X333780Y100261D01*
Y97859D01*
X334402Y95540D01*
X334709Y95007D01*
X317558Y77856D01*
X181552D01*
X177394Y82015D01*
Y87229D01*
X183266D01*
Y108351D01*
X177394D01*
Y111025D01*
X182822Y116454D01*
X199390D01*
X200510Y116677D01*
X201459Y117311D01*
X210349Y126201D01*
X210984Y127150D01*
X211206Y128270D01*
Y199448D01*
X217969Y206211D01*
X218603Y207160D01*
X218826Y208280D01*
Y259138D01*
X219375Y259687D01*
X221958D01*
X223078Y259909D01*
X224027Y260544D01*
X226487Y263004D01*
X236806D01*
X237089Y262948D01*
X250274D01*
X257210Y256012D01*
Y246515D01*
X257369Y245717D01*
X257821Y245041D01*
X258497Y244589D01*
X259295Y244430D01*
X263945D01*
X264743Y244589D01*
X265419Y245041D01*
X265871Y245717D01*
X266030Y246515D01*
Y258065D01*
X265871Y258863D01*
X265419Y259539D01*
X264743Y259991D01*
X264546Y260030D01*
Y269298D01*
X281882Y286634D01*
X294469D01*
X294823Y285931D01*
X294907Y285364D01*
X293622Y284079D01*
X292619Y282341D01*
X292100Y280403D01*
Y278397D01*
X292619Y276459D01*
X293622Y274721D01*
X295041Y273302D01*
X296779Y272299D01*
X296794Y272295D01*
Y260030D01*
X296597Y259991D01*
X295921Y259539D01*
X295469Y258863D01*
X295310Y258065D01*
Y246515D01*
X295469Y245717D01*
X295921Y245041D01*
X296597Y244589D01*
X297395Y244430D01*
X302045D01*
X302843Y244589D01*
X303519Y245041D01*
X303971Y245717D01*
X304130Y246515D01*
Y258065D01*
X303971Y258863D01*
X303519Y259539D01*
X302843Y259991D01*
X302646Y260030D01*
Y272295D01*
X302661Y272299D01*
X304399Y273302D01*
X305818Y274721D01*
X306821Y276459D01*
X307340Y278397D01*
Y280403D01*
X306821Y282341D01*
X305818Y284079D01*
X304533Y285364D01*
X304617Y285931D01*
X304971Y286634D01*
X355600D01*
X356720Y286856D01*
X357669Y287491D01*
X384339Y314161D01*
X384973Y315110D01*
X385196Y316230D01*
Y346290D01*
X394428Y355522D01*
X395062Y356471D01*
X395065Y356484D01*
X410611D01*
Y374081D01*
X389489D01*
Y359637D01*
X389433Y359354D01*
Y358803D01*
X380201Y349572D01*
X379566Y348622D01*
X379344Y347502D01*
Y317442D01*
X354388Y292486D01*
X280670D01*
X279550Y292264D01*
X278601Y291629D01*
X259551Y272579D01*
X258916Y271630D01*
X258694Y270510D01*
Y264464D01*
X257520Y263978D01*
X253555Y267943D01*
X252606Y268577D01*
X251486Y268800D01*
X242471D01*
Y278101D01*
X235336D01*
Y307340D01*
X235114Y308460D01*
X234479Y309409D01*
X232881Y311007D01*
Y345539D01*
X237504D01*
Y365661D01*
X222406D01*
Y345539D01*
X227029D01*
Y309795D01*
X227251Y308675D01*
X227886Y307726D01*
X229484Y306128D01*
Y278101D01*
X222349D01*
Y267142D01*
X220746Y265539D01*
X218163D01*
X217043Y265316D01*
X216094Y264682D01*
X213831Y262419D01*
X213197Y261470D01*
X212974Y260350D01*
Y249091D01*
X212271Y248737D01*
X211704Y248653D01*
X210419Y249937D01*
X208681Y250941D01*
X206743Y251460D01*
X204737D01*
X202799Y250941D01*
X201061Y249937D01*
X199643Y248519D01*
X198639Y246781D01*
X198120Y244843D01*
Y242929D01*
X197017Y241826D01*
X194220D01*
Y243670D01*
X161680D01*
Y234130D01*
X194220D01*
Y235974D01*
X198229D01*
X199349Y236196D01*
X200299Y236831D01*
X201156Y237688D01*
X202799Y236739D01*
X204737Y236220D01*
X206743D01*
X208681Y236739D01*
X210419Y237743D01*
X211704Y239027D01*
X212271Y238943D01*
X212974Y238589D01*
Y228771D01*
X212271Y228417D01*
X211704Y228333D01*
X210419Y229618D01*
X208681Y230621D01*
X206743Y231140D01*
X204737D01*
X202799Y230621D01*
X201061Y229618D01*
X199643Y228199D01*
X199462Y227886D01*
X194220D01*
Y231170D01*
X161680D01*
Y221630D01*
X194220D01*
Y222034D01*
X198249D01*
X198639Y220579D01*
X199643Y218841D01*
X201061Y217423D01*
X202799Y216419D01*
X204737Y215900D01*
X206743D01*
X208681Y216419D01*
X210419Y217423D01*
X211704Y218707D01*
X212271Y218623D01*
X212974Y218269D01*
Y209492D01*
X207764Y204282D01*
X207540Y204326D01*
X194220D01*
Y206170D01*
X161680D01*
Y196630D01*
X194220D01*
Y198474D01*
X205354D01*
Y129482D01*
X198178Y122306D01*
X181610D01*
X180490Y122084D01*
X179541Y121449D01*
X172398Y114307D01*
X171764Y113357D01*
X171541Y112238D01*
Y108351D01*
X165669D01*
Y87229D01*
X171541D01*
Y80802D01*
X171764Y79683D01*
X172398Y78733D01*
X178271Y72861D01*
X179220Y72227D01*
X180340Y72004D01*
X318770D01*
X319890Y72227D01*
X320839Y72861D01*
X338847Y90869D01*
X339380Y90562D01*
X341699Y89940D01*
X344101D01*
X346420Y90562D01*
X348500Y91762D01*
X350198Y93460D01*
X351399Y95540D01*
X351558Y96134D01*
X363220D01*
X364340Y96356D01*
X365289Y96991D01*
X371639Y103341D01*
X372273Y104290D01*
X372496Y105410D01*
Y190818D01*
X406348Y224670D01*
X420750D01*
Y255210D01*
X414406D01*
Y257868D01*
X417772Y261234D01*
X514408D01*
X517832Y257810D01*
X503476Y243454D01*
X502841Y242505D01*
X502619Y241385D01*
Y237391D01*
X497996D01*
Y217269D01*
X503846D01*
Y180241D01*
X499224D01*
Y165844D01*
X498461Y165692D01*
X497512Y165058D01*
X489050Y156596D01*
X405130D01*
X404010Y156374D01*
X403061Y155739D01*
X375121Y127799D01*
X374487Y126850D01*
X374264Y125730D01*
Y88900D01*
X374487Y87780D01*
X375121Y86831D01*
X389091Y72861D01*
X390040Y72227D01*
X391160Y72004D01*
X665480D01*
X666600Y72227D01*
X667549Y72861D01*
X684059Y89371D01*
X684694Y90320D01*
X684916Y91440D01*
Y161348D01*
X699712Y176144D01*
X715665D01*
X716171Y174256D01*
X717622Y171744D01*
X719674Y169692D01*
X722186Y168241D01*
X724989Y167490D01*
X727891D01*
X730694Y168241D01*
X733206Y169692D01*
X735258Y171744D01*
X736709Y174256D01*
X737460Y177059D01*
Y179961D01*
X736709Y182764D01*
X735258Y185276D01*
X733206Y187328D01*
X730694Y188779D01*
X727891Y189530D01*
X724989D01*
X722186Y188779D01*
X719674Y187328D01*
X717622Y185276D01*
X716171Y182764D01*
X715965Y181996D01*
X698500D01*
X697380Y181773D01*
X696431Y181139D01*
X679921Y164629D01*
X679286Y163680D01*
X679064Y162560D01*
Y92652D01*
X664268Y77856D01*
X392372D01*
X380116Y90112D01*
Y124518D01*
X406342Y150744D01*
X490262D01*
X491382Y150967D01*
X492332Y151601D01*
X500793Y160063D01*
X502094D01*
X502377Y160119D01*
X514321D01*
Y180241D01*
X509699D01*
Y217269D01*
X513093D01*
Y237391D01*
X508471D01*
Y240173D01*
X523182Y254884D01*
X546100D01*
X547220Y255107D01*
X548169Y255741D01*
X550752Y258323D01*
X551386Y259273D01*
X551609Y260392D01*
Y268069D01*
X556231D01*
Y282526D01*
X556287Y282809D01*
Y290529D01*
X560169Y294411D01*
X560803Y295360D01*
X561026Y296480D01*
Y305710D01*
X561178Y305812D01*
X562569Y305778D01*
X563174Y305152D01*
Y190662D01*
X555122Y182610D01*
X553407Y183070D01*
X551493D01*
X549644Y182575D01*
X547986Y181617D01*
X546633Y180264D01*
X545675Y178606D01*
X545180Y176757D01*
Y174843D01*
X545639Y173128D01*
X500373Y127862D01*
X499739Y126912D01*
X499516Y125792D01*
Y123591D01*
X493644D01*
Y102469D01*
X511241D01*
Y123591D01*
X506046D01*
X505649Y124861D01*
X549778Y168990D01*
X551493Y168530D01*
X553407D01*
X555256Y169025D01*
X556914Y169983D01*
X558267Y171336D01*
X559225Y172994D01*
X559720Y174843D01*
Y176757D01*
X559260Y178472D01*
X568169Y187381D01*
X568803Y188330D01*
X569026Y189450D01*
Y305710D01*
X569178Y305812D01*
X570569Y305778D01*
X571174Y305152D01*
Y149862D01*
X555582Y134270D01*
X545180D01*
Y123868D01*
X513138Y91826D01*
X415695D01*
X402184Y105337D01*
Y122321D01*
X384586D01*
Y101199D01*
X398046D01*
X412414Y86831D01*
X413363Y86196D01*
X414483Y85974D01*
X514350D01*
X515470Y86196D01*
X516419Y86831D01*
X549318Y119730D01*
X559720D01*
Y130132D01*
X576169Y146581D01*
X576804Y147530D01*
X577026Y148650D01*
Y305710D01*
X577178Y305812D01*
X578122Y307224D01*
X578454Y308890D01*
Y322390D01*
X578122Y324056D01*
X577178Y325468D01*
X575766Y326412D01*
X574100Y326744D01*
X572434Y326412D01*
X571021Y325468D01*
X570735Y325040D01*
X569465D01*
X569179Y325468D01*
X567766Y326412D01*
X566100Y326744D01*
X564434Y326412D01*
X563022Y325468D01*
X561631Y325502D01*
X561026Y326128D01*
Y363848D01*
X568489Y371311D01*
X569123Y372260D01*
X569346Y373380D01*
Y391063D01*
X569465Y391240D01*
X570735D01*
X571021Y390812D01*
X572434Y389868D01*
X574100Y389536D01*
X575766Y389868D01*
X577178Y390812D01*
X578122Y392224D01*
X578454Y393890D01*
Y404744D01*
X586740D01*
X587860Y404967D01*
X588809Y405601D01*
X594622Y411414D01*
X633970D01*
X635090Y411636D01*
X636039Y412271D01*
X642904Y419136D01*
X643539Y420085D01*
X643761Y421205D01*
Y427533D01*
X645705Y429476D01*
X646177Y429262D01*
X646758Y428734D01*
X646200Y426651D01*
Y424249D01*
X646822Y421930D01*
X647129Y421397D01*
X640551Y414819D01*
X639916Y413870D01*
X639694Y412750D01*
Y410169D01*
X639040Y409170D01*
X620800D01*
Y402976D01*
X599440D01*
X598320Y402753D01*
X597371Y402119D01*
X591681Y396429D01*
X591046Y395480D01*
X590824Y394360D01*
Y390494D01*
X581850D01*
X580184Y390162D01*
X578772Y389218D01*
X577828Y387806D01*
X577496Y386140D01*
X577828Y384474D01*
X578772Y383061D01*
X579200Y382775D01*
Y381505D01*
X578772Y381218D01*
X577828Y379806D01*
X577496Y378140D01*
X577828Y376474D01*
X578772Y375061D01*
X579200Y374775D01*
Y373505D01*
X578772Y373218D01*
X577828Y371806D01*
X577496Y370140D01*
X577828Y368474D01*
X578772Y367062D01*
X579200Y366775D01*
Y365505D01*
X578772Y365219D01*
X577828Y363806D01*
X577496Y362140D01*
X577828Y360474D01*
X578772Y359062D01*
X579200Y358775D01*
Y357505D01*
X578772Y357219D01*
X577828Y355806D01*
X577496Y354140D01*
X577828Y352474D01*
X578772Y351062D01*
X579200Y350775D01*
Y349505D01*
X578772Y349218D01*
X577828Y347806D01*
X577496Y346140D01*
X577828Y344474D01*
X578772Y343061D01*
X579200Y342775D01*
Y341505D01*
X578772Y341218D01*
X577828Y339806D01*
X577496Y338140D01*
X577828Y336474D01*
X578772Y335061D01*
X579200Y334775D01*
Y333505D01*
X578772Y333218D01*
X577828Y331806D01*
X577496Y330140D01*
X577828Y328474D01*
X578772Y327062D01*
X580184Y326118D01*
X581850Y325786D01*
X595350D01*
X597016Y326118D01*
X598428Y327062D01*
X599372Y328474D01*
X599704Y330140D01*
X599372Y331806D01*
X598428Y333218D01*
X598000Y333505D01*
Y334775D01*
X598428Y335061D01*
X599372Y336474D01*
X599704Y338140D01*
X599372Y339806D01*
X598428Y341218D01*
X598000Y341505D01*
Y342775D01*
X598428Y343061D01*
X599372Y344474D01*
X599704Y346140D01*
X599372Y347806D01*
X598428Y349218D01*
X598462Y350609D01*
X599088Y351214D01*
X602228D01*
X602864Y350578D01*
Y316172D01*
X601316Y314624D01*
X600392D01*
X599039Y315977D01*
X597301Y316981D01*
X595363Y317500D01*
X593357D01*
X591419Y316981D01*
X589681Y315977D01*
X588262Y314559D01*
X587259Y312821D01*
X586740Y310883D01*
Y308877D01*
X587259Y306939D01*
X588262Y305201D01*
X589681Y303783D01*
X591419Y302779D01*
X593357Y302260D01*
X595363D01*
X597301Y302779D01*
X599039Y303783D01*
X600457Y305201D01*
X601461Y306939D01*
X601952Y308771D01*
X602528D01*
X603647Y308994D01*
X604597Y309629D01*
X607859Y312891D01*
X607944Y313018D01*
X609214Y312632D01*
Y302260D01*
X609436Y301140D01*
X610071Y300191D01*
X613881Y296381D01*
X614830Y295746D01*
X615950Y295524D01*
X668920D01*
X670040Y295746D01*
X670989Y296381D01*
X687912Y313304D01*
X726410D01*
X727530Y313526D01*
X728479Y314161D01*
X737870Y323552D01*
X738368Y323265D01*
X740663Y322650D01*
X743037D01*
X745332Y323265D01*
X747388Y324452D01*
X749068Y326132D01*
X750255Y328188D01*
X750870Y330482D01*
Y332858D01*
X750255Y335152D01*
X749068Y337208D01*
X747388Y338888D01*
X745332Y340075D01*
X743037Y340690D01*
X740663D01*
X738368Y340075D01*
X736312Y338888D01*
X734632Y337208D01*
X733445Y335152D01*
X732830Y332858D01*
Y330482D01*
X733445Y328188D01*
X733732Y327691D01*
X725198Y319156D01*
X686700D01*
X685580Y318934D01*
X684631Y318299D01*
X667708Y301376D01*
X617162D01*
X615066Y303472D01*
Y355600D01*
X614843Y356720D01*
X614209Y357669D01*
X607669Y364209D01*
X606720Y364843D01*
X605600Y365066D01*
X598530D01*
X598428Y365219D01*
X598000Y365505D01*
Y366775D01*
X598428Y367062D01*
X599372Y368474D01*
X599704Y370140D01*
X599372Y371806D01*
X598428Y373218D01*
X598462Y374609D01*
X599088Y375214D01*
X632140D01*
X633260Y375437D01*
X634209Y376071D01*
X644689Y386551D01*
X645323Y387500D01*
X645546Y388620D01*
Y396382D01*
X646816Y396549D01*
X646822Y396530D01*
X648022Y394450D01*
X649720Y392752D01*
X651800Y391552D01*
X652394Y391392D01*
Y376572D01*
X630032Y354210D01*
X616630D01*
Y336670D01*
X634170D01*
Y350072D01*
X657389Y373291D01*
X658024Y374240D01*
X658246Y375360D01*
Y391392D01*
X658840Y391552D01*
X660920Y392752D01*
X662618Y394450D01*
X663819Y396530D01*
X664440Y398849D01*
Y401251D01*
X663819Y403570D01*
X663511Y404103D01*
X668819Y409411D01*
X669454Y410360D01*
X669676Y411480D01*
Y431800D01*
X669454Y432920D01*
X668819Y433869D01*
X666098Y436590D01*
X666584Y437764D01*
X689668D01*
X703194Y424238D01*
Y405072D01*
X701098Y402976D01*
X689378D01*
X689219Y403570D01*
X688018Y405650D01*
X686320Y407348D01*
X684240Y408549D01*
X681921Y409170D01*
X679519D01*
X677200Y408549D01*
X675120Y407348D01*
X673422Y405650D01*
X672222Y403570D01*
X671600Y401251D01*
Y398849D01*
X672222Y396530D01*
X673422Y394450D01*
X675120Y392752D01*
X677200Y391552D01*
X679519Y390930D01*
X681921D01*
X684240Y391552D01*
X686320Y392752D01*
X688018Y394450D01*
X689219Y396530D01*
X689378Y397124D01*
X702310D01*
X703430Y397346D01*
X704379Y397981D01*
X708189Y401791D01*
X708823Y402740D01*
X709046Y403860D01*
Y425450D01*
X708823Y426570D01*
X708189Y427519D01*
X694421Y441288D01*
X694907Y442461D01*
X772661D01*
Y68079D01*
D02*
G37*
G36*
X620800Y390930D02*
X639040D01*
X639694Y389931D01*
Y389832D01*
X630928Y381066D01*
X598530D01*
X598428Y381218D01*
X598000Y381505D01*
Y382775D01*
X598428Y383061D01*
X599372Y384474D01*
X599704Y386140D01*
X599372Y387806D01*
X598428Y389218D01*
X597016Y390162D01*
X596676Y390230D01*
Y393148D01*
X600652Y397124D01*
X620800D01*
Y390930D01*
D02*
G37*
G36*
X293953Y223230D02*
X284951Y214228D01*
X284317Y213279D01*
X284094Y212159D01*
Y205030D01*
X283897Y204991D01*
X283221Y204539D01*
X282769Y203863D01*
X282610Y203065D01*
Y191515D01*
X282769Y190717D01*
X283221Y190041D01*
X283897Y189589D01*
X284094Y189550D01*
Y170180D01*
X284317Y169060D01*
X284951Y168111D01*
X314574Y138488D01*
Y133118D01*
X313980Y132958D01*
X311900Y131758D01*
X310202Y130060D01*
X309002Y127980D01*
X308380Y125661D01*
Y123259D01*
X309002Y120940D01*
X310202Y118860D01*
X311836Y117226D01*
X311815Y116936D01*
X311449Y115956D01*
X298151D01*
X297785Y116936D01*
X297764Y117226D01*
X299398Y118860D01*
X300599Y120940D01*
X301220Y123259D01*
Y125661D01*
X300599Y127980D01*
X299398Y130060D01*
X297700Y131758D01*
X295620Y132958D01*
X295026Y133118D01*
Y154940D01*
X294804Y156060D01*
X294169Y157009D01*
X277246Y173932D01*
Y189550D01*
X277443Y189589D01*
X278119Y190041D01*
X278571Y190717D01*
X278730Y191515D01*
Y203065D01*
X278571Y203863D01*
X278119Y204539D01*
X277443Y204991D01*
X277246Y205030D01*
Y209608D01*
X292042Y224404D01*
X293467D01*
X293953Y223230D01*
D02*
G37*
%LPC*%
G36*
X674301Y913360D02*
X673735D01*
Y904875D01*
X682220D01*
Y905441D01*
X681599Y907760D01*
X680398Y909840D01*
X678700Y911538D01*
X676620Y912738D01*
X674301Y913360D01*
D02*
G37*
G36*
X463220Y920196D02*
X434670D01*
X433550Y919974D01*
X432601Y919339D01*
X410681Y897419D01*
X410047Y896470D01*
X409824Y895350D01*
Y845820D01*
X410047Y844700D01*
X410681Y843751D01*
X419571Y834861D01*
X420520Y834227D01*
X421640Y834004D01*
X425550D01*
X444172Y815382D01*
X445121Y814748D01*
X445884Y814596D01*
Y800199D01*
X460981D01*
Y820321D01*
X449037D01*
X448754Y820377D01*
X447453D01*
X428832Y838999D01*
X427882Y839633D01*
X426762Y839856D01*
X422852D01*
X415676Y847032D01*
Y894138D01*
X435882Y914344D01*
X447111D01*
X447637Y913074D01*
X447293Y912729D01*
X446289Y910991D01*
X445770Y909053D01*
Y907047D01*
X446289Y905109D01*
X447293Y903371D01*
X448711Y901953D01*
X450449Y900949D01*
X450464Y900945D01*
Y872391D01*
X445884D01*
Y852269D01*
X460981D01*
Y872391D01*
X456316D01*
Y900945D01*
X456331Y900949D01*
X458069Y901953D01*
X459487Y903371D01*
X460491Y905109D01*
X461010Y907047D01*
Y909053D01*
X460491Y910991D01*
X459487Y912729D01*
X459143Y913074D01*
X459669Y914344D01*
X462008D01*
X464077Y912275D01*
X464069Y912261D01*
X463550Y910323D01*
Y908317D01*
X464069Y906379D01*
X465073Y904641D01*
X466491Y903223D01*
X468229Y902219D01*
X470167Y901700D01*
X472173D01*
X474111Y902219D01*
X475849Y903223D01*
X477267Y904641D01*
X478271Y906379D01*
X478790Y908317D01*
Y910323D01*
X478271Y912261D01*
X477267Y913999D01*
X475849Y915417D01*
X474111Y916421D01*
X472173Y916940D01*
X470167D01*
X468229Y916421D01*
X468215Y916413D01*
X465289Y919339D01*
X464340Y919974D01*
X463220Y920196D01*
D02*
G37*
G36*
X738695Y919160D02*
X737235D01*
Y898525D01*
X757870D01*
Y899985D01*
X757053Y904094D01*
X755449Y907965D01*
X753121Y911449D01*
X750159Y914411D01*
X746675Y916739D01*
X742804Y918343D01*
X738695Y919160D01*
D02*
G37*
G36*
X735965D02*
X734505D01*
X730396Y918343D01*
X726525Y916739D01*
X723041Y914411D01*
X720079Y911449D01*
X717751Y907965D01*
X716147Y904094D01*
X715330Y899985D01*
Y898525D01*
X735965D01*
Y919160D01*
D02*
G37*
G36*
X98615D02*
X97155D01*
Y898525D01*
X117790D01*
Y899985D01*
X116973Y904094D01*
X115369Y907965D01*
X113041Y911449D01*
X110079Y914411D01*
X106595Y916739D01*
X102724Y918343D01*
X98615Y919160D01*
D02*
G37*
G36*
X95885D02*
X94425D01*
X90316Y918343D01*
X86445Y916739D01*
X82961Y914411D01*
X79998Y911449D01*
X77671Y907965D01*
X76067Y904094D01*
X75250Y899985D01*
Y898525D01*
X95885D01*
Y919160D01*
D02*
G37*
G36*
X682220Y903605D02*
X673735D01*
Y895120D01*
X674301D01*
X676620Y895742D01*
X678700Y896942D01*
X680398Y898640D01*
X681599Y900720D01*
X682220Y903039D01*
Y903605D01*
D02*
G37*
G36*
X685800Y922406D02*
X500380D01*
X499260Y922184D01*
X498311Y921549D01*
X463691Y886929D01*
X463056Y885980D01*
X462834Y884860D01*
Y835496D01*
X462681Y835407D01*
X461263Y833989D01*
X460259Y832251D01*
X459740Y830313D01*
Y828307D01*
X460259Y826369D01*
X461263Y824631D01*
X462681Y823213D01*
X464419Y822209D01*
X466357Y821690D01*
X468363D01*
X470301Y822209D01*
X472039Y823213D01*
X473457Y824631D01*
X474461Y826369D01*
X474980Y828307D01*
Y830221D01*
X477303Y832544D01*
X487320D01*
X487421Y832392D01*
X487850Y832105D01*
Y830835D01*
X487421Y830548D01*
X486478Y829136D01*
X486168Y827578D01*
X477991Y819401D01*
X477356Y818451D01*
X477134Y817331D01*
Y803731D01*
X431248Y757845D01*
X380269D01*
X379149Y757622D01*
X378200Y756988D01*
X332798Y711586D01*
X289519D01*
X288399Y711364D01*
X287450Y710729D01*
X256781Y680060D01*
X256212Y679209D01*
X256097Y679186D01*
X254932Y678408D01*
X254154Y677243D01*
X253881Y675870D01*
Y671103D01*
X247807D01*
X246687Y670880D01*
X245738Y670246D01*
X239231Y663739D01*
X238596Y662790D01*
X238374Y661670D01*
Y635000D01*
X238596Y633880D01*
X239231Y632931D01*
X245581Y626581D01*
X246530Y625947D01*
X247650Y625724D01*
X264218D01*
X269567Y620374D01*
Y619046D01*
X269790Y617927D01*
X270424Y616977D01*
X277559Y609843D01*
X277251Y609310D01*
X276630Y606991D01*
Y604589D01*
X277251Y602270D01*
X278452Y600190D01*
X280086Y598556D01*
X280065Y598266D01*
X279699Y597286D01*
X269182D01*
X261046Y605423D01*
X261236Y605707D01*
X261458Y606827D01*
Y608358D01*
X263291Y608849D01*
X265029Y609852D01*
X266448Y611271D01*
X267451Y613009D01*
X267970Y614947D01*
Y616953D01*
X267451Y618891D01*
X266448Y620629D01*
X265029Y622048D01*
X263291Y623051D01*
X261353Y623570D01*
X259347D01*
X257409Y623051D01*
X255671Y622048D01*
X254252Y620629D01*
X253249Y618891D01*
X252730Y616953D01*
Y614947D01*
X253249Y613009D01*
X254252Y611271D01*
X255606Y609918D01*
Y608239D01*
X244241D01*
Y614111D01*
X223119D01*
Y596514D01*
X244241D01*
Y602386D01*
X255805D01*
X265901Y592291D01*
X266850Y591656D01*
X267970Y591434D01*
X325120D01*
X326240Y591656D01*
X327189Y592291D01*
X331568Y596670D01*
X345670D01*
Y614910D01*
X327430D01*
Y600808D01*
X323908Y597286D01*
X317201D01*
X316835Y598266D01*
X316814Y598556D01*
X318448Y600190D01*
X319648Y602270D01*
X320270Y604589D01*
Y606991D01*
X319648Y609310D01*
X318448Y611390D01*
X316750Y613088D01*
X314670Y614288D01*
X312351Y614910D01*
X309949D01*
X307630Y614288D01*
X307097Y613981D01*
X286396Y634682D01*
Y658613D01*
X286816Y658905D01*
X287666Y659176D01*
X288597Y658554D01*
X289970Y658281D01*
X291343Y658554D01*
X292508Y659332D01*
X292585Y659448D01*
X293855D01*
X293932Y659332D01*
X295097Y658554D01*
X295835Y658407D01*
Y668870D01*
Y679333D01*
X295097Y679186D01*
X293932Y678408D01*
X293855Y678292D01*
X292585D01*
X292508Y678408D01*
X291343Y679186D01*
X289970Y679459D01*
X288597Y679186D01*
X287666Y678564D01*
X286816Y678835D01*
X286396Y679127D01*
Y695077D01*
X292583Y701264D01*
X339712D01*
X340831Y701487D01*
X341781Y702121D01*
X386694Y747034D01*
X405956D01*
X406442Y745860D01*
X403061Y742479D01*
X402426Y741530D01*
X402204Y740410D01*
Y736540D01*
X395860D01*
Y710138D01*
X358611Y672889D01*
X357976Y671940D01*
X357754Y670820D01*
Y598112D01*
X351515Y591874D01*
X347757D01*
X346637Y591651D01*
X345688Y591016D01*
X342254Y587583D01*
X342150Y587688D01*
X340070Y588889D01*
X337751Y589510D01*
X335349D01*
X333030Y588889D01*
X330950Y587688D01*
X329252Y585990D01*
X328051Y583910D01*
X327430Y581591D01*
Y579189D01*
X328051Y576870D01*
X328359Y576337D01*
X311208Y559186D01*
X175202D01*
X171044Y563344D01*
Y568559D01*
X176916D01*
Y589681D01*
X171044D01*
Y592355D01*
X176472Y597784D01*
X193040D01*
X194160Y598007D01*
X195109Y598641D01*
X203999Y607531D01*
X204634Y608480D01*
X204856Y609600D01*
Y680778D01*
X211619Y687541D01*
X212253Y688490D01*
X212476Y689610D01*
Y740468D01*
X213025Y741016D01*
X215608D01*
X216728Y741239D01*
X217677Y741874D01*
X220137Y744334D01*
X236121D01*
Y755293D01*
X260552Y779724D01*
X269311D01*
X269837Y778454D01*
X269492Y778109D01*
X268489Y776371D01*
X267970Y774433D01*
Y772427D01*
X268489Y770489D01*
X269492Y768751D01*
X270911Y767333D01*
X272649Y766329D01*
X274482Y765838D01*
Y763992D01*
X274704Y762872D01*
X275339Y761923D01*
X282333Y754929D01*
X281907Y753559D01*
X280932Y752908D01*
X280855Y752792D01*
X279585D01*
X279508Y752908D01*
X278343Y753686D01*
X277605Y753833D01*
Y743370D01*
Y732907D01*
X278343Y733054D01*
X279508Y733832D01*
X279585Y733948D01*
X280855D01*
X280932Y733832D01*
X282097Y733054D01*
X283470Y732781D01*
X284843Y733054D01*
X286008Y733832D01*
X286085Y733948D01*
X287355D01*
X287432Y733832D01*
X288597Y733054D01*
X289970Y732781D01*
X291343Y733054D01*
X292508Y733832D01*
X292585Y733948D01*
X293855D01*
X293932Y733832D01*
X295097Y733054D01*
X296470Y732781D01*
X297843Y733054D01*
X299008Y733832D01*
X299085Y733948D01*
X300355D01*
X300432Y733832D01*
X301597Y733054D01*
X302335Y732907D01*
Y743370D01*
X303605D01*
Y732907D01*
X304343Y733054D01*
X305508Y733832D01*
X305585Y733948D01*
X306855D01*
X306932Y733832D01*
X308097Y733054D01*
X309470Y732781D01*
X310843Y733054D01*
X312008Y733832D01*
X312085Y733948D01*
X313355D01*
X313432Y733832D01*
X314597Y733054D01*
X315970Y732781D01*
X317343Y733054D01*
X318508Y733832D01*
X318585Y733948D01*
X319855D01*
X319932Y733832D01*
X321097Y733054D01*
X321835Y732907D01*
Y743370D01*
Y753833D01*
X321097Y753686D01*
X319932Y752908D01*
X319855Y752792D01*
X318585D01*
X318508Y752908D01*
X317343Y753686D01*
X315970Y753959D01*
X314597Y753686D01*
X313666Y753064D01*
X312816Y753335D01*
X312396Y753627D01*
Y772570D01*
X312174Y773690D01*
X311539Y774639D01*
X301459Y784719D01*
X300510Y785353D01*
X299390Y785576D01*
X281259D01*
X280733Y786846D01*
X281688Y787801D01*
X282691Y789539D01*
X283210Y791477D01*
Y793483D01*
X282691Y795421D01*
X281688Y797159D01*
X280269Y798577D01*
X278531Y799581D01*
X276593Y800100D01*
X274587D01*
X272853Y799635D01*
X268130Y804358D01*
Y817760D01*
X250590D01*
Y800220D01*
X263992D01*
X268599Y795612D01*
X268489Y795421D01*
X267970Y793483D01*
Y791477D01*
X268489Y789539D01*
X269492Y787801D01*
X270447Y786846D01*
X269921Y785576D01*
X259340D01*
X258220Y785353D01*
X257271Y784719D01*
X231983Y759431D01*
X228986D01*
Y788670D01*
X228764Y789790D01*
X228129Y790739D01*
X226531Y792337D01*
Y826869D01*
X231154D01*
Y834004D01*
X328945D01*
X330065Y834227D01*
X331014Y834861D01*
X347636Y851483D01*
X348906Y850957D01*
Y819051D01*
X344284D01*
Y798929D01*
X359381D01*
Y819051D01*
X354759D01*
Y850957D01*
X356029Y851483D01*
X362968Y844543D01*
X363918Y843909D01*
X365037Y843686D01*
X383139D01*
Y837814D01*
X404261D01*
Y855411D01*
X383139D01*
Y849539D01*
X366250D01*
X359381Y856407D01*
Y872391D01*
X344284D01*
Y856407D01*
X327733Y839856D01*
X231154D01*
Y846991D01*
X216056D01*
Y826869D01*
X220679D01*
Y791125D01*
X220901Y790005D01*
X221536Y789056D01*
X223134Y787458D01*
Y759431D01*
X215999D01*
Y748472D01*
X214396Y746869D01*
X211813D01*
X210693Y746646D01*
X209744Y746012D01*
X207481Y743749D01*
X206847Y742800D01*
X206624Y741680D01*
Y730421D01*
X205921Y730067D01*
X205354Y729983D01*
X204069Y731267D01*
X202331Y732271D01*
X200393Y732790D01*
X198387D01*
X196449Y732271D01*
X194711Y731267D01*
X193293Y729849D01*
X192289Y728111D01*
X191770Y726173D01*
Y724259D01*
X190667Y723156D01*
X187870D01*
Y725000D01*
X155330D01*
Y715460D01*
X187870D01*
Y717304D01*
X191879D01*
X192999Y717526D01*
X193948Y718161D01*
X194806Y719018D01*
X196449Y718069D01*
X198387Y717550D01*
X200393D01*
X202331Y718069D01*
X204069Y719072D01*
X205354Y720357D01*
X205921Y720273D01*
X206624Y719919D01*
Y710101D01*
X205921Y709747D01*
X205354Y709663D01*
X204069Y710947D01*
X202331Y711951D01*
X200393Y712470D01*
X198387D01*
X196449Y711951D01*
X194711Y710947D01*
X193293Y709529D01*
X193112Y709216D01*
X187870D01*
Y712500D01*
X155330D01*
Y702960D01*
X187870D01*
Y703364D01*
X191899D01*
X192289Y701909D01*
X193293Y700171D01*
X194711Y698753D01*
X196449Y697749D01*
X198387Y697230D01*
X200393D01*
X202331Y697749D01*
X204069Y698753D01*
X205354Y700037D01*
X205921Y699953D01*
X206624Y699599D01*
Y690822D01*
X201413Y685612D01*
X201190Y685656D01*
X187870D01*
Y687500D01*
X155330D01*
Y677960D01*
X187870D01*
Y679804D01*
X199004D01*
Y610812D01*
X191828Y603636D01*
X175260D01*
X174140Y603414D01*
X173191Y602779D01*
X166048Y595637D01*
X165414Y594687D01*
X165191Y593568D01*
Y589681D01*
X159319D01*
Y568559D01*
X165191D01*
Y562132D01*
X165414Y561013D01*
X166048Y560063D01*
X171921Y554191D01*
X172870Y553557D01*
X173990Y553334D01*
X312420D01*
X313540Y553557D01*
X314489Y554191D01*
X332497Y572199D01*
X333030Y571892D01*
X335349Y571270D01*
X337751D01*
X340070Y571892D01*
X340603Y572199D01*
X343650Y569151D01*
X344599Y568517D01*
X345719Y568294D01*
X350857D01*
X354857Y564295D01*
X354849Y564281D01*
X354330Y562343D01*
Y560337D01*
X354849Y558399D01*
X355853Y556661D01*
X357271Y555243D01*
X359009Y554239D01*
X360947Y553720D01*
X362953D01*
X364891Y554239D01*
X366629Y555243D01*
X368047Y556661D01*
X369051Y558399D01*
X369570Y560337D01*
Y562343D01*
X369051Y564281D01*
X368047Y566019D01*
X366629Y567438D01*
X364891Y568441D01*
X362953Y568960D01*
X360947D01*
X359009Y568441D01*
X358995Y568433D01*
X354138Y573290D01*
X353189Y573924D01*
X352069Y574147D01*
X346931D01*
X344741Y576337D01*
X345048Y576870D01*
X345670Y579189D01*
Y581591D01*
X345431Y582483D01*
X348969Y586021D01*
X352727D01*
X353847Y586244D01*
X354796Y586878D01*
X362749Y594831D01*
X363383Y595780D01*
X363606Y596900D01*
Y637468D01*
X364876Y637635D01*
X365009Y637139D01*
X366012Y635401D01*
X367431Y633983D01*
X369169Y632979D01*
X371107Y632460D01*
X373113D01*
X375051Y632979D01*
X376789Y633983D01*
X378208Y635401D01*
X379211Y637139D01*
X379215Y637154D01*
X394999D01*
X395525Y635884D01*
X368771Y609129D01*
X368136Y608180D01*
X367914Y607060D01*
Y570230D01*
X368136Y569110D01*
X368771Y568161D01*
X382741Y554191D01*
X383690Y553557D01*
X384810Y553334D01*
X659130D01*
X660250Y553557D01*
X661199Y554191D01*
X677709Y570701D01*
X678344Y571650D01*
X678566Y572770D01*
Y642678D01*
X693362Y657474D01*
X709315D01*
X709821Y655586D01*
X711272Y653074D01*
X713324Y651022D01*
X715836Y649571D01*
X718639Y648820D01*
X721541D01*
X724344Y649571D01*
X726856Y651022D01*
X728908Y653074D01*
X730359Y655586D01*
X731110Y658389D01*
Y661291D01*
X730359Y664093D01*
X728908Y666606D01*
X726856Y668658D01*
X724344Y670109D01*
X721541Y670860D01*
X718639D01*
X715836Y670109D01*
X713324Y668658D01*
X711272Y666606D01*
X709821Y664093D01*
X709615Y663326D01*
X692150D01*
X691030Y663103D01*
X690081Y662469D01*
X673571Y645959D01*
X672936Y645010D01*
X672714Y643890D01*
Y573982D01*
X657918Y559186D01*
X386022D01*
X373766Y571442D01*
Y605848D01*
X399992Y632074D01*
X483912D01*
X485032Y632296D01*
X485982Y632931D01*
X494443Y641393D01*
X495744D01*
X496027Y641449D01*
X507971D01*
Y661571D01*
X503349D01*
Y698599D01*
X506744D01*
Y718721D01*
X502121D01*
Y721503D01*
X516832Y736214D01*
X539750D01*
X540870Y736436D01*
X541819Y737071D01*
X544402Y739653D01*
X545036Y740603D01*
X545259Y741722D01*
Y749399D01*
X549881D01*
Y763856D01*
X549937Y764139D01*
Y771859D01*
X553819Y775741D01*
X554454Y776690D01*
X554676Y777810D01*
Y787040D01*
X554828Y787141D01*
X556219Y787108D01*
X556824Y786482D01*
Y671992D01*
X548772Y663941D01*
X547057Y664400D01*
X545143D01*
X543294Y663905D01*
X541636Y662947D01*
X540283Y661594D01*
X539325Y659936D01*
X538830Y658087D01*
Y656173D01*
X539290Y654458D01*
X494023Y609192D01*
X493389Y608242D01*
X493166Y607122D01*
Y604921D01*
X487294D01*
Y583799D01*
X504891D01*
Y604921D01*
X499697D01*
X499299Y606191D01*
X543428Y650320D01*
X545143Y649860D01*
X547057D01*
X548906Y650355D01*
X550564Y651313D01*
X551917Y652666D01*
X552875Y654324D01*
X553370Y656173D01*
Y658087D01*
X552910Y659802D01*
X561819Y668711D01*
X562453Y669660D01*
X562676Y670780D01*
Y787040D01*
X562828Y787141D01*
X564219Y787108D01*
X564824Y786482D01*
Y631192D01*
X549232Y615600D01*
X538830D01*
Y605198D01*
X506788Y573156D01*
X409345D01*
X395834Y586667D01*
Y603651D01*
X378237D01*
Y582529D01*
X391696D01*
X406064Y568161D01*
X407013Y567527D01*
X408133Y567304D01*
X508000D01*
X509120Y567527D01*
X510069Y568161D01*
X542968Y601060D01*
X553370D01*
Y611462D01*
X569819Y627911D01*
X570453Y628860D01*
X570676Y629980D01*
Y787040D01*
X570829Y787141D01*
X571772Y788554D01*
X572104Y790220D01*
Y803720D01*
X571772Y805386D01*
X570829Y806798D01*
X569416Y807742D01*
X567750Y808074D01*
X566084Y807742D01*
X564672Y806798D01*
X564385Y806370D01*
X563115D01*
X562828Y806798D01*
X561416Y807742D01*
X559750Y808074D01*
X558084Y807742D01*
X556671Y806798D01*
X555281Y806832D01*
X554676Y807458D01*
Y845178D01*
X562139Y852641D01*
X562774Y853590D01*
X562996Y854710D01*
Y872393D01*
X563115Y872570D01*
X564385D01*
X564672Y872141D01*
X566084Y871198D01*
X567750Y870866D01*
X569416Y871198D01*
X570829Y872141D01*
X571772Y873554D01*
X572104Y875220D01*
Y879044D01*
X605671D01*
X606791Y879267D01*
X607740Y879901D01*
X612007Y884167D01*
X613180Y883681D01*
Y873858D01*
X609718Y870396D01*
X592180D01*
X592079Y870548D01*
X590666Y871492D01*
X589000Y871824D01*
X575500D01*
X573834Y871492D01*
X572421Y870548D01*
X571478Y869136D01*
X571146Y867470D01*
X571478Y865804D01*
X572421Y864391D01*
X572850Y864105D01*
Y862835D01*
X572421Y862549D01*
X571478Y861136D01*
X571146Y859470D01*
X571478Y857804D01*
X572421Y856392D01*
X572850Y856105D01*
Y854835D01*
X572421Y854548D01*
X571478Y853136D01*
X571146Y851470D01*
X571478Y849804D01*
X572421Y848391D01*
X572850Y848105D01*
Y846835D01*
X572421Y846548D01*
X571478Y845136D01*
X571146Y843470D01*
X571478Y841804D01*
X572421Y840391D01*
X572850Y840105D01*
Y838835D01*
X572421Y838549D01*
X571478Y837136D01*
X571146Y835470D01*
X571478Y833804D01*
X572421Y832392D01*
X572850Y832105D01*
Y830835D01*
X572421Y830548D01*
X571478Y829136D01*
X571146Y827470D01*
X571478Y825804D01*
X572421Y824391D01*
X572850Y824105D01*
Y822835D01*
X572421Y822549D01*
X571478Y821136D01*
X571146Y819470D01*
X571478Y817804D01*
X572421Y816392D01*
X572850Y816105D01*
Y814835D01*
X572421Y814548D01*
X571478Y813136D01*
X571146Y811470D01*
X571478Y809804D01*
X572421Y808391D01*
X573834Y807448D01*
X575500Y807116D01*
X589000D01*
X590666Y807448D01*
X592079Y808391D01*
X593022Y809804D01*
X593354Y811470D01*
X593022Y813136D01*
X592079Y814548D01*
X591650Y814835D01*
Y816105D01*
X592079Y816392D01*
X593022Y817804D01*
X593354Y819470D01*
X593022Y821136D01*
X592079Y822549D01*
X591650Y822835D01*
Y824105D01*
X592079Y824391D01*
X593022Y825804D01*
X593354Y827470D01*
X593022Y829136D01*
X592079Y830548D01*
X592112Y831939D01*
X592738Y832544D01*
X595878D01*
X596514Y831908D01*
Y797502D01*
X594966Y795954D01*
X594042D01*
X592689Y797308D01*
X590951Y798311D01*
X589013Y798830D01*
X587007D01*
X585069Y798311D01*
X583331Y797308D01*
X581912Y795889D01*
X580909Y794151D01*
X580390Y792213D01*
Y790207D01*
X580909Y788269D01*
X581912Y786531D01*
X583331Y785113D01*
X585069Y784109D01*
X587007Y783590D01*
X589013D01*
X590951Y784109D01*
X592689Y785113D01*
X594108Y786531D01*
X595111Y788269D01*
X595602Y790101D01*
X596178D01*
X597298Y790324D01*
X598247Y790959D01*
X601509Y794221D01*
X601594Y794348D01*
X602864Y793962D01*
Y788670D01*
X603087Y787550D01*
X603721Y786601D01*
X611341Y778981D01*
X612290Y778346D01*
X613410Y778124D01*
X709930D01*
X711050Y778346D01*
X711999Y778981D01*
X736431Y803412D01*
X736928Y803125D01*
X739222Y802510D01*
X741598D01*
X743892Y803125D01*
X745948Y804312D01*
X747628Y805992D01*
X748815Y808048D01*
X749430Y810342D01*
Y812718D01*
X748815Y815012D01*
X747628Y817068D01*
X745948Y818748D01*
X743892Y819935D01*
X741598Y820550D01*
X739222D01*
X736928Y819935D01*
X734872Y818748D01*
X733192Y817068D01*
X732005Y815012D01*
X731390Y812718D01*
Y810342D01*
X732005Y808048D01*
X732292Y807551D01*
X708718Y783976D01*
X614622D01*
X608716Y789882D01*
Y836930D01*
X608493Y838050D01*
X607859Y838999D01*
X601319Y845539D01*
X600370Y846173D01*
X599250Y846396D01*
X592180D01*
X592079Y846548D01*
X591650Y846835D01*
Y848105D01*
X592079Y848391D01*
X593022Y849804D01*
X593354Y851470D01*
X593022Y853136D01*
X592079Y854548D01*
X592112Y855939D01*
X592738Y856544D01*
X622689D01*
X623809Y856767D01*
X624758Y857401D01*
X636068Y868711D01*
X636702Y869660D01*
X636925Y870780D01*
Y889326D01*
X643647Y896049D01*
X644180Y895742D01*
X646499Y895120D01*
X648901D01*
X651220Y895742D01*
X653300Y896942D01*
X654998Y898640D01*
X656199Y900720D01*
X656204Y900740D01*
X657474Y900572D01*
Y892752D01*
X651753Y887031D01*
X651220Y887338D01*
X648901Y887960D01*
X646499D01*
X644180Y887338D01*
X642100Y886138D01*
X640402Y884440D01*
X639202Y882360D01*
X638580Y880041D01*
Y877639D01*
X639202Y875320D01*
X640402Y873240D01*
X642100Y871542D01*
X644180Y870341D01*
X644774Y870182D01*
Y855362D01*
X623682Y834270D01*
X610280D01*
Y816730D01*
X627820D01*
Y830132D01*
X649769Y852081D01*
X650404Y853030D01*
X650626Y854150D01*
Y870182D01*
X651220Y870341D01*
X653300Y871542D01*
X654998Y873240D01*
X656199Y875320D01*
X656820Y877639D01*
Y880041D01*
X656199Y882360D01*
X655891Y882893D01*
X662469Y889471D01*
X663103Y890420D01*
X663326Y891540D01*
Y900572D01*
X664596Y900740D01*
X664602Y900720D01*
X665802Y898640D01*
X667500Y896942D01*
X669580Y895742D01*
X671899Y895120D01*
X672465D01*
Y904240D01*
Y913360D01*
X671899D01*
X669580Y912738D01*
X667500Y911538D01*
X665802Y909840D01*
X664602Y907760D01*
X664596Y907740D01*
X663326Y907908D01*
Y910590D01*
X663103Y911710D01*
X662469Y912659D01*
X659748Y915380D01*
X660234Y916554D01*
X684588D01*
X694304Y906838D01*
Y890212D01*
X685858Y881766D01*
X681758D01*
X681599Y882360D01*
X680398Y884440D01*
X678700Y886138D01*
X676620Y887338D01*
X674301Y887960D01*
X671899D01*
X669580Y887338D01*
X667500Y886138D01*
X665802Y884440D01*
X664602Y882360D01*
X663980Y880041D01*
Y877639D01*
X664602Y875320D01*
X665802Y873240D01*
X667500Y871542D01*
X669580Y870341D01*
X671899Y869720D01*
X674301D01*
X676620Y870341D01*
X678700Y871542D01*
X680398Y873240D01*
X681599Y875320D01*
X681758Y875914D01*
X687070D01*
X688190Y876136D01*
X689139Y876771D01*
X699299Y886931D01*
X699933Y887880D01*
X700156Y889000D01*
Y908050D01*
X699933Y909170D01*
X699299Y910119D01*
X687869Y921549D01*
X686920Y922184D01*
X685800Y922406D01*
D02*
G37*
G36*
X757870Y897255D02*
X737235D01*
Y876620D01*
X738695D01*
X742804Y877437D01*
X746675Y879041D01*
X750159Y881368D01*
X753121Y884331D01*
X755449Y887815D01*
X757053Y891686D01*
X757870Y895795D01*
Y897255D01*
D02*
G37*
G36*
X735965D02*
X715330D01*
Y895795D01*
X716147Y891686D01*
X717751Y887815D01*
X720079Y884331D01*
X723041Y881368D01*
X726525Y879041D01*
X730396Y877437D01*
X734505Y876620D01*
X735965D01*
Y897255D01*
D02*
G37*
G36*
X117790D02*
X97155D01*
Y876620D01*
X98615D01*
X102724Y877437D01*
X106595Y879041D01*
X110079Y881368D01*
X113041Y884331D01*
X115369Y887815D01*
X116973Y891686D01*
X117790Y895795D01*
Y897255D01*
D02*
G37*
G36*
X95885D02*
X75250D01*
Y895795D01*
X76067Y891686D01*
X77671Y887815D01*
X79998Y884331D01*
X82961Y881368D01*
X86445Y879041D01*
X90316Y877437D01*
X94425Y876620D01*
X95885D01*
Y897255D01*
D02*
G37*
G36*
X331356Y872391D02*
X316259D01*
Y865256D01*
X303130D01*
Y871100D01*
X285590D01*
Y853560D01*
X303130D01*
Y859404D01*
X316259D01*
Y852269D01*
X331356D01*
Y872391D01*
D02*
G37*
G36*
X432956D02*
X426043D01*
Y862965D01*
X432956D01*
Y872391D01*
D02*
G37*
G36*
X424773D02*
X417859D01*
Y862965D01*
X424773D01*
Y872391D01*
D02*
G37*
G36*
X239763Y877570D02*
X237757D01*
X235819Y877051D01*
X234081Y876048D01*
X232663Y874629D01*
X231659Y872891D01*
X231140Y870953D01*
Y868947D01*
X231659Y867009D01*
X232663Y865271D01*
X234081Y863852D01*
X235819Y862849D01*
X237757Y862330D01*
X239763D01*
X241701Y862849D01*
X243439Y863852D01*
X244858Y865271D01*
X245861Y867009D01*
X245865Y867024D01*
X250528D01*
X250590Y866962D01*
Y853560D01*
X268130D01*
Y871100D01*
X254728D01*
X253809Y872019D01*
X252860Y872654D01*
X251740Y872876D01*
X245865D01*
X245861Y872891D01*
X244858Y874629D01*
X243439Y876048D01*
X241701Y877051D01*
X239763Y877570D01*
D02*
G37*
G36*
X432956Y861695D02*
X426043D01*
Y852269D01*
X432956D01*
Y861695D01*
D02*
G37*
G36*
X424773D02*
X417859D01*
Y852269D01*
X424773D01*
Y861695D01*
D02*
G37*
G36*
X138177Y859720D02*
X137625D01*
Y851335D01*
X146010D01*
Y851888D01*
X145395Y854182D01*
X144208Y856238D01*
X142528Y857918D01*
X140472Y859105D01*
X138177Y859720D01*
D02*
G37*
G36*
X136355D02*
X135802D01*
X133508Y859105D01*
X131452Y857918D01*
X129772Y856238D01*
X128585Y854182D01*
X127970Y851888D01*
Y851335D01*
X136355D01*
Y859720D01*
D02*
G37*
G36*
X146010Y850065D02*
X137625D01*
Y841680D01*
X138177D01*
X140472Y842295D01*
X142528Y843482D01*
X144208Y845162D01*
X145395Y847218D01*
X146010Y849512D01*
Y850065D01*
D02*
G37*
G36*
X136355D02*
X127970D01*
Y849512D01*
X128585Y847218D01*
X129772Y845162D01*
X131452Y843482D01*
X133508Y842295D01*
X135802Y841680D01*
X136355D01*
Y850065D01*
D02*
G37*
G36*
X203129Y846991D02*
X188031D01*
Y839856D01*
X177800D01*
X176680Y839633D01*
X175731Y838999D01*
X165358Y828626D01*
X146010D01*
Y834720D01*
X127970D01*
Y816680D01*
X146010D01*
Y822774D01*
X166570D01*
X167690Y822997D01*
X168639Y823631D01*
X179012Y834004D01*
X188031D01*
Y826869D01*
X203129D01*
Y846991D01*
D02*
G37*
G36*
X749430Y845550D02*
X731390D01*
Y827510D01*
X749430D01*
Y845550D01*
D02*
G37*
G36*
X404261Y825886D02*
X394335D01*
Y817723D01*
X404261D01*
Y825886D01*
D02*
G37*
G36*
X393065D02*
X383139D01*
Y817723D01*
X393065D01*
Y825886D01*
D02*
G37*
G36*
X331356Y819051D02*
X316259D01*
Y811916D01*
X303130D01*
Y817760D01*
X285590D01*
Y800220D01*
X303130D01*
Y806064D01*
X316259D01*
Y798929D01*
X331356D01*
Y819051D01*
D02*
G37*
G36*
X432956Y820321D02*
X426043D01*
Y810895D01*
X432956D01*
Y820321D01*
D02*
G37*
G36*
X424773D02*
X417859D01*
Y810895D01*
X424773D01*
Y820321D01*
D02*
G37*
G36*
X404261Y816453D02*
X394335D01*
Y808289D01*
X404261D01*
Y816453D01*
D02*
G37*
G36*
X393065D02*
X383139D01*
Y808289D01*
X393065D01*
Y816453D01*
D02*
G37*
G36*
X432956Y809625D02*
X426043D01*
Y800199D01*
X432956D01*
Y809625D01*
D02*
G37*
G36*
X424773D02*
X417859D01*
Y800199D01*
X424773D01*
Y809625D01*
D02*
G37*
G36*
X632304Y807621D02*
X625390D01*
Y798195D01*
X632304D01*
Y807621D01*
D02*
G37*
G36*
X624120D02*
X617206D01*
Y798195D01*
X624120D01*
Y807621D01*
D02*
G37*
G36*
X662820Y834270D02*
X645280D01*
Y816730D01*
X651124D01*
Y807621D01*
X645231D01*
Y787499D01*
X660329D01*
Y807621D01*
X656976D01*
Y816730D01*
X662820D01*
Y834270D01*
D02*
G37*
G36*
X632304Y796925D02*
X625390D01*
Y787499D01*
X632304D01*
Y796925D01*
D02*
G37*
G36*
X624120D02*
X617206D01*
Y787499D01*
X624120D01*
Y796925D01*
D02*
G37*
G36*
X390276Y786531D02*
X382113D01*
Y776605D01*
X390276D01*
Y786531D01*
D02*
G37*
G36*
X380843D02*
X372679D01*
Y776605D01*
X380843D01*
Y786531D01*
D02*
G37*
G36*
X139070Y787750D02*
X108235D01*
Y770115D01*
X139070D01*
Y787750D01*
D02*
G37*
G36*
X106965D02*
X76130D01*
Y770115D01*
X106965D01*
Y787750D01*
D02*
G37*
G36*
X669800Y771950D02*
X651760D01*
Y767106D01*
X590300D01*
Y771950D01*
X572260D01*
Y756410D01*
X590300D01*
Y761254D01*
X604938D01*
X620644Y745548D01*
Y692092D01*
X613825Y685273D01*
X613811Y685281D01*
X611873Y685800D01*
X609867D01*
X607929Y685281D01*
X606191Y684277D01*
X604772Y682859D01*
X603769Y681121D01*
X603250Y679183D01*
Y677177D01*
X603769Y675239D01*
X604772Y673501D01*
X606191Y672083D01*
X607929Y671079D01*
X609867Y670560D01*
X611873D01*
X613811Y671079D01*
X615549Y672083D01*
X616968Y673501D01*
X617971Y675239D01*
X618490Y677177D01*
Y679183D01*
X617971Y681121D01*
X617963Y681135D01*
X625639Y688811D01*
X626273Y689760D01*
X626496Y690880D01*
Y746760D01*
X626273Y747880D01*
X625639Y748829D01*
X614388Y760080D01*
X614874Y761254D01*
X651760D01*
Y756410D01*
X669800D01*
Y771950D01*
D02*
G37*
G36*
X393222Y796676D02*
X339090D01*
X337970Y796453D01*
X337021Y795819D01*
X326901Y785699D01*
X326267Y784750D01*
X326044Y783630D01*
Y753627D01*
X325624Y753335D01*
X324774Y753064D01*
X323843Y753686D01*
X323105Y753833D01*
Y743370D01*
Y732907D01*
X323843Y733054D01*
X325008Y733832D01*
X325085Y733948D01*
X326355D01*
X326432Y733832D01*
X327597Y733054D01*
X328970Y732781D01*
X330343Y733054D01*
X331508Y733832D01*
X331585Y733948D01*
X332855D01*
X332932Y733832D01*
X334097Y733054D01*
X335470Y732781D01*
X336843Y733054D01*
X338008Y733832D01*
X338085Y733948D01*
X339355D01*
X339432Y733832D01*
X340597Y733054D01*
X341970Y732781D01*
X343343Y733054D01*
X344508Y733832D01*
X345286Y734997D01*
X345559Y736370D01*
Y750370D01*
X345286Y751743D01*
X344647Y752699D01*
Y757649D01*
X357295Y770296D01*
X359209D01*
X361147Y770816D01*
X362885Y771819D01*
X364304Y773237D01*
X365307Y774975D01*
X365826Y776913D01*
Y778919D01*
X365307Y780857D01*
X364304Y782595D01*
X362885Y784014D01*
X361147Y785017D01*
X359209Y785536D01*
X357203D01*
X355265Y785017D01*
X354330Y784477D01*
X354059Y784502D01*
X352917Y785128D01*
X352541Y786531D01*
X351538Y788269D01*
X350253Y789554D01*
X350337Y790121D01*
X350691Y790824D01*
X392010D01*
X401242Y781592D01*
X402192Y780958D01*
X402204Y780955D01*
Y765409D01*
X419801D01*
Y786531D01*
X405357D01*
X405074Y786587D01*
X404523D01*
X395292Y795819D01*
X394342Y796453D01*
X393222Y796676D01*
D02*
G37*
G36*
X390276Y775335D02*
X382113D01*
Y765409D01*
X390276D01*
Y775335D01*
D02*
G37*
G36*
X380843D02*
X372679D01*
Y765409D01*
X380843D01*
Y775335D01*
D02*
G37*
G36*
X736333Y779780D02*
X734327D01*
X732389Y779261D01*
X730651Y778258D01*
X729232Y776839D01*
X728229Y775101D01*
X727710Y773163D01*
Y771249D01*
X718632Y762170D01*
X717997Y761221D01*
X717775Y760101D01*
Y755008D01*
X715836Y754489D01*
X713324Y753038D01*
X711272Y750986D01*
X709821Y748474D01*
X709070Y745671D01*
Y742769D01*
X709821Y739966D01*
X711272Y737454D01*
X713324Y735402D01*
X715836Y733951D01*
X718639Y733200D01*
X721541D01*
X724344Y733951D01*
X726856Y735402D01*
X728908Y737454D01*
X730359Y739966D01*
X731110Y742769D01*
Y745671D01*
X730359Y748474D01*
X728908Y750986D01*
X726856Y753038D01*
X724344Y754489D01*
X723627Y754681D01*
Y758889D01*
X730746Y766008D01*
X732389Y765059D01*
X734327Y764540D01*
X736333D01*
X738271Y765059D01*
X740009Y766062D01*
X741428Y767481D01*
X742431Y769219D01*
X742950Y771157D01*
Y773163D01*
X742431Y775101D01*
X741428Y776839D01*
X740009Y778258D01*
X738271Y779261D01*
X736333Y779780D01*
D02*
G37*
G36*
X263970Y753959D02*
X262597Y753686D01*
X261432Y752908D01*
X261355Y752792D01*
X260085D01*
X260008Y752908D01*
X258843Y753686D01*
X257470Y753959D01*
X256097Y753686D01*
X254932Y752908D01*
X254154Y751743D01*
X253881Y750370D01*
Y736370D01*
X254154Y734997D01*
X254932Y733832D01*
X256097Y733054D01*
X257470Y732781D01*
X258843Y733054D01*
X260008Y733832D01*
X260085Y733948D01*
X261355D01*
X261432Y733832D01*
X262597Y733054D01*
X263970Y732781D01*
X265343Y733054D01*
X266508Y733832D01*
X266585Y733948D01*
X267855D01*
X267932Y733832D01*
X269097Y733054D01*
X269835Y732907D01*
Y743370D01*
Y753833D01*
X269097Y753686D01*
X267932Y752908D01*
X267855Y752792D01*
X266585D01*
X266508Y752908D01*
X265343Y753686D01*
X263970Y753959D01*
D02*
G37*
G36*
X139070Y768845D02*
X108235D01*
Y751210D01*
X139070D01*
Y768845D01*
D02*
G37*
G36*
X106965D02*
X76130D01*
Y751210D01*
X106965D01*
Y768845D01*
D02*
G37*
G36*
X271105Y753833D02*
Y743370D01*
Y732907D01*
X271843Y733054D01*
X273008Y733832D01*
X273085Y733948D01*
X274355D01*
X274432Y733832D01*
X275597Y733054D01*
X276335Y732907D01*
Y743370D01*
Y753833D01*
X275597Y753686D01*
X274432Y752908D01*
X274355Y752792D01*
X273085D01*
X273008Y752908D01*
X271843Y753686D01*
X271105Y753833D01*
D02*
G37*
G36*
X102785Y737980D02*
X100415D01*
X98126Y737367D01*
X96074Y736182D01*
X94398Y734506D01*
X93213Y732454D01*
X92600Y730165D01*
Y727795D01*
X93213Y725506D01*
X94398Y723454D01*
X96074Y721778D01*
X98126Y720593D01*
X100415Y719980D01*
X102785D01*
X105074Y720593D01*
X107126Y721778D01*
X108802Y723454D01*
X109987Y725506D01*
X110600Y727795D01*
Y730165D01*
X109987Y732454D01*
X108802Y734506D01*
X107126Y736182D01*
X105074Y737367D01*
X102785Y737980D01*
D02*
G37*
G36*
X590300Y726950D02*
X581915D01*
Y719815D01*
X590300D01*
Y726950D01*
D02*
G37*
G36*
X669800D02*
X661415D01*
Y719815D01*
X669800D01*
Y726950D01*
D02*
G37*
G36*
X660145D02*
X651760D01*
Y719815D01*
X660145D01*
Y726950D01*
D02*
G37*
G36*
X580645D02*
X572260D01*
Y719815D01*
X580645D01*
Y726950D01*
D02*
G37*
G36*
X669800Y718545D02*
X661415D01*
Y711410D01*
X669800D01*
Y718545D01*
D02*
G37*
G36*
X660145D02*
X651760D01*
Y711410D01*
X660145D01*
Y718545D01*
D02*
G37*
G36*
X590300D02*
X581915D01*
Y711410D01*
X590300D01*
Y718545D01*
D02*
G37*
G36*
X580645D02*
X572260D01*
Y711410D01*
X580645D01*
Y718545D01*
D02*
G37*
G36*
X187870Y700000D02*
X172235D01*
Y695865D01*
X187870D01*
Y700000D01*
D02*
G37*
G36*
X170965D02*
X155330D01*
Y695865D01*
X170965D01*
Y700000D01*
D02*
G37*
G36*
X724965Y720360D02*
X715215D01*
X712817Y719883D01*
X710785Y718525D01*
X709426Y716493D01*
X708950Y714095D01*
Y704345D01*
X709303Y702571D01*
X701808Y695076D01*
X667505D01*
X667501Y695091D01*
X666497Y696829D01*
X665079Y698248D01*
X663341Y699251D01*
X661403Y699770D01*
X659397D01*
X657459Y699251D01*
X655721Y698248D01*
X654303Y696829D01*
X653299Y695091D01*
X652780Y693153D01*
Y691147D01*
X653299Y689209D01*
X654303Y687471D01*
X655721Y686052D01*
X657459Y685049D01*
X659397Y684530D01*
X661403D01*
X663341Y685049D01*
X665079Y686052D01*
X666497Y687471D01*
X667501Y689209D01*
X667505Y689224D01*
X703020D01*
X704140Y689446D01*
X705089Y690081D01*
X713441Y698432D01*
X715215Y698080D01*
X724965D01*
X727363Y698557D01*
X729395Y699915D01*
X730753Y701947D01*
X731230Y704345D01*
Y714095D01*
X730753Y716493D01*
X729395Y718525D01*
X727363Y719883D01*
X724965Y720360D01*
D02*
G37*
G36*
X187870Y694595D02*
X172235D01*
Y690460D01*
X187870D01*
Y694595D01*
D02*
G37*
G36*
X170965D02*
X155330D01*
Y690460D01*
X170965D01*
Y694595D01*
D02*
G37*
G36*
X236121Y731406D02*
X215999D01*
Y716309D01*
X223134D01*
Y696830D01*
X217290D01*
Y679290D01*
X234830D01*
Y696830D01*
X228986D01*
Y716309D01*
X236121D01*
Y731406D01*
D02*
G37*
G36*
X341970Y679459D02*
X340597Y679186D01*
X339432Y678408D01*
X339355Y678292D01*
X338085D01*
X338008Y678408D01*
X336843Y679186D01*
X335470Y679459D01*
X334097Y679186D01*
X332932Y678408D01*
X332855Y678292D01*
X331585D01*
X331508Y678408D01*
X330343Y679186D01*
X328970Y679459D01*
X327597Y679186D01*
X326432Y678408D01*
X326355Y678292D01*
X325085D01*
X325008Y678408D01*
X323843Y679186D01*
X323105Y679333D01*
Y668870D01*
Y658407D01*
X323843Y658554D01*
X325008Y659332D01*
X325085Y659448D01*
X326355D01*
X326432Y659332D01*
X327597Y658554D01*
X328970Y658281D01*
X330343Y658554D01*
X331508Y659332D01*
X331585Y659448D01*
X332855D01*
X332932Y659332D01*
X334097Y658554D01*
X335470Y658281D01*
X336843Y658554D01*
X338008Y659332D01*
X338085Y659448D01*
X339355D01*
X339432Y659332D01*
X340597Y658554D01*
X341970Y658281D01*
X343343Y658554D01*
X344508Y659332D01*
X345286Y660497D01*
X345559Y661870D01*
Y675870D01*
X345286Y677243D01*
X344508Y678408D01*
X343343Y679186D01*
X341970Y679459D01*
D02*
G37*
G36*
X315970D02*
X314597Y679186D01*
X313432Y678408D01*
X313355Y678292D01*
X312085D01*
X312008Y678408D01*
X310843Y679186D01*
X309470Y679459D01*
X308097Y679186D01*
X306932Y678408D01*
X306855Y678292D01*
X305585D01*
X305508Y678408D01*
X304343Y679186D01*
X302970Y679459D01*
X301597Y679186D01*
X300432Y678408D01*
X300355Y678292D01*
X299085D01*
X299008Y678408D01*
X297843Y679186D01*
X297105Y679333D01*
Y668870D01*
Y658407D01*
X297843Y658554D01*
X299008Y659332D01*
X299085Y659448D01*
X300355D01*
X300432Y659332D01*
X301597Y658554D01*
X302970Y658281D01*
X304343Y658554D01*
X305508Y659332D01*
X305585Y659448D01*
X306855D01*
X306932Y659332D01*
X308097Y658554D01*
X309470Y658281D01*
X310843Y658554D01*
X312008Y659332D01*
X312085Y659448D01*
X313355D01*
X313432Y659332D01*
X314597Y658554D01*
X315970Y658281D01*
X317343Y658554D01*
X318508Y659332D01*
X318585Y659448D01*
X319855D01*
X319932Y659332D01*
X321097Y658554D01*
X321835Y658407D01*
Y668870D01*
Y679333D01*
X321097Y679186D01*
X319932Y678408D01*
X319855Y678292D01*
X318585D01*
X318508Y678408D01*
X317343Y679186D01*
X315970Y679459D01*
D02*
G37*
G36*
X102785Y682980D02*
X100415D01*
X98126Y682367D01*
X96074Y681182D01*
X94398Y679506D01*
X93213Y677454D01*
X92600Y675165D01*
Y672795D01*
X93213Y670506D01*
X94398Y668454D01*
X96074Y666778D01*
X98126Y665593D01*
X100415Y664980D01*
X102785D01*
X105074Y665593D01*
X107126Y666778D01*
X108802Y668454D01*
X109987Y670506D01*
X110600Y672795D01*
Y675165D01*
X109987Y677454D01*
X108802Y679506D01*
X107126Y681182D01*
X105074Y682367D01*
X102785Y682980D01*
D02*
G37*
G36*
X234830Y661830D02*
X226695D01*
Y653695D01*
X234830D01*
Y661830D01*
D02*
G37*
G36*
X225425D02*
X217290D01*
Y653695D01*
X225425D01*
Y661830D01*
D02*
G37*
G36*
X234830Y652425D02*
X226695D01*
Y644290D01*
X234830D01*
Y652425D01*
D02*
G37*
G36*
X225425D02*
X217290D01*
Y644290D01*
X225425D01*
Y652425D01*
D02*
G37*
G36*
X139070Y651750D02*
X108235D01*
Y634115D01*
X139070D01*
Y651750D01*
D02*
G37*
G36*
X106965D02*
X76130D01*
Y634115D01*
X106965D01*
Y651750D01*
D02*
G37*
G36*
X724965Y635980D02*
X720725D01*
Y625475D01*
X731230D01*
Y629715D01*
X730753Y632113D01*
X729395Y634145D01*
X727363Y635504D01*
X724965Y635980D01*
D02*
G37*
G36*
X719455D02*
X715215D01*
X712817Y635504D01*
X710785Y634145D01*
X709426Y632113D01*
X708950Y629715D01*
Y625475D01*
X719455D01*
Y635980D01*
D02*
G37*
G36*
X139070Y632845D02*
X108235D01*
Y615210D01*
X139070D01*
Y632845D01*
D02*
G37*
G36*
X106965D02*
X76130D01*
Y615210D01*
X106965D01*
Y632845D01*
D02*
G37*
G36*
X731230Y624205D02*
X720725D01*
Y613700D01*
X724965D01*
X727363Y614176D01*
X729395Y615535D01*
X730753Y617567D01*
X731230Y619965D01*
Y624205D01*
D02*
G37*
G36*
X719455D02*
X708950D01*
Y619965D01*
X709426Y617567D01*
X710785Y615535D01*
X712817Y614176D01*
X715215Y613700D01*
X719455D01*
Y624205D01*
D02*
G37*
G36*
X643620Y617350D02*
X625580D01*
Y599310D01*
X643620D01*
Y617350D01*
D02*
G37*
G36*
X475366Y604921D02*
X467203D01*
Y594995D01*
X475366D01*
Y604921D01*
D02*
G37*
G36*
X465933D02*
X457769D01*
Y594995D01*
X465933D01*
Y604921D01*
D02*
G37*
G36*
X425359Y603651D02*
X417195D01*
Y593725D01*
X425359D01*
Y603651D01*
D02*
G37*
G36*
X415925D02*
X407761D01*
Y593725D01*
X415925D01*
Y603651D01*
D02*
G37*
G36*
X475366Y593725D02*
X467203D01*
Y583799D01*
X475366D01*
Y593725D01*
D02*
G37*
G36*
X465933D02*
X457769D01*
Y583799D01*
X465933D01*
Y593725D01*
D02*
G37*
G36*
X425359Y592455D02*
X417195D01*
Y582529D01*
X425359D01*
Y592455D01*
D02*
G37*
G36*
X415925D02*
X407761D01*
Y582529D01*
X415925D01*
Y592455D01*
D02*
G37*
G36*
X312351Y589510D02*
X311785D01*
Y581025D01*
X320270D01*
Y581591D01*
X319648Y583910D01*
X318448Y585990D01*
X316750Y587688D01*
X314670Y588889D01*
X312351Y589510D01*
D02*
G37*
G36*
X286951D02*
X286385D01*
Y581025D01*
X294870D01*
Y581591D01*
X294249Y583910D01*
X293048Y585990D01*
X291350Y587688D01*
X289270Y588889D01*
X286951Y589510D01*
D02*
G37*
G36*
X310515D02*
X309949D01*
X307630Y588889D01*
X305550Y587688D01*
X303852Y585990D01*
X302652Y583910D01*
X302030Y581591D01*
Y581025D01*
X310515D01*
Y589510D01*
D02*
G37*
G36*
X285115D02*
X284549D01*
X282230Y588889D01*
X280150Y587688D01*
X278452Y585990D01*
X277251Y583910D01*
X276630Y581591D01*
Y581025D01*
X285115D01*
Y589510D01*
D02*
G37*
G36*
X260083Y585470D02*
X258077D01*
X256139Y584951D01*
X254401Y583947D01*
X252983Y582529D01*
X251979Y580791D01*
X251975Y580776D01*
X244241D01*
Y584586D01*
X223119D01*
Y566989D01*
X244241D01*
Y574924D01*
X251975D01*
X251979Y574909D01*
X252983Y573171D01*
X254401Y571753D01*
X256139Y570749D01*
X258077Y570230D01*
X260083D01*
X262021Y570749D01*
X263759Y571753D01*
X265177Y573171D01*
X266181Y574909D01*
X266700Y576847D01*
Y578853D01*
X266181Y580791D01*
X265177Y582529D01*
X263759Y583947D01*
X262021Y584951D01*
X260083Y585470D01*
D02*
G37*
G36*
X206441Y589681D02*
X198277D01*
Y579755D01*
X206441D01*
Y589681D01*
D02*
G37*
G36*
X197007D02*
X188844D01*
Y579755D01*
X197007D01*
Y589681D01*
D02*
G37*
G36*
X737425Y599120D02*
X735965D01*
Y578485D01*
X756600D01*
Y579945D01*
X755783Y584054D01*
X754179Y587925D01*
X751852Y591409D01*
X748889Y594371D01*
X745405Y596699D01*
X741534Y598303D01*
X737425Y599120D01*
D02*
G37*
G36*
X734695D02*
X733235D01*
X729126Y598303D01*
X725255Y596699D01*
X721771Y594371D01*
X718809Y591409D01*
X716481Y587925D01*
X714877Y584054D01*
X714060Y579945D01*
Y578485D01*
X734695D01*
Y599120D01*
D02*
G37*
G36*
X98615Y597850D02*
X97155D01*
Y577215D01*
X117790D01*
Y578675D01*
X116973Y582784D01*
X115369Y586655D01*
X113041Y590139D01*
X110079Y593102D01*
X106595Y595429D01*
X102724Y597033D01*
X98615Y597850D01*
D02*
G37*
G36*
X95885D02*
X94425D01*
X90316Y597033D01*
X86445Y595429D01*
X82961Y593102D01*
X79998Y590139D01*
X77671Y586655D01*
X76067Y582784D01*
X75250Y578675D01*
Y577215D01*
X95885D01*
Y597850D01*
D02*
G37*
G36*
X320270Y579755D02*
X311785D01*
Y571270D01*
X312351D01*
X314670Y571892D01*
X316750Y573092D01*
X318448Y574790D01*
X319648Y576870D01*
X320270Y579189D01*
Y579755D01*
D02*
G37*
G36*
X310515D02*
X302030D01*
Y579189D01*
X302652Y576870D01*
X303852Y574790D01*
X305550Y573092D01*
X307630Y571892D01*
X309949Y571270D01*
X310515D01*
Y579755D01*
D02*
G37*
G36*
X294870D02*
X286385D01*
Y571270D01*
X286951D01*
X289270Y571892D01*
X291350Y573092D01*
X293048Y574790D01*
X294249Y576870D01*
X294870Y579189D01*
Y579755D01*
D02*
G37*
G36*
X285115D02*
X276630D01*
Y579189D01*
X277251Y576870D01*
X278452Y574790D01*
X280150Y573092D01*
X282230Y571892D01*
X284549Y571270D01*
X285115D01*
Y579755D01*
D02*
G37*
G36*
X206441Y578485D02*
X198277D01*
Y568559D01*
X206441D01*
Y578485D01*
D02*
G37*
G36*
X197007D02*
X188844D01*
Y568559D01*
X197007D01*
Y578485D01*
D02*
G37*
G36*
X610788Y617350D02*
X608413D01*
X606118Y616735D01*
X604062Y615548D01*
X602382Y613868D01*
X601195Y611812D01*
X600580Y609518D01*
Y607142D01*
X601195Y604848D01*
X602382Y602792D01*
X604062Y601112D01*
X606118Y599925D01*
X606674Y599776D01*
Y580390D01*
X606897Y579270D01*
X607531Y578321D01*
X618961Y566891D01*
X619910Y566256D01*
X621030Y566034D01*
X632975D01*
X632979Y566019D01*
X633983Y564281D01*
X635401Y562863D01*
X637139Y561859D01*
X639077Y561340D01*
X641083D01*
X643021Y561859D01*
X644759Y562863D01*
X646178Y564281D01*
X647181Y566019D01*
X647700Y567957D01*
Y569963D01*
X647181Y571901D01*
X646178Y573639D01*
X644759Y575057D01*
X643021Y576061D01*
X641083Y576580D01*
X639077D01*
X637139Y576061D01*
X635401Y575057D01*
X633983Y573639D01*
X632979Y571901D01*
X632975Y571886D01*
X622242D01*
X612526Y581602D01*
Y599776D01*
X613082Y599925D01*
X615138Y601112D01*
X616818Y602792D01*
X618005Y604848D01*
X618620Y607142D01*
Y609518D01*
X618005Y611812D01*
X616818Y613868D01*
X615138Y615548D01*
X613082Y616735D01*
X610788Y617350D01*
D02*
G37*
G36*
X756600Y577215D02*
X735965D01*
Y556580D01*
X737425D01*
X741534Y557397D01*
X745405Y559001D01*
X748889Y561329D01*
X751852Y564291D01*
X754179Y567775D01*
X755783Y571646D01*
X756600Y575755D01*
Y577215D01*
D02*
G37*
G36*
X734695D02*
X714060D01*
Y575755D01*
X714877Y571646D01*
X716481Y567775D01*
X718809Y564291D01*
X721771Y561329D01*
X725255Y559001D01*
X729126Y557397D01*
X733235Y556580D01*
X734695D01*
Y577215D01*
D02*
G37*
G36*
X117790Y575945D02*
X97155D01*
Y555310D01*
X98615D01*
X102724Y556127D01*
X106595Y557731D01*
X110079Y560059D01*
X113041Y563021D01*
X115369Y566505D01*
X116973Y570376D01*
X117790Y574485D01*
Y575945D01*
D02*
G37*
G36*
X95885D02*
X75250D01*
Y574485D01*
X76067Y570376D01*
X77671Y566505D01*
X79998Y563021D01*
X82961Y560059D01*
X86445Y557731D01*
X90316Y556127D01*
X94425Y555310D01*
X95885D01*
Y575945D01*
D02*
G37*
%LPD*%
G36*
X635652Y915380D02*
X631613Y911342D01*
X630979Y910392D01*
X630919Y910091D01*
X629598Y909840D01*
X627900Y911538D01*
X625820Y912738D01*
X623501Y913360D01*
X621099D01*
X618780Y912738D01*
X616700Y911538D01*
X615002Y909840D01*
X613801Y907760D01*
X613642Y907166D01*
X574968D01*
X573849Y906944D01*
X572899Y906309D01*
X559642Y893052D01*
X558084Y892742D01*
X556671Y891798D01*
X556385Y891370D01*
X555115D01*
X554828Y891798D01*
X553416Y892742D01*
X551750Y893074D01*
X550084Y892742D01*
X548671Y891798D01*
X548385Y891370D01*
X547115D01*
X546828Y891798D01*
X545416Y892742D01*
X543750Y893074D01*
X542084Y892742D01*
X540672Y891798D01*
X540385Y891370D01*
X539115D01*
X538829Y891798D01*
X537416Y892742D01*
X536385Y892947D01*
Y881970D01*
Y870993D01*
X537416Y871198D01*
X538829Y872141D01*
X539115Y872570D01*
X540385D01*
X540672Y872141D01*
X542084Y871198D01*
X543750Y870866D01*
X545416Y871198D01*
X546828Y872141D01*
X547115Y872570D01*
X548385D01*
X548671Y872141D01*
X550084Y871198D01*
X551750Y870866D01*
X553416Y871198D01*
X554828Y872141D01*
X554989Y872382D01*
X556290Y872463D01*
X557144Y871615D01*
Y855922D01*
X549681Y848459D01*
X549047Y847510D01*
X548824Y846390D01*
Y806900D01*
X548671Y806798D01*
X548385Y806370D01*
X547115D01*
X546828Y806798D01*
X545416Y807742D01*
X544385Y807947D01*
Y796970D01*
X543115D01*
Y807947D01*
X542084Y807742D01*
X540672Y806798D01*
X540385Y806370D01*
X539115D01*
X538829Y806798D01*
X537416Y807742D01*
X535750Y808074D01*
X534084Y807742D01*
X532672Y806798D01*
X532385Y806370D01*
X531115D01*
X530829Y806798D01*
X529416Y807742D01*
X528385Y807947D01*
Y796970D01*
Y785993D01*
X529416Y786198D01*
X530828Y787141D01*
X532219Y787108D01*
X532824Y786482D01*
Y781240D01*
X533046Y780120D01*
X533681Y779171D01*
X541850Y771002D01*
X542165Y770791D01*
X541780Y769521D01*
X534784D01*
Y749399D01*
X539406D01*
Y742934D01*
X538538Y742066D01*
X516832D01*
X511339Y747559D01*
X510486Y748129D01*
X510476Y748221D01*
X511261Y749399D01*
X521856D01*
Y769521D01*
X506759D01*
Y761116D01*
X502893D01*
X500380Y763629D01*
Y765543D01*
X499861Y767481D01*
X498857Y769219D01*
X497439Y770638D01*
X495701Y771641D01*
X493763Y772160D01*
X491757D01*
X489819Y771641D01*
X488081Y770638D01*
X486662Y769219D01*
X485659Y767481D01*
X485140Y765543D01*
Y763537D01*
X485659Y761599D01*
X486662Y759861D01*
X488081Y758443D01*
X489819Y757439D01*
X491757Y756920D01*
X493763D01*
X495701Y757439D01*
X497344Y758388D01*
X499612Y756121D01*
X500561Y755487D01*
X501681Y755264D01*
X506759D01*
Y749686D01*
X506759Y749399D01*
X506065Y748416D01*
X438076D01*
X437590Y749590D01*
X486599Y798598D01*
X487234Y799548D01*
X487456Y800667D01*
Y807021D01*
X488576Y807620D01*
X488834Y807448D01*
X490500Y807116D01*
X504000D01*
X505666Y807448D01*
X507079Y808391D01*
X508022Y809804D01*
X508354Y811470D01*
X508022Y813136D01*
X507079Y814548D01*
X506650Y814835D01*
Y816105D01*
X507079Y816392D01*
X508022Y817804D01*
X508354Y819470D01*
X508022Y821136D01*
X507079Y822549D01*
X506650Y822835D01*
Y824105D01*
X507079Y824391D01*
X508022Y825804D01*
X508354Y827470D01*
X508022Y829136D01*
X507079Y830548D01*
X506650Y830835D01*
Y832105D01*
X507079Y832392D01*
X508022Y833804D01*
X508354Y835470D01*
X508022Y837136D01*
X507079Y838549D01*
X506650Y838835D01*
Y840105D01*
X507079Y840391D01*
X508022Y841804D01*
X508354Y843470D01*
X508022Y845136D01*
X507079Y846548D01*
X506650Y846835D01*
Y848105D01*
X507079Y848391D01*
X508022Y849804D01*
X508354Y851470D01*
X508022Y853136D01*
X507079Y854548D01*
X506650Y854835D01*
Y856105D01*
X507079Y856392D01*
X508022Y857804D01*
X508354Y859470D01*
X508022Y861136D01*
X507079Y862549D01*
X506650Y862835D01*
Y864105D01*
X507079Y864391D01*
X508022Y865804D01*
X508354Y867470D01*
X508022Y869136D01*
X507079Y870548D01*
X505666Y871492D01*
X504000Y871824D01*
X490500D01*
X488834Y871492D01*
X487421Y870548D01*
X486478Y869136D01*
X486146Y867470D01*
X486478Y865804D01*
X487421Y864391D01*
X487850Y864105D01*
Y862835D01*
X487421Y862549D01*
X486478Y861136D01*
X486441Y860950D01*
X485225Y860582D01*
X481344Y864463D01*
X482081Y865739D01*
X482600Y867677D01*
Y869683D01*
X482081Y871621D01*
X481077Y873359D01*
X479659Y874778D01*
X477921Y875781D01*
X475983Y876300D01*
X473977D01*
X472039Y875781D01*
X470301Y874778D01*
X469956Y874433D01*
X468686Y874959D01*
Y883648D01*
X501592Y916554D01*
X635166D01*
X635652Y915380D01*
D02*
G37*
G36*
X613801Y900720D02*
X615002Y898640D01*
X616700Y896942D01*
X618780Y895742D01*
X620948Y895161D01*
X621278Y894665D01*
X621600Y893850D01*
X621573Y893811D01*
X614586D01*
X613466Y893588D01*
X612517Y892954D01*
X604459Y884896D01*
X572104D01*
Y888720D01*
X571772Y890386D01*
X570829Y891798D01*
X569416Y892742D01*
X569230Y892779D01*
X568861Y893995D01*
X576181Y901314D01*
X613642D01*
X613801Y900720D01*
D02*
G37*
G36*
X300894Y777008D02*
X300114Y775992D01*
X298851Y776721D01*
X296913Y777240D01*
X294907D01*
X292969Y776721D01*
X291231Y775717D01*
X289813Y774299D01*
X288809Y772561D01*
X288290Y770623D01*
Y768617D01*
X288809Y766679D01*
X289813Y764941D01*
X291231Y763522D01*
X292969Y762519D01*
X293544Y762365D01*
Y754701D01*
X292300Y753563D01*
X291894Y753593D01*
X291790Y753748D01*
X280334Y765204D01*
Y767398D01*
X281688Y768751D01*
X282691Y770489D01*
X283210Y772427D01*
Y774433D01*
X282691Y776371D01*
X281688Y778109D01*
X281343Y778454D01*
X281869Y779724D01*
X298178D01*
X300894Y777008D01*
D02*
G37*
G36*
X253881Y661870D02*
X254154Y660497D01*
X254932Y659332D01*
X256097Y658554D01*
X257470Y658281D01*
X258843Y658554D01*
X259774Y659176D01*
X260624Y658905D01*
X261044Y658613D01*
Y651262D01*
X256955Y647173D01*
X256941Y647181D01*
X255003Y647700D01*
X252997D01*
X251059Y647181D01*
X249321Y646178D01*
X247903Y644759D01*
X246899Y643021D01*
X246380Y641083D01*
Y639077D01*
X246899Y637139D01*
X247903Y635401D01*
X249321Y633983D01*
X251059Y632979D01*
X251555Y632846D01*
X251388Y631576D01*
X248862D01*
X244226Y636212D01*
Y660458D01*
X249019Y665251D01*
X253881D01*
Y661870D01*
D02*
G37*
G36*
X511482Y739140D02*
X497126Y724784D01*
X496491Y723835D01*
X496269Y722715D01*
Y718721D01*
X491646D01*
Y698599D01*
X497496D01*
Y661571D01*
X492874D01*
Y647174D01*
X492112Y647022D01*
X491162Y646388D01*
X482700Y637926D01*
X422881D01*
X422355Y639196D01*
X444029Y660871D01*
X444664Y661820D01*
X444886Y662940D01*
Y675725D01*
X467760Y698599D01*
X478719D01*
Y718721D01*
X467760D01*
X461059Y725421D01*
X460110Y726056D01*
X459740Y726129D01*
Y726173D01*
X459221Y728111D01*
X458218Y729849D01*
X456799Y731267D01*
X455061Y732271D01*
X453123Y732790D01*
X451117D01*
X449179Y732271D01*
X447441Y731267D01*
X446022Y729849D01*
X445019Y728111D01*
X444500Y726173D01*
Y724167D01*
X445019Y722229D01*
X446022Y720491D01*
X447441Y719072D01*
X449179Y718069D01*
X451117Y717550D01*
X453123D01*
X455061Y718069D01*
X456799Y719072D01*
X457965Y720239D01*
X463621Y714583D01*
Y702737D01*
X439891Y679007D01*
X439257Y678057D01*
X439034Y676938D01*
Y664152D01*
X417888Y643006D01*
X379215D01*
X379211Y643021D01*
X378208Y644759D01*
X376789Y646178D01*
X375051Y647181D01*
X373113Y647700D01*
X371107D01*
X369169Y647181D01*
X367431Y646178D01*
X366012Y644759D01*
X365009Y643021D01*
X364876Y642525D01*
X363606Y642692D01*
Y669608D01*
X399998Y706000D01*
X414400D01*
Y736540D01*
X408056D01*
Y739198D01*
X411422Y742564D01*
X508058D01*
X511482Y739140D01*
D02*
G37*
G36*
X280544Y635898D02*
Y633470D01*
X280767Y632350D01*
X281401Y631401D01*
X302959Y609843D01*
X302652Y609310D01*
X302030Y606991D01*
Y604589D01*
X302652Y602270D01*
X303852Y600190D01*
X305486Y598556D01*
X305465Y598266D01*
X305099Y597286D01*
X291801D01*
X291435Y598266D01*
X291414Y598556D01*
X293048Y600190D01*
X294249Y602270D01*
X294870Y604589D01*
Y606991D01*
X294249Y609310D01*
X293048Y611390D01*
X291350Y613088D01*
X289270Y614288D01*
X286951Y614910D01*
X284549D01*
X282230Y614288D01*
X281697Y613981D01*
X275420Y620258D01*
Y621586D01*
X275197Y622706D01*
X274563Y623656D01*
X269187Y629031D01*
X269845Y630170D01*
X270777Y629920D01*
X272783D01*
X274721Y630439D01*
X276459Y631442D01*
X277878Y632861D01*
X278881Y634599D01*
X279274Y636066D01*
X280544Y635898D01*
D02*
G37*
%LPC*%
G36*
X527750Y893074D02*
X526084Y892742D01*
X524672Y891798D01*
X524385Y891370D01*
X523115D01*
X522828Y891798D01*
X521416Y892742D01*
X519750Y893074D01*
X518084Y892742D01*
X516671Y891798D01*
X516385Y891370D01*
X515115D01*
X514828Y891798D01*
X513416Y892742D01*
X511750Y893074D01*
X510084Y892742D01*
X508671Y891798D01*
X507728Y890386D01*
X507396Y888720D01*
Y875220D01*
X507728Y873554D01*
X508671Y872141D01*
X510084Y871198D01*
X511750Y870866D01*
X513416Y871198D01*
X514828Y872141D01*
X515115Y872570D01*
X516385D01*
X516671Y872141D01*
X518084Y871198D01*
X519750Y870866D01*
X521416Y871198D01*
X522828Y872141D01*
X523115Y872570D01*
X524385D01*
X524672Y872141D01*
X526084Y871198D01*
X527750Y870866D01*
X529416Y871198D01*
X530829Y872141D01*
X531115Y872570D01*
X532385D01*
X532672Y872141D01*
X534084Y871198D01*
X535115Y870993D01*
Y881970D01*
Y892947D01*
X534084Y892742D01*
X532672Y891798D01*
X532385Y891370D01*
X531115D01*
X530829Y891798D01*
X529416Y892742D01*
X527750Y893074D01*
D02*
G37*
G36*
X519750Y808074D02*
X518084Y807742D01*
X516671Y806798D01*
X516385Y806370D01*
X515115D01*
X514828Y806798D01*
X513416Y807742D01*
X511750Y808074D01*
X510084Y807742D01*
X508671Y806798D01*
X507728Y805386D01*
X507396Y803720D01*
Y790220D01*
X507728Y788554D01*
X508671Y787141D01*
X510084Y786198D01*
X511750Y785866D01*
X513416Y786198D01*
X514828Y787141D01*
X515115Y787570D01*
X516385D01*
X516671Y787141D01*
X518084Y786198D01*
X519750Y785866D01*
X521416Y786198D01*
X522828Y787141D01*
X523115Y787570D01*
X524385D01*
X524672Y787141D01*
X526084Y786198D01*
X527115Y785993D01*
Y796970D01*
Y807947D01*
X526084Y807742D01*
X524672Y806798D01*
X524385Y806370D01*
X523115D01*
X522828Y806798D01*
X521416Y807742D01*
X519750Y808074D01*
D02*
G37*
G36*
X414400Y693540D02*
X405765D01*
Y678905D01*
X414400D01*
Y693540D01*
D02*
G37*
G36*
X404495D02*
X395860D01*
Y678905D01*
X404495D01*
Y693540D01*
D02*
G37*
G36*
X414400Y677635D02*
X405765D01*
Y663000D01*
X414400D01*
Y677635D01*
D02*
G37*
G36*
X404495D02*
X395860D01*
Y663000D01*
X404495D01*
Y677635D01*
D02*
G37*
G36*
X479946Y661571D02*
X464849D01*
Y653166D01*
X457955D01*
X457951Y653181D01*
X456948Y654919D01*
X455529Y656338D01*
X453791Y657341D01*
X451853Y657860D01*
X449847D01*
X447909Y657341D01*
X446171Y656338D01*
X444753Y654919D01*
X443749Y653181D01*
X443230Y651243D01*
Y649237D01*
X443749Y647299D01*
X444753Y645561D01*
X446171Y644143D01*
X447909Y643139D01*
X449847Y642620D01*
X451853D01*
X453791Y643139D01*
X455529Y644143D01*
X456948Y645561D01*
X457951Y647299D01*
X457955Y647314D01*
X464849D01*
Y641449D01*
X479946D01*
Y661571D01*
D02*
G37*
G36*
X534100Y411744D02*
X532434Y411412D01*
X531021Y410468D01*
X530735Y410040D01*
X529465D01*
X529179Y410468D01*
X527766Y411412D01*
X526100Y411744D01*
X524434Y411412D01*
X523022Y410468D01*
X522735Y410040D01*
X521465D01*
X521179Y410468D01*
X519766Y411412D01*
X518100Y411744D01*
X516434Y411412D01*
X515022Y410468D01*
X514078Y409056D01*
X513746Y407390D01*
Y393890D01*
X514078Y392224D01*
X515022Y390812D01*
X516434Y389868D01*
X518100Y389536D01*
X519766Y389868D01*
X521179Y390812D01*
X521465Y391240D01*
X522735D01*
X523022Y390812D01*
X524434Y389868D01*
X526100Y389536D01*
X527766Y389868D01*
X529179Y390812D01*
X529465Y391240D01*
X530735D01*
X531021Y390812D01*
X532434Y389868D01*
X534100Y389536D01*
X535766Y389868D01*
X537178Y390812D01*
X537465Y391240D01*
X538735D01*
X539021Y390812D01*
X540434Y389868D01*
X541465Y389663D01*
Y400640D01*
Y411617D01*
X540434Y411412D01*
X539021Y410468D01*
X538735Y410040D01*
X537465D01*
X537178Y410468D01*
X535766Y411412D01*
X534100Y411744D01*
D02*
G37*
G36*
X526100Y326744D02*
X524434Y326412D01*
X523022Y325468D01*
X522735Y325040D01*
X521465D01*
X521179Y325468D01*
X519766Y326412D01*
X518100Y326744D01*
X516434Y326412D01*
X515022Y325468D01*
X514078Y324056D01*
X513746Y322390D01*
Y308890D01*
X514078Y307224D01*
X515022Y305812D01*
X516434Y304868D01*
X518100Y304536D01*
X519766Y304868D01*
X521179Y305812D01*
X521465Y306240D01*
X522735D01*
X523022Y305812D01*
X524434Y304868D01*
X526100Y304536D01*
X527766Y304868D01*
X529179Y305812D01*
X529465Y306240D01*
X530735D01*
X531021Y305812D01*
X532434Y304868D01*
X533465Y304663D01*
Y315640D01*
Y326617D01*
X532434Y326412D01*
X531021Y325468D01*
X530735Y325040D01*
X529465D01*
X529179Y325468D01*
X527766Y326412D01*
X526100Y326744D01*
D02*
G37*
G36*
X681921Y434570D02*
X681355D01*
Y426085D01*
X689840D01*
Y426651D01*
X689219Y428970D01*
X688018Y431050D01*
X686320Y432748D01*
X684240Y433949D01*
X681921Y434570D01*
D02*
G37*
G36*
X680085D02*
X679519D01*
X677200Y433949D01*
X675120Y432748D01*
X673422Y431050D01*
X672222Y428970D01*
X671600Y426651D01*
Y426085D01*
X680085D01*
Y434570D01*
D02*
G37*
G36*
X745045Y437830D02*
X743585D01*
Y417195D01*
X764220D01*
Y418655D01*
X763403Y422764D01*
X761799Y426635D01*
X759472Y430119D01*
X756509Y433082D01*
X753025Y435409D01*
X749154Y437013D01*
X745045Y437830D01*
D02*
G37*
G36*
X742315D02*
X740855D01*
X736746Y437013D01*
X732875Y435409D01*
X729391Y433082D01*
X726429Y430119D01*
X724101Y426635D01*
X722497Y422764D01*
X721680Y418655D01*
Y417195D01*
X742315D01*
Y437830D01*
D02*
G37*
G36*
X104965D02*
X103505D01*
Y417195D01*
X124140D01*
Y418655D01*
X123323Y422764D01*
X121719Y426635D01*
X119391Y430119D01*
X116429Y433082D01*
X112945Y435409D01*
X109074Y437013D01*
X104965Y437830D01*
D02*
G37*
G36*
X102235D02*
X100775D01*
X96666Y437013D01*
X92795Y435409D01*
X89311Y433082D01*
X86348Y430119D01*
X84021Y426635D01*
X82417Y422764D01*
X81600Y418655D01*
Y417195D01*
X102235D01*
Y437830D01*
D02*
G37*
G36*
X689840Y424815D02*
X681355D01*
Y416330D01*
X681921D01*
X684240Y416951D01*
X686320Y418152D01*
X688018Y419850D01*
X689219Y421930D01*
X689840Y424249D01*
Y424815D01*
D02*
G37*
G36*
X680085D02*
X671600D01*
Y424249D01*
X672222Y421930D01*
X673422Y419850D01*
X675120Y418152D01*
X677200Y416951D01*
X679519Y416330D01*
X680085D01*
Y424815D01*
D02*
G37*
G36*
X205756Y417440D02*
X205105D01*
Y408305D01*
X214240D01*
Y408956D01*
X213574Y411441D01*
X212288Y413669D01*
X210469Y415488D01*
X208241Y416774D01*
X205756Y417440D01*
D02*
G37*
G36*
X203835D02*
X203184D01*
X200699Y416774D01*
X198471Y415488D01*
X196652Y413669D01*
X195366Y411441D01*
X194700Y408956D01*
Y408305D01*
X203835D01*
Y417440D01*
D02*
G37*
G36*
X239640D02*
X220100D01*
Y397900D01*
X239640D01*
Y417440D01*
D02*
G37*
G36*
X214240Y407035D02*
X205105D01*
Y397900D01*
X205756D01*
X208241Y398566D01*
X210469Y399852D01*
X212288Y401671D01*
X213574Y403899D01*
X214240Y406384D01*
Y407035D01*
D02*
G37*
G36*
X203835D02*
X194700D01*
Y406384D01*
X195366Y403899D01*
X196652Y401671D01*
X198471Y399852D01*
X200699Y398566D01*
X203184Y397900D01*
X203835D01*
Y407035D01*
D02*
G37*
G36*
X764220Y415925D02*
X743585D01*
Y395290D01*
X745045D01*
X749154Y396107D01*
X753025Y397711D01*
X756509Y400038D01*
X759472Y403001D01*
X761799Y406485D01*
X763403Y410356D01*
X764220Y414465D01*
Y415925D01*
D02*
G37*
G36*
X742315D02*
X721680D01*
Y414465D01*
X722497Y410356D01*
X724101Y406485D01*
X726429Y403001D01*
X729391Y400038D01*
X732875Y397711D01*
X736746Y396107D01*
X740855Y395290D01*
X742315D01*
Y415925D01*
D02*
G37*
G36*
X124140D02*
X103505D01*
Y395290D01*
X104965D01*
X109074Y396107D01*
X112945Y397711D01*
X116429Y400038D01*
X119391Y403001D01*
X121719Y406485D01*
X123323Y410356D01*
X124140Y414465D01*
Y415925D01*
D02*
G37*
G36*
X102235D02*
X81600D01*
Y414465D01*
X82417Y410356D01*
X84021Y406485D01*
X86348Y403001D01*
X89311Y400038D01*
X92795Y397711D01*
X96666Y396107D01*
X100775Y395290D01*
X102235D01*
Y415925D01*
D02*
G37*
G36*
X272166Y400451D02*
X264003D01*
Y390525D01*
X272166D01*
Y400451D01*
D02*
G37*
G36*
X262733D02*
X254569D01*
Y390525D01*
X262733D01*
Y400451D01*
D02*
G37*
G36*
X439306Y391061D02*
X432393D01*
Y381635D01*
X439306D01*
Y391061D01*
D02*
G37*
G36*
X431123D02*
X424209D01*
Y381635D01*
X431123D01*
Y391061D01*
D02*
G37*
G36*
X272166Y389255D02*
X264003D01*
Y379329D01*
X272166D01*
Y389255D01*
D02*
G37*
G36*
X262733D02*
X254569D01*
Y379329D01*
X262733D01*
Y389255D01*
D02*
G37*
G36*
X439306Y380365D02*
X432393D01*
Y370939D01*
X439306D01*
Y380365D01*
D02*
G37*
G36*
X144528Y378390D02*
X143975D01*
Y370005D01*
X152360D01*
Y370558D01*
X151745Y372852D01*
X150558Y374908D01*
X148878Y376588D01*
X146822Y377775D01*
X144528Y378390D01*
D02*
G37*
G36*
X142705D02*
X142153D01*
X139858Y377775D01*
X137802Y376588D01*
X136122Y374908D01*
X134935Y372852D01*
X134320Y370558D01*
Y370005D01*
X142705D01*
Y378390D01*
D02*
G37*
G36*
X301691Y400451D02*
X284094D01*
Y379329D01*
X301691D01*
Y386964D01*
X325448D01*
X336090Y376322D01*
X335630Y374607D01*
Y372693D01*
X335878Y371767D01*
X332798Y368686D01*
X303015D01*
X303011Y368701D01*
X302008Y370439D01*
X300589Y371857D01*
X298851Y372861D01*
X296913Y373380D01*
X294907D01*
X292969Y372861D01*
X291231Y371857D01*
X289813Y370439D01*
X288809Y368701D01*
X288290Y366763D01*
Y364757D01*
X288809Y362819D01*
X289813Y361081D01*
X291231Y359663D01*
X292969Y358659D01*
X294907Y358140D01*
X296913D01*
X298851Y358659D01*
X300589Y359663D01*
X302008Y361081D01*
X303011Y362819D01*
X303015Y362834D01*
X334010D01*
X335130Y363056D01*
X336079Y363691D01*
X339568Y367179D01*
X340094Y366875D01*
X341943Y366380D01*
X343857D01*
X345706Y366875D01*
X347364Y367833D01*
X348717Y369186D01*
X349674Y370844D01*
X350170Y372693D01*
Y374607D01*
X349674Y376456D01*
X348717Y378114D01*
X347364Y379468D01*
X345706Y380425D01*
X343857Y380920D01*
X341943D01*
X340228Y380461D01*
X328729Y391959D01*
X327780Y392593D01*
X326660Y392816D01*
X301691D01*
Y400451D01*
D02*
G37*
G36*
X152360Y368735D02*
X143975D01*
Y360350D01*
X144528D01*
X146822Y360965D01*
X148878Y362152D01*
X150558Y363832D01*
X151745Y365888D01*
X152360Y368182D01*
Y368735D01*
D02*
G37*
G36*
X142705D02*
X134320D01*
Y368182D01*
X134935Y365888D01*
X136122Y363832D01*
X137802Y362152D01*
X139858Y360965D01*
X142153Y360350D01*
X142705D01*
Y368735D01*
D02*
G37*
G36*
X750870Y365690D02*
X732830D01*
Y347650D01*
X750870D01*
Y365690D01*
D02*
G37*
G36*
X209479Y365661D02*
X194381D01*
Y358526D01*
X184150D01*
X183030Y358303D01*
X182081Y357669D01*
X171708Y347296D01*
X152360D01*
Y353390D01*
X134320D01*
Y335350D01*
X152360D01*
Y341444D01*
X172920D01*
X174040Y341666D01*
X174989Y342301D01*
X185362Y352674D01*
X194381D01*
Y345539D01*
X209479D01*
Y365661D01*
D02*
G37*
G36*
X410611Y344556D02*
X400685D01*
Y336393D01*
X410611D01*
Y344556D01*
D02*
G37*
G36*
X399415D02*
X389489D01*
Y336393D01*
X399415D01*
Y344556D01*
D02*
G37*
G36*
X439306Y338991D02*
X432393D01*
Y329565D01*
X439306D01*
Y338991D01*
D02*
G37*
G36*
X431123D02*
X424209D01*
Y329565D01*
X431123D01*
Y338991D01*
D02*
G37*
G36*
X410611Y335123D02*
X400685D01*
Y326959D01*
X410611D01*
Y335123D01*
D02*
G37*
G36*
X399415D02*
X389489D01*
Y326959D01*
X399415D01*
Y335123D01*
D02*
G37*
G36*
X295643Y353060D02*
X293637D01*
X291699Y352541D01*
X289961Y351538D01*
X288542Y350119D01*
X287539Y348381D01*
X287020Y346443D01*
Y344437D01*
X287539Y342499D01*
X288542Y340761D01*
X289961Y339342D01*
X291699Y338339D01*
X293637Y337820D01*
X295643D01*
X297581Y338339D01*
X299319Y339342D01*
X300737Y340761D01*
X301741Y342499D01*
X301745Y342514D01*
X321098D01*
X336090Y327522D01*
X335630Y325807D01*
Y324236D01*
X300421D01*
Y331871D01*
X282824D01*
Y310749D01*
X300421D01*
Y318384D01*
X336979D01*
X338098Y318606D01*
X338597Y318940D01*
X340094Y318076D01*
X341943Y317580D01*
X343857D01*
X345706Y318076D01*
X347364Y319033D01*
X348717Y320386D01*
X349674Y322044D01*
X350170Y323893D01*
Y325807D01*
X349674Y327656D01*
X348717Y329314D01*
X347364Y330667D01*
X345706Y331625D01*
X343857Y332120D01*
X341943D01*
X340228Y331660D01*
X324379Y347509D01*
X323430Y348144D01*
X322310Y348366D01*
X301745D01*
X301741Y348381D01*
X300737Y350119D01*
X299319Y351538D01*
X297581Y352541D01*
X295643Y353060D01*
D02*
G37*
G36*
X270896Y331871D02*
X262733D01*
Y321945D01*
X270896D01*
Y331871D01*
D02*
G37*
G36*
X261463D02*
X253299D01*
Y321945D01*
X261463D01*
Y331871D01*
D02*
G37*
G36*
X439306Y328295D02*
X432393D01*
Y318869D01*
X439306D01*
Y328295D01*
D02*
G37*
G36*
X431123D02*
X424209D01*
Y318869D01*
X431123D01*
Y328295D01*
D02*
G37*
G36*
X632346Y327561D02*
X625433D01*
Y318135D01*
X632346D01*
Y327561D01*
D02*
G37*
G36*
X624163D02*
X617249D01*
Y318135D01*
X624163D01*
Y327561D01*
D02*
G37*
G36*
X270896Y320675D02*
X262733D01*
Y310749D01*
X270896D01*
Y320675D01*
D02*
G37*
G36*
X261463D02*
X253299D01*
Y310749D01*
X261463D01*
Y320675D01*
D02*
G37*
G36*
X669170Y354210D02*
X651630D01*
Y340808D01*
X650753Y339932D01*
X650119Y338982D01*
X649896Y337862D01*
Y327561D01*
X645274D01*
Y307439D01*
X660371D01*
Y327561D01*
X655749D01*
Y336650D01*
X655768Y336670D01*
X669170D01*
Y354210D01*
D02*
G37*
G36*
X632346Y316865D02*
X625433D01*
Y307439D01*
X632346D01*
Y316865D01*
D02*
G37*
G36*
X624163D02*
X617249D01*
Y307439D01*
X624163D01*
Y316865D01*
D02*
G37*
G36*
X396626Y305201D02*
X388463D01*
Y295275D01*
X396626D01*
Y305201D01*
D02*
G37*
G36*
X387193D02*
X379029D01*
Y295275D01*
X387193D01*
Y305201D01*
D02*
G37*
G36*
X145420Y306420D02*
X114585D01*
Y288785D01*
X145420D01*
Y306420D01*
D02*
G37*
G36*
X113315D02*
X82480D01*
Y288785D01*
X113315D01*
Y306420D01*
D02*
G37*
G36*
X676150Y290620D02*
X658110D01*
Y285776D01*
X596650D01*
Y290620D01*
X578610D01*
Y275080D01*
X596650D01*
Y279924D01*
X611288D01*
X626994Y264218D01*
Y210762D01*
X620175Y203943D01*
X620161Y203951D01*
X618223Y204470D01*
X616217D01*
X614279Y203951D01*
X612541Y202948D01*
X611123Y201529D01*
X610119Y199791D01*
X609600Y197853D01*
Y195847D01*
X610119Y193909D01*
X611123Y192171D01*
X612541Y190753D01*
X614279Y189749D01*
X616217Y189230D01*
X618223D01*
X620161Y189749D01*
X621899Y190753D01*
X623317Y192171D01*
X624321Y193909D01*
X624840Y195847D01*
Y197853D01*
X624321Y199791D01*
X624313Y199805D01*
X631989Y207481D01*
X632623Y208430D01*
X632846Y209550D01*
Y265430D01*
X632623Y266550D01*
X631989Y267499D01*
X620738Y278750D01*
X621224Y279924D01*
X658110D01*
Y275080D01*
X676150D01*
Y290620D01*
D02*
G37*
G36*
X396626Y294005D02*
X388463D01*
Y284079D01*
X396626D01*
Y294005D01*
D02*
G37*
G36*
X387193D02*
X379029D01*
Y284079D01*
X387193D01*
Y294005D01*
D02*
G37*
G36*
X742683Y298450D02*
X740677D01*
X738739Y297931D01*
X737001Y296928D01*
X735583Y295509D01*
X734579Y293771D01*
X734060Y291833D01*
Y289919D01*
X724982Y280840D01*
X724347Y279891D01*
X724125Y278771D01*
Y273678D01*
X722186Y273159D01*
X719674Y271708D01*
X717622Y269656D01*
X716171Y267144D01*
X715420Y264341D01*
Y261439D01*
X716171Y258636D01*
X717622Y256124D01*
X719674Y254072D01*
X722186Y252621D01*
X724989Y251870D01*
X727891D01*
X730694Y252621D01*
X733206Y254072D01*
X735258Y256124D01*
X736709Y258636D01*
X737460Y261439D01*
Y264341D01*
X736709Y267144D01*
X735258Y269656D01*
X733206Y271708D01*
X730694Y273159D01*
X729977Y273351D01*
Y277559D01*
X737096Y284678D01*
X738739Y283729D01*
X740677Y283210D01*
X742683D01*
X744621Y283729D01*
X746359Y284732D01*
X747777Y286151D01*
X748781Y287889D01*
X749300Y289827D01*
Y291833D01*
X748781Y293771D01*
X747777Y295509D01*
X746359Y296928D01*
X744621Y297931D01*
X742683Y298450D01*
D02*
G37*
G36*
X145420Y287515D02*
X114585D01*
Y269880D01*
X145420D01*
Y287515D01*
D02*
G37*
G36*
X113315D02*
X82480D01*
Y269880D01*
X113315D01*
Y287515D01*
D02*
G37*
G36*
X343903Y283210D02*
X341897D01*
X339959Y282691D01*
X338221Y281688D01*
X336802Y280269D01*
X335799Y278531D01*
X335280Y276593D01*
Y274587D01*
X335799Y272649D01*
X336802Y270911D01*
X338221Y269492D01*
X339959Y268489D01*
X341897Y267970D01*
X343903D01*
X345441Y268382D01*
X347594Y266229D01*
Y260030D01*
X347397Y259991D01*
X346721Y259539D01*
X346269Y258863D01*
X346110Y258065D01*
Y246515D01*
X346269Y245717D01*
X346721Y245041D01*
X347397Y244589D01*
X348195Y244430D01*
X352845D01*
X353643Y244589D01*
X354319Y245041D01*
X354771Y245717D01*
X354930Y246515D01*
Y258065D01*
X354771Y258863D01*
X354319Y259539D01*
X353643Y259991D01*
X353446Y260030D01*
Y267442D01*
X353223Y268561D01*
X352589Y269511D01*
X349800Y272300D01*
X350001Y272649D01*
X350520Y274587D01*
Y276593D01*
X350001Y278531D01*
X348997Y280269D01*
X347579Y281688D01*
X345841Y282691D01*
X343903Y283210D01*
D02*
G37*
G36*
X340145Y260150D02*
X335495D01*
X334697Y259991D01*
X334021Y259539D01*
X333569Y258863D01*
X333410Y258065D01*
Y246515D01*
X333569Y245717D01*
X334021Y245041D01*
X334697Y244589D01*
X335495Y244430D01*
X340145D01*
X340943Y244589D01*
X341619Y245041D01*
X342071Y245717D01*
X342230Y246515D01*
Y258065D01*
X342071Y258863D01*
X341619Y259539D01*
X340943Y259991D01*
X340145Y260150D01*
D02*
G37*
G36*
X327445D02*
X322795D01*
X321997Y259991D01*
X321321Y259539D01*
X320869Y258863D01*
X320710Y258065D01*
Y246515D01*
X320869Y245717D01*
X321321Y245041D01*
X321997Y244589D01*
X322795Y244430D01*
X327445D01*
X328243Y244589D01*
X328919Y245041D01*
X329371Y245717D01*
X329530Y246515D01*
Y258065D01*
X329371Y258863D01*
X328919Y259539D01*
X328243Y259991D01*
X327445Y260150D01*
D02*
G37*
G36*
X314745D02*
X310095D01*
X309297Y259991D01*
X308621Y259539D01*
X308169Y258863D01*
X308010Y258065D01*
Y246515D01*
X308169Y245717D01*
X308621Y245041D01*
X309297Y244589D01*
X310095Y244430D01*
X314745D01*
X315543Y244589D01*
X316219Y245041D01*
X316671Y245717D01*
X316830Y246515D01*
Y258065D01*
X316671Y258863D01*
X316219Y259539D01*
X315543Y259991D01*
X314745Y260150D01*
D02*
G37*
G36*
X289345D02*
X284695D01*
X283897Y259991D01*
X283221Y259539D01*
X282769Y258863D01*
X282610Y258065D01*
Y246515D01*
X282769Y245717D01*
X283221Y245041D01*
X283897Y244589D01*
X284695Y244430D01*
X289345D01*
X290143Y244589D01*
X290819Y245041D01*
X291271Y245717D01*
X291430Y246515D01*
Y258065D01*
X291271Y258863D01*
X290819Y259539D01*
X290143Y259991D01*
X289345Y260150D01*
D02*
G37*
G36*
X276645D02*
X271995D01*
X271197Y259991D01*
X270521Y259539D01*
X270069Y258863D01*
X269910Y258065D01*
Y246515D01*
X270069Y245717D01*
X270521Y245041D01*
X271197Y244589D01*
X271995Y244430D01*
X276645D01*
X277443Y244589D01*
X278119Y245041D01*
X278571Y245717D01*
X278730Y246515D01*
Y258065D01*
X278571Y258863D01*
X278119Y259539D01*
X277443Y259991D01*
X276645Y260150D01*
D02*
G37*
G36*
X109135Y256650D02*
X106765D01*
X104476Y256037D01*
X102424Y254852D01*
X100748Y253176D01*
X99563Y251124D01*
X98950Y248835D01*
Y246465D01*
X99563Y244176D01*
X100748Y242124D01*
X102424Y240448D01*
X104476Y239263D01*
X106765Y238650D01*
X109135D01*
X111424Y239263D01*
X113476Y240448D01*
X115152Y242124D01*
X116337Y244176D01*
X116950Y246465D01*
Y248835D01*
X116337Y251124D01*
X115152Y253176D01*
X113476Y254852D01*
X111424Y256037D01*
X109135Y256650D01*
D02*
G37*
G36*
X596650Y245620D02*
X588265D01*
Y238485D01*
X596650D01*
Y245620D01*
D02*
G37*
G36*
X676150D02*
X667765D01*
Y238485D01*
X676150D01*
Y245620D01*
D02*
G37*
G36*
X666495D02*
X658110D01*
Y238485D01*
X666495D01*
Y245620D01*
D02*
G37*
G36*
X586995D02*
X578610D01*
Y238485D01*
X586995D01*
Y245620D01*
D02*
G37*
G36*
X676150Y237215D02*
X667765D01*
Y230080D01*
X676150D01*
Y237215D01*
D02*
G37*
G36*
X666495D02*
X658110D01*
Y230080D01*
X666495D01*
Y237215D01*
D02*
G37*
G36*
X596650D02*
X588265D01*
Y230080D01*
X596650D01*
Y237215D01*
D02*
G37*
G36*
X586995D02*
X578610D01*
Y230080D01*
X586995D01*
Y237215D01*
D02*
G37*
G36*
X459473Y251460D02*
X457467D01*
X455529Y250941D01*
X453791Y249937D01*
X452373Y248519D01*
X451369Y246781D01*
X450850Y244843D01*
Y242837D01*
X451369Y240899D01*
X452373Y239161D01*
X453791Y237743D01*
X455529Y236739D01*
X457467Y236220D01*
X459473D01*
X461411Y236739D01*
X463149Y237743D01*
X464315Y238909D01*
X469971Y233253D01*
Y227402D01*
X468316D01*
X467196Y227179D01*
X466247Y226545D01*
X456401Y216699D01*
X455766Y215750D01*
X455544Y214630D01*
Y194252D01*
X428048Y166756D01*
X395725D01*
X395721Y166771D01*
X394717Y168509D01*
X393299Y169928D01*
X391561Y170931D01*
X389623Y171450D01*
X387617D01*
X385679Y170931D01*
X383941Y169928D01*
X382523Y168509D01*
X381519Y166771D01*
X381000Y164833D01*
Y162827D01*
X381519Y160889D01*
X382523Y159151D01*
X383941Y157732D01*
X385679Y156729D01*
X387617Y156210D01*
X389623D01*
X391561Y156729D01*
X393299Y157732D01*
X394717Y159151D01*
X395721Y160889D01*
X395725Y160904D01*
X429260D01*
X430380Y161126D01*
X431329Y161761D01*
X460539Y190971D01*
X461174Y191920D01*
X461396Y193040D01*
Y213418D01*
X468701Y220723D01*
X469971Y220197D01*
Y217269D01*
X485069D01*
Y237391D01*
X474110D01*
X467409Y244091D01*
X466460Y244726D01*
X466090Y244799D01*
Y244843D01*
X465571Y246781D01*
X464567Y248519D01*
X463149Y249937D01*
X461411Y250941D01*
X459473Y251460D01*
D02*
G37*
G36*
X194220Y218670D02*
X178585D01*
Y214535D01*
X194220D01*
Y218670D01*
D02*
G37*
G36*
X177315D02*
X161680D01*
Y214535D01*
X177315D01*
Y218670D01*
D02*
G37*
G36*
X731315Y239030D02*
X721565D01*
X719167Y238554D01*
X717135Y237195D01*
X715777Y235163D01*
X715300Y232765D01*
Y223015D01*
X715652Y221241D01*
X708158Y213746D01*
X673855D01*
X673851Y213761D01*
X672848Y215499D01*
X671429Y216917D01*
X669691Y217921D01*
X667753Y218440D01*
X665747D01*
X663809Y217921D01*
X662071Y216917D01*
X660652Y215499D01*
X659649Y213761D01*
X659130Y211823D01*
Y209817D01*
X659649Y207879D01*
X660652Y206141D01*
X662071Y204722D01*
X663809Y203719D01*
X665747Y203200D01*
X667753D01*
X669691Y203719D01*
X671429Y204722D01*
X672848Y206141D01*
X673851Y207879D01*
X673855Y207894D01*
X709370D01*
X710490Y208116D01*
X711439Y208751D01*
X719791Y217103D01*
X721565Y216750D01*
X731315D01*
X733713Y217227D01*
X735745Y218585D01*
X737104Y220617D01*
X737580Y223015D01*
Y232765D01*
X737104Y235163D01*
X735745Y237195D01*
X733713Y238554D01*
X731315Y239030D01*
D02*
G37*
G36*
X194220Y213265D02*
X178585D01*
Y209130D01*
X194220D01*
Y213265D01*
D02*
G37*
G36*
X177315D02*
X161680D01*
Y209130D01*
X177315D01*
Y213265D01*
D02*
G37*
G36*
X242471Y250076D02*
X222349D01*
Y234979D01*
X229484D01*
Y215500D01*
X223640D01*
Y197960D01*
X241180D01*
Y215500D01*
X235336D01*
Y234979D01*
X242471D01*
Y250076D01*
D02*
G37*
G36*
X263945Y205150D02*
X262255D01*
Y197925D01*
X266030D01*
Y203065D01*
X265871Y203863D01*
X265419Y204539D01*
X264743Y204991D01*
X263945Y205150D01*
D02*
G37*
G36*
X260985D02*
X259295D01*
X258497Y204991D01*
X257821Y204539D01*
X257369Y203863D01*
X257210Y203065D01*
Y197925D01*
X260985D01*
Y205150D01*
D02*
G37*
G36*
X420750Y212210D02*
X412115D01*
Y197575D01*
X420750D01*
Y212210D01*
D02*
G37*
G36*
X410845D02*
X402210D01*
Y197575D01*
X410845D01*
Y212210D01*
D02*
G37*
G36*
X266030Y196655D02*
X262255D01*
Y189430D01*
X263945D01*
X264743Y189589D01*
X265419Y190041D01*
X265871Y190717D01*
X266030Y191515D01*
Y196655D01*
D02*
G37*
G36*
X260985D02*
X257210D01*
Y191515D01*
X257369Y190717D01*
X257821Y190041D01*
X258497Y189589D01*
X259295Y189430D01*
X260985D01*
Y196655D01*
D02*
G37*
G36*
X109135Y201650D02*
X106765D01*
X104476Y201037D01*
X102424Y199852D01*
X100748Y198176D01*
X99563Y196124D01*
X98950Y193835D01*
Y191465D01*
X99563Y189176D01*
X100748Y187124D01*
X102424Y185448D01*
X104476Y184263D01*
X106765Y183650D01*
X109135D01*
X111424Y184263D01*
X113476Y185448D01*
X115152Y187124D01*
X116337Y189176D01*
X116950Y191465D01*
Y193835D01*
X116337Y196124D01*
X115152Y198176D01*
X113476Y199852D01*
X111424Y201037D01*
X109135Y201650D01*
D02*
G37*
G36*
X420750Y196305D02*
X412115D01*
Y181670D01*
X420750D01*
Y196305D01*
D02*
G37*
G36*
X410845D02*
X402210D01*
Y181670D01*
X410845D01*
Y196305D01*
D02*
G37*
G36*
X241180Y180500D02*
X233045D01*
Y172365D01*
X241180D01*
Y180500D01*
D02*
G37*
G36*
X231775D02*
X223640D01*
Y172365D01*
X231775D01*
Y180500D01*
D02*
G37*
G36*
X486296Y180241D02*
X471199D01*
Y171836D01*
X464305D01*
X464301Y171851D01*
X463298Y173589D01*
X461879Y175007D01*
X460141Y176011D01*
X458203Y176530D01*
X456197D01*
X454259Y176011D01*
X452521Y175007D01*
X451102Y173589D01*
X450099Y171851D01*
X449580Y169913D01*
Y167907D01*
X450099Y165969D01*
X451102Y164231D01*
X452521Y162812D01*
X454259Y161809D01*
X456197Y161290D01*
X458203D01*
X460141Y161809D01*
X461879Y162812D01*
X463298Y164231D01*
X464301Y165969D01*
X464305Y165984D01*
X471199D01*
Y160119D01*
X486296D01*
Y180241D01*
D02*
G37*
G36*
X352845Y205150D02*
X348195D01*
X347397Y204991D01*
X346721Y204539D01*
X346269Y203863D01*
X346110Y203065D01*
Y191515D01*
X346269Y190717D01*
X346721Y190041D01*
X347397Y189589D01*
X347594Y189550D01*
Y182911D01*
X347817Y181791D01*
X348451Y180842D01*
X350718Y178574D01*
X349769Y176931D01*
X349250Y174993D01*
Y172987D01*
X349769Y171049D01*
X350773Y169311D01*
X352191Y167892D01*
X353929Y166889D01*
X355867Y166370D01*
X357873D01*
X359811Y166889D01*
X361549Y167892D01*
X362967Y169311D01*
X363971Y171049D01*
X364490Y172987D01*
Y174993D01*
X363971Y176931D01*
X362967Y178669D01*
X361549Y180088D01*
X359811Y181091D01*
X357873Y181610D01*
X355959D01*
X353446Y184123D01*
Y189550D01*
X353643Y189589D01*
X354319Y190041D01*
X354771Y190717D01*
X354930Y191515D01*
Y203065D01*
X354771Y203863D01*
X354319Y204539D01*
X353643Y204991D01*
X352845Y205150D01*
D02*
G37*
G36*
X340145D02*
X335495D01*
X334697Y204991D01*
X334021Y204539D01*
X333569Y203863D01*
X333410Y203065D01*
Y191515D01*
X333569Y190717D01*
X334021Y190041D01*
X334697Y189589D01*
X334894Y189550D01*
Y179825D01*
X334879Y179821D01*
X333141Y178818D01*
X331722Y177399D01*
X330719Y175661D01*
X330200Y173723D01*
Y171717D01*
X330719Y169779D01*
X331722Y168041D01*
X333141Y166623D01*
X334879Y165619D01*
X336817Y165100D01*
X338823D01*
X340761Y165619D01*
X342499Y166623D01*
X343918Y168041D01*
X344921Y169779D01*
X345440Y171717D01*
Y173723D01*
X344921Y175661D01*
X343918Y177399D01*
X342499Y178818D01*
X340761Y179821D01*
X340746Y179825D01*
Y189550D01*
X340943Y189589D01*
X341619Y190041D01*
X342071Y190717D01*
X342230Y191515D01*
Y203065D01*
X342071Y203863D01*
X341619Y204539D01*
X340943Y204991D01*
X340145Y205150D01*
D02*
G37*
G36*
X241180Y171095D02*
X233045D01*
Y162960D01*
X241180D01*
Y171095D01*
D02*
G37*
G36*
X231775D02*
X223640D01*
Y162960D01*
X231775D01*
Y171095D01*
D02*
G37*
G36*
X145420Y170420D02*
X114585D01*
Y152785D01*
X145420D01*
Y170420D01*
D02*
G37*
G36*
X113315D02*
X82480D01*
Y152785D01*
X113315D01*
Y170420D01*
D02*
G37*
G36*
X731315Y154650D02*
X727075D01*
Y144145D01*
X737580D01*
Y148385D01*
X737104Y150783D01*
X735745Y152815D01*
X733713Y154173D01*
X731315Y154650D01*
D02*
G37*
G36*
X725805D02*
X721565D01*
X719167Y154173D01*
X717135Y152815D01*
X715777Y150783D01*
X715300Y148385D01*
Y144145D01*
X725805D01*
Y154650D01*
D02*
G37*
G36*
X145420Y151515D02*
X114585D01*
Y133880D01*
X145420D01*
Y151515D01*
D02*
G37*
G36*
X113315D02*
X82480D01*
Y133880D01*
X113315D01*
Y151515D01*
D02*
G37*
G36*
X737580Y142875D02*
X727075D01*
Y132370D01*
X731315D01*
X733713Y132846D01*
X735745Y134205D01*
X737104Y136237D01*
X737580Y138635D01*
Y142875D01*
D02*
G37*
G36*
X725805D02*
X715300D01*
Y138635D01*
X715777Y136237D01*
X717135Y134205D01*
X719167Y132846D01*
X721565Y132370D01*
X725805D01*
Y142875D01*
D02*
G37*
G36*
X649970Y136020D02*
X631930D01*
Y117980D01*
X649970D01*
Y136020D01*
D02*
G37*
G36*
X481716Y123591D02*
X473553D01*
Y113665D01*
X481716D01*
Y123591D01*
D02*
G37*
G36*
X472283D02*
X464119D01*
Y113665D01*
X472283D01*
Y123591D01*
D02*
G37*
G36*
X431709Y122321D02*
X423545D01*
Y112395D01*
X431709D01*
Y122321D01*
D02*
G37*
G36*
X422275D02*
X414111D01*
Y112395D01*
X422275D01*
Y122321D01*
D02*
G37*
G36*
X481716Y112395D02*
X473553D01*
Y102469D01*
X481716D01*
Y112395D01*
D02*
G37*
G36*
X472283D02*
X464119D01*
Y102469D01*
X472283D01*
Y112395D01*
D02*
G37*
G36*
X431709Y111125D02*
X423545D01*
Y101199D01*
X431709D01*
Y111125D01*
D02*
G37*
G36*
X422275D02*
X414111D01*
Y101199D01*
X422275D01*
Y111125D01*
D02*
G37*
G36*
X318701Y108180D02*
X318135D01*
Y99695D01*
X326620D01*
Y100261D01*
X325998Y102580D01*
X324798Y104660D01*
X323100Y106358D01*
X321020Y107558D01*
X318701Y108180D01*
D02*
G37*
G36*
X293301D02*
X292735D01*
Y99695D01*
X301220D01*
Y100261D01*
X300599Y102580D01*
X299398Y104660D01*
X297700Y106358D01*
X295620Y107558D01*
X293301Y108180D01*
D02*
G37*
G36*
X316865D02*
X316299D01*
X313980Y107558D01*
X311900Y106358D01*
X310202Y104660D01*
X309002Y102580D01*
X308380Y100261D01*
Y99695D01*
X316865D01*
Y108180D01*
D02*
G37*
G36*
X291465D02*
X290899D01*
X288580Y107558D01*
X286500Y106358D01*
X284802Y104660D01*
X283601Y102580D01*
X282980Y100261D01*
Y99695D01*
X291465D01*
Y108180D01*
D02*
G37*
G36*
X266433Y104140D02*
X264427D01*
X262489Y103621D01*
X260751Y102618D01*
X259333Y101199D01*
X258329Y99461D01*
X258325Y99446D01*
X250591D01*
Y103256D01*
X229469D01*
Y85659D01*
X250591D01*
Y93594D01*
X258325D01*
X258329Y93579D01*
X259333Y91841D01*
X260751Y90422D01*
X262489Y89419D01*
X264427Y88900D01*
X266433D01*
X268371Y89419D01*
X270109Y90422D01*
X271528Y91841D01*
X272531Y93579D01*
X273050Y95517D01*
Y97523D01*
X272531Y99461D01*
X271528Y101199D01*
X270109Y102618D01*
X268371Y103621D01*
X266433Y104140D01*
D02*
G37*
G36*
X212791Y108351D02*
X204627D01*
Y98425D01*
X212791D01*
Y108351D01*
D02*
G37*
G36*
X203357D02*
X195194D01*
Y98425D01*
X203357D01*
Y108351D01*
D02*
G37*
G36*
X743775Y117790D02*
X742315D01*
Y97155D01*
X762950D01*
Y98615D01*
X762133Y102724D01*
X760529Y106595D01*
X758202Y110079D01*
X755239Y113041D01*
X751755Y115369D01*
X747884Y116973D01*
X743775Y117790D01*
D02*
G37*
G36*
X741045D02*
X739585D01*
X735476Y116973D01*
X731605Y115369D01*
X728121Y113041D01*
X725158Y110079D01*
X722831Y106595D01*
X721227Y102724D01*
X720410Y98615D01*
Y97155D01*
X741045D01*
Y117790D01*
D02*
G37*
G36*
X104965Y116520D02*
X103505D01*
Y95885D01*
X124140D01*
Y97345D01*
X123323Y101454D01*
X121719Y105325D01*
X119391Y108809D01*
X116429Y111771D01*
X112945Y114099D01*
X109074Y115703D01*
X104965Y116520D01*
D02*
G37*
G36*
X102235D02*
X100775D01*
X96666Y115703D01*
X92795Y114099D01*
X89311Y111771D01*
X86348Y108809D01*
X84021Y105325D01*
X82417Y101454D01*
X81600Y97345D01*
Y95885D01*
X102235D01*
Y116520D01*
D02*
G37*
G36*
X326620Y98425D02*
X318135D01*
Y89940D01*
X318701D01*
X321020Y90562D01*
X323100Y91762D01*
X324798Y93460D01*
X325998Y95540D01*
X326620Y97859D01*
Y98425D01*
D02*
G37*
G36*
X316865D02*
X308380D01*
Y97859D01*
X309002Y95540D01*
X310202Y93460D01*
X311900Y91762D01*
X313980Y90562D01*
X316299Y89940D01*
X316865D01*
Y98425D01*
D02*
G37*
G36*
X301220D02*
X292735D01*
Y89940D01*
X293301D01*
X295620Y90562D01*
X297700Y91762D01*
X299398Y93460D01*
X300599Y95540D01*
X301220Y97859D01*
Y98425D01*
D02*
G37*
G36*
X291465D02*
X282980D01*
Y97859D01*
X283601Y95540D01*
X284802Y93460D01*
X286500Y91762D01*
X288580Y90562D01*
X290899Y89940D01*
X291465D01*
Y98425D01*
D02*
G37*
G36*
X212791Y97155D02*
X204627D01*
Y87229D01*
X212791D01*
Y97155D01*
D02*
G37*
G36*
X203357D02*
X195194D01*
Y87229D01*
X203357D01*
Y97155D01*
D02*
G37*
G36*
X617137Y136020D02*
X614762D01*
X612468Y135405D01*
X610412Y134218D01*
X608732Y132538D01*
X607545Y130482D01*
X606930Y128188D01*
Y125813D01*
X607545Y123518D01*
X608732Y121462D01*
X610412Y119782D01*
X612468Y118595D01*
X613024Y118446D01*
Y99060D01*
X613246Y97940D01*
X613881Y96991D01*
X625311Y85561D01*
X626260Y84927D01*
X627380Y84704D01*
X639325D01*
X639329Y84689D01*
X640332Y82951D01*
X641751Y81532D01*
X643489Y80529D01*
X645427Y80010D01*
X647433D01*
X649371Y80529D01*
X651109Y81532D01*
X652527Y82951D01*
X653531Y84689D01*
X654050Y86627D01*
Y88633D01*
X653531Y90571D01*
X652527Y92309D01*
X651109Y93728D01*
X649371Y94731D01*
X647433Y95250D01*
X645427D01*
X643489Y94731D01*
X641751Y93728D01*
X640332Y92309D01*
X639329Y90571D01*
X639325Y90556D01*
X628592D01*
X618876Y100272D01*
Y118446D01*
X619432Y118595D01*
X621488Y119782D01*
X623168Y121462D01*
X624355Y123518D01*
X624970Y125813D01*
Y128188D01*
X624355Y130482D01*
X623168Y132538D01*
X621488Y134218D01*
X619432Y135405D01*
X617137Y136020D01*
D02*
G37*
G36*
X762950Y95885D02*
X742315D01*
Y75250D01*
X743775D01*
X747884Y76067D01*
X751755Y77671D01*
X755239Y79998D01*
X758202Y82961D01*
X760529Y86445D01*
X762133Y90316D01*
X762950Y94425D01*
Y95885D01*
D02*
G37*
G36*
X741045D02*
X720410D01*
Y94425D01*
X721227Y90316D01*
X722831Y86445D01*
X725158Y82961D01*
X728121Y79998D01*
X731605Y77671D01*
X735476Y76067D01*
X739585Y75250D01*
X741045D01*
Y95885D01*
D02*
G37*
G36*
X124140Y94615D02*
X103505D01*
Y73980D01*
X104965D01*
X109074Y74797D01*
X112945Y76401D01*
X116429Y78728D01*
X119391Y81691D01*
X121719Y85175D01*
X123323Y89046D01*
X124140Y93155D01*
Y94615D01*
D02*
G37*
G36*
X102235D02*
X81600D01*
Y93155D01*
X82417Y89046D01*
X84021Y85175D01*
X86348Y81691D01*
X89311Y78728D01*
X92795Y76401D01*
X96666Y74797D01*
X100775Y73980D01*
X102235D01*
Y94615D01*
D02*
G37*
%LPD*%
D10*
X660400Y345440D02*
D03*
X625400D02*
D03*
X654050Y825500D02*
D03*
X619050D02*
D03*
X294360Y808990D02*
D03*
X259360D02*
D03*
X294360Y862330D02*
D03*
X259360D02*
D03*
D11*
X624798Y317500D02*
D03*
X652822D02*
D03*
X229955Y355600D02*
D03*
X201930D02*
D03*
X520658Y278130D02*
D03*
X548682D02*
D03*
X506772Y170180D02*
D03*
X478748D02*
D03*
X505545Y227330D02*
D03*
X477520D02*
D03*
X459782Y328930D02*
D03*
X431758D02*
D03*
X459782Y381000D02*
D03*
X431758D02*
D03*
X624755Y797560D02*
D03*
X652780D02*
D03*
X514308Y759460D02*
D03*
X542332D02*
D03*
X223605Y836930D02*
D03*
X195580D02*
D03*
X500422Y651510D02*
D03*
X472398D02*
D03*
X499195Y708660D02*
D03*
X471170D02*
D03*
X453432Y810260D02*
D03*
X425408D02*
D03*
X453432Y862330D02*
D03*
X425408D02*
D03*
X351832Y808990D02*
D03*
X323808D02*
D03*
X351832Y862330D02*
D03*
X323808D02*
D03*
D12*
X263368Y389890D02*
D03*
X292892D02*
D03*
X262098Y321310D02*
D03*
X291622D02*
D03*
X174468Y97790D02*
D03*
X203992D02*
D03*
X393385Y111760D02*
D03*
X422910D02*
D03*
X387828Y294640D02*
D03*
X417352D02*
D03*
X472918Y113030D02*
D03*
X502442D02*
D03*
X168118Y579120D02*
D03*
X197642D02*
D03*
X387035Y593090D02*
D03*
X416560D02*
D03*
X381478Y775970D02*
D03*
X411002D02*
D03*
X466568Y594360D02*
D03*
X496092D02*
D03*
D13*
X274320Y197290D02*
D03*
X299720Y252290D02*
D03*
X261620Y197290D02*
D03*
X287020D02*
D03*
X299720D02*
D03*
X287020Y252290D02*
D03*
X312420D02*
D03*
X325120D02*
D03*
Y197290D02*
D03*
X350520Y252290D02*
D03*
X312420Y197290D02*
D03*
X337820D02*
D03*
Y252290D02*
D03*
X350520Y197290D02*
D03*
X274320Y252290D02*
D03*
X261620D02*
D03*
D14*
X232410Y206730D02*
D03*
Y171730D02*
D03*
X226060Y688060D02*
D03*
Y653060D02*
D03*
D15*
X240030Y94458D02*
D03*
Y123982D02*
D03*
X400050Y335758D02*
D03*
Y365282D02*
D03*
X233680Y575788D02*
D03*
Y605312D02*
D03*
X393700Y817088D02*
D03*
Y846612D02*
D03*
D16*
X177950Y226400D02*
D03*
Y213900D02*
D03*
Y238900D02*
D03*
Y201400D02*
D03*
X171600Y707730D02*
D03*
Y695230D02*
D03*
Y720230D02*
D03*
Y682730D02*
D03*
D17*
X113950Y152150D02*
D03*
Y288150D02*
D03*
X107600Y633480D02*
D03*
Y769480D02*
D03*
D18*
X232410Y242528D02*
D03*
Y270552D02*
D03*
X226060Y723858D02*
D03*
Y751882D02*
D03*
D19*
X667130Y237850D02*
D03*
X587630D02*
D03*
X667130Y282850D02*
D03*
X587630D02*
D03*
X660780Y719180D02*
D03*
X581280D02*
D03*
X660780Y764180D02*
D03*
X581280D02*
D03*
D20*
X518100Y315640D02*
D03*
X526100D02*
D03*
X534100D02*
D03*
X542100D02*
D03*
X550100D02*
D03*
X558100D02*
D03*
X566100D02*
D03*
X574100D02*
D03*
Y400640D02*
D03*
X566100D02*
D03*
X558100D02*
D03*
X550100D02*
D03*
X542100D02*
D03*
X534100D02*
D03*
X526100D02*
D03*
X518100D02*
D03*
X511750Y796970D02*
D03*
X519750D02*
D03*
X527750D02*
D03*
X535750D02*
D03*
X543750D02*
D03*
X551750D02*
D03*
X559750D02*
D03*
X567750D02*
D03*
Y881970D02*
D03*
X559750D02*
D03*
X551750D02*
D03*
X543750D02*
D03*
X535750D02*
D03*
X527750D02*
D03*
X519750D02*
D03*
X511750D02*
D03*
D21*
X588600Y330140D02*
D03*
Y338140D02*
D03*
Y346140D02*
D03*
Y354140D02*
D03*
Y362140D02*
D03*
Y370140D02*
D03*
Y378140D02*
D03*
Y386140D02*
D03*
X503600D02*
D03*
Y378140D02*
D03*
Y370140D02*
D03*
Y362140D02*
D03*
Y354140D02*
D03*
Y346140D02*
D03*
Y338140D02*
D03*
Y330140D02*
D03*
X582250Y811470D02*
D03*
Y819470D02*
D03*
Y827470D02*
D03*
Y835470D02*
D03*
Y843470D02*
D03*
Y851470D02*
D03*
Y859470D02*
D03*
Y867470D02*
D03*
X497250D02*
D03*
Y859470D02*
D03*
Y851470D02*
D03*
Y843470D02*
D03*
Y835470D02*
D03*
Y827470D02*
D03*
Y819470D02*
D03*
Y811470D02*
D03*
D22*
X411480Y239940D02*
D03*
Y196940D02*
D03*
X405130Y721270D02*
D03*
Y678270D02*
D03*
D23*
X726410Y316230D02*
X741850Y331670D01*
X686700Y316230D02*
X726410D01*
X476250Y406400D02*
Y427990D01*
X441020Y435940D02*
X468300D01*
X476250Y427990D01*
X416560Y411480D02*
X441020Y435940D01*
X416560Y374665D02*
X459782Y331442D01*
Y328930D02*
Y331442D01*
X416560Y374665D02*
Y411480D01*
X472110Y349580D02*
Y391169D01*
X481330Y368300D02*
X482890D01*
X472110Y391169D02*
X478121Y397180D01*
X481330Y385359D02*
X496549Y370140D01*
X481330Y385359D02*
Y387350D01*
X640835Y428745D02*
X648260Y436170D01*
X662380D02*
X666750Y431800D01*
X532130Y440690D02*
X690880D01*
X488620Y397180D02*
X532130Y440690D01*
X690880D02*
X706120Y425450D01*
X648260Y436170D02*
X662380D01*
X666750Y411480D02*
Y431800D01*
X655320Y400050D02*
X666750Y411480D01*
X633970Y414340D02*
X640835Y421205D01*
X593410Y414340D02*
X633970D01*
X586740Y407670D02*
X593410Y414340D01*
X640835Y421205D02*
Y428745D01*
X574100Y406377D02*
X575393Y407670D01*
X574100Y400640D02*
Y406377D01*
X575393Y407670D02*
X586740D01*
X593750Y394360D02*
X599440Y400050D01*
X629920D01*
X593750Y387433D02*
Y394360D01*
X652822Y317500D02*
Y337862D01*
X660400Y345440D01*
X625400D02*
X655320Y375360D01*
Y400050D01*
X702310D02*
X706120Y403860D01*
X680720Y400050D02*
X702310D01*
X706120Y403860D02*
Y425450D01*
X478121Y397180D02*
X488620D01*
X472110Y349580D02*
X473710Y347980D01*
X566100Y400640D02*
Y417510D01*
X574040Y425450D01*
X629920D01*
X642620Y412750D02*
X655320Y425450D01*
X642620Y388620D02*
Y412750D01*
X632140Y378140D02*
X642620Y388620D01*
X588600Y378140D02*
X632140D01*
X588600Y386140D02*
X592457D01*
X593750Y387433D01*
X350520Y252290D02*
Y267442D01*
X342900Y275062D02*
X350520Y267442D01*
X342900Y275062D02*
Y275590D01*
X465340Y242022D02*
X477520Y229842D01*
X458470Y243840D02*
X460288Y242022D01*
X465340D01*
X477520Y227330D02*
Y229842D01*
X458470Y193040D02*
Y214630D01*
X474666Y224476D02*
X477520Y227330D01*
X468316Y224476D02*
X474666D01*
X458470Y214630D02*
X468316Y224476D01*
X429260Y163830D02*
X458470Y193040D01*
X388620Y163830D02*
X429260D01*
X341900Y373650D02*
X342900D01*
X334010Y365760D02*
X341900Y373650D01*
X295910Y365760D02*
X334010D01*
X294640Y345440D02*
X322310D01*
X342900Y324850D01*
X350520Y182911D02*
X356870Y176561D01*
X350520Y182911D02*
Y197290D01*
X356870Y173990D02*
Y176561D01*
X337820Y172720D02*
Y197290D01*
X311785Y160655D02*
Y196655D01*
X311150Y160020D02*
X311785Y160655D01*
Y196655D02*
X312420Y197290D01*
X323850Y151130D02*
X325120Y152400D01*
Y197290D01*
X360609Y278059D02*
X402534D01*
X417352Y292878D01*
Y294640D01*
X359410Y276860D02*
X360609Y278059D01*
X389159Y273589D02*
X438810D01*
X342900Y227330D02*
X389159Y273589D01*
X299720Y172720D02*
Y197290D01*
X261620Y172720D02*
X263368Y170972D01*
Y123982D02*
Y170972D01*
X317500Y124460D02*
Y139700D01*
X287020Y170180D02*
Y197290D01*
Y170180D02*
X317500Y139700D01*
X261620Y270510D02*
X280670Y289560D01*
X355600D02*
X382270Y316230D01*
X280670Y289560D02*
X355600D01*
X261620Y255740D02*
Y270510D01*
Y252290D02*
Y255740D01*
X392359Y359354D02*
X398288Y365282D01*
X400050D01*
X392359Y357591D02*
Y359354D01*
X382270Y347502D02*
X392359Y357591D01*
X382270Y316230D02*
Y347502D01*
X291622Y321310D02*
X336979D01*
X340519Y324850D01*
X342900D01*
X326660Y389890D02*
X342900Y373650D01*
X292892Y389890D02*
X326660D01*
X237089Y265874D02*
X251486D01*
X261620Y255740D01*
X232410Y270552D02*
X237089Y265874D01*
X299720Y252290D02*
Y279400D01*
X290830Y227330D02*
X342900D01*
X274320Y197290D02*
Y210820D01*
X290830Y227330D01*
X297721Y222860D02*
X346062D01*
X287020Y212159D02*
X297721Y222860D01*
X287020Y197290D02*
Y212159D01*
X274320Y172720D02*
Y197290D01*
Y172720D02*
X292100Y154940D01*
Y124460D02*
Y154940D01*
X342900Y99060D02*
X363220D01*
X369570Y105410D02*
Y192030D01*
X363220Y99060D02*
X369570Y105410D01*
Y192030D02*
X411480Y233940D01*
X627380Y87630D02*
X646430D01*
X615950Y99060D02*
X627380Y87630D01*
X615950Y99060D02*
Y127000D01*
X232410Y206730D02*
Y242528D01*
X377190Y125730D02*
X405130Y153670D01*
X377190Y88900D02*
Y125730D01*
Y88900D02*
X391160Y74930D01*
X490262Y153670D02*
X499581Y162989D01*
X405130Y153670D02*
X490262D01*
X242092Y96520D02*
X265430D01*
X240030Y94458D02*
X242092Y96520D01*
X240030Y123982D02*
X263368D01*
X274320Y113030D01*
X331470D01*
X342900Y124460D01*
X318770Y74930D02*
X342900Y99060D01*
X174468Y97790D02*
Y112238D01*
Y80802D02*
Y97790D01*
X180340Y74930D02*
X318770D01*
X174468Y80802D02*
X180340Y74930D01*
X199390Y119380D02*
X208280Y128270D01*
X181610Y119380D02*
X199390D01*
X174468Y112238D02*
X181610Y119380D01*
X208280Y128270D02*
Y200660D01*
X184150Y355600D02*
X201930D01*
X172920Y344370D02*
X184150Y355600D01*
X143340Y344370D02*
X172920D01*
X668920Y298450D02*
X686700Y316230D01*
X727051Y278771D02*
X739109Y290830D01*
X727051Y263501D02*
Y278771D01*
X739109Y290830D02*
X741680D01*
X726440Y262890D02*
X727051Y263501D01*
X709370Y210820D02*
X726440Y227890D01*
X666750Y210820D02*
X709370D01*
X681990Y91440D02*
Y162560D01*
X665480Y74930D02*
X681990Y91440D01*
X391160Y74930D02*
X665480D01*
X594360Y309880D02*
X596178Y311698D01*
X602528D01*
X605790Y314960D01*
Y351790D01*
X588600Y354140D02*
X603440D01*
X605790Y351790D01*
X459740Y381042D02*
Y426720D01*
Y381042D02*
X459782Y381000D01*
X587630Y282850D02*
X612500D01*
X667130D01*
X629920Y209550D02*
Y265430D01*
X617220Y196850D02*
X629920Y209550D01*
X612500Y282850D02*
X629920Y265430D01*
X566100Y189450D02*
Y315640D01*
X552450Y127000D02*
X574100Y148650D01*
Y315640D01*
X552450Y175800D02*
X566100Y189450D01*
X725880Y179070D02*
X726440Y178510D01*
X698500Y179070D02*
X725880D01*
X681990Y162560D02*
X698500Y179070D01*
X566420Y373380D02*
Y400320D01*
X566100Y400640D02*
X566420Y400320D01*
X558100Y315640D02*
Y365060D01*
X566420Y373380D01*
X519388Y276860D02*
X520658Y278130D01*
X508031Y276860D02*
X519388D01*
X499110Y283210D02*
X501681D01*
X508031Y276860D01*
X457200Y168910D02*
X477478D01*
X478748Y170180D01*
X476281Y347980D02*
X482441Y354140D01*
X473710Y347980D02*
X476281D01*
X482441Y354140D02*
X503600D01*
X489050Y362140D02*
X503600D01*
X482890Y368300D02*
X489050Y362140D01*
X496549Y370140D02*
X503600D01*
X203169Y243840D02*
X205740D01*
X208280Y200660D02*
X215900Y208280D01*
Y260350D01*
X221958Y262613D02*
X229898Y270552D01*
X215900Y260350D02*
X218163Y262613D01*
X221958D01*
X179390Y224960D02*
X204300D01*
X177950Y226400D02*
X179390Y224960D01*
X204300D02*
X205740Y223520D01*
X177950Y238900D02*
X198229D01*
X203169Y243840D01*
X232410Y270552D02*
Y307340D01*
X229955Y309795D02*
X232410Y307340D01*
X229955Y309795D02*
Y355600D01*
X229898Y270552D02*
X232410D01*
X177950Y201400D02*
X207540D01*
X208280Y200660D01*
X550269Y291741D02*
X553361D01*
X542100Y299910D02*
Y315640D01*
Y299910D02*
X550269Y291741D01*
X411480Y233940D02*
Y239940D01*
Y259080D01*
X416560Y264160D01*
X486410Y321189D02*
Y336002D01*
X346062Y222860D02*
X391832Y268630D01*
X490880Y332471D02*
X496549Y338140D01*
X490880Y319338D02*
Y332471D01*
X416560Y264160D02*
X515620D01*
X496549Y338140D02*
X503600D01*
X440173Y268630D02*
X490880Y319338D01*
X438810Y273589D02*
X486410Y321189D01*
X391832Y268630D02*
X440173D01*
X486410Y336002D02*
X496549Y346140D01*
X503600D01*
X612140Y302260D02*
X615950Y298450D01*
X612140Y302260D02*
Y355600D01*
X615950Y298450D02*
X668920D01*
X605600Y362140D02*
X612140Y355600D01*
X588600Y362140D02*
X605600D01*
X499581Y162989D02*
X502094D01*
X506772Y167668D02*
Y170180D01*
X502094Y162989D02*
X506772Y167668D01*
X514350Y88900D02*
X552450Y127000D01*
X393385Y109998D02*
X414483Y88900D01*
X514350D01*
X515620Y264160D02*
X521970Y257810D01*
X548682Y260392D02*
Y278130D01*
X546100Y257810D02*
X548682Y260392D01*
X521970Y257810D02*
X546100D01*
X505545Y241385D02*
X521970Y257810D01*
X505545Y227330D02*
Y241385D01*
X506772Y170180D02*
Y226102D01*
X505545Y227330D02*
X506772Y226102D01*
X553361Y291741D02*
X558100Y296480D01*
Y315640D01*
X553361Y282809D02*
Y291741D01*
X548682Y278130D02*
X553361Y282809D01*
X502442Y125792D02*
X552450Y175800D01*
X502442Y113030D02*
Y125792D01*
X393385Y109998D02*
Y111760D01*
X232410Y93188D02*
X234172D01*
X605790Y788670D02*
X613410Y781050D01*
X709930D01*
X605790Y788670D02*
Y836930D01*
X709930Y781050D02*
X740410Y811530D01*
X652780Y797560D02*
X654050Y798830D01*
Y825500D01*
X434670Y917270D02*
X463220D01*
X471170Y909320D01*
X412750Y895350D02*
X434670Y917270D01*
X412750Y845820D02*
Y895350D01*
Y845820D02*
X421640Y836930D01*
X446241Y817451D02*
X448754D01*
X421640Y836930D02*
X426762D01*
X453432Y810260D02*
Y812772D01*
X448754Y817451D02*
X453432Y812772D01*
X426762Y836930D02*
X446241Y817451D01*
X673100Y878840D02*
X687070D01*
X697230Y889000D02*
Y908050D01*
X687070Y878840D02*
X697230Y889000D01*
X500380Y919480D02*
X685800D01*
X697230Y908050D01*
X465760Y884860D02*
X500380Y919480D01*
X465760Y830910D02*
Y884860D01*
Y830910D02*
X467360Y829310D01*
X656030Y914960D02*
X660400Y910590D01*
X647700Y878840D02*
X660400Y891540D01*
Y910590D01*
X639370Y914960D02*
X656030D01*
X633682Y909272D02*
X639370Y914960D01*
X633682Y900462D02*
Y909272D01*
X624105Y890885D02*
X633682Y900462D01*
X605671Y881970D02*
X614586Y890885D01*
X624105D01*
X567750Y881970D02*
X605671D01*
X619050Y825500D02*
X647700Y854150D01*
Y878840D01*
X622689Y859470D02*
X633998Y870780D01*
Y890538D01*
X647700Y904240D01*
X582250Y859470D02*
X622689D01*
X610930Y867470D02*
X622300Y878840D01*
X582250Y867470D02*
X610930D01*
X559750Y889021D02*
X574968Y904240D01*
X559750Y881970D02*
Y889021D01*
X574968Y904240D02*
X622300D01*
X720701Y760101D02*
X732759Y772160D01*
X735330D01*
X621030Y568960D02*
X640080D01*
X609600Y580390D02*
X621030Y568960D01*
X609600Y580390D02*
Y608330D01*
X226060Y688060D02*
Y723858D01*
X277408Y763992D02*
X289721Y751679D01*
X277408Y763992D02*
Y771612D01*
X259340Y782650D02*
X299390D01*
X228572Y751882D02*
X259340Y782650D01*
X299390D02*
X309470Y772570D01*
X275590Y773430D02*
X277408Y771612D01*
X289721Y743619D02*
Y751679D01*
Y743619D02*
X289970Y743370D01*
X296470D02*
Y769060D01*
X295910Y769620D02*
X296470Y769060D01*
X341721Y743619D02*
Y758861D01*
X358206Y775346D01*
Y777916D01*
X335470Y773620D02*
X345440Y783590D01*
X335470Y743370D02*
Y773620D01*
X393222Y793750D02*
X403311Y783661D01*
X328970Y783630D02*
X339090Y793750D01*
X393222D01*
X328970Y743370D02*
Y783630D01*
X309470Y743370D02*
Y772570D01*
X259360Y808990D02*
X275590Y792760D01*
Y792480D02*
Y792760D01*
X272739Y638499D02*
Y648690D01*
X276970Y652921D01*
X271780Y637540D02*
X272739Y638499D01*
X276970Y652921D02*
Y668870D01*
X254000Y640080D02*
X263970Y650050D01*
Y668870D01*
X241300Y635000D02*
Y661670D01*
Y635000D02*
X247650Y628650D01*
X265430D01*
X272494Y621586D01*
Y619046D02*
Y621586D01*
X258532Y614132D02*
X260350Y615950D01*
X258532Y606827D02*
Y614132D01*
X257018Y605312D02*
X258532Y606827D01*
X345719Y571221D02*
X352069D01*
X336550Y580390D02*
X345719Y571221D01*
X352069D02*
X361950Y561340D01*
X347757Y588947D02*
X352727D01*
X360680Y596900D02*
Y670820D01*
X352727Y588947D02*
X360680Y596900D01*
Y670820D02*
X405130Y715270D01*
X339200Y580390D02*
X347757Y588947D01*
X336550Y580390D02*
X339200D01*
X370840Y607060D02*
X398780Y635000D01*
X370840Y570230D02*
Y607060D01*
Y570230D02*
X384810Y556260D01*
X372110Y640080D02*
X419100D01*
X483912Y635000D02*
X493231Y644319D01*
X398780Y635000D02*
X483912D01*
X235742Y577850D02*
X259080D01*
X233680Y575788D02*
X235742Y577850D01*
X247807Y668177D02*
X256870D01*
X241300Y661670D02*
X247807Y668177D01*
X256870D02*
X257470Y668777D01*
Y668870D02*
Y676222D01*
X233680Y605312D02*
X257018D01*
X267970Y594360D01*
X325120D01*
X336550Y605790D01*
X272494Y619046D02*
X285750Y605790D01*
X283470Y633470D02*
X311150Y605790D01*
X283470Y633470D02*
Y668870D01*
X312420Y556260D02*
X336550Y580390D01*
X168118Y579120D02*
Y593568D01*
Y562132D02*
Y579120D01*
X173990Y556260D02*
X312420D01*
X168118Y562132D02*
X173990Y556260D01*
X193040Y600710D02*
X201930Y609600D01*
X175260Y600710D02*
X193040D01*
X168118Y593568D02*
X175260Y600710D01*
X201930Y609600D02*
Y681990D01*
X177800Y836930D02*
X195580D01*
X166570Y825700D02*
X177800Y836930D01*
X136990Y825700D02*
X166570D01*
X720701Y744831D02*
Y760101D01*
X720090Y744220D02*
X720701Y744831D01*
X703020Y692150D02*
X720090Y709220D01*
X660400Y692150D02*
X703020D01*
X675640Y572770D02*
Y643890D01*
X659130Y556260D02*
X675640Y572770D01*
X384810Y556260D02*
X659130D01*
X588010Y791210D02*
X589828Y793028D01*
X596178D01*
X599440Y796290D01*
Y833120D01*
X582250Y835470D02*
X597090D01*
X599440Y833120D01*
X453390Y862372D02*
Y908050D01*
Y862372D02*
X453432Y862330D01*
X581280Y764180D02*
X606150D01*
X660780D01*
X623570Y690880D02*
Y746760D01*
X610870Y678180D02*
X623570Y690880D01*
X606150Y764180D02*
X623570Y746760D01*
X559750Y670780D02*
Y796970D01*
X546100Y608330D02*
X567750Y629980D01*
Y796970D01*
X546100Y657130D02*
X559750Y670780D01*
X719530Y660400D02*
X720090Y659840D01*
X692150Y660400D02*
X719530D01*
X675640Y643890D02*
X692150Y660400D01*
X560070Y854710D02*
Y881650D01*
X559750Y881970D02*
X560070Y881650D01*
X551750Y796970D02*
Y846390D01*
X560070Y854710D01*
X513038Y758190D02*
X514308Y759460D01*
X501681Y758190D02*
X513038D01*
X492760Y764540D02*
X495331D01*
X501681Y758190D01*
X450850Y650240D02*
X471128D01*
X472398Y651510D01*
X441960Y662940D02*
Y676938D01*
X419100Y640080D02*
X441960Y662940D01*
Y676938D02*
X471170Y706148D01*
X452120Y725170D02*
X453938Y723352D01*
X458990D02*
X471170Y711172D01*
Y708660D02*
Y711172D01*
Y706148D02*
Y708660D01*
X453938Y723352D02*
X458990D01*
X469931Y829310D02*
X476091Y835470D01*
X467360Y829310D02*
X469931D01*
X476091Y835470D02*
X497250D01*
X482700Y843470D02*
X497250D01*
X476540Y849630D02*
X482700Y843470D01*
X474980Y849630D02*
X476540D01*
X474980Y866689D02*
X490199Y851470D01*
X497250D01*
X474980Y866689D02*
Y868680D01*
X251740Y869950D02*
X259360Y862330D01*
X238760Y869950D02*
X251740D01*
X196819Y725170D02*
X199390D01*
X341721Y743619D02*
X341970Y743370D01*
X201930Y681990D02*
X209550Y689610D01*
Y741680D01*
X215608Y743943D02*
X223548Y751882D01*
X209550Y741680D02*
X211813Y743943D01*
X215608D01*
X173040Y706290D02*
X197950D01*
X171600Y707730D02*
X173040Y706290D01*
X197950D02*
X199390Y704850D01*
X171600Y720230D02*
X191879D01*
X196819Y725170D01*
X226060Y751882D02*
X228572D01*
X226060D02*
Y788670D01*
X223605Y791125D02*
X226060Y788670D01*
X223605Y791125D02*
Y836930D01*
X223548Y751882D02*
X226060D01*
X171600Y682730D02*
X201190D01*
X201930Y681990D01*
X283470Y668870D02*
Y696289D01*
X258850Y677991D02*
X289519Y708660D01*
X283470Y696289D02*
X291371Y704190D01*
X339712D01*
X289519Y708660D02*
X334010D01*
X543919Y773071D02*
X547011D01*
X535750Y781240D02*
Y796970D01*
Y781240D02*
X543919Y773071D01*
X403311Y783661D02*
X405074D01*
X411002Y775970D02*
Y777732D01*
X405074Y783661D02*
X411002Y777732D01*
X405130Y715270D02*
Y721270D01*
Y740410D01*
X410210Y745490D01*
X334010Y708660D02*
X380269Y754919D01*
X480060Y802519D02*
Y817331D01*
X339712Y704190D02*
X385482Y749960D01*
X484530Y813801D02*
X490199Y819470D01*
X484530Y800667D02*
Y813801D01*
X410210Y745490D02*
X509270D01*
X490199Y819470D02*
X497250D01*
X433823Y749960D02*
X484530Y800667D01*
X432460Y754919D02*
X480060Y802519D01*
X385482Y749960D02*
X433823D01*
X380269Y754919D02*
X432460D01*
X258850Y677602D02*
Y677991D01*
X257470Y676222D02*
X258850Y677602D01*
X480060Y817331D02*
X490199Y827470D01*
X497250D01*
X599250Y843470D02*
X605790Y836930D01*
X582250Y843470D02*
X599250D01*
X493231Y644319D02*
X495744D01*
X500422Y648998D02*
Y651510D01*
X495744Y644319D02*
X500422Y648998D01*
X508000Y570230D02*
X546100Y608330D01*
X387035Y591328D02*
X408133Y570230D01*
X508000D01*
X509270Y745490D02*
X515620Y739140D01*
X542332Y741722D02*
Y759460D01*
X539750Y739140D02*
X542332Y741722D01*
X515620Y739140D02*
X539750D01*
X499195Y722715D02*
X515620Y739140D01*
X499195Y708660D02*
Y722715D01*
X500422Y651510D02*
Y707432D01*
X499195Y708660D02*
X500422Y707432D01*
X547011Y773071D02*
X551750Y777810D01*
Y796970D01*
X547011Y764139D02*
Y773071D01*
X542332Y759460D02*
X547011Y764139D01*
X351832Y859818D02*
Y862330D01*
Y808990D02*
Y859818D01*
X496092Y607122D02*
X546100Y657130D01*
X496092Y594360D02*
Y607122D01*
X387035Y591328D02*
Y593090D01*
X226060Y574518D02*
X227822D01*
X328945Y836930D02*
X351832Y859818D01*
X223605Y836930D02*
X328945D01*
X351832Y859818D02*
X365037Y846612D01*
X393700D01*
X294360Y808990D02*
X323808D01*
X294360Y862330D02*
X323808D01*
D24*
X341970Y743370D02*
D03*
X335470D02*
D03*
X328970D02*
D03*
X322470D02*
D03*
X315970D02*
D03*
X309470D02*
D03*
X302970D02*
D03*
X296470D02*
D03*
X289970D02*
D03*
X283470D02*
D03*
X276970D02*
D03*
X270470D02*
D03*
X263970D02*
D03*
X257470D02*
D03*
X341970Y668870D02*
D03*
X335470D02*
D03*
X328970D02*
D03*
X322470D02*
D03*
X315970D02*
D03*
X309470D02*
D03*
X302970D02*
D03*
X296470D02*
D03*
X289970D02*
D03*
X283470D02*
D03*
X276970D02*
D03*
X270470D02*
D03*
X263970D02*
D03*
X257470D02*
D03*
D25*
X680720Y425450D02*
D03*
X655320D02*
D03*
X629920D02*
D03*
X680720Y400050D02*
D03*
X655320D02*
D03*
X292100Y99060D02*
D03*
X317500D02*
D03*
X342900D02*
D03*
X292100Y124460D02*
D03*
X317500D02*
D03*
X673100Y904240D02*
D03*
X647700D02*
D03*
X622300D02*
D03*
X673100Y878840D02*
D03*
X647700D02*
D03*
X285750Y580390D02*
D03*
X311150D02*
D03*
X336550D02*
D03*
X285750Y605790D02*
D03*
X311150D02*
D03*
D26*
X629920Y400050D02*
D03*
X342900Y124460D02*
D03*
X622300Y878840D02*
D03*
X336550Y605790D02*
D03*
D27*
X229870Y407670D02*
D03*
D28*
X204470D02*
D03*
D29*
X342900Y373650D02*
D03*
Y324850D02*
D03*
X552450Y175800D02*
D03*
X546100Y657130D02*
D03*
D30*
X107950Y247650D02*
D03*
Y192650D02*
D03*
X101600Y728980D02*
D03*
Y673980D02*
D03*
D31*
X726440Y262890D02*
D03*
Y178510D02*
D03*
X720090Y744220D02*
D03*
Y659840D02*
D03*
D32*
X726440Y227890D02*
D03*
Y143510D02*
D03*
X720090Y709220D02*
D03*
Y624840D02*
D03*
D33*
X741850Y356670D02*
D03*
X143340Y344370D02*
D03*
X740410Y836530D02*
D03*
X136990Y825700D02*
D03*
D34*
X741850Y331670D02*
D03*
X615950Y127000D02*
D03*
X143340Y369370D02*
D03*
X740410Y811530D02*
D03*
X609600Y608330D02*
D03*
X136990Y850700D02*
D03*
D35*
X640950Y127000D02*
D03*
X634600Y608330D02*
D03*
D36*
X552450Y127000D02*
D03*
X546100Y608330D02*
D03*
D37*
X102870Y95250D02*
D03*
Y416560D02*
D03*
X741680Y96520D02*
D03*
X742950Y416560D02*
D03*
X96520Y576580D02*
D03*
Y897890D02*
D03*
X735330Y577850D02*
D03*
X736600Y897890D02*
D03*
D38*
X757121Y312040D02*
D03*
Y192040D02*
D03*
X747121Y172040D02*
D03*
X717121Y432040D02*
D03*
Y392040D02*
D03*
X727121Y372040D02*
D03*
X717121Y112040D02*
D03*
X707121Y372040D02*
D03*
Y332040D02*
D03*
X697121Y272040D02*
D03*
X707121Y252040D02*
D03*
X697121Y232040D02*
D03*
Y152040D02*
D03*
X707121Y92040D02*
D03*
X687121Y372040D02*
D03*
Y332040D02*
D03*
Y252040D02*
D03*
X667121Y372040D02*
D03*
Y172040D02*
D03*
X657121Y152040D02*
D03*
X667121Y132040D02*
D03*
X657121Y112040D02*
D03*
X647120Y252040D02*
D03*
Y212040D02*
D03*
Y172040D02*
D03*
X637120Y152040D02*
D03*
X627120Y172040D02*
D03*
X607120Y252040D02*
D03*
Y212040D02*
D03*
Y172040D02*
D03*
X597120Y112040D02*
D03*
X607120Y92040D02*
D03*
X587120Y212040D02*
D03*
Y172040D02*
D03*
Y132040D02*
D03*
X577120Y112040D02*
D03*
X587120Y92040D02*
D03*
X567120D02*
D03*
X547120Y372040D02*
D03*
X537120Y352040D02*
D03*
X547120Y212040D02*
D03*
Y92040D02*
D03*
X527120Y372040D02*
D03*
Y212040D02*
D03*
Y172040D02*
D03*
Y132040D02*
D03*
X497120Y432040D02*
D03*
X487120Y252040D02*
D03*
Y132040D02*
D03*
X467120D02*
D03*
X447120Y412040D02*
D03*
Y132040D02*
D03*
X417120Y352040D02*
D03*
X427120Y132040D02*
D03*
X397120Y392040D02*
D03*
X407120Y132040D02*
D03*
X377120Y432040D02*
D03*
X357120D02*
D03*
Y392040D02*
D03*
Y352040D02*
D03*
X337120Y432040D02*
D03*
Y352040D02*
D03*
X317120Y432040D02*
D03*
X297120D02*
D03*
X277120D02*
D03*
Y352040D02*
D03*
Y232040D02*
D03*
X257120Y432040D02*
D03*
Y352040D02*
D03*
X267120Y292040D02*
D03*
X237120Y432040D02*
D03*
X247120Y372040D02*
D03*
Y292040D02*
D03*
X217120Y432040D02*
D03*
Y312040D02*
D03*
X197120Y432040D02*
D03*
X207120Y332040D02*
D03*
X197120Y312040D02*
D03*
X207120Y292040D02*
D03*
X197120Y272040D02*
D03*
X177120Y432040D02*
D03*
X187120Y412040D02*
D03*
X177120Y392040D02*
D03*
X187120Y372040D02*
D03*
Y332040D02*
D03*
X177120Y312040D02*
D03*
X187120Y292040D02*
D03*
X177120Y272040D02*
D03*
X187120Y252040D02*
D03*
Y172040D02*
D03*
X177120Y152040D02*
D03*
X187120Y132040D02*
D03*
X157120Y432040D02*
D03*
X167120Y412040D02*
D03*
X157120Y392040D02*
D03*
X167120Y372040D02*
D03*
Y332040D02*
D03*
X157120Y312040D02*
D03*
X167120Y292040D02*
D03*
X157120Y272040D02*
D03*
X167120Y252040D02*
D03*
Y172040D02*
D03*
X157120Y152040D02*
D03*
X167120Y132040D02*
D03*
X157120Y112040D02*
D03*
X137120Y432040D02*
D03*
X147120Y412040D02*
D03*
X137120Y392040D02*
D03*
X147120Y252040D02*
D03*
X137120Y232040D02*
D03*
X147120Y212040D02*
D03*
X137120Y192040D02*
D03*
Y112040D02*
D03*
X147120Y92040D02*
D03*
X117120Y352040D02*
D03*
X127120Y332040D02*
D03*
Y252040D02*
D03*
X117120Y232040D02*
D03*
X127120Y212040D02*
D03*
X107120Y372040D02*
D03*
X97120Y352040D02*
D03*
X107120Y332040D02*
D03*
X97120Y232040D02*
D03*
X107120Y212040D02*
D03*
X87120Y372040D02*
D03*
Y332040D02*
D03*
Y252040D02*
D03*
Y212040D02*
D03*
X750770Y793370D02*
D03*
Y673370D02*
D03*
X740770Y853370D02*
D03*
Y653370D02*
D03*
X710770Y913370D02*
D03*
Y873370D02*
D03*
X720770Y853370D02*
D03*
Y813370D02*
D03*
X710770Y593370D02*
D03*
X700770Y853370D02*
D03*
Y813370D02*
D03*
X690770Y793370D02*
D03*
Y753370D02*
D03*
X700770Y733370D02*
D03*
X690770Y713370D02*
D03*
Y633370D02*
D03*
X700770Y573370D02*
D03*
X680770Y853370D02*
D03*
Y813370D02*
D03*
X670770Y793370D02*
D03*
X680770Y733370D02*
D03*
X660770Y853370D02*
D03*
Y653370D02*
D03*
X650770Y633370D02*
D03*
X660770Y613370D02*
D03*
X650770Y593370D02*
D03*
X640770Y733370D02*
D03*
Y693370D02*
D03*
Y653370D02*
D03*
X630770Y633370D02*
D03*
X620770Y653370D02*
D03*
X600770Y893370D02*
D03*
Y733370D02*
D03*
Y693370D02*
D03*
Y653370D02*
D03*
X590770Y593370D02*
D03*
X600770Y573370D02*
D03*
X580770Y693370D02*
D03*
Y653370D02*
D03*
Y613370D02*
D03*
X570770Y593370D02*
D03*
X580770Y573370D02*
D03*
X560770D02*
D03*
X540770Y853370D02*
D03*
X530770Y833370D02*
D03*
X540770Y693370D02*
D03*
Y573370D02*
D03*
X520770Y853370D02*
D03*
Y693370D02*
D03*
Y653370D02*
D03*
Y613370D02*
D03*
X480770Y733370D02*
D03*
Y613370D02*
D03*
X460770D02*
D03*
X440770Y893370D02*
D03*
Y613370D02*
D03*
X420770D02*
D03*
X400770Y893370D02*
D03*
X390770Y873370D02*
D03*
X400770Y613370D02*
D03*
X370770Y913370D02*
D03*
X350770D02*
D03*
X360770Y893370D02*
D03*
X330770Y913370D02*
D03*
X340770Y893370D02*
D03*
Y693370D02*
D03*
X310770Y913370D02*
D03*
X320770Y893370D02*
D03*
X310770Y793370D02*
D03*
X320770Y693370D02*
D03*
X290770Y913370D02*
D03*
X300770Y893370D02*
D03*
Y693370D02*
D03*
X270770Y913370D02*
D03*
X280770Y893370D02*
D03*
X250770Y913370D02*
D03*
X260770Y893370D02*
D03*
X230770Y913370D02*
D03*
X240770Y893370D02*
D03*
X230770Y633370D02*
D03*
X210770Y913370D02*
D03*
X220770Y893370D02*
D03*
X210770Y873370D02*
D03*
Y793370D02*
D03*
X190770Y913370D02*
D03*
X200770Y893370D02*
D03*
X190770Y873370D02*
D03*
X200770Y813370D02*
D03*
X190770Y793370D02*
D03*
X200770Y773370D02*
D03*
X190770Y633370D02*
D03*
X170770Y913370D02*
D03*
X180770Y893370D02*
D03*
X170770Y873370D02*
D03*
X180770Y853370D02*
D03*
Y813370D02*
D03*
X170770Y793370D02*
D03*
X180770Y773370D02*
D03*
X170770Y753370D02*
D03*
X180770Y653370D02*
D03*
X170770Y633370D02*
D03*
X180770Y613370D02*
D03*
X150770Y913370D02*
D03*
X160770Y893370D02*
D03*
X150770Y873370D02*
D03*
X160770Y853370D02*
D03*
Y813370D02*
D03*
X150770Y793370D02*
D03*
X160770Y773370D02*
D03*
X150770Y753370D02*
D03*
X160770Y733370D02*
D03*
Y653370D02*
D03*
X150770Y633370D02*
D03*
X160770Y613370D02*
D03*
X150770Y593370D02*
D03*
X130770Y913370D02*
D03*
X140770Y893370D02*
D03*
X130770Y873370D02*
D03*
X140770Y733370D02*
D03*
X130770Y713370D02*
D03*
X140770Y693370D02*
D03*
X130770Y673370D02*
D03*
Y593370D02*
D03*
X140770Y573370D02*
D03*
X110770Y833370D02*
D03*
X120770Y813370D02*
D03*
Y733370D02*
D03*
X110770Y713370D02*
D03*
X120770Y693370D02*
D03*
X100770Y853370D02*
D03*
X90770Y833370D02*
D03*
X100770Y813370D02*
D03*
X90770Y713370D02*
D03*
X100770Y693370D02*
D03*
X80770Y853370D02*
D03*
Y813370D02*
D03*
Y733370D02*
D03*
Y693370D02*
D03*
D39*
X481330Y368300D02*
D03*
Y387350D02*
D03*
X476250Y406400D02*
D03*
X342900Y275590D02*
D03*
X388620Y163830D02*
D03*
X356870Y173990D02*
D03*
X295910Y365760D02*
D03*
X294640Y345440D02*
D03*
X337820Y172720D02*
D03*
X311150Y160020D02*
D03*
X323850Y151130D02*
D03*
X359410Y276860D02*
D03*
X299720Y172720D02*
D03*
X261620D02*
D03*
X299720Y279400D02*
D03*
X265430Y96520D02*
D03*
X741680Y290830D02*
D03*
X646430Y87630D02*
D03*
X594360Y309880D02*
D03*
X459740Y426720D02*
D03*
X457200Y168910D02*
D03*
X499110Y283210D02*
D03*
X458470Y243840D02*
D03*
X666750Y210820D02*
D03*
X617220Y196850D02*
D03*
X473710Y347980D02*
D03*
X205740Y243840D02*
D03*
Y223520D02*
D03*
X471170Y909320D02*
D03*
X735330Y772160D02*
D03*
X275590Y773430D02*
D03*
X295910Y769620D02*
D03*
X358206Y777916D02*
D03*
X345440Y783590D02*
D03*
X275590Y792480D02*
D03*
X271780Y637540D02*
D03*
X254000Y640080D02*
D03*
X260350Y615950D02*
D03*
X361950Y561340D02*
D03*
X372110Y640080D02*
D03*
X259080Y577850D02*
D03*
X640080Y568960D02*
D03*
X588010Y791210D02*
D03*
X453390Y908050D02*
D03*
X450850Y650240D02*
D03*
X492760Y764540D02*
D03*
X452120Y725170D02*
D03*
X660400Y692150D02*
D03*
X474980Y849630D02*
D03*
X610870Y678180D02*
D03*
X467360Y829310D02*
D03*
X474980Y868680D02*
D03*
X238760Y869950D02*
D03*
X199390Y725170D02*
D03*
Y704850D02*
D03*
M02*
