M48
;Layer_Color=9474304
;FILE_FORMAT=4:4
METRIC,LZ
;TYPE=PLATED
T01F00S00C0.3500
T02F00S00C0.7000
T03F00S00C0.7112
T04F00S00C1.0000
T05F00S00C1.0200
T06F00S00C1.1900
T07F00S00C1.3000
T08F00S00C3.0000
;TYPE=NON_PLATED
T09F00S00C1.3000
%
T01
X0013712Y0011204
X0015712
X0016712Y0013204
X0018712
X0014712Y0009204
X0040712Y0013204
X0042712
X0044712
X0046712
X0048712
X0052712
X0058712
X0059712Y0011204
X0057712
X0058712Y0009204
X0060712
X0056712
X0054712
X00657121Y0011204
X00667121Y0013204
X00717121Y0011204
X00707121Y0009204
X00697121Y0015204
X00657121
X0063712
X0064712Y0017204
X00667121
X0062712
X0060712
X0058712
Y0021204
X0060712
X0064712
Y0025204
X00687121
X00707121
X00697121Y0027204
Y0023204
X00757121Y0019204
X00747121Y0017204
X00757121Y0031204
X00707121Y0033204
X00687121
Y0037204
X00707121
X00727121
X00717121Y0039204
Y0043204
X00667121Y0037204
X0054712
Y0021204
X0060712Y0025204
X0052712Y0021204
Y0017204
X0048712Y0025204
X0053712Y0035204
X0052712Y0037204
X0049712Y0043204
X0044712Y0041204
X0039712Y0039204
X0035712
Y0043204
X0037712
X0033712
X0031712
X0029712
X0027712
X0025712
X0023712
X0021712
X0019712
X0017712
X0015712
X0016712Y0041204
X0018712
X0017712Y0039204
X0015712
X0016712Y0037204
X0018712
Y0033204
X0020712
X0021712Y0031204
X0019712
X0017712
X0015712
X0016712Y0033204
Y0029204
X0018712
X0020712
X0019712Y0027204
X0017712
X0015712
X0016712Y0025204
X0018712
X0014712
Y0021204
X0016712Y0017204
X0018712
X0017712Y0015204
X0015712
X0027712Y0023204
X0026712Y0029204
X0024712
X0025712Y0035204
X0027712
X0024712Y0037204
X0033712Y0035204
X0035712
X0041712
X0014712Y0041204
X0013712Y0043204
Y0039204
X0010712Y0037204
X0008712
X0009712Y0035204
X0011712
X0012712Y0033204
X0010712
X0008712
Y0025204
X0009712Y0023204
X0011712
X0013712
X0012712Y0025204
Y0021204
X0010712
X0008712
X0013712Y0019204
X0014077Y0057337
X0013077Y0059337
Y0067337
X0014077Y0069337
X0012077
X0010077
X0008077
X0009077Y0071337
X0011077
X0013077
X0014077Y0073337
X0012077
X0008077
Y0081337
X0010077
X0012077
X0011077Y0083337
X0009077
X0010077Y0085337
X0008077
X0013077Y0087337
X0014077Y0089337
X0013077Y0091337
X0015077
X0017077
X0019077
X0021077
X0023077
X0025077
X0027077
X0029077
X0031077
X0033077
X0035077
X0037077
X0036077Y0089337
X0034077
X0032077
X0030077
X0028077
X0026077
X0024077
X0022077
X0020077
X0018077
X0016077
X0017077Y0087337
X0019077
X0021077
X0018077Y0085337
X0016077
X0015077Y0087337
X0016077Y0081337
X0018077
X0020077
X0021077Y0079337
X0019077
X0017077
X0015077
X0016077Y0077337
X0018077
X0020077
X0017077Y0075337
X0015077
X0016077Y0073337
Y0065337
X0018077
X0019077Y0063337
X0017077
X0015077
X0016077Y0061337
X0018077
X0015077Y0059337
X0023077Y0063337
X0030077Y0069337
X0032077
X0034077
X0031077Y0079337
X0039077Y0087337
X0040077Y0089337
X0044077
X0052077Y0085337
X0053077Y0083337
X0052077Y0069337
Y0065337
Y0061337
X0048077
X0046077
X0044077
X0042077
X0040077
X0048077Y0073337
X0054077Y0069337
X0058077
X0060077
X0064077
Y0073337
X0068077
X0070077
X0069077Y0075337
Y0079337
X0067077
X0068077Y0081337
X0070077
X0072077
Y0085337
X0074077
X0070077
X0068077
X0066077
X0071077Y0087337
Y0091337
X0060077Y0089337
X0054077Y0085337
X0060077Y0073337
Y0065337
X0062077
X0064077
X0066077
X0065077Y0063337
X0063077
X0066077Y0061337
X0065077Y0059337
X0071077
X0070077Y0057337
X0069077Y0063337
X0074077Y0065337
X0075077Y0067337
X0069077Y0071337
X0075077Y0079337
X0058077Y0065337
Y0061337
X0059077Y0059337
X0057077
X0058077Y0057337
X0060077
X0056077
X0054077
T02
X0055245Y00127
Y001758
X003429Y0032485
Y0037365
X005461Y0060833
Y0065713
T03
X0026543Y0009652
X0064643Y0008763
X0061722Y0019685
X0066675Y0021082
X0074168Y0029083
X0059436Y0030988
X0049911Y0028321
X0045847Y0024384
X004572Y0016891
X0038862Y0016383
X0035687Y0017399
X0033782Y0017272
X0032385Y0015113
X0031115Y0016002
X0029972Y0017272
X0026162
X0020574Y0022352
Y0024384
X0029972Y002794
X003429Y0027559
X0035941Y0027686
X0029464Y0034544
X0029591Y0036576
X0048133Y003683
Y0038735
X0047625Y004064
X0045974Y0042672
X0047371Y0034798
X0036195Y0056134
X0037211Y0064008
X0045085Y0065024
X0045212Y0072517
X0049276Y0076454
X0046736Y0082931
X0047498Y0084963
Y0086868
X0047117Y0090932
X0045339Y0090805
X00358206Y00777916
X0034544Y0078359
X0029591Y0076962
X0027559Y0077343
Y0079248
X0023876Y0086995
X0019939Y0072517
Y0070485
X00254Y0064008
X0027178Y0063754
X0026035Y0061595
X0025908Y0057785
X0064008Y0056896
X0061087Y0067818
X006604Y0069215
X0073533Y0077216
X0058801Y0079121
T04
X0061595Y00127
X0064095
X0074185Y0033167
Y0035667
X0014334Y0034437
Y0036937
X0013699Y008257
Y008507
X0074041Y0083653
Y0081153
X006346Y0060833
X006096
T05
X002921Y0009906
X003175
X003429
Y0012446
X003175
X002921
X0062992Y0040005
Y0042545
X0065532
X0068072
Y0040005
X0065532
X0033655Y0058039
X0031115
X0028575
Y0060579
X0031115
X0033655
X006223Y0087884
Y0090424
X006477
X006731
Y0087884
X006477
T06
X0020447Y0040767
X0022987
T07
X0072644Y0014351
Y0017851
Y0022789
Y0026289
X0072009Y0062484
Y0065984
Y0070922
Y0074422
T08
X0010287Y0009525
X0074168Y0009652
X0074295Y0041656
X0010287
X0009652Y0057658
Y0089789
X007366
X0073533Y0057785
T09
X0010795Y0019265
Y0024765
X001016Y0067398
Y0072898
M30
