G04*
G04 #@! TF.GenerationSoftware,Altium Limited,Altium Designer,23.10.1 (27)*
G04*
G04 Layer_Color=8388736*
%FSLAX44Y44*%
%MOMM*%
G71*
G04*
G04 #@! TF.SameCoordinates,3B84DC82-68C0-41DF-859C-FDBE0299760B*
G04*
G04*
G04 #@! TF.FilePolarity,Negative*
G04*
G01*
G75*
%ADD10R,1.5000X1.5000*%
%ADD11R,1.2557X1.7582*%
%ADD12R,1.5057X1.8582*%
%ADD14R,1.5000X1.5000*%
%ADD15R,1.8582X1.5057*%
%ADD18R,1.7582X1.2557*%
%ADD19R,1.5500X1.3000*%
%ADD22R,1.6000X2.8000*%
%ADD25C,1.5700*%
%ADD26R,1.5700X1.5700*%
%ADD33R,1.5500X1.5500*%
%ADD34C,1.5500*%
%ADD35R,1.5500X1.5500*%
G04:AMPARAMS|DCode=45|XSize=1.46mm|YSize=0.77mm|CornerRadius=0.1525mm|HoleSize=0mm|Usage=FLASHONLY|Rotation=90.000|XOffset=0mm|YOffset=0mm|HoleType=Round|Shape=RoundedRectangle|*
%AMROUNDEDRECTD45*
21,1,1.4600,0.4650,0,0,90.0*
21,1,1.1550,0.7700,0,0,90.0*
1,1,0.3050,0.2325,0.5775*
1,1,0.3050,0.2325,-0.5775*
1,1,0.3050,-0.2325,-0.5775*
1,1,0.3050,-0.2325,0.5775*
%
%ADD45ROUNDEDRECTD45*%
%ADD46R,3.1500X0.8500*%
%ADD47R,6.1900X3.5500*%
%ADD48O,0.7500X2.1000*%
%ADD49O,2.1000X0.7500*%
%ADD50O,0.6000X2.0000*%
%ADD51R,1.8500X1.8500*%
%ADD52C,1.8500*%
%ADD53C,1.3500*%
%ADD54C,1.4500*%
%ADD55C,2.1000*%
G04:AMPARAMS|DCode=56|XSize=2.1mm|YSize=2.1mm|CornerRadius=0.5625mm|HoleSize=0mm|Usage=FLASHONLY|Rotation=90.000|XOffset=0mm|YOffset=0mm|HoleType=Round|Shape=RoundedRectangle|*
%AMROUNDEDRECTD56*
21,1,2.1000,0.9750,0,0,90.0*
21,1,0.9750,2.1000,0,0,90.0*
1,1,1.1250,0.4875,0.4875*
1,1,1.1250,0.4875,-0.4875*
1,1,1.1250,-0.4875,-0.4875*
1,1,1.1250,-0.4875,0.4875*
%
%ADD56ROUNDEDRECTD56*%
%ADD57R,1.3500X1.3500*%
%ADD58C,4.1500*%
%ADD59C,0.7000*%
%ADD60C,1.4200*%
D10*
X660400Y345440D02*
D03*
X625400D02*
D03*
X654050Y825500D02*
D03*
X619050D02*
D03*
X294360Y808990D02*
D03*
X259360D02*
D03*
X294360Y862330D02*
D03*
X259360D02*
D03*
D11*
X624798Y317500D02*
D03*
X652822D02*
D03*
X229955Y355600D02*
D03*
X201930D02*
D03*
X520658Y278130D02*
D03*
X548682D02*
D03*
X506772Y170180D02*
D03*
X478748D02*
D03*
X505545Y227330D02*
D03*
X477520D02*
D03*
X459782Y328930D02*
D03*
X431758D02*
D03*
X459782Y381000D02*
D03*
X431758D02*
D03*
X624755Y797560D02*
D03*
X652780D02*
D03*
X514308Y759460D02*
D03*
X542332D02*
D03*
X223605Y836930D02*
D03*
X195580D02*
D03*
X500422Y651510D02*
D03*
X472398D02*
D03*
X499195Y708660D02*
D03*
X471170D02*
D03*
X453432Y810260D02*
D03*
X425408D02*
D03*
X453432Y862330D02*
D03*
X425408D02*
D03*
X351832Y808990D02*
D03*
X323808D02*
D03*
X351832Y862330D02*
D03*
X323808D02*
D03*
D12*
X263368Y389890D02*
D03*
X292892D02*
D03*
X262098Y321310D02*
D03*
X291622D02*
D03*
X174468Y97790D02*
D03*
X203992D02*
D03*
X393385Y111760D02*
D03*
X422910D02*
D03*
X387828Y294640D02*
D03*
X417352D02*
D03*
X472918Y113030D02*
D03*
X502442D02*
D03*
X168118Y579120D02*
D03*
X197642D02*
D03*
X387035Y593090D02*
D03*
X416560D02*
D03*
X381478Y775970D02*
D03*
X411002D02*
D03*
X466568Y594360D02*
D03*
X496092D02*
D03*
D14*
X232410Y206730D02*
D03*
Y171730D02*
D03*
X226060Y688060D02*
D03*
Y653060D02*
D03*
D15*
X240030Y94458D02*
D03*
Y123982D02*
D03*
X400050Y335758D02*
D03*
Y365282D02*
D03*
X233680Y575788D02*
D03*
Y605312D02*
D03*
X393700Y817088D02*
D03*
Y846612D02*
D03*
D18*
X232410Y242528D02*
D03*
Y270552D02*
D03*
X226060Y723858D02*
D03*
Y751882D02*
D03*
D19*
X667130Y237850D02*
D03*
X587630D02*
D03*
X667130Y282850D02*
D03*
X587630D02*
D03*
X660780Y719180D02*
D03*
X581280D02*
D03*
X660780Y764180D02*
D03*
X581280D02*
D03*
D22*
X411480Y239940D02*
D03*
Y196940D02*
D03*
X405130Y721270D02*
D03*
Y678270D02*
D03*
D25*
X680720Y425450D02*
D03*
X655320D02*
D03*
X629920D02*
D03*
X680720Y400050D02*
D03*
X655320D02*
D03*
X292100Y99060D02*
D03*
X317500D02*
D03*
X342900D02*
D03*
X292100Y124460D02*
D03*
X317500D02*
D03*
X673100Y904240D02*
D03*
X647700D02*
D03*
X622300D02*
D03*
X673100Y878840D02*
D03*
X647700D02*
D03*
X285750Y580390D02*
D03*
X311150D02*
D03*
X336550D02*
D03*
X285750Y605790D02*
D03*
X311150D02*
D03*
D26*
X629920Y400050D02*
D03*
X342900Y124460D02*
D03*
X622300Y878840D02*
D03*
X336550Y605790D02*
D03*
D33*
X741850Y356670D02*
D03*
X143340Y344370D02*
D03*
X740410Y836530D02*
D03*
X136990Y825700D02*
D03*
D34*
X741850Y331670D02*
D03*
X615950Y127000D02*
D03*
X143340Y369370D02*
D03*
X740410Y811530D02*
D03*
X609600Y608330D02*
D03*
X136990Y850700D02*
D03*
D35*
X640950Y127000D02*
D03*
X634600Y608330D02*
D03*
D45*
X274320Y197290D02*
D03*
X299720Y252290D02*
D03*
X261620Y197290D02*
D03*
X287020D02*
D03*
X299720D02*
D03*
X287020Y252290D02*
D03*
X312420D02*
D03*
X325120D02*
D03*
Y197290D02*
D03*
X350520Y252290D02*
D03*
X312420Y197290D02*
D03*
X337820D02*
D03*
Y252290D02*
D03*
X350520Y197290D02*
D03*
X274320Y252290D02*
D03*
X261620D02*
D03*
D46*
X177950Y226400D02*
D03*
Y213900D02*
D03*
Y238900D02*
D03*
Y201400D02*
D03*
X171600Y707730D02*
D03*
Y695230D02*
D03*
Y720230D02*
D03*
Y682730D02*
D03*
D47*
X113950Y152150D02*
D03*
Y288150D02*
D03*
X107600Y633480D02*
D03*
Y769480D02*
D03*
D48*
X518100Y315640D02*
D03*
X526100D02*
D03*
X534100D02*
D03*
X542100D02*
D03*
X550100D02*
D03*
X558100D02*
D03*
X566100D02*
D03*
X574100D02*
D03*
Y400640D02*
D03*
X566100D02*
D03*
X558100D02*
D03*
X550100D02*
D03*
X542100D02*
D03*
X534100D02*
D03*
X526100D02*
D03*
X518100D02*
D03*
X511750Y796970D02*
D03*
X519750D02*
D03*
X527750D02*
D03*
X535750D02*
D03*
X543750D02*
D03*
X551750D02*
D03*
X559750D02*
D03*
X567750D02*
D03*
Y881970D02*
D03*
X559750D02*
D03*
X551750D02*
D03*
X543750D02*
D03*
X535750D02*
D03*
X527750D02*
D03*
X519750D02*
D03*
X511750D02*
D03*
D49*
X588600Y330140D02*
D03*
Y338140D02*
D03*
Y346140D02*
D03*
Y354140D02*
D03*
Y362140D02*
D03*
Y370140D02*
D03*
Y378140D02*
D03*
Y386140D02*
D03*
X503600D02*
D03*
Y378140D02*
D03*
Y370140D02*
D03*
Y362140D02*
D03*
Y354140D02*
D03*
Y346140D02*
D03*
Y338140D02*
D03*
Y330140D02*
D03*
X582250Y811470D02*
D03*
Y819470D02*
D03*
Y827470D02*
D03*
Y835470D02*
D03*
Y843470D02*
D03*
Y851470D02*
D03*
Y859470D02*
D03*
Y867470D02*
D03*
X497250D02*
D03*
Y859470D02*
D03*
Y851470D02*
D03*
Y843470D02*
D03*
Y835470D02*
D03*
Y827470D02*
D03*
Y819470D02*
D03*
Y811470D02*
D03*
D50*
X341970Y743370D02*
D03*
X335470D02*
D03*
X328970D02*
D03*
X322470D02*
D03*
X315970D02*
D03*
X309470D02*
D03*
X302970D02*
D03*
X296470D02*
D03*
X289970D02*
D03*
X283470D02*
D03*
X276970D02*
D03*
X270470D02*
D03*
X263970D02*
D03*
X257470D02*
D03*
X341970Y668870D02*
D03*
X335470D02*
D03*
X328970D02*
D03*
X322470D02*
D03*
X315970D02*
D03*
X309470D02*
D03*
X302970D02*
D03*
X296470D02*
D03*
X289970D02*
D03*
X283470D02*
D03*
X276970D02*
D03*
X270470D02*
D03*
X263970D02*
D03*
X257470D02*
D03*
D51*
X229870Y407670D02*
D03*
D52*
X204470D02*
D03*
D53*
X342900Y373650D02*
D03*
Y324850D02*
D03*
X552450Y175800D02*
D03*
X546100Y657130D02*
D03*
D54*
X107950Y247650D02*
D03*
Y192650D02*
D03*
X101600Y728980D02*
D03*
Y673980D02*
D03*
D55*
X726440Y262890D02*
D03*
Y178510D02*
D03*
X720090Y744220D02*
D03*
Y659840D02*
D03*
D56*
X726440Y227890D02*
D03*
Y143510D02*
D03*
X720090Y709220D02*
D03*
Y624840D02*
D03*
D57*
X552450Y127000D02*
D03*
X546100Y608330D02*
D03*
D58*
X102870Y95250D02*
D03*
Y416560D02*
D03*
X741680Y96520D02*
D03*
X742950Y416560D02*
D03*
X96520Y576580D02*
D03*
Y897890D02*
D03*
X735330Y577850D02*
D03*
X736600Y897890D02*
D03*
D59*
X757121Y312040D02*
D03*
Y192040D02*
D03*
X747121Y172040D02*
D03*
X717121Y432040D02*
D03*
Y392040D02*
D03*
X727121Y372040D02*
D03*
X717121Y112040D02*
D03*
X707121Y372040D02*
D03*
Y332040D02*
D03*
X697121Y272040D02*
D03*
X707121Y252040D02*
D03*
X697121Y232040D02*
D03*
Y152040D02*
D03*
X707121Y92040D02*
D03*
X687121Y372040D02*
D03*
Y332040D02*
D03*
Y252040D02*
D03*
X667121Y372040D02*
D03*
Y172040D02*
D03*
X657121Y152040D02*
D03*
X667121Y132040D02*
D03*
X657121Y112040D02*
D03*
X647120Y252040D02*
D03*
Y212040D02*
D03*
Y172040D02*
D03*
X637120Y152040D02*
D03*
X627120Y172040D02*
D03*
X607120Y252040D02*
D03*
Y212040D02*
D03*
Y172040D02*
D03*
X597120Y112040D02*
D03*
X607120Y92040D02*
D03*
X587120Y212040D02*
D03*
Y172040D02*
D03*
Y132040D02*
D03*
X577120Y112040D02*
D03*
X587120Y92040D02*
D03*
X567120D02*
D03*
X547120Y372040D02*
D03*
X537120Y352040D02*
D03*
X547120Y212040D02*
D03*
Y92040D02*
D03*
X527120Y372040D02*
D03*
Y212040D02*
D03*
Y172040D02*
D03*
Y132040D02*
D03*
X497120Y432040D02*
D03*
X487120Y252040D02*
D03*
Y132040D02*
D03*
X467120D02*
D03*
X447120Y412040D02*
D03*
Y132040D02*
D03*
X417120Y352040D02*
D03*
X427120Y132040D02*
D03*
X397120Y392040D02*
D03*
X407120Y132040D02*
D03*
X377120Y432040D02*
D03*
X357120D02*
D03*
Y392040D02*
D03*
Y352040D02*
D03*
X337120Y432040D02*
D03*
Y352040D02*
D03*
X317120Y432040D02*
D03*
X297120D02*
D03*
X277120D02*
D03*
Y352040D02*
D03*
Y232040D02*
D03*
X257120Y432040D02*
D03*
Y352040D02*
D03*
X267120Y292040D02*
D03*
X237120Y432040D02*
D03*
X247120Y372040D02*
D03*
Y292040D02*
D03*
X217120Y432040D02*
D03*
Y312040D02*
D03*
X197120Y432040D02*
D03*
X207120Y332040D02*
D03*
X197120Y312040D02*
D03*
X207120Y292040D02*
D03*
X197120Y272040D02*
D03*
X177120Y432040D02*
D03*
X187120Y412040D02*
D03*
X177120Y392040D02*
D03*
X187120Y372040D02*
D03*
Y332040D02*
D03*
X177120Y312040D02*
D03*
X187120Y292040D02*
D03*
X177120Y272040D02*
D03*
X187120Y252040D02*
D03*
Y172040D02*
D03*
X177120Y152040D02*
D03*
X187120Y132040D02*
D03*
X157120Y432040D02*
D03*
X167120Y412040D02*
D03*
X157120Y392040D02*
D03*
X167120Y372040D02*
D03*
Y332040D02*
D03*
X157120Y312040D02*
D03*
X167120Y292040D02*
D03*
X157120Y272040D02*
D03*
X167120Y252040D02*
D03*
Y172040D02*
D03*
X157120Y152040D02*
D03*
X167120Y132040D02*
D03*
X157120Y112040D02*
D03*
X137120Y432040D02*
D03*
X147120Y412040D02*
D03*
X137120Y392040D02*
D03*
X147120Y252040D02*
D03*
X137120Y232040D02*
D03*
X147120Y212040D02*
D03*
X137120Y192040D02*
D03*
Y112040D02*
D03*
X147120Y92040D02*
D03*
X117120Y352040D02*
D03*
X127120Y332040D02*
D03*
Y252040D02*
D03*
X117120Y232040D02*
D03*
X127120Y212040D02*
D03*
X107120Y372040D02*
D03*
X97120Y352040D02*
D03*
X107120Y332040D02*
D03*
X97120Y232040D02*
D03*
X107120Y212040D02*
D03*
X87120Y372040D02*
D03*
Y332040D02*
D03*
Y252040D02*
D03*
Y212040D02*
D03*
X750770Y793370D02*
D03*
Y673370D02*
D03*
X740770Y853370D02*
D03*
Y653370D02*
D03*
X710770Y913370D02*
D03*
Y873370D02*
D03*
X720770Y853370D02*
D03*
Y813370D02*
D03*
X710770Y593370D02*
D03*
X700770Y853370D02*
D03*
Y813370D02*
D03*
X690770Y793370D02*
D03*
Y753370D02*
D03*
X700770Y733370D02*
D03*
X690770Y713370D02*
D03*
Y633370D02*
D03*
X700770Y573370D02*
D03*
X680770Y853370D02*
D03*
Y813370D02*
D03*
X670770Y793370D02*
D03*
X680770Y733370D02*
D03*
X660770Y853370D02*
D03*
Y653370D02*
D03*
X650770Y633370D02*
D03*
X660770Y613370D02*
D03*
X650770Y593370D02*
D03*
X640770Y733370D02*
D03*
Y693370D02*
D03*
Y653370D02*
D03*
X630770Y633370D02*
D03*
X620770Y653370D02*
D03*
X600770Y893370D02*
D03*
Y733370D02*
D03*
Y693370D02*
D03*
Y653370D02*
D03*
X590770Y593370D02*
D03*
X600770Y573370D02*
D03*
X580770Y693370D02*
D03*
Y653370D02*
D03*
Y613370D02*
D03*
X570770Y593370D02*
D03*
X580770Y573370D02*
D03*
X560770D02*
D03*
X540770Y853370D02*
D03*
X530770Y833370D02*
D03*
X540770Y693370D02*
D03*
Y573370D02*
D03*
X520770Y853370D02*
D03*
Y693370D02*
D03*
Y653370D02*
D03*
Y613370D02*
D03*
X480770Y733370D02*
D03*
Y613370D02*
D03*
X460770D02*
D03*
X440770Y893370D02*
D03*
Y613370D02*
D03*
X420770D02*
D03*
X400770Y893370D02*
D03*
X390770Y873370D02*
D03*
X400770Y613370D02*
D03*
X370770Y913370D02*
D03*
X350770D02*
D03*
X360770Y893370D02*
D03*
X330770Y913370D02*
D03*
X340770Y893370D02*
D03*
Y693370D02*
D03*
X310770Y913370D02*
D03*
X320770Y893370D02*
D03*
X310770Y793370D02*
D03*
X320770Y693370D02*
D03*
X290770Y913370D02*
D03*
X300770Y893370D02*
D03*
Y693370D02*
D03*
X270770Y913370D02*
D03*
X280770Y893370D02*
D03*
X250770Y913370D02*
D03*
X260770Y893370D02*
D03*
X230770Y913370D02*
D03*
X240770Y893370D02*
D03*
X230770Y633370D02*
D03*
X210770Y913370D02*
D03*
X220770Y893370D02*
D03*
X210770Y873370D02*
D03*
Y793370D02*
D03*
X190770Y913370D02*
D03*
X200770Y893370D02*
D03*
X190770Y873370D02*
D03*
X200770Y813370D02*
D03*
X190770Y793370D02*
D03*
X200770Y773370D02*
D03*
X190770Y633370D02*
D03*
X170770Y913370D02*
D03*
X180770Y893370D02*
D03*
X170770Y873370D02*
D03*
X180770Y853370D02*
D03*
Y813370D02*
D03*
X170770Y793370D02*
D03*
X180770Y773370D02*
D03*
X170770Y753370D02*
D03*
X180770Y653370D02*
D03*
X170770Y633370D02*
D03*
X180770Y613370D02*
D03*
X150770Y913370D02*
D03*
X160770Y893370D02*
D03*
X150770Y873370D02*
D03*
X160770Y853370D02*
D03*
Y813370D02*
D03*
X150770Y793370D02*
D03*
X160770Y773370D02*
D03*
X150770Y753370D02*
D03*
X160770Y733370D02*
D03*
Y653370D02*
D03*
X150770Y633370D02*
D03*
X160770Y613370D02*
D03*
X150770Y593370D02*
D03*
X130770Y913370D02*
D03*
X140770Y893370D02*
D03*
X130770Y873370D02*
D03*
X140770Y733370D02*
D03*
X130770Y713370D02*
D03*
X140770Y693370D02*
D03*
X130770Y673370D02*
D03*
Y593370D02*
D03*
X140770Y573370D02*
D03*
X110770Y833370D02*
D03*
X120770Y813370D02*
D03*
Y733370D02*
D03*
X110770Y713370D02*
D03*
X120770Y693370D02*
D03*
X100770Y853370D02*
D03*
X90770Y833370D02*
D03*
X100770Y813370D02*
D03*
X90770Y713370D02*
D03*
X100770Y693370D02*
D03*
X80770Y853370D02*
D03*
Y813370D02*
D03*
Y733370D02*
D03*
Y693370D02*
D03*
D60*
X481330Y368300D02*
D03*
Y387350D02*
D03*
X476250Y406400D02*
D03*
X342900Y275590D02*
D03*
X388620Y163830D02*
D03*
X356870Y173990D02*
D03*
X295910Y365760D02*
D03*
X294640Y345440D02*
D03*
X337820Y172720D02*
D03*
X311150Y160020D02*
D03*
X323850Y151130D02*
D03*
X359410Y276860D02*
D03*
X299720Y172720D02*
D03*
X261620D02*
D03*
X299720Y279400D02*
D03*
X265430Y96520D02*
D03*
X741680Y290830D02*
D03*
X646430Y87630D02*
D03*
X594360Y309880D02*
D03*
X459740Y426720D02*
D03*
X457200Y168910D02*
D03*
X499110Y283210D02*
D03*
X458470Y243840D02*
D03*
X666750Y210820D02*
D03*
X617220Y196850D02*
D03*
X473710Y347980D02*
D03*
X205740Y243840D02*
D03*
Y223520D02*
D03*
X471170Y909320D02*
D03*
X735330Y772160D02*
D03*
X275590Y773430D02*
D03*
X295910Y769620D02*
D03*
X358206Y777916D02*
D03*
X345440Y783590D02*
D03*
X275590Y792480D02*
D03*
X271780Y637540D02*
D03*
X254000Y640080D02*
D03*
X260350Y615950D02*
D03*
X361950Y561340D02*
D03*
X372110Y640080D02*
D03*
X259080Y577850D02*
D03*
X640080Y568960D02*
D03*
X588010Y791210D02*
D03*
X453390Y908050D02*
D03*
X450850Y650240D02*
D03*
X492760Y764540D02*
D03*
X452120Y725170D02*
D03*
X660400Y692150D02*
D03*
X474980Y849630D02*
D03*
X610870Y678180D02*
D03*
X467360Y829310D02*
D03*
X474980Y868680D02*
D03*
X238760Y869950D02*
D03*
X199390Y725170D02*
D03*
Y704850D02*
D03*
M02*
